<?xml version="1.0" encoding="UTF-8" standalone="no"?>
<svg
   xmlns:dc="http://purl.org/dc/elements/1.1/"
   xmlns:cc="http://creativecommons.org/ns#"
   xmlns:rdf="http://www.w3.org/1999/02/22-rdf-syntax-ns#"
   xmlns:svg="http://www.w3.org/2000/svg"
   xmlns="http://www.w3.org/2000/svg"
   xmlns:sodipodi="http://sodipodi.sourceforge.net/DTD/sodipodi-0.dtd"
   xmlns:inkscape="http://www.inkscape.org/namespaces/inkscape"
   width="512px"
   height="164px"
   viewBox="0 0 512 168"
   version="1.1"
   preserveAspectRatio="xMidYMid"
   id="svg16"
   sodipodi:docname="sucuri.svg"
   inkscape:version="0.92.5 (2060ec1f9f, 2020-04-08)"
   inkscape:export-filename="/home/clem/Sandbox/artwork/website-wizixo/wizixo/template/img/sponsors/01.png"
   inkscape:export-xdpi="46.243904"
   inkscape:export-ydpi="46.243904">
  <metadata
     id="metadata22">
    <rdf:RDF>
      <cc:Work
         rdf:about="">
        <dc:format>image/svg+xml</dc:format>
        <dc:type
           rdf:resource="http://purl.org/dc/dcmitype/StillImage" />
        <dc:title />
      </cc:Work>
    </rdf:RDF>
  </metadata>
  <defs
     id="defs20" />
  <sodipodi:namedview
     pagecolor="#ffffff"
     bordercolor="#666666"
     borderopacity="1"
     objecttolerance="10"
     gridtolerance="10"
     guidetolerance="10"
     inkscape:pageopacity="0"
     inkscape:pageshadow="2"
     inkscape:window-width="2560"
     inkscape:window-height="1355"
     id="namedview18"
     showgrid="false"
     inkscape:zoom="0.72460938"
     inkscape:cx="-625.85444"
     inkscape:cy="-28.404313"
     inkscape:window-x="0"
     inkscape:window-y="0"
     inkscape:window-maximized="1"
     inkscape:current-layer="svg16" />
  <g
     transform="matrix(0.27087942,0,0,0.27087942,52.853979,31.67964)"
     id="g828"
     style="fill:#d5d5d5;fill-opacity:1">
    <path
       inkscape:connector-curvature="0"
       id="path4"
       d="M 1488.2,107.4 V 29.9 H 1384 v 82.7 c 34.7,-2.3 69.4,-4 104.2,-5.2 z"
       class="st0"
       style="fill:#d5d5d5;fill-opacity:1" />
    <path
       inkscape:connector-curvature="0"
       id="path6"
       d="M 854.7,190.4 V 29.9 H 958.9 V 168 c -34.7,6.9 -69.5,14.3 -104.2,22.4 z m 294,-53.5 v -107 h -109.6 v 122.8 c 40.1,-5.8 74.8,-11.1 109.6,-15.8 z M 1282.3,121 v -16.8 c 8,-3.7 22.3,-5.6 35.4,-5.6 13.7,0 28.3,2.5 38.3,6.2 l 18.8,-83.7 c -11.9,-1.9 -29.7,-3.8 -49.7,-3.8 -59.3,0 -109.7,10 -147.1,24.4 v 90.8 c 37.5,-4.3 69.6,-8.2 104.3,-11.5 z M 680.2,238.5 c 9.8,-3 19.7,-6 29.5,-8.9 -3.1,-11.2 -4.8,-23.9 -4.8,-38 0,-56.8 25,-90.5 63.7,-90.5 17.5,0 31.8,3.7 44.3,12.5 L 844.7,40.5 C 817.8,24.3 789.1,17.4 752.3,17.4 c -82.4,0 -154.2,57.4 -154.2,175.5 0,25.9 3.5,48.9 9.7,69.1 24.1,-8.2 48.2,-16 72.4,-23.5 z M 171.7,157.9 c -19.4,-6.9 -45.6,-15.6 -45.6,-38.1 0,-16.2 14.4,-27.5 38.7,-27.5 23.1,0 46.2,7.5 64.9,18.7 L 260.3,41.7 C 228.5,25.5 190.4,17.3 151,17.3 c -82.4,0 -130.5,40 -130.5,103 0,68.7 58.1,89.3 98,103.7 24.4,8.7 43.1,16.9 43.1,36.2 0,16.9 -15,28.1 -38.7,28.1 -23.7,0 -56.2,-8.7 -78.7,-21.2 l -32.5,77.4 c 34.5,16.4 71.9,24.5 114.4,24.5 95.5,0 143,-41.8 143,-108 0,-68.7 -56.2,-88.1 -97.4,-103.1 z M 574,272.7 V 29.9 H 469.7 v 250.4 c -8,3.1 -19.2,5 -36,5 -30,0 -44.2,-13.1 -44.2,-41.8 V 29.9 H 285.3 V 241 c 0,65.7 25.7,103.2 77.2,119 69.2,-32.9 136.6,-61.8 211.5,-87.3 z"
       class="st1"
       style="fill:#d5d5d5;fill-opacity:1" />
    <path
       inkscape:connector-curvature="0"
       id="path8"
       d="M 1282.3,144.6 V 364 H 1178.1 V 162.9 c 37.4,-6.6 69.5,-12.7 104.2,-18.3 z m 101.6,-12.9 V 364 h 104.2 V 119.9 c -34.7,3.4 -69.4,7.4 -104.2,11.8 z m -344.8,60.5 v 86 c 0,3.1 -19.2,5 -36,5 -30,0 -44.2,-13.1 -44.2,-41.8 v -28.2 c -34.7,9.3 -67.5,19.1 -101.7,29.6 1.4,88.3 52.5,124.1 149.8,124.1 54.3,0 106.9,-9.4 141.7,-24.4 V 169.4 c -34.8,7 -69.5,14.6 -109.6,22.8 z m -270.5,88.5 c -5.8,0 -11.4,-0.9 -16.8,-2.6 -17.1,6 -34.1,12.2 -51.1,18.6 -19.9,7.5 -39.7,15.3 -59.3,23.3 28.5,31.4 68.3,46.9 110.9,46.9 36.8,0 65.6,-6.9 92.4,-23.1 L 813,268.2 c -12.5,8.8 -26.9,12.5 -44.4,12.5 z"
       class="st2"
       style="fill:#d5d5d5;fill-opacity:1" />
  </g>
</svg>
