<svg xmlns="http://www.w3.org/2000/svg" xmlns:xlink="http://www.w3.org/1999/xlink" viewBox="0 0 234.96 90.24"><defs><linearGradient id="a" x1="15.6" y1="50.83" x2="15.6" y2="-0.06" gradientUnits="userSpaceOnUse"><stop offset="0" stop-color="#fff"/><stop offset="0.16" stop-color="#ffcd8a"/><stop offset="0.27" stop-color="#ffab3a"/><stop offset="0.33" stop-color="#ff9e1b"/><stop offset="0.52" stop-color="#fff"/><stop offset="0.73" stop-color="#ff9e1b"/><stop offset="1" stop-color="#fff"/></linearGradient><linearGradient id="b" x1="52.38" y1="50.83" x2="52.38" y2="-0.06" xlink:href="#a"/><linearGradient id="c" x1="0.42" y1="26.02" x2="69.76" y2="26.02" xlink:href="#a"/><linearGradient id="d" x1="0.42" y1="26.26" x2="69.76" y2="26.26" xlink:href="#a"/></defs><rect x="3.05" y="1.81" width="64.18" height="64.18" fill="#6ba3b7"/><path d="M146.83,66a25.28,25.28,0,0,1-4.25-.33,28.62,28.62,0,0,1-13.47-6.53c-1.07-.89-2.08-1.85-3.11-2.8l1.36-1.21a38.87,38.87,0,0,0,8.36,6.35,21.62,21.62,0,0,0,10.87,2.84,19.77,19.77,0,0,0,11.57-3.53,11.66,11.66,0,0,0,4.76-9.64,9.7,9.7,0,0,0-3.66-7.72,30.76,30.76,0,0,0-8.73-4.67c-3.47-1.24-6.94-2.59-10.42-4a25.59,25.59,0,0,1-8.72-5.79q-3.52-3.64-3.66-10a15.58,15.58,0,0,1,2.93-9.34,18.09,18.09,0,0,1,7.49-5.82,25.61,25.61,0,0,1,10.08-2,40.6,40.6,0,0,1,8.49.91,35.7,35.7,0,0,1,8.56,3L163.82,7.1a16.84,16.84,0,0,0-6-2.52,45.18,45.18,0,0,0-10.73-1.21,13,13,0,0,0-8.51,3.07,10.66,10.66,0,0,0-3.74,8.2,8.64,8.64,0,0,0,3.61,7.09A32.2,32.2,0,0,0,147,26q5.12,1.77,10.25,4a24,24,0,0,1,8.6,6.18q3.47,3.95,3.6,10.84a16.42,16.42,0,0,1-3.24,10,19.92,19.92,0,0,1-8.09,6.54A29.74,29.74,0,0,1,146.83,66" fill="#6ba3b7"/><path d="M185.38,45a48.39,48.39,0,0,0,.75,9.12,16.24,16.24,0,0,0,3.35,7.64q2.53,3.09,7.64,3.21c3.39-.09,5.91-1.18,7.56-3.29a16.76,16.76,0,0,0,3.23-7.81,52.19,52.19,0,0,0,.67-9.21,44.15,44.15,0,0,0-.72-8.82,14.15,14.15,0,0,0-3.31-7.07c-1.68-1.86-4.21-2.83-7.61-2.9-3.39.08-5.93,1.07-7.59,3a14.8,14.8,0,0,0-3.27,7.23,47.84,47.84,0,0,0-.7,8.91m-10.15-.17a22.61,22.61,0,0,1,2.16-9.35,21,21,0,0,1,7-8.41q4.79-3.49,12.55-3.65,7.76.15,12.53,3.61a20.51,20.51,0,0,1,6.95,8.32,22.48,22.48,0,0,1,2.14,9.31A22.64,22.64,0,0,1,216.42,54a20.77,20.77,0,0,1-6.95,8.37Q204.7,65.8,196.94,66q-7.75-.17-12.55-3.59a20.63,20.63,0,0,1-7-8.29,22.2,22.2,0,0,1-2.16-9.28" fill="#6ba3b7"/><path d="M226.37,29.51a4.26,4.26,0,0,0,2.56,2.15,4.77,4.77,0,0,0,3.42-.21A4.19,4.19,0,0,0,234.56,29a4.39,4.39,0,0,0-.21-3.33,4.28,4.28,0,0,0-2.57-2.15,4.72,4.72,0,0,0-3.42.21,4.19,4.19,0,0,0-2.21,2.5,4.42,4.42,0,0,0,.22,3.32m0,34.08a4.44,4.44,0,0,1-.22-3.33,4.24,4.24,0,0,1,2.21-2.5,4.77,4.77,0,0,1,3.42-.2,4.23,4.23,0,0,1,2.57,2.14,4.39,4.39,0,0,1,.21,3.33,4.17,4.17,0,0,1-2.21,2.49,4.72,4.72,0,0,1-3.42.21,4.25,4.25,0,0,1-2.56-2.14" fill="#333f48"/><path d="M92.61,41.71V66h-9v-62h-7.3V1.81H92.61V32.27c3-5.9,8.07-8.91,15.37-9q6.47,0,9.69,2.81t3.22,9.18V66q-.12,0-2.28,0h-4.33l-2.34,0V35.67a13.48,13.48,0,0,0-1.21-6.43c-.9-1.86-2.84-2.83-5.82-2.93a11,11,0,0,0-6.82,2.23A13.28,13.28,0,0,0,94,34.2a20.21,20.21,0,0,0-1.38,7.51" fill="#333f48"/><polygon points="67.24 65.99 3.05 66.06 3.05 67.94 67.24 67.94 67.24 65.99" fill="#ff9e1b"/><path d="M18.79,21.88a7.65,7.65,0,0,0,1.6-4.36A4.83,4.83,0,0,0,19,14a4.72,4.72,0,0,0-3.55-1.42q-4,0-7.52,5.66L.42,13.79A23.22,23.22,0,0,1,6.88,6.87a15.89,15.89,0,0,1,9-2.35A14.48,14.48,0,0,1,25.41,8a11.66,11.66,0,0,1,4.12,9.41,12.59,12.59,0,0,1-1.66,6.23,40.59,40.59,0,0,1-6.1,7.61L14.19,39.1h16.6v8.42H1.14v-7L13.47,27.92A54.77,54.77,0,0,0,18.79,21.88Z" fill="url(#a)"/><path d="M52.38,48q-8.73,0-13.05-5.93T35,26.26q0-9.89,4.33-15.81T52.38,4.52q8.71,0,13.05,5.93t4.33,15.81q0,9.9-4.33,15.82T52.38,48Zm-6.2-31.88a22.31,22.31,0,0,0-2,10.16,22.33,22.33,0,0,0,2,10.17,6.91,6.91,0,0,0,12.39,0,22.19,22.19,0,0,0,2-10.17,22.17,22.17,0,0,0-2-10.16,6.91,6.91,0,0,0-12.39,0Z" fill="url(#b)"/><path d="M31.09,47.82H.84V40.43l.09-.09L13.26,27.71a53.06,53.06,0,0,0,5.29-6,7.35,7.35,0,0,0,1.54-4.18,4.56,4.56,0,0,0-1.3-3.31,4.39,4.39,0,0,0-3.34-1.33c-2.52,0-5,1.86-7.26,5.52L8,18.64,0,13.88l.17-.26a23.66,23.66,0,0,1,6.55-7,16.17,16.17,0,0,1,9.12-2.4A14.79,14.79,0,0,1,25.6,7.75a12,12,0,0,1,4.23,9.64,12.89,12.89,0,0,1-1.7,6.37A40.63,40.63,0,0,1,22,31.43L14.89,38.8h16.2ZM1.44,47.23H30.49V39.4h-17L21.55,31a40.47,40.47,0,0,0,6.06-7.55,12.39,12.39,0,0,0,1.62-6.08,11.37,11.37,0,0,0-4-9.18,14.16,14.16,0,0,0-9.37-3.39,15.59,15.59,0,0,0-8.79,2.3A22.93,22.93,0,0,0,.84,13.69l7,4.14c2.37-3.68,4.93-5.55,7.61-5.55a5.08,5.08,0,0,1,3.77,1.51,5.15,5.15,0,0,1,1.47,3.73A7.92,7.92,0,0,1,19,22.05a53,53,0,0,1-5.35,6.08L1.44,40.67Z" fill="url(#c)"/><path d="M52.38,48.3c-5.89,0-10.36-2-13.29-6s-4.39-9.36-4.39-16,1.48-12,4.39-16,7.4-6,13.29-6,10.36,2,13.29,6.05,4.39,9.36,4.39,16-1.48,12-4.39,16S58.27,48.3,52.38,48.3Zm0-43.48c-5.69,0-10,1.95-12.81,5.8S35.3,19.76,35.3,26.26,36.73,38,39.57,41.9s7.12,5.81,12.81,5.81,10-2,12.81-5.81,4.27-9.13,4.27-15.64S68,14.5,65.19,10.62,58.06,4.82,52.38,4.82Zm0,35.79a6.85,6.85,0,0,1-6.46-4,22.67,22.67,0,0,1-2-10.31,22.65,22.65,0,0,1,2-10.3h0a7.21,7.21,0,0,1,12.92,0,22.65,22.65,0,0,1,2,10.3,22.67,22.67,0,0,1-2,10.31A6.85,6.85,0,0,1,52.38,40.61ZM46.45,16.27a22.1,22.1,0,0,0-2,10,22.12,22.12,0,0,0,2,10,6.61,6.61,0,0,0,11.86,0,22.12,22.12,0,0,0,1.95-10,22.1,22.1,0,0,0-1.95-10,6.61,6.61,0,0,0-11.86,0Z" fill="url(#d)"/><polygon points="67.24 0 3.05 0.07 3.05 1.95 67.24 1.95 67.24 0" fill="#ff9e1b"/><path d="M3.88,83.23c0-3.26,2.22-7.59,6.22-7.59,1.23,0,1.94.51,2.16,1.16h.16l.26-1h1.63l-.91,3.44H11.77l.18-.73A1.84,1.84,0,0,0,12,78c0-.9-.72-1.36-1.72-1.36-1.69,0-2.8,1.41-3.27,3.17a17.25,17.25,0,0,0-.86,4,1.89,1.89,0,0,0,2,2.12,4,4,0,0,0,3.32-2.09l.68.41a5.63,5.63,0,0,1-4.66,2.84C5.5,87.08,3.88,86,3.88,83.23Z" fill="#333f48"/><path d="M13.56,84.38c0-2.47,1.45-5.95,4.85-5.95,1.33,0,2.46.46,2.46,1.68,0,1.06-.94,2.45-4.87,2.67a9.87,9.87,0,0,0-.25,1.86c0,.88.37,1.28,1.08,1.28,1,0,1.89-.84,2.68-2.26l.61.26c-1.05,2-2.11,3.16-4.07,3.16C14.33,87.08,13.56,86.09,13.56,84.38ZM19.07,80a.72.72,0,0,0-.81-.81c-.94,0-1.45.73-2.09,3C18.35,81.91,19.07,81.09,19.07,80Z" fill="#333f48"/><path d="M21.43,85.9a3.28,3.28,0,0,1,.14-.83l2.32-8.7h-1.4l.22-.84,3.71-.68L23.51,85.79l.3.13,1.64-1.82.55.33-1,1.33a2.6,2.6,0,0,1-2.12,1.32C21.8,87.08,21.43,86.47,21.43,85.9Z" fill="#333f48"/><path d="M26.66,84.38c0-2.47,1.45-5.95,4.86-5.95,1.33,0,2.46.46,2.46,1.68,0,1.06-.95,2.45-4.87,2.67a9.22,9.22,0,0,0-.26,1.86c0,.88.37,1.28,1.08,1.28,1,0,1.89-.84,2.68-2.26l.61.26c-1,2-2.11,3.16-4.06,3.16C27.44,87.08,26.66,86.09,26.66,84.38ZM32.17,80a.72.72,0,0,0-.81-.81c-.94,0-1.45.73-2.09,3C31.45,81.91,32.17,81.09,32.17,80Z" fill="#333f48"/><path d="M36.44,85.52h-.17l-1,1.37H34.23L37,76.37h-1.4l.22-.84,3.71-.68-1.9,6.24.16,0c.71-1.47,1.61-2.69,3.11-2.69,1.33,0,1.87.92,1.87,2.44,0,2.66-1.69,6.21-4.42,6.21A1.79,1.79,0,0,1,36.44,85.52Zm3.71-2.26a10.52,10.52,0,0,0,.46-2.55c0-.6-.12-.95-.56-.95-1.18,0-2.56,2.71-2.93,4.16l-.12.4c-.26,1,0,1.68.79,1.68S39.59,85.14,40.15,83.26Z" fill="#333f48"/><path d="M45.58,80h-1.4l.22-.84,3.46-.68-.74,2.75.18.07c.78-1.85,1.54-2.82,2.83-2.82.95,0,1.49.51,1.49,1.25A1.29,1.29,0,0,1,50.32,81a.92.92,0,0,1-1-.86,1.28,1.28,0,0,1,.37-.84l-.12-.11c-.48.09-1.14,1-1.82,2.25a19.55,19.55,0,0,0-1.43,3.82l-.44,1.63H43.74Z" fill="#333f48"/><path d="M51.47,84.65c0-2.66,1.68-6.22,4.42-6.22A1.78,1.78,0,0,1,57.82,80H58l1-1.36h1l-1.92,7.17.3.13,1.64-1.82.56.33-1,1.33c-.73,1-1.37,1.32-2,1.32-1,0-1.26-.59-1.26-1.14a3.61,3.61,0,0,1,.15-.91l.15-.61-.17,0c-.72,1.49-1.62,2.7-3.12,2.7C52,87.08,51.47,86.16,51.47,84.65Zm5.68-3.07.12-.4c.25-1,0-1.67-.79-1.67s-1.81.85-2.37,2.74a10.88,10.88,0,0,0-.45,2.55c0,.6.12,1,.56,1C55.4,85.75,56.78,83,57.15,81.58Z" fill="#333f48"/><path d="M61.47,85.9a3.28,3.28,0,0,1,.15-.85l1.45-5.51H61.62l.25-.92h.64A1.45,1.45,0,0,0,64,77.84l1-1.44H66l-.59,2.22h2l-.25.92h-2l-1.65,6.18.32.15L66,84.16l.51.4L65,86c-1,.93-1.47,1.11-2.11,1.11C61.84,87.08,61.47,86.49,61.47,85.9Z" fill="#333f48"/><path d="M67.66,85.9a3.27,3.27,0,0,1,.13-.83L69.14,80h-1.4l.22-.84,3.71-.68-1.94,7.36.3.13,1.64-1.82.56.33-1,1.33a2.62,2.62,0,0,1-2.13,1.32C68,87.08,67.66,86.47,67.66,85.9Zm2.24-9.69a1.81,1.81,0,0,1,0-.38,1.35,1.35,0,0,1,1.4-1c.72,0,1.13.41,1.13.9a1.81,1.81,0,0,1,0,.38,1.35,1.35,0,0,1-1.4,1C70.3,77.11,69.9,76.7,69.9,76.21Z" fill="#333f48"/><path d="M77.67,85.9a3.28,3.28,0,0,1,.14-.83l1.33-4.47a1.64,1.64,0,0,0,.07-.41.38.38,0,0,0-.42-.43c-1,0-2.63,2.15-3.38,5l-.57,2.14H72.73L74.57,80h-1.4l.22-.84,3.52-.68-.74,2.77.19,0c.87-1.51,1.75-2.82,3.35-2.82A1.44,1.44,0,0,1,81.33,80a3.9,3.9,0,0,1-.2,1.12l-1.38,4.67.3.13,1.64-1.82.55.33-1,1.33a2.6,2.6,0,0,1-2.12,1.32C78,87.08,77.67,86.47,77.67,85.9Z" fill="#333f48"/><path d="M81.1,88.6c0-1,1.25-1.54,2.56-1.87l0-.14a1.3,1.3,0,0,1-.87-1.18c0-1,.87-1.47,1.82-1.69l0-.14a2,2,0,0,1-1.08-1.84c0-2,1.84-3.31,4.08-3.31a3.48,3.48,0,0,1,1.39.28c.28-1,.81-1.63,1.63-1.63.61,0,1,.3,1,.78a.94.94,0,0,1-.93,1,.79.79,0,0,1-.82-.62h-.11l-.3.77a2,2,0,0,1,.78,1.62c0,2-1.86,3.29-4.07,3.29a3.6,3.6,0,0,1-.76-.09c-.52.09-1,.3-1,.68s.34.46.83.62l1.5.47c1.79.57,2.58,1.06,2.58,2.16,0,1.83-2.19,2.51-4.65,2.51C82.06,90.24,81.1,89.48,81.1,88.6Zm6.34-.21c0-.57-.41-.73-1.15-1l-1.9-.56c-1,.33-1.74.82-1.74,1.56s.67,1.22,2.34,1.22C86.27,89.64,87.44,89.29,87.44,88.39ZM88,81.58A9.07,9.07,0,0,0,88.31,80a.76.76,0,0,0-.86-.85c-.87,0-1.29.69-1.55,1.6a9.07,9.07,0,0,0-.33,1.57.76.76,0,0,0,.86.85C87.3,83.18,87.72,82.48,88,81.58Z" fill="#333f48"/><path d="M94.3,85.51l4-3.39a6.62,6.62,0,0,0,2.51-3.29,5,5,0,0,0,.2-1.08c0-.79-.49-1.25-1.37-1.25a3.55,3.55,0,0,0-1.46.27l0,.12a.83.83,0,0,1,.69.83,1.26,1.26,0,0,1-1.35,1.2.93.93,0,0,1-1-1c0-1.16,1.54-2.3,3.73-2.3s3.15,1,3.15,2.3c0,2.26-2.07,3.66-3.9,4.92l-3.37,2.35,0,.16h4.72l.43-1.56h1.07l-.81,3.08h-7.5Z" fill="#333f48"/><path d="M104.22,83.85c0-1.7,1.06-8.21,5.76-8.21,1.88,0,3,1,3,3.23,0,1.7-1.07,8.21-5.77,8.21C105.35,87.08,104.22,86.09,104.22,83.85Zm5.68-1.38A24.89,24.89,0,0,0,111,77.76c0-.69-.32-1.18-1.1-1.18-1.41,0-1.95,1.36-2.58,3.67a25.93,25.93,0,0,0-1.08,4.7c0,.7.32,1.19,1.1,1.19C108.74,86.14,109.28,84.78,109.9,82.47Z" fill="#333f48"/><path d="M118.42,86h1.35l.94-3.59-1.6-5.75h-.81l.24-.86h4.33l-.24.86h-1.21l1.13,4.46h.13l3.49-4.46H125l.24-.86h3.42l-.24.86h-.81L123,82.17,122,86h1.35l-.22.86h-4.94Z" fill="#333f48"/><path d="M126.53,84.38c0-2.47,1.45-5.95,4.86-5.95,1.33,0,2.46.46,2.46,1.68,0,1.06-.95,2.45-4.88,2.67a9.87,9.87,0,0,0-.25,1.86c0,.88.37,1.28,1.08,1.28,1,0,1.89-.84,2.68-2.26l.61.26C132,86,131,87.08,129,87.08,127.31,87.08,126.53,86.09,126.53,84.38ZM132,80a.72.72,0,0,0-.81-.81c-.94,0-1.45.73-2.09,3C131.32,81.91,132,81.09,132,80Z" fill="#333f48"/><path d="M134.4,84.65c0-2.66,1.69-6.22,4.42-6.22A1.79,1.79,0,0,1,140.76,80h.17l1-1.36H143l-1.92,7.17.3.13L143,84.1l.55.33-1,1.33c-.73,1-1.37,1.32-2,1.32-1,0-1.27-.59-1.27-1.14a3.6,3.6,0,0,1,.16-.91l.15-.61-.17,0c-.73,1.49-1.62,2.7-3.12,2.7C134.94,87.08,134.4,86.16,134.4,84.65Zm5.69-3.07.12-.4c.25-1,0-1.67-.8-1.67s-1.8.85-2.36,2.74a10.88,10.88,0,0,0-.45,2.55c0,.6.11,1,.55,1C138.33,85.75,139.72,83,140.09,81.58Z" fill="#333f48"/><path d="M145.91,80h-1.4l.22-.84,3.45-.68-.74,2.75.19.07c.77-1.85,1.53-2.82,2.83-2.82.94,0,1.48.51,1.48,1.25a1.29,1.29,0,0,1-1.3,1.32.91.91,0,0,1-1-.86,1.23,1.23,0,0,1,.37-.84l-.12-.11c-.49.09-1.15,1-1.82,2.25a19.52,19.52,0,0,0-1.44,3.82l-.43,1.63h-2.11Z" fill="#333f48"/><path d="M151.24,85.89a1.09,1.09,0,0,1,1.14-1.11.86.86,0,0,1,.93.86,1.09,1.09,0,0,1-.35.83l.11.16c1-.12,2-.6,2-1.58s-.76-1.39-1.43-2.11a2.46,2.46,0,0,1-.86-1.74c0-1.82,1.7-2.77,3.6-2.77,1.47,0,2,.49,2,1.19a1.09,1.09,0,0,1-1.14,1.11.86.86,0,0,1-.93-.86,1.1,1.1,0,0,1,.36-.84l-.12-.16c-1,.14-1.77.68-1.77,1.6s.77,1.36,1.48,2.12a2.44,2.44,0,0,1,.81,1.75c0,1.8-1.82,2.74-3.79,2.74C151.81,87.08,151.24,86.59,151.24,85.89Z" fill="#333f48"/><path d="M162.45,84.05c0-2.45,1.79-5.62,4.92-5.62a2.72,2.72,0,0,1,2.94,3c0,2.46-1.79,5.63-4.93,5.63A2.72,2.72,0,0,1,162.45,84.05Zm5,.08a19.82,19.82,0,0,0,.89-3.72c0-.65-.3-1.16-1.06-1.16-1,0-1.63.91-2,2.13a20.46,20.46,0,0,0-.9,3.72,1,1,0,0,0,1.06,1.15C166.5,86.25,167.12,85.35,167.44,84.13Z" fill="#333f48"/><path d="M167.8,89a1,1,0,0,1,1.13-1,.82.82,0,0,1,.92.79,1,1,0,0,1-.57.87l.14.13c.82,0,1.28-.46,1.56-1.51l2.31-8.69h-1.45l.24-.92h1.47l.22-.86a3.66,3.66,0,0,1,3.76-2.91c1.24,0,1.85.54,1.85,1.25a1.07,1.07,0,0,1-1.13,1.08.85.85,0,0,1-1-.83,1,1,0,0,1,.61-.87l-.14-.12c-.82,0-1.36.46-1.65,1.5l-.47,1.76h1.8l-.23.92H175.4l-2.07,7.79a3.69,3.69,0,0,1-3.76,2.91C168.39,90.24,167.8,89.71,167.8,89Z" fill="#333f48"/><path d="M181.94,86h-.16l-.24.94H179.9l.86-3.23h1.64l-.2.74a2.07,2.07,0,0,0-.09.48c0,.76.71,1.21,2,1.21,1.75,0,2.83-1,2.83-2.23,0-.76-.42-1.17-1.53-1.5l-.71-.21c-1.74-.52-2.56-1.36-2.56-2.77,0-2.11,1.78-3.74,4.4-3.74,1.26,0,2,.51,2.07,1.09h.17l.24-.9h1.63L189.77,79h-1.64l.2-.74a1.5,1.5,0,0,0,.07-.46c0-.79-.71-1.19-1.9-1.19-1.66,0-2.53,1-2.53,2,0,.74.37,1.22,1.68,1.61l.68.21c1.8.54,2.51,1.36,2.51,2.68,0,2.21-1.82,4-4.65,4C182.91,87.08,182.1,86.62,181.94,86Z" fill="#333f48"/><path d="M190.33,84.38c0-2.47,1.45-5.95,4.85-5.95,1.33,0,2.46.46,2.46,1.68,0,1.06-.94,2.45-4.87,2.67a9.87,9.87,0,0,0-.25,1.86c0,.88.37,1.28,1.08,1.28,1,0,1.89-.84,2.68-2.26l.61.26c-1,2-2.11,3.16-4.07,3.16C191.1,87.08,190.33,86.09,190.33,84.38ZM195.84,80a.72.72,0,0,0-.81-.81c-.94,0-1.45.73-2.09,3C195.11,81.91,195.84,81.09,195.84,80Z" fill="#333f48"/><path d="M199.94,80h-1.4l.22-.84,3.45-.68-.74,2.75.19.07c.77-1.85,1.53-2.82,2.83-2.82.95,0,1.48.51,1.48,1.25A1.29,1.29,0,0,1,204.68,81a.92.92,0,0,1-1-.86,1.28,1.28,0,0,1,.37-.84l-.12-.11c-.49.09-1.15,1-1.82,2.25a18.93,18.93,0,0,0-1.43,3.82l-.44,1.63H198.1Z" fill="#333f48"/><path d="M207.24,79.47h-.64l.24-.85h3.79l-.24.85h-.94l.24,5.41h.16l3.09-5.41h-.88l.24-.85H215l-.23.85h-.64l-4.62,7.42h-1.66Z" fill="#333f48"/><path d="M214.91,85.9a3.28,3.28,0,0,1,.14-.83L216.4,80H215l.22-.84,3.71-.68L217,85.79l.3.13,1.64-1.82.55.33-1,1.33a2.62,2.62,0,0,1-2.13,1.32C215.29,87.08,214.91,86.47,214.91,85.9Zm2.25-9.69a1.33,1.33,0,0,1,.05-.38,1.35,1.35,0,0,1,1.4-1c.72,0,1.13.41,1.13.9a1.81,1.81,0,0,1-.05.38,1.37,1.37,0,0,1-1.4,1C217.56,77.11,217.16,76.7,217.16,76.21Z" fill="#333f48"/><path d="M220.13,84.42c0-2.49,1.46-6,4.6-6,1.52,0,2.41.76,2.41,1.77a1.4,1.4,0,0,1-1.4,1.52.91.91,0,0,1-1-1,1.27,1.27,0,0,1,1.33-1.18v-.15a1.91,1.91,0,0,0-1.08-.28c-.93,0-1.6.54-2.24,2.85a10.69,10.69,0,0,0-.47,2.63c0,.88.37,1.28,1.06,1.28,1,0,1.85-.82,2.65-2.26l.6.26c-1,2-2.07,3.16-4,3.16C220.92,87.08,220.13,86.09,220.13,84.42Z" fill="#333f48"/><path d="M227.65,84.38c0-2.47,1.45-5.95,4.85-5.95,1.33,0,2.46.46,2.46,1.68,0,1.06-.94,2.45-4.87,2.67a9.87,9.87,0,0,0-.25,1.86c0,.88.37,1.28,1.08,1.28,1,0,1.89-.84,2.68-2.26l.61.26c-1.05,2-2.11,3.16-4.07,3.16C228.42,87.08,227.65,86.09,227.65,84.38ZM233.16,80a.72.72,0,0,0-.81-.81c-.94,0-1.45.73-2.09,3C232.44,81.91,233.16,81.09,233.16,80Z" fill="#333f48"/><path d="M14,62.79V58.41L10,51.73h1.62l3.14,5.32h0l3.13-5.32h1.62l-4.1,6.64v4.42Z" fill="#333f48"/><path d="M21.37,62.79V51.73h7.18V52.9H22.78v3.71h5.43v1.17H22.78v3.83h5.77v1.18Z" fill="#333f48"/><path d="M38.64,62.79l-1.18-3.27H32.7l-1.18,3.27H30.09L34.2,51.73H36l4.11,11.06ZM35.11,53H35l-2,5.39H37.1Z" fill="#333f48"/><path d="M43.56,62.79H42.15V51.73h4.68c2.06,0,3.29,1.12,3.29,3.14a2.86,2.86,0,0,1-2.36,3l2.7,4.88h-1.6L46.31,58H43.56Zm3.27-5.9c1.12,0,1.77-.57,1.77-1.58v-.82c0-1-.65-1.59-1.77-1.59H43.56v4Z" fill="#333f48"/><path d="M52.15,61l1-.82a3.83,3.83,0,0,0,3.17,1.58c1.69,0,2.6-.82,2.6-2.09,0-1-.63-1.57-2.18-1.9l-1-.2c-2.14-.46-3.32-1.35-3.32-3,0-2,1.58-3,3.89-3a4.51,4.51,0,0,1,3.9,1.81l-1.06.72a3.39,3.39,0,0,0-2.9-1.36c-1.5,0-2.43.62-2.43,1.81,0,1,.72,1.52,2.21,1.83l1,.21c2.29.49,3.29,1.44,3.29,3.09,0,2-1.52,3.33-4,3.33A5,5,0,0,1,52.15,61Z" fill="#333f48"/></svg>