<?xml version="1.0" encoding="UTF-8"?>
<!-- Generator: Adobe Illustrator 23.0.3, SVG Export Plug-In . SVG Version: 6.00 Build 0)  -->
<svg version="1.1" id="Layer_1" xmlns="http://www.w3.org/2000/svg" xmlns:xlink="http://www.w3.org/1999/xlink" x="0px" y="0px" viewBox="0 0 1500 379.1" style="enable-background:new 0 0 1500 379.1;" xml:space="preserve">
<style type="text/css">
	.st0{fill:#12A94B;}
	.st1{fill:#65656A;}
	.st2{fill:#9C9C9F;}
</style>
<path class="st0" d="M1488.2,107.4V29.9h-104.2v82.7C1418.7,110.3,1453.4,108.6,1488.2,107.4z"/>
<path class="st1" d="M854.7,190.4V29.9h104.2v138.1C924.2,174.9,889.4,182.3,854.7,190.4z M1148.7,136.9v-107h-109.6v122.8  C1079.2,146.9,1113.9,141.6,1148.7,136.9z M1282.3,121v-16.8c8-3.7,22.3-5.6,35.4-5.6c13.7,0,28.3,2.5,38.3,6.2l18.8-83.7  c-11.9-1.9-29.7-3.8-49.7-3.8c-59.3,0-109.7,10-147.1,24.4v90.8C1215.5,128.2,1247.6,124.3,1282.3,121z M680.2,238.5  c9.8-3,19.7-6,29.5-8.9c-3.1-11.2-4.8-23.9-4.8-38c0-56.8,25-90.5,63.7-90.5c17.5,0,31.8,3.7,44.3,12.5l31.8-73.1  c-26.9-16.2-55.6-23.1-92.4-23.1c-82.4,0-154.2,57.4-154.2,175.5c0,25.9,3.5,48.9,9.7,69.1C631.9,253.8,656,246,680.2,238.5z   M171.7,157.9c-19.4-6.9-45.6-15.6-45.6-38.1c0-16.2,14.4-27.5,38.7-27.5c23.1,0,46.2,7.5,64.9,18.7l30.6-69.3  c-31.8-16.2-69.9-24.4-109.3-24.4c-82.4,0-130.5,40-130.5,103c0,68.7,58.1,89.3,98,103.7c24.4,8.7,43.1,16.9,43.1,36.2  c0,16.9-15,28.1-38.7,28.1s-56.2-8.7-78.7-21.2l-32.5,77.4C46.2,360.9,83.6,369,126.1,369c95.5,0,143-41.8,143-108  C269.1,192.3,212.9,172.9,171.7,157.9z M574,272.7V29.9H469.7v250.4c-8,3.1-19.2,5-36,5c-30,0-44.2-13.1-44.2-41.8V29.9H285.3V241  c0,65.7,25.7,103.2,77.2,119C431.7,327.1,499.1,298.2,574,272.7z"/>
<path class="st2" d="M1282.3,144.6v219.4h-104.2V162.9C1215.5,156.3,1247.6,150.2,1282.3,144.6z M1383.9,131.7v232.3h104.2V119.9  C1453.4,123.3,1418.7,127.3,1383.9,131.7z M1039.1,192.2v86c0,3.1-19.2,5-36,5c-30,0-44.2-13.1-44.2-41.8v-28.2  c-34.7,9.3-67.5,19.1-101.7,29.6c1.4,88.3,52.5,124.1,149.8,124.1c54.3,0,106.9-9.4,141.7-24.4V169.4  C1113.9,176.4,1079.2,184,1039.1,192.2z M768.6,280.7c-5.8,0-11.4-0.9-16.8-2.6c-17.1,6-34.1,12.2-51.1,18.6  c-19.9,7.5-39.7,15.3-59.3,23.3c28.5,31.4,68.3,46.9,110.9,46.9c36.8,0,65.6-6.9,92.4-23.1L813,268.2  C800.5,277,786.1,280.7,768.6,280.7z"/>
</svg>