<?xml version="1.0" encoding="UTF-8" standalone="no"?>
<svg
   xmlns:dc="http://purl.org/dc/elements/1.1/"
   xmlns:cc="http://creativecommons.org/ns#"
   xmlns:rdf="http://www.w3.org/1999/02/22-rdf-syntax-ns#"
   xmlns:svg="http://www.w3.org/2000/svg"
   xmlns="http://www.w3.org/2000/svg"
   xmlns:sodipodi="http://sodipodi.sourceforge.net/DTD/sodipodi-0.dtd"
   xmlns:inkscape="http://www.inkscape.org/namespaces/inkscape"
   width="2500"
   height="788"
   viewBox="0.015 0.019 221.964 69.966"
   version="1.1"
   id="svg105"
   sodipodi:docname="duckduckgo.svg"
   inkscape:version="0.92.5 (2060ec1f9f, 2020-04-08)">
  <metadata
     id="metadata111">
    <rdf:RDF>
      <cc:Work
         rdf:about="">
        <dc:format>image/svg+xml</dc:format>
        <dc:type
           rdf:resource="http://purl.org/dc/dcmitype/StillImage" />
        <dc:title />
      </cc:Work>
    </rdf:RDF>
  </metadata>
  <defs
     id="defs109" />
  <sodipodi:namedview
     pagecolor="#ffffff"
     bordercolor="#666666"
     borderopacity="1"
     objecttolerance="10"
     gridtolerance="10"
     guidetolerance="10"
     inkscape:pageopacity="0"
     inkscape:pageshadow="2"
     inkscape:window-width="2560"
     inkscape:window-height="1355"
     id="namedview107"
     showgrid="false"
     inkscape:zoom="0.5936"
     inkscape:cx="1246.0662"
     inkscape:cy="74.62296"
     inkscape:window-x="0"
     inkscape:window-y="0"
     inkscape:window-maximized="1"
     inkscape:current-layer="g103" />
  <g
     stroke-width=".609"
     id="g103"
     style="fill:#343a40;fill-opacity:1;stroke:#a8adb1;stroke-opacity:1">
    <path
       d="M91.993 37.874c0 1.878.189 3.287.566 4.22.379.936.95 1.665 1.718 2.187.767.522 1.722.783 2.867.783s2.097-.26 2.856-.783c.76-.522 1.328-1.245 1.706-2.168.378-.924.567-2.295.567-4.118V31.51h-1.549v6.174c0 1.653-.075 2.735-.226 3.244a3.509 3.509 0 0 1-1.217 1.807c-.588.458-1.303.686-2.146.686s-1.569-.235-2.178-.706-1.021-1.108-1.238-1.92c-.145-.567-.216-1.604-.216-3.11v-6.175h-1.508v6.365h-.002zM115.741 32.61c-.503-.429-1.117-.776-1.84-1.043a6.44 6.44 0 0 0-2.251-.4c-1.238 0-2.357.307-3.357.923-1.001.615-1.787 1.472-2.36 2.568s-.858 2.286-.858 3.565c0 1.903.612 3.52 1.835 4.848 1.224 1.327 2.764 1.991 4.622 1.991 1.209 0 2.287-.261 3.233-.785a5.922 5.922 0 0 0 2.262-2.206l-1.199-.887c-1.093 1.545-2.501 2.316-4.226 2.316-.942 0-1.792-.234-2.55-.704-.758-.47-1.355-1.129-1.79-1.98a5.882 5.882 0 0 1-.651-2.718c0-1.48.472-2.74 1.417-3.776.946-1.035 2.133-1.553 3.564-1.553 1.79 0 3.202.773 4.236 2.316l1.199-.837c-.354-.662-.782-1.209-1.286-1.638zM119.91 44.721h1.507v-5.933l5.892 5.933h2.154l-6.836-6.907 6.452-6.306h-2.214l-5.448 5.323V26.41h-1.506v18.31zM138.698 44.721c1.98 0 3.518-.323 4.615-.971 1.098-.647 1.991-1.651 2.678-3.01.687-1.36 1.032-2.934 1.032-4.722 0-2.073-.434-3.858-1.301-5.355-.867-1.498-2.073-2.549-3.612-3.156-1.073-.43-2.796-.644-5.171-.644h-3.294V44.72h5.053zm-3.531-16.103h1.123c2.283 0 3.922.17 4.916.51 1.323.452 2.358 1.289 3.1 2.51.74 1.22 1.112 2.692 1.112 4.413 0 1.642-.343 3.03-1.026 4.166-.684 1.136-1.623 1.922-2.82 2.358-.85.308-2.373.461-4.569.461h-1.836V28.618zM149.655 37.874c0 1.878.19 3.287.567 4.22.379.936.95 1.665 1.716 2.187.767.522 1.722.783 2.867.783 1.144 0 2.097-.26 2.857-.783.758-.522 1.327-1.245 1.706-2.168.378-.924.566-2.295.566-4.118V31.51h-1.549v6.174c0 1.653-.076 2.735-.226 3.244a3.503 3.503 0 0 1-1.217 1.807c-.588.458-1.303.686-2.145.686-.844 0-1.57-.235-2.18-.706-.608-.47-1.02-1.108-1.237-1.92-.144-.567-.216-1.604-.216-3.11v-6.175h-1.508v6.365zM173.403 32.61c-.504-.429-1.117-.776-1.84-1.043a6.44 6.44 0 0 0-2.251-.4c-1.237 0-2.357.307-3.358.923-1.001.615-1.787 1.472-2.36 2.568a7.605 7.605 0 0 0-.857 3.565c0 1.903.611 3.52 1.834 4.848 1.224 1.327 2.764 1.991 4.62 1.991 1.21 0 2.288-.261 3.233-.785a5.918 5.918 0 0 0 2.264-2.206l-1.2-.887c-1.092 1.545-2.5 2.316-4.226 2.316-.941 0-1.79-.234-2.55-.704-.757-.47-1.354-1.129-1.79-1.98a5.883 5.883 0 0 1-.652-2.718c0-1.48.473-2.74 1.417-3.776.946-1.035 2.133-1.553 3.564-1.553 1.79 0 3.203.773 4.237 2.316l1.199-.837c-.352-.662-.78-1.209-1.284-1.638z"
       stroke="#000"
       stroke-width=".61448709"
       id="path93"
       style="fill:#495057;fill-opacity:1;stroke:#343a40;stroke-opacity:1" />
    <path
       d="M211.044 33.39c-1.08 1.344-1.622 2.931-1.622 4.762 0 1.845.57 3.46 1.714 4.84 1.143 1.382 2.615 2.072 4.418 2.072 1.795 0 3.265-.69 4.408-2.071 1.142-1.381 1.713-2.995 1.713-4.841 0-1.84-.54-3.431-1.622-4.775-1.19-1.474-2.69-2.21-4.5-2.21-1.816 0-3.32.74-4.509 2.222zm7.737 1.003c.905 1.045 1.358 2.309 1.358 3.792a5.9 5.9 0 0 1-.617 2.674c-.41.827-.967 1.465-1.667 1.915a4.19 4.19 0 0 1-2.307.674 4.188 4.188 0 0 1-2.306-.674c-.7-.45-1.256-1.088-1.668-1.915a5.929 5.929 0 0 1-.618-2.674c0-1.482.451-2.747 1.353-3.792.902-1.045 1.982-1.568 3.238-1.568 1.252 0 2.328.523 3.234 1.568z"
       fill="#090"
       stroke="#090"
       stroke-width=".61448709"
       id="path95"
       style="fill:#495057;fill-opacity:1;stroke:#343a40;stroke-opacity:1" />
    <path
       d="M177.572 44.721h1.508v-5.933l5.891 5.933h2.154l-6.836-6.907 6.452-6.306h-2.214l-5.447 5.323V26.41h-1.508v18.31z"
       stroke="#000"
       stroke-width=".61448709"
       id="path97"
       style="fill:#495057;fill-opacity:1;stroke:#343a40;stroke-opacity:1" />
    <path
       d="M202.803 27.23a8.983 8.983 0 0 0-3.798-.82c-1.662 0-3.151.412-4.468 1.233s-2.353 1.961-3.108 3.418c-.756 1.457-1.133 3.032-1.133 4.725 0 2.274.658 4.278 1.976 6.01 1.712 2.251 4.037 3.376 6.972 3.376 2.417 0 4.349-.812 5.791-2.436 1.443-1.625 2.17-3.82 2.186-6.581h-6.84v1.726h5.06c-.21 1.654-.879 2.998-2.01 4.035-1.13 1.039-2.512 1.557-4.146 1.557a6.968 6.968 0 0 1-3.714-1.04c-1.131-.691-2.016-1.644-2.656-2.854a8.083 8.083 0 0 1-.96-3.833c0-1.313.308-2.558.927-3.736a7.079 7.079 0 0 1 2.617-2.8c1.126-.688 2.312-1.033 3.557-1.033 1 0 2.027.253 3.082.76 1.054.505 2.024 1.248 2.909 2.228l1.23-1.311c-1.13-1.203-2.288-2.079-3.474-2.625z"
       fill="#090"
       stroke="#090"
       stroke-width=".61448709"
       id="path99"
       style="fill:#495057;fill-opacity:1;stroke:#343a40;stroke-opacity:1" />
    <path
       d="M81.035 44.721c1.98 0 3.518-.323 4.617-.971 1.097-.647 1.99-1.651 2.677-3.01.687-1.36 1.03-2.934 1.03-4.722 0-2.073-.433-3.858-1.3-5.355-.867-1.498-2.071-2.549-3.611-3.156-1.073-.43-2.796-.644-5.171-.644h-3.295V44.72h5.053zm-3.531-16.103h1.124c2.282 0 3.921.17 4.915.51 1.325.452 2.358 1.289 3.1 2.51.742 1.22 1.112 2.692 1.112 4.413 0 1.642-.342 3.03-1.026 4.166-.683 1.136-1.624 1.922-2.819 2.358-.85.308-2.373.461-4.57.461h-1.836V28.618z"
       stroke="#000"
       stroke-width=".61448709"
       id="path101"
       style="fill:#495057;fill-opacity:1;stroke:#343a40;stroke-opacity:1" />
  </g>
  <path
     d="m 34.071357,2.6205364 c -18.390618,0 -33.3010178,14.9105866 -33.3010178,33.3011136 0,18.39049 14.9103998,33.30108 33.3010178,33.30108 18.39062,0 33.30102,-14.91059 33.30102,-33.30108 0,-18.390527 -14.9104,-33.3011136 -33.30102,-33.3011136 z m 0,63.8270936 c -16.858822,0 -30.5259082,-13.6701 -30.5259082,-30.52598 0,-16.85592 13.6699002,-30.5260016 30.5259082,-30.5260016 16.856011,0 30.525913,13.6673016 30.525913,30.5260016 0,16.85866 -13.66709,30.52598 -30.525913,30.52598 z M 62.430056,35.92165 c 0,13.33429 -9.205151,24.51236 -21.607042,27.54276 -0.750115,-1.44585 -1.468975,-2.8223 -2.078443,-3.99058 1.790898,0.69105 5.355817,1.9925 6.127498,1.70683 1.043909,-0.39975 0.781369,-8.73877 -0.387559,-9.00519 -0.937644,-0.20941 -4.529129,2.32286 -5.941531,3.35511 l 0.09377,0.43288 c 0.218783,1.10173 0.400061,2.75573 0.09377,3.46052 -0.0028,0.0111 -0.0057,0.0277 -0.01132,0.0344 a 0.60496981,0.60496981 0 0 1 -0.187528,0.2438 c -0.787621,0.52164 -3.000457,0.78824 -4.170949,0.52164 a 1.4319466,1.4319466 0 0 1 -0.187529,-0.0563 c -1.925293,1.09892 -5.577725,3.07765 -6.243765,2.69447 -0.91264,-0.52164 -1.047035,-7.42614 -0.91264,-9.12451 0.09377,-1.27645 4.586951,0.79356 6.77666,1.88434 0.481324,-0.45225 1.669005,-0.7548 2.719165,-0.86013 -1.581492,-3.85458 -2.747294,-8.26142 -2.034685,-11.39173 0,0.006 0.0057,0.006 0.0057,0.006 0.987651,0.68823 7.575843,2.91388 10.850406,2.85012 3.274875,-0.0656 8.641631,-2.06188 8.056229,-3.67147 -0.58759,-1.609 -5.924655,1.41584 -11.494254,0.89951 -4.123754,-0.38287 -4.851052,-2.23127 -3.9406,-3.57986 1.150175,-1.69557 3.241119,0.32193 6.690706,-0.71042 3.454904,-1.02953 8.289079,-2.87231 10.079039,-3.87677 4.145948,-2.31161 -1.734639,-3.26632 -3.122351,-2.62791 -1.315827,0.6104 -5.891524,1.76777 -8.017161,2.27566 1.187681,-4.20701 -1.67213,-11.51385 -4.875744,-14.70796 -1.04391,-1.0436 -2.637903,-1.698385 -4.448491,-2.0425 -0.693862,-0.955021 -1.815908,-1.86266 -3.399588,-2.711852 a 16.017822,16.017822 0 0 0 -9.976549,-1.6206 l -0.0625,0.01105 -0.09377,0.01106 0.01118,0.0055 c -0.409437,0.07814 -0.65635,0.221908 -0.990777,0.271916 0.409438,0.04376 1.95655,0.766055 2.934824,1.159864 -0.484449,0.187529 -1.143925,0.300046 -1.653376,0.510703 a 2.2977746,2.2977746 0 0 0 -0.565713,0.156273 c -0.481323,0.221911 -0.840752,1.040785 -0.831376,1.429281 2.331605,-0.237536 5.777756,-0.07189 8.300329,0.682605 -1.787773,0.250038 -3.427086,0.716047 -4.609453,1.3377 -0.03126,0.0222 -0.09377,0.05 -0.125025,0.0781 -0.156274,0.0563 -0.281294,0.11565 -0.421939,0.18441 -3.793392,1.99811 -5.469586,6.67411 -4.470683,12.27703 0.897012,5.06174 4.620705,22.44492 6.355032,30.70359 C 13.636642,58.78598 5.7304366,48.27947 5.7304366,35.92202 c 0,-15.66264 12.6960004,-28.3586696 28.3587034,-28.3586696 15.662701,0 28.358696,12.6960296 28.358696,28.3586696 z M 26.009814,29.20869 a 2.103525,2.103525 0 1 0 0,4.20705 2.103525,2.103525 0 0 0 0,-4.20705 z m 0.937644,1.94811 a 0.54391769,0.54391769 0 1 1 0,-1.08767 0.54391769,0.54391769 0 0 1 0,1.08767 z m 13.109501,-2.89451 a 1.8038087,1.8038087 0 1 0 0,3.60483 1.8038093,1.8038093 0 0 0 0,-3.60761 z m 0.806372,1.66776 a 0.4662152,0.4662152 0 1 1 0,-0.93233 0.4662152,0.4662152 0 0 1 0,0.93233 z M 26.615845,25.22626 c 0,0 -1.584618,-0.72167 -3.122352,0.25004 -1.537734,0.96578 -1.481476,1.95374 -1.481476,1.95374 0,0 -0.815749,-1.82059 1.359583,-2.71417 2.181583,-0.88794 3.246745,0.5107 3.246745,0.5107 z M 41.146188,25.0825 c 0,0 -1.137674,-0.64948 -2.025309,-0.63823 -1.815902,0.0222 -2.306602,0.82138 -2.306602,0.82138 0,0 0.312548,-1.90936 2.622274,-1.52617 a 2.331076,2.331076 0 0 1 1.709637,1.34302 z"
     id="path2-2"
     inkscape:connector-curvature="0"
     style="fill:#495057;fill-opacity:1;stroke-width:2.77509022" />
</svg>
