<?xml version="1.0" encoding="UTF-8" standalone="no"?>
<svg
   xmlns:dc="http://purl.org/dc/elements/1.1/"
   xmlns:cc="http://creativecommons.org/ns#"
   xmlns:rdf="http://www.w3.org/1999/02/22-rdf-syntax-ns#"
   xmlns:svg="http://www.w3.org/2000/svg"
   xmlns="http://www.w3.org/2000/svg"
   xmlns:sodipodi="http://sodipodi.sourceforge.net/DTD/sodipodi-0.dtd"
   xmlns:inkscape="http://www.inkscape.org/namespaces/inkscape"
   width="512px"
   height="164px"
   viewBox="0 0 512 168"
   version="1.1"
   preserveAspectRatio="xMidYMid"
   id="svg16"
   sodipodi:docname="eukhost.svg"
   inkscape:version="0.92.5 (2060ec1f9f, 2020-04-08)"
   inkscape:export-filename="/home/clem/Sandbox/artwork/website-wizixo/wizixo/template/img/sponsors/01.png"
   inkscape:export-xdpi="46.243904"
   inkscape:export-ydpi="46.243904">
  <metadata
     id="metadata22">
    <rdf:RDF>
      <cc:Work
         rdf:about="">
        <dc:format>image/svg+xml</dc:format>
        <dc:type
           rdf:resource="http://purl.org/dc/dcmitype/StillImage" />
        <dc:title />
      </cc:Work>
    </rdf:RDF>
  </metadata>
  <defs
     id="defs20" />
  <sodipodi:namedview
     pagecolor="#ffffff"
     bordercolor="#666666"
     borderopacity="1"
     objecttolerance="10"
     gridtolerance="10"
     guidetolerance="10"
     inkscape:pageopacity="0"
     inkscape:pageshadow="2"
     inkscape:window-width="2560"
     inkscape:window-height="1355"
     id="namedview18"
     showgrid="false"
     inkscape:zoom="0.72460938"
     inkscape:cx="-331.90296"
     inkscape:cy="-28.404313"
     inkscape:window-x="0"
     inkscape:window-y="0"
     inkscape:window-maximized="1"
     inkscape:current-layer="svg16" />
  <g
     transform="matrix(0.99145989,0,0,0.99145989,-0.0975597,36.480346)"
     id="g30"
     style="fill:#495057;fill-opacity:1">
    <g
       id="g16"
       style="fill:#495057;fill-opacity:1">
      <path
         style="fill:#495057;fill-opacity:1"
         inkscape:connector-curvature="0"
         d="m 166.882,68.503 c -6.533,6.176 -14.207,9.264 -23.001,9.264 -8.799,0 -16.077,-2.707 -21.821,-8.134 -5.745,-5.422 -8.617,-12.694 -8.617,-21.816 0,-9.122 2.923,-16.377 8.781,-21.764 5.853,-5.388 12.768,-8.084 20.743,-8.084 7.971,0 14.736,2.407 20.305,7.222 5.563,4.812 8.351,11.421 8.351,19.821 v 8.623 h -42.235 c 0.501,3.162 2.157,5.745 4.956,7.755 2.802,2.016 5.962,3.02 9.484,3.02 5.673,0 10.345,-1.907 14.007,-5.711 z M 151.368,34.13 c -2.225,-1.867 -4.939,-2.798 -8.136,-2.798 -3.194,0 -6.125,0.97 -8.78,2.906 -2.657,1.941 -4.201,4.563 -4.633,7.867 h 25.426 c -0.358,-3.451 -1.653,-6.107 -3.877,-7.975 z"
         id="path2-2" />
      <path
         style="fill:#495057;fill-opacity:1"
         inkscape:connector-curvature="0"
         d="M 215.259,50.184 V 18.939 h 16.271 v 57.965 h -16.271 v -7.646 c -4.024,5.671 -9.213,8.509 -15.57,8.509 -6.356,0 -11.689,-1.992 -15.997,-5.978 -4.309,-3.99 -6.467,-9.895 -6.467,-17.722 V 18.939 h 16.271 v 31.568 c 0,8.905 3.263,13.362 9.804,13.362 3.232,0 6.033,-1.168 8.401,-3.502 2.372,-2.332 3.558,-5.727 3.558,-10.183 z"
         id="path4-4" />
      <path
         style="fill:#495057;fill-opacity:1"
         inkscape:connector-curvature="0"
         d="m 257.601,76.904 h -16.16 V -0.157 h 16.16 v 38.17 l 17.991,-19.182 h 20.367 l -22.087,23.49 22.945,34.583 H 277.64 L 262.881,54.708 257.6,60.203 v 16.701 z"
         id="path6-7" />
      <path
         style="fill:#495057;fill-opacity:1"
         inkscape:connector-curvature="0"
         d="M 316.319,45.659 V 76.904 H 300.161 V -0.157 h 16.158 v 25.562 c 4.885,-4.956 10.357,-7.437 16.431,-7.437 6.068,0 11.187,2.156 15.353,6.465 4.164,4.31 6.248,10.06 6.248,17.241 v 35.229 h -16.16 V 45.229 c 0,-8.907 -3.27,-13.357 -9.806,-13.357 -3.229,0 -6.052,1.169 -8.455,3.502 -2.41,2.333 -3.611,5.761 -3.611,10.285 z"
         id="path8-7" />
      <path
         style="fill:#495057;fill-opacity:1"
         inkscape:connector-curvature="0"
         d="m 421.581,47.924 c 0,8.402 -2.909,15.481 -8.729,21.226 -5.812,5.745 -13.129,8.617 -21.922,8.617 -8.798,0 -16.104,-2.872 -21.925,-8.617 -5.819,-5.744 -8.728,-12.823 -8.728,-21.226 0,-8.406 2.908,-15.496 8.728,-21.282 5.82,-5.779 13.127,-8.673 21.925,-8.673 8.793,0 16.109,2.894 21.922,8.673 5.82,5.786 8.729,12.876 8.729,21.282 z m -45.035,0 c 0,4.74 1.347,8.602 4.042,11.581 2.692,2.98 6.136,4.474 10.343,4.474 4.2,0 7.647,-1.493 10.343,-4.474 2.69,-2.979 4.04,-6.841 4.04,-11.581 0,-4.738 -1.35,-8.622 -4.04,-11.637 -2.695,-3.02 -6.143,-4.524 -10.343,-4.524 -4.207,0 -7.65,1.505 -10.343,4.524 -2.695,3.015 -4.042,6.899 -4.042,11.637 z"
         id="path10-5" />
      <path
         style="fill:#495057;fill-opacity:1"
         inkscape:connector-curvature="0"
         d="m 471.252,58.857 c 0,5.711 -2.102,10.292 -6.304,13.738 -4.2,3.446 -9.535,5.171 -16.002,5.171 -4.306,0 -8.793,-0.772 -13.465,-2.315 -4.669,-1.545 -8.872,-3.826 -12.609,-6.841 l 7.113,-10.126 c 6.035,4.665 12.461,6.999 19.287,6.999 2.086,0 3.732,-0.41 4.954,-1.238 1.22,-0.823 1.833,-1.918 1.833,-3.287 0,-1.362 -0.846,-2.616 -2.532,-3.77 -1.687,-1.146 -4.128,-2.226 -7.322,-3.229 -3.195,-1.005 -5.645,-1.867 -7.329,-2.588 -1.691,-0.716 -3.61,-1.76 -5.764,-3.123 -4.385,-2.73 -6.572,-6.772 -6.572,-12.126 0,-5.348 2.151,-9.713 6.467,-13.09 4.308,-3.372 9.871,-5.063 16.699,-5.063 6.818,0 13.648,2.299 20.468,6.896 l -6.033,10.774 c -5.028,-3.445 -10.036,-5.171 -15.029,-5.171 -4.995,0 -7.489,1.368 -7.489,4.093 0,1.511 0.791,2.696 2.369,3.559 1.577,0.858 4.2,1.868 7.866,3.015 3.665,1.153 6.268,2.032 7.812,2.64 1.543,0.613 3.396,1.562 5.552,2.856 4.019,2.441 6.03,6.516 6.03,12.226 z"
         id="path12-4" />
      <path
         style="fill:#495057;fill-opacity:1"
         inkscape:connector-curvature="0"
         d="m 497.107,30.576 v 25.966 c 0,2.225 0.573,3.968 1.726,5.228 1.147,1.255 2.513,1.885 4.092,1.885 3.019,0 5.565,-1.362 7.654,-4.092 l 6.028,11.307 c -5.029,4.599 -10.326,6.897 -15.892,6.897 -5.566,0 -10.273,-1.834 -14.111,-5.494 -3.848,-3.662 -5.768,-8.652 -5.768,-14.976 V 30.576 h -6.784 V 18.939 h 6.784 V 4.616 h 16.271 v 14.323 h 14.011 v 11.637 z"
         id="path14" />
    </g>
    <g
       id="g28"
       style="fill:#495057;fill-opacity:1">
      <path
         style="fill:#495057;fill-opacity:1"
         inkscape:connector-curvature="0"
         d="m 50.368,46.612 c 0,0.727 0,1.908 0,2.63 V 95.2 c 0,0.726 0.514,1.024 1.127,0.658 L 69.398,85.523 C 70.023,85.16 70.54,84.28 70.54,83.562 v -34.32 c 0,-0.722 0,-1.903 0,-2.63 V 12.298 c 0,-0.719 -0.517,-1.602 -1.142,-1.966 L 51.495,0 c -0.613,-0.369 -1.127,-0.064 -1.127,0.654 z"
         id="path18" />
      <path
         style="fill:#495057;fill-opacity:1"
         inkscape:connector-curvature="0"
         d="m 81.643,17.397 c -0.618,-0.355 -1.134,-0.068 -1.134,0.653 v 28.562 c 0,0.727 0,1.908 0,2.63 v 28.561 c 0,0.724 0.516,1.014 1.134,0.659 l 6.909,-3.994 c 0.617,-0.357 1.129,-1.246 1.129,-1.956 v -23.27 c 0,-0.722 0,-1.903 0,-2.63 V 23.35 c 0,-0.719 -0.512,-1.6 -1.129,-1.964 z"
         id="path20" />
      <path
         style="fill:#495057;fill-opacity:1"
         inkscape:connector-curvature="0"
         d="m 0,33.716 c 0,0.725 0.57,1.151 1.262,0.942 L 38.06,24.047 c 0.686,-0.2 1.259,-0.961 1.259,-1.68 V 0.654 C 39.319,-0.065 38.801,-0.369 38.183,0 L 1.14,21.385 C 0.508,21.75 0,22.631 0,23.35 Z"
         id="path22" />
      <path
         style="fill:#495057;fill-opacity:1"
         inkscape:connector-curvature="0"
         d="m 0,46.612 c 0,0.727 0,1.908 0,2.63 v 3.842 c 0,0.722 0.587,1.4 1.3,1.499 l 36.718,5.283 c 0.719,0.104 1.301,-0.398 1.301,-1.121 v -9.503 c 0,-0.722 0,-1.903 0,-2.63 v -9.498 c 0,-0.725 -0.582,-1.225 -1.301,-1.123 L 1.3,41.278 C 0.587,41.375 0,42.051 0,42.775 Z"
         id="path24" />
      <path
         style="fill:#495057;fill-opacity:1"
         inkscape:connector-curvature="0"
         d="m 0,72.512 c 0,0.71 0.508,1.599 1.14,1.956 l 37.043,21.391 c 0.618,0.366 1.136,0.067 1.136,-0.658 V 73.488 c 0,-0.716 -0.573,-1.477 -1.259,-1.673 L 1.262,61.191 C 0.57,60.99 0,61.419 0,62.144 Z"
         id="path26" />
    </g>
  </g>
</svg>
