<?xml version="1.0" encoding="UTF-8" standalone="no"?>
<!-- Generator: Adobe Illustrator 25.2.0, SVG Export Plug-In . SVG Version: 6.00 Build 0)  -->

<svg
   xmlns:dc="http://purl.org/dc/elements/1.1/"
   xmlns:cc="http://creativecommons.org/ns#"
   xmlns:rdf="http://www.w3.org/1999/02/22-rdf-syntax-ns#"
   xmlns:svg="http://www.w3.org/2000/svg"
   xmlns="http://www.w3.org/2000/svg"
   xmlns:sodipodi="http://sodipodi.sourceforge.net/DTD/sodipodi-0.dtd"
   xmlns:inkscape="http://www.inkscape.org/namespaces/inkscape"
   version="1.1"
   id="Layer_1"
   x="0px"
   y="0px"
   viewBox="0 0 550 186"
   xml:space="preserve"
   sodipodi:docname="shells.svg"
   inkscape:version="0.92.5 (2060ec1f9f, 2020-04-08)"
   width="550"
   height="186"><metadata
   id="metadata207"><rdf:RDF><cc:Work
       rdf:about=""><dc:format>image/svg+xml</dc:format><dc:type
         rdf:resource="http://purl.org/dc/dcmitype/StillImage" /><dc:title /></cc:Work></rdf:RDF></metadata><defs
   id="defs205" /><sodipodi:namedview
   pagecolor="#ffffff"
   bordercolor="#666666"
   borderopacity="1"
   objecttolerance="10"
   gridtolerance="10"
   guidetolerance="10"
   inkscape:pageopacity="0"
   inkscape:pageshadow="2"
   inkscape:window-width="2560"
   inkscape:window-height="1355"
   id="namedview203"
   showgrid="false"
   inkscape:zoom="1.9079027"
   inkscape:cx="186.83137"
   inkscape:cy="118.61449"
   inkscape:window-x="0"
   inkscape:window-y="0"
   inkscape:window-maximized="1"
   inkscape:current-layer="g148" />
<style
   type="text/css"
   id="style2">
	.st0{fill:#04222E;}
	.st1{fill-rule:evenodd;clip-rule:evenodd;fill:#04222E;}
	.st2{fill-rule:evenodd;clip-rule:evenodd;fill:url(#SVGID_1_);}
	.st3{fill-rule:evenodd;clip-rule:evenodd;fill:url(#SVGID_2_);}
	.st4{fill-rule:evenodd;clip-rule:evenodd;fill:url(#SVGID_3_);}
	.st5{fill-rule:evenodd;clip-rule:evenodd;fill:url(#SVGID_4_);}
	.st6{fill-rule:evenodd;clip-rule:evenodd;fill:url(#SVGID_5_);}
	.st7{fill-rule:evenodd;clip-rule:evenodd;fill:url(#SVGID_6_);}
	.st8{fill-rule:evenodd;clip-rule:evenodd;fill:url(#SVGID_7_);}
	.st9{fill-rule:evenodd;clip-rule:evenodd;fill:url(#SVGID_8_);}
	.st10{fill-rule:evenodd;clip-rule:evenodd;fill:url(#SVGID_9_);}
	.st11{fill-rule:evenodd;clip-rule:evenodd;fill:url(#SVGID_10_);}
	.st12{fill-rule:evenodd;clip-rule:evenodd;fill:url(#SVGID_11_);}
	.st13{fill-rule:evenodd;clip-rule:evenodd;fill:url(#SVGID_12_);}
	.st14{fill-rule:evenodd;clip-rule:evenodd;fill:url(#SVGID_13_);}
	.st15{fill-rule:evenodd;clip-rule:evenodd;fill:url(#SVGID_14_);}
	.st16{fill-rule:evenodd;clip-rule:evenodd;fill:url(#SVGID_15_);}
	.st17{fill-rule:evenodd;clip-rule:evenodd;fill:url(#SVGID_16_);}
	.st18{fill-rule:evenodd;clip-rule:evenodd;fill:url(#SVGID_17_);}
	.st19{fill-rule:evenodd;clip-rule:evenodd;fill:url(#SVGID_18_);}
</style>
<g
   id="g148"
   transform="translate(-5.2111211,8.1136318)">
	<path
   class="st0"
   d="m 179.3,132.3 5.3,-11.8 c 8.4,4 16,6 22.8,6 5.4,0 7.9,-2 7.9,-4.6 -0.1,-1.6 -0.9,-3 -2.3,-3.7 -1.5,-1 -4.7,-2.3 -9.6,-3.6 -6.8,-1.8 -10.9,-3.4 -15.5,-6.2 -4.5,-2.8 -7.1,-7.9 -7,-13.1 0,-4.6 2,-8.7 6.1,-12.2 4,-3.5 9.9,-5.2 17.3,-5.2 7.8,0 16.5,2 26.2,6.1 l -5.3,11.8 c -8.9,-3.4 -16.1,-5.1 -21.3,-5.1 -5,0 -7.5,1.9 -7.5,4.5 0,2.6 2.2,4.3 11.2,7 7.7,2.3 11.4,3.6 16.2,6.8 5,2.8 7,7.2 7,13 0,4.6 -2.2,9 -6.5,12.5 -4.2,3.5 -10.2,5.2 -17.8,5.2 -9.6,-0.4 -18.9,-2.8 -27.2,-7.4 z"
   id="path4"
   style="fill:#495057;fill-opacity:1"
   inkscape:connector-curvature="0" />
	<path
   class="st0"
   d="m 298.7,95.6 v 42.8 h -16.1 v -37.6 c 0,-6 -2.3,-9.2 -9.1,-9.2 -4.3,0 -9.6,1.4 -15.7,4.2 v 42.5 h -16 V 53.6 h 16.1 V 84 c 7.9,-4.2 15.4,-6.4 22.3,-6.4 12.3,0 18.5,6 18.5,18 z"
   id="path6"
   style="fill:#495057;fill-opacity:1"
   inkscape:connector-curvature="0" />
	<path
   class="st0"
   d="m 367,115.3 h -41.9 c 2,7.8 7.2,11.7 15.6,11.7 5.7,0 11.7,-1.5 18.5,-4.3 l 5.1,11.1 c -7.9,3.7 -16.4,5.7 -25.1,5.7 -9.1,0 -16.3,-2.8 -21.9,-8.6 -5.7,-5.7 -8.4,-13.2 -8.4,-22.4 0,-9.2 2.7,-16.5 8.4,-22.3 5.7,-5.7 12.9,-8.6 21.7,-8.6 9.2,0 16.2,3.1 20.8,9.3 4.6,6.2 7.1,13.9 7.1,23.7 z m -42.2,-11 h 27.6 c -1,-9.6 -5.4,-14.4 -13.4,-14.4 -8,0 -13,5.7 -14.2,14.4 z"
   id="path8"
   style="fill:#495057;fill-opacity:1"
   inkscape:connector-curvature="0" />
	<path
   class="st0"
   d="M 378,121.8 V 53.6 h 16 v 65.9 c 0,3.7 1.8,5.7 5.4,5.7 1.1,0 2.5,-0.1 4,-0.2 l 1,13.6 c -2.8,0.5 -5.8,0.8 -8.7,0.8 C 380.9,139.3 378,128.5 378,121.8 Z"
   id="path10"
   style="fill:#495057;fill-opacity:1"
   inkscape:connector-curvature="0" />
	<path
   class="st0"
   d="M 413.4,121.8 V 53.6 h 16.1 v 65.9 c 0,3.7 1.8,5.7 5.4,5.7 1.1,0 2.5,-0.1 4,-0.2 l 1,13.6 c -2.8,0.5 -5.8,0.8 -8.7,0.8 -14.8,-0.1 -17.8,-10.9 -17.8,-17.6 z"
   id="path12"
   style="fill:#495057;fill-opacity:1"
   inkscape:connector-curvature="0" />
	<path
   class="st0"
   d="m 445.7,132.3 5.3,-11.8 c 8.4,4 16,6 22.8,6 5.4,0 7.9,-2 7.9,-4.6 -0.1,-1.6 -0.9,-3 -2.3,-3.7 -1.5,-1 -4.8,-2.3 -9.6,-3.6 -6.8,-1.8 -10.9,-3.4 -15.5,-6.2 -4.5,-2.8 -7.1,-7.9 -7,-13.1 0,-4.6 2,-8.7 6.1,-12.2 4,-3.5 9.8,-5.2 17.3,-5.2 7.8,0 16.5,2 26.1,6.1 l -5.3,11.8 c -8.9,-3.4 -16.1,-5.1 -21.3,-5.1 -5,0 -7.5,1.9 -7.5,4.5 0,2.6 2.2,4.3 11.2,7 7.7,2.3 11.4,3.6 16.2,6.8 5,2.8 7,7.2 7,13 0,4.6 -2.2,9 -6.4,12.5 -4.1,3.5 -10.2,5.2 -17.8,5.2 -9.5,-0.4 -18.9,-2.8 -27.2,-7.4 z"
   id="path14"
   style="fill:#495057;fill-opacity:1"
   inkscape:connector-curvature="0" />
	<path
   class="st0"
   d="m 522.6,44.5 v 2.9 h -8.7 v 22.8 h -3.1 V 47.5 h -8.6 v -2.9 h 20.4 z"
   id="path16"
   style="fill:#495057;fill-opacity:1"
   inkscape:connector-curvature="0" />
	<path
   class="st0"
   d="m 550,70.3 h -3 L 546.3,49.5 539.4,64 c -0.3,0.6 -0.9,1 -1.5,1 -0.7,0 -1.3,-0.4 -1.5,-1 l -6.9,-14.5 -0.8,20.8 h -3 l 0.8,-23.9 c 0,-1.2 1,-2.1 2.2,-2.1 v 0 c 0.9,-0.1 1.6,0.4 2,1.2 l 7.1,15 7.1,-15 c 0.4,-0.8 1.1,-1.3 2,-1.2 1.2,0 2.2,0.9 2.2,2.1 v 0 z"
   id="path18"
   style="fill:#495057;fill-opacity:1"
   inkscape:connector-curvature="0" />
	
	
		<linearGradient
   id="SVGID_1_"
   gradientUnits="userSpaceOnUse"
   x1="78.228798"
   y1="665.99811"
   x2="35.872799"
   y2="722.05902"
   gradientTransform="translate(0,-614)">
		<stop
   offset="0"
   style="stop-color:#52BD15"
   id="stop22" />
		<stop
   offset="1"
   style="stop-color:#A0E35D"
   id="stop24" />
	</linearGradient>
	<path
   class="st2"
   d="M 98.2,49.7 120.7,24 C 107.2,13.7 90.6,8.5 73.7,9.3 38.4,10.8 8.7,37.7 10.5,71.7 c 1.6,19.4 12.6,37.1 29.6,47 8.7,5.1 18.7,7.8 28.8,7.5 22.7,-0.9 41.9,-16.6 43.2,-38.5 1,-20.2 -15.4,-40.8 -38.2,-37.4 -14,2.1 -25.5,12.6 -25.8,26.4 0,8.3 3.8,16.1 10.4,21.2 l 1.8,-2.1 3.9,-4.7 c -3,-2.7 -4.8,-6.7 -4.8,-10.8 0.3,-8.9 7.7,-15.8 16.6,-15.6 10.5,0.6 18.7,9.5 18.3,20.1 0,0.8 -0.1,1.6 -0.3,2.3 -1.8,11.1 -11.4,19.1 -22.8,18.9 -5.7,0.2 -11.3,-1.4 -16,-4.6 -7.8,-5.9 -12.4,-15.1 -12.5,-25 0,-2.8 0.4,-5.6 1.3,-8.4 0.8,-2.6 1.9,-5.1 3.4,-7.5 1.5,-2.3 3.2,-4.4 5.3,-6.3 2,-1.9 4.2,-3.6 6.7,-4.9 2.5,-1.4 5.2,-2.5 7.9,-3.3 2.8,-0.8 5.8,-1.4 8.7,-1.6 3.8,-0.2 7.7,0.3 11.3,1.2 3.9,0.7 7.6,2.2 10.9,4.1 z"
   id="path27"
   style="clip-rule:evenodd;fill:#495057;fill-opacity:1;fill-rule:evenodd"
   inkscape:connector-curvature="0" />
	
		<linearGradient
   id="SVGID_2_"
   gradientUnits="userSpaceOnUse"
   x1="61.124802"
   y1="761.36188"
   x2="120.181"
   y2="694.31042"
   gradientTransform="translate(0,-614)">
		<stop
   offset="0"
   style="stop-color:#52BD15"
   id="stop29" />
		<stop
   offset="1"
   style="stop-color:#A0E35D"
   id="stop31" />
	</linearGradient>
	<path
   class="st3"
   d="M 37.3,123.2 18,145.5 c 13.5,10.5 30.3,15.8 47.4,14.9 19.6,-0.5 38.8,-9.4 50.9,-24.7 l 0.4,-0.5 c 4.6,-5.6 7.9,-12.2 9.9,-19 3.9,-19 -2,-38.8 -15.8,-52.6 6.2,9.7 8.1,21.4 5.2,32.4 -5.3,21.1 -24.8,34.4 -46.9,35.3 C 58,131.8 46.8,129 37.3,123.2 Z"
   id="path34"
   style="clip-rule:evenodd;fill:#495057;fill-opacity:1;fill-rule:evenodd"
   inkscape:connector-curvature="0" />
	
		<linearGradient
   id="SVGID_3_"
   gradientUnits="userSpaceOnUse"
   x1="115.3082"
   y1="706.66058"
   x2="40.736801"
   y2="767.05151"
   gradientTransform="translate(0,-614)">
		<stop
   offset="0"
   style="stop-color:#134A00"
   id="stop36" />
		<stop
   offset="1"
   style="stop-color:#134A00;stop-opacity:0"
   id="stop38" />
	</linearGradient>
	<path
   class="st4"
   d="m 18,145.5 c 15.5,12 35.2,17.1 54.5,14.4 l 0.7,-29 c -14.1,1.9 -26.5,-2.4 -35.9,-7.7 z"
   id="path41"
   style="clip-rule:evenodd;fill:#495057;fill-opacity:1;fill-rule:evenodd"
   inkscape:connector-curvature="0" />
	
		<linearGradient
   id="SVGID_4_"
   gradientUnits="userSpaceOnUse"
   x1="88.4105"
   y1="691.75702"
   x2="31.7829"
   y2="711.85388"
   gradientTransform="translate(0,-614)">
		<stop
   offset="0"
   style="stop-color:#134A00"
   id="stop43" />
		<stop
   offset="1"
   style="stop-color:#134A00;stop-opacity:0"
   id="stop45" />
	</linearGradient>
	<path
   class="st5"
   d="m 11.9,80.4 c 6.9,28.2 29,38.7 29,38.7 l 15,-17.5 C 43.8,93 43.1,79 43.1,79 Z"
   id="path48"
   style="clip-rule:evenodd;fill:#495057;fill-opacity:1;fill-rule:evenodd"
   inkscape:connector-curvature="0" />
	
		<linearGradient
   id="SVGID_5_"
   gradientUnits="userSpaceOnUse"
   x1="44.107201"
   y1="707.27979"
   x2="48.400299"
   y2="643.539"
   gradientTransform="translate(0,-614)">
		<stop
   offset="0"
   style="stop-color:#134A00"
   id="stop50" />
		<stop
   offset="1"
   style="stop-color:#134A00;stop-opacity:0"
   id="stop52" />
	</linearGradient>
	<path
   class="st6"
   d="M 49.1,58.4 C 55.1,50.3 65,45.2 74.8,44.3 l -0.4,-35 c 0,0 -33,-0.7 -53.9,28 z"
   id="path55"
   style="clip-rule:evenodd;fill:#495057;fill-opacity:1;fill-rule:evenodd"
   inkscape:connector-curvature="0" />
	
		<linearGradient
   id="SVGID_6_"
   gradientUnits="userSpaceOnUse"
   x1="56.459801"
   y1="730.01428"
   x2="22.937201"
   y2="669.90778"
   gradientTransform="translate(0,-614)">
		<stop
   offset="0"
   style="stop-color:#134A00"
   id="stop57" />
		<stop
   offset="1"
   style="stop-color:#134A00;stop-opacity:0"
   id="stop59" />
	</linearGradient>
	<path
   class="st7"
   d="M 49.1,58.4 20.6,37.3 c -9,12.5 -12.1,28.2 -8.7,43.2 l 31.2,-1.4 c -0.7,-7.5 1.4,-14.8 6,-20.7 z"
   id="path62"
   style="clip-rule:evenodd;fill:#495057;fill-opacity:1;fill-rule:evenodd"
   inkscape:connector-curvature="0" />
	
		<linearGradient
   id="SVGID_7_"
   gradientUnits="userSpaceOnUse"
   x1="48.875099"
   y1="657.9978"
   x2="77.255096"
   y2="689.86102"
   gradientTransform="translate(0,-614)">
		<stop
   offset="0"
   style="stop-color:#FFFFFF"
   id="stop64" />
		<stop
   offset="1"
   style="stop-color:#FFFFFF;stop-opacity:0"
   id="stop66" />
	</linearGradient>
	<path
   class="st8"
   d="M 104.8,63.5 C 97.9,53.5 85.9,48.4 73.9,50.3 59.9,52.4 48.4,62.9 48.2,76.7 48.2,85 52,92.8 58.6,97.9 l 1,-1.2 C 51,87 50.5,70.5 60.9,63.1 c 17.6,-12.7 38.3,-2.3 44.7,16.3 2,6.7 3.2,13.6 3.6,20.6 4.9,-12.2 3.3,-25.9 -4.4,-36.5 z"
   id="path69"
   style="clip-rule:evenodd;fill:#495057;fill-opacity:1;fill-rule:evenodd"
   inkscape:connector-curvature="0" />
	
		<linearGradient
   id="SVGID_8_"
   gradientUnits="userSpaceOnUse"
   x1="89.713997"
   y1="674.56128"
   x2="136.22771"
   y2="728.50629"
   gradientTransform="translate(0,-614)">
		<stop
   offset="0"
   style="stop-color:#134A00"
   id="stop71" />
		<stop
   offset="1"
   style="stop-color:#134A00;stop-opacity:0"
   id="stop73" />
	</linearGradient>
	<path
   class="st9"
   d="m 111.4,107.5 14.1,12.2 c 0.2,-0.8 0.9,-2.6 1.1,-3.4 4,-19.1 -1.9,-39 -15.7,-52.8 6.3,9.7 8.2,21.6 5.4,32.7 -1.3,3.9 -2.9,7.7 -4.9,11.3 z"
   id="path76"
   style="clip-rule:evenodd;fill:#495057;fill-opacity:1;fill-rule:evenodd"
   inkscape:connector-curvature="0" />
	
		<linearGradient
   id="SVGID_9_"
   gradientUnits="userSpaceOnUse"
   x1="27.935499"
   y1="801.01782"
   x2="109.0313"
   y2="677.47162"
   gradientTransform="translate(0,-614)">
		<stop
   offset="0"
   style="stop-color:#134A00"
   id="stop78" />
		<stop
   offset="1"
   style="stop-color:#134A00;stop-opacity:0"
   id="stop80" />
	</linearGradient>
	<path
   class="st10"
   d="m 64.9,137.8 c 24.5,-1 45.8,-15.8 51.4,-38.7 3,-12.2 2.6,-23.1 -5.6,-35.7 6.2,9.7 8,21.5 5.2,32.5 -5.3,21.1 -24.5,34.3 -46.9,35.3 -11.1,0.5 -22.1,-2.3 -31.8,-8 l -5.8,6.5 c 10.4,5.8 21.9,8.6 33.5,8.1 z"
   id="path83"
   style="clip-rule:evenodd;fill:#495057;fill-opacity:1;fill-rule:evenodd"
   inkscape:connector-curvature="0" />
	
		<linearGradient
   id="SVGID_10_"
   gradientUnits="userSpaceOnUse"
   x1="82.215599"
   y1="695.31531"
   x2="96.106903"
   y2="636.867"
   gradientTransform="translate(0,-614)">
		<stop
   offset="0"
   style="stop-color:#134A00"
   id="stop85" />
		<stop
   offset="1"
   style="stop-color:#134A00;stop-opacity:0"
   id="stop87" />
	</linearGradient>
	<path
   class="st11"
   d="M 74.7,44.3 74.5,9.2 c 16.6,-0.5 33,4.7 46.1,14.8 L 98.2,49.7 C 90.9,45.5 81.4,43.4 74.7,44.3 Z"
   id="path90"
   style="clip-rule:evenodd;fill:#495057;fill-opacity:1;fill-rule:evenodd"
   inkscape:connector-curvature="0" />
	
		<linearGradient
   id="SVGID_11_"
   gradientUnits="userSpaceOnUse"
   x1="50.126701"
   y1="-83.281197"
   x2="109.2855"
   y2="-49.7342"
   gradientTransform="matrix(1,0.00541049,-0.00541049,1,-40.0689,113.8741)">
		<stop
   offset="0"
   style="stop-color:#FFFFFF;stop-opacity:0.5"
   id="stop92" />
		<stop
   offset="1"
   style="stop-color:#FFFFFF;stop-opacity:0"
   id="stop94" />
	</linearGradient>
	<path
   class="st12"
   d="M 120.7,24.1 C 107.2,13.7 90.6,8.5 73.7,9.3 38.4,10.8 8.7,37.7 10.5,71.7 c 1.6,19.4 12.6,37.1 29.6,47 6.6,3.9 14,6.4 21.6,7.3 2,0.2 3.9,0.3 6,0.2 -24.8,-0.9 -46,-22.9 -47.3,-47.4 -1.6,-29.8 24.5,-53.2 55,-54.5 12.8,-0.5 25.5,2.9 36.4,9.8 z"
   id="path97"
   style="clip-rule:evenodd;fill:#495057;fill-opacity:1;fill-rule:evenodd"
   inkscape:connector-curvature="0" />
	
		<linearGradient
   id="SVGID_12_"
   gradientUnits="userSpaceOnUse"
   x1="14.2455"
   y1="636.73853"
   x2="76.037201"
   y2="682.36328"
   gradientTransform="translate(0,-614)">
		<stop
   offset="0"
   style="stop-color:#FFFFFF;stop-opacity:0.5"
   id="stop99" />
		<stop
   offset="1"
   style="stop-color:#FFFFFF;stop-opacity:0"
   id="stop101" />
	</linearGradient>
	<path
   class="st13"
   d="M 120.7,24.1 C 107.2,13.7 90.6,8.5 73.7,9.3 38.4,10.8 8.7,37.7 10.5,71.7 c 1.6,19.4 12.6,37.1 29.6,47 6.6,3.9 14,6.4 21.6,7.3 2,0.2 3.9,0.3 6,0.2 -24.8,-0.9 -46,-22.9 -47.3,-47.4 -1.6,-29.8 24.5,-53.2 55,-54.5 12.8,-0.5 25.5,2.9 36.4,9.8 z"
   id="path104"
   style="clip-rule:evenodd;fill:#495057;fill-opacity:1;fill-rule:evenodd"
   inkscape:connector-curvature="0" />
	
		<linearGradient
   id="SVGID_13_"
   gradientUnits="userSpaceOnUse"
   x1="139.31551"
   y1="755.90942"
   x2="68.436096"
   y2="701.42029"
   gradientTransform="translate(0,-614)">
		<stop
   offset="0"
   style="stop-color:#134A00"
   id="stop106" />
		<stop
   offset="1"
   style="stop-color:#134A00;stop-opacity:0"
   id="stop108" />
	</linearGradient>
	<path
   class="st14"
   d="m 110.1,97.6 c -1.1,3 -2.5,5.9 -4.1,8.7 -3.7,5.7 -9,10.5 -15.1,13.8 -6,3.3 -12.5,5.3 -19.3,5.8 -5.9,0.5 -11.7,0 -17.5,-1.4 -1.2,-0.3 -2.4,-0.6 -3.5,-1 -3.6,-1.2 -7.2,-2.8 -10.5,-4.8 -3.3,-1.9 -6.5,-4.2 -9.3,-6.9 -2.7,-2.4 -5.3,-5 -7.5,-8 -0.4,-0.6 -0.8,-1.1 -1.2,-1.7 -0.4,-0.6 -0.9,-1.2 -1.3,-1.8 2.4,2.7 5.2,5.2 8.1,7.5 1.6,1.3 3.3,2.4 5.2,3.4 0.8,0.5 1.6,0.9 2.4,1.4 1.1,0.6 2.2,1.1 3.3,1.6 0.6,0.3 1.2,0.5 1.9,0.8 1.1,0.4 2.2,0.8 3.3,1.2 0.8,0.3 1.7,0.5 2.5,0.7 1.6,0.4 3.3,0.8 5.1,1.1 7.5,1.2 15.3,0.8 22.6,-1.2 l 0.9,-0.2 c 1.3,-0.3 2.5,-0.7 3.7,-1.2 h 0.1 C 97.3,108.4 105.7,88.8 98.6,71.5 95.8,64.5 90.7,58.7 84.1,54.9 82,53.7 79.8,52.7 77.4,52 l -0.2,-0.1 c -1.8,-0.6 -3.7,-1 -5.7,-1.2 1.3,-0.3 2.6,-0.4 3.9,-0.6 2.8,-0.2 5.8,-0.1 8.6,0.3 0.9,0.2 1.9,0.3 2.9,0.6 3.8,1.2 7.6,3 10.8,5.4 0.6,0.5 1.6,1.3 2.2,1.9 0.7,0.6 1.4,1.3 2,2 0.1,0.1 0.5,0.6 0.6,0.7 5,5.7 8.1,12.8 9.1,20.3 0.2,1.8 0.3,3.5 0.2,5.3 0.3,3.9 -0.4,7.5 -1.7,11 z"
   id="path111"
   style="clip-rule:evenodd;fill:#495057;fill-opacity:1;fill-rule:evenodd"
   inkscape:connector-curvature="0" />
	
		<linearGradient
   id="SVGID_14_"
   gradientUnits="userSpaceOnUse"
   x1="139.31551"
   y1="755.90942"
   x2="68.436096"
   y2="701.42029"
   gradientTransform="translate(0,-614)">
		<stop
   offset="0"
   style="stop-color:#134A00"
   id="stop113" />
		<stop
   offset="1"
   style="stop-color:#134A00;stop-opacity:0"
   id="stop115" />
	</linearGradient>
	<path
   class="st15"
   d="m 110.1,97.6 c -1.1,3 -2.5,5.9 -4.1,8.7 -3.7,5.7 -9,10.5 -15.1,13.8 -6,3.3 -12.5,5.3 -19.3,5.8 -5.9,0.5 -11.7,0 -17.5,-1.4 -1.2,-0.3 -2.4,-0.6 -3.5,-1 -3.6,-1.2 -7.2,-2.8 -10.5,-4.8 -3.3,-1.9 -6.5,-4.2 -9.3,-6.9 -2.7,-2.4 -5.3,-5 -7.5,-8 -0.4,-0.6 -0.8,-1.1 -1.2,-1.7 -0.4,-0.6 -0.9,-1.2 -1.3,-1.8 2.4,2.7 5.2,5.2 8.1,7.5 1.6,1.3 3.3,2.4 5.2,3.4 0.8,0.5 1.6,0.9 2.4,1.4 1.1,0.6 2.2,1.1 3.3,1.6 0.6,0.3 1.2,0.5 1.9,0.8 1.1,0.4 2.2,0.8 3.3,1.2 0.8,0.3 1.7,0.5 2.5,0.7 1.6,0.4 3.3,0.8 5.1,1.1 7.5,1.2 15.3,0.8 22.6,-1.2 l 0.9,-0.2 c 1.3,-0.3 2.5,-0.7 3.7,-1.2 h 0.1 C 97.3,108.4 105.7,88.8 98.6,71.5 95.8,64.5 90.7,58.7 84.1,54.9 82,53.7 79.8,52.7 77.4,52 l -0.2,-0.1 c -1.8,-0.6 -3.7,-1 -5.7,-1.2 1.3,-0.3 2.6,-0.4 3.9,-0.6 2.8,-0.2 5.8,-0.1 8.6,0.3 0.9,0.2 1.9,0.3 2.9,0.6 3.8,1.2 7.6,3 10.8,5.4 0.6,0.5 1.6,1.3 2.2,1.9 0.7,0.6 1.4,1.3 2,2 0.1,0.1 0.5,0.6 0.6,0.7 5,5.7 8.1,12.8 9.1,20.3 0.2,1.8 0.3,3.5 0.2,5.3 0.3,3.9 -0.4,7.5 -1.7,11 z"
   id="path118"
   style="clip-rule:evenodd;fill:#495057;fill-opacity:1;fill-rule:evenodd"
   inkscape:connector-curvature="0" />
	
		<linearGradient
   id="SVGID_15_"
   gradientUnits="userSpaceOnUse"
   x1="95.233597"
   y1="692.16333"
   x2="99.293602"
   y2="760.05609"
   gradientTransform="translate(0,-614)">
		<stop
   offset="0"
   style="stop-color:#134A00"
   id="stop120" />
		<stop
   offset="1"
   style="stop-color:#134A00;stop-opacity:0"
   id="stop122" />
	</linearGradient>
	<path
   class="st16"
   d="m 72.5,159.9 c 16.1,-1.9 33.1,-10.7 42.9,-23.2 l 0.8,-1 c 3.8,-4.8 7,-10.3 9.1,-16 l -14.1,-12.2 c -7.5,12.8 -22.7,22 -38.1,23.4 z"
   id="path125"
   style="clip-rule:evenodd;fill:#495057;fill-opacity:1;fill-rule:evenodd"
   inkscape:connector-curvature="0" />
	
		<linearGradient
   id="SVGID_16_"
   gradientUnits="userSpaceOnUse"
   x1="148.76311"
   y1="829.25897"
   x2="69.1157"
   y2="724.26459"
   gradientTransform="translate(0,-614)">
		<stop
   offset="0"
   style="stop-color:#FFFFFF"
   id="stop127" />
		<stop
   offset="1"
   style="stop-color:#FFFFFF;stop-opacity:0"
   id="stop129" />
	</linearGradient>
	<path
   class="st17"
   d="m 18,145.5 c 13.5,10.5 30.3,15.8 47.4,14.9 19.6,-0.5 39,-9.6 50.9,-24.7 l 0.4,-0.5 c 4.6,-5.6 7.9,-12.2 9.9,-19 0.6,-2.4 0.9,-4.8 1,-7.4 0.2,-2.4 0.2,-4.9 0.1,-7.4 -0.5,-9.9 -3.5,-19.5 -8.9,-27.9 -2.3,-3.6 -5,-7 -8,-10 0.5,0.7 1,1.4 1.4,2.2 3.2,4.5 5.9,9.6 7.9,14.7 1.9,5.1 3,10.5 3.2,15.9 v 0.2 c 0,0.2 0,0.3 0,0.5 0.1,2.3 0,4.7 -0.3,7.1 -0.2,2.3 -0.5,4.6 -1.1,6.9 -1.9,6.3 -5,12.4 -9.2,17.5 l -0.4,0.5 c -11.6,14 -28.7,22.4 -47,22.9 -15.1,0.6 -29.8,-3.8 -42.1,-12.6 z"
   id="path132"
   style="clip-rule:evenodd;fill:#495057;fill-opacity:1;fill-rule:evenodd"
   inkscape:connector-curvature="0" />
	
		<linearGradient
   id="SVGID_17_"
   gradientUnits="userSpaceOnUse"
   x1="124.3756"
   y1="6.8534999"
   x2="126.4309"
   y2="72.764603"
   gradientTransform="matrix(0.9999,-0.01274056,0.01274056,0.9999,-28.1238,75.5271)">
		<stop
   offset="0"
   style="stop-color:#134A00"
   id="stop134" />
		<stop
   offset="1"
   style="stop-color:#134A00;stop-opacity:0"
   id="stop136" />
	</linearGradient>
	<path
   class="st18"
   d="m 72.5,159.9 c 16.1,-1.9 33.1,-10.7 42.9,-23.2 l 0.8,-1 c 3.8,-4.8 7,-10.3 9.1,-16 l -14.1,-12.2 c -7.5,12.8 -22.7,22 -38.1,23.4 z"
   id="path139"
   style="clip-rule:evenodd;fill:#495057;fill-opacity:1;fill-rule:evenodd"
   inkscape:connector-curvature="0" />
	
		<linearGradient
   id="SVGID_18_"
   gradientUnits="userSpaceOnUse"
   x1="155.57159"
   y1="836.19788"
   x2="57.0336"
   y2="708.56488"
   gradientTransform="translate(0,-614)">
		<stop
   offset="0"
   style="stop-color:#FFFFFF"
   id="stop141" />
		<stop
   offset="1"
   style="stop-color:#FFFFFF;stop-opacity:0"
   id="stop143" />
	</linearGradient>
	<path
   class="st19"
   d="m 18,145.5 c 13.5,10.5 30.3,15.8 47.4,14.9 19.6,-0.5 39,-9.6 50.9,-24.7 l 0.4,-0.5 c 4.6,-5.6 7.9,-12.2 9.9,-19 0.6,-2.4 0.9,-4.8 1,-7.4 0.2,-2.4 0.2,-4.9 0.1,-7.4 -0.5,-9.9 -3.5,-19.5 -8.9,-27.9 -2.3,-3.6 -5,-7 -8,-10 0.5,0.7 1,1.4 1.4,2.2 3.2,4.5 5.9,9.6 7.9,14.7 1.9,5.1 3,10.5 3.2,15.9 v 0.2 c 0,0.2 0,0.3 0,0.5 0.1,2.3 0,4.7 -0.3,7.1 -0.2,2.3 -0.5,4.6 -1.1,6.9 -1.9,6.3 -5,12.4 -9.2,17.5 l -0.4,0.5 c -9.2,13.1 -24.4,20.8 -47,22.9 -15,1.4 -30,-3.9 -42.1,-12.6 z"
   id="path146"
   style="clip-rule:evenodd;fill:#495057;fill-opacity:1;fill-rule:evenodd"
   inkscape:connector-curvature="0" />
</g>

</svg>