<?xml version="1.0" encoding="iso-8859-1"?>
<!-- Generator: Adobe Illustrator 19.0.0, SVG Export Plug-In . SVG Version: 6.00 Build 0)  -->
<svg version="1.1" id="Capa_1" xmlns="http://www.w3.org/2000/svg" xmlns:xlink="http://www.w3.org/1999/xlink" x="0px" y="0px"
	 viewBox="0 0 512 512" style="enable-background:new 0 0 512 512;" xml:space="preserve">
<path style="fill:#FFFFFF;" d="M297.975,10H30c-11.046,0-20,8.954-20,20v452c0,11.046,8.954,20,20,20h343.975
	c11.046,0,20-8.954,20-20V106.003L297.975,10z"/>
<path style="fill:#FEDA9B;" d="M317.975,106.003h76l-96-96.001v76.001C297.975,97.049,306.929,106.003,317.975,106.003z"/>
<rect x="126" y="412.37" style="fill:#36D28F;" width="64" height="89.62"/>
<rect x="334" y="285" style="fill:#72D8FF;" width="64" height="217"/>
<rect x="230" y="355" style="fill:#FFC66C;" width="64" height="147"/>
<rect x="438" y="218.75" style="fill:#4DBAF6;" width="64" height="283.25"/>
<path style="fill:#36D28F;" d="M145.576,174.152h81.975c0,45.273-36.701,81.975-81.975,81.975s-81.975-36.701-81.975-81.975
	c0-45.273,36.701-81.975,81.975-81.975L145.576,174.152L145.576,174.152z"/>
<path style="fill:#FFC66C;" d="M145.576,64.729v109.424H255C255,113.719,206.009,64.729,145.576,64.729z"/>
<path d="M502,208.749h-64c-5.523,0-10,4.478-10,10v50.5c0,5.522,4.477,10,10,10s10-4.478,10-10v-40.5h44V492h-22h-22V344.249
	c0-5.522-4.477-10-10-10s-10,4.478-10,10V492h-20V285c0-5.522-4.477-10-10-10h-64c-5.523,0-10,4.478-10,10v207h-20V355
	c0-5.522-4.477-10-10-10h-64c-5.523,0-10,4.478-10,10v137h-20v-79.625c0-5.522-4.477-10-10-10h-64c-5.523,0-10,4.478-10,10V492H30
	c-5.514,0-10-4.486-10-10V30c0-5.514,4.486-10,10-10h257.975v66.003c0,16.542,13.458,30,30,30h66V239c0,5.522,4.477,10,10,10
	s10-4.478,10-10V106.003c0-2.652-1.054-5.195-2.929-7.071l-96-96.003C303.17,1.054,300.627,0,297.975,0H30C13.458,0,0,13.458,0,30
	v452c0,16.542,13.458,30,30,30h472c5.523,0,10-4.478,10-10V218.749C512,213.227,507.523,208.749,502,208.749z M307.975,86.003
	v-51.86l61.859,61.86h-51.859C312.46,96.003,307.975,91.517,307.975,86.003z M136,492v-69.625h44V492H136z M240,492V365h44v127H240z
	 M344,492V295h44v197H344z"/>
<path d="M438,314.89c2.63,0,5.21-1.07,7.07-2.93c1.86-1.86,2.93-4.44,2.93-7.07s-1.07-5.21-2.93-7.07
	c-1.86-1.869-4.44-2.93-7.07-2.93s-5.21,1.061-7.07,2.93c-1.86,1.86-2.93,4.44-2.93,7.07s1.07,5.21,2.93,7.07
	C432.79,313.819,435.37,314.89,438,314.89z"/>
<path d="M145.577,54.729c-5.523,0-10,4.478-10,10v17.989c-46.031,4.997-81.975,44.097-81.975,91.435
	c0,50.715,41.26,91.975,91.975,91.975c47.338,0,86.438-35.943,91.435-81.975H255c5.523,0,10-4.478,10-10
	C265,108.302,211.427,54.729,145.577,54.729z M145.577,246.127c-39.687,0-71.975-32.288-71.975-71.975
	c0-36.293,27.005-66.399,61.975-71.282v71.282c0,5.522,4.477,10,10,10h71.282C211.976,219.122,181.87,246.127,145.577,246.127z
	 M155.577,164.152V75.228c46.852,4.702,84.222,42.073,88.924,88.925h-88.924V164.152z"/>
<path d="M265,304.25c0-5.522-4.477-10-10-10H64c-5.523,0-10,4.478-10,10s4.477,10,10,10h191C260.523,314.25,265,309.772,265,304.25z
	"/>
<path d="M64,342.5c-5.523,0-10,4.478-10,10s4.477,10,10,10h64c5.523,0,10-4.478,10-10s-4.477-10-10-10H64z"/>
<path d="M171.01,345.43c-1.87,1.86-2.93,4.44-2.93,7.07s1.06,5.21,2.93,7.069c1.86,1.86,4.43,2.931,7.07,2.931
	c2.63,0,5.21-1.07,7.07-2.931c1.86-1.859,2.93-4.439,2.93-7.069s-1.07-5.21-2.93-7.07s-4.44-2.93-7.07-2.93
	C175.44,342.5,172.87,343.569,171.01,345.43z"/>
<g>
</g>
<g>
</g>
<g>
</g>
<g>
</g>
<g>
</g>
<g>
</g>
<g>
</g>
<g>
</g>
<g>
</g>
<g>
</g>
<g>
</g>
<g>
</g>
<g>
</g>
<g>
</g>
<g>
</g>
</svg>
