<?xml version="1.0" encoding="iso-8859-1"?>
<!-- Generator: Adobe Illustrator 19.0.0, SVG Export Plug-In . SVG Version: 6.00 Build 0)  -->
<svg version="1.1" id="Capa_1" xmlns="http://www.w3.org/2000/svg" xmlns:xlink="http://www.w3.org/1999/xlink" x="0px" y="0px"
	 viewBox="0 0 512 512" style="enable-background:new 0 0 512 512;" xml:space="preserve">
<path style="fill:#FFFFFF;" d="M10,49.929v328.006c0,11.046,8.954,20,20,20h398.007c11.046,0,20-8.954,20-20V49.929
	c0-11.046-8.954-20-20-20H30.001C18.954,29.929,10,38.883,10,49.929z"/>
<path style="fill:#C9F3FF;" d="M30.001,29.929h398.007c11.046,0,20,8.954,20,20v68.001H10V49.929
	C10,38.883,18.954,29.929,30.001,29.929z"/>
<rect x="64.001" y="173.933" style="fill:#36D28F;" width="168.003" height="168.003"/>
<path style="fill:#4DBAF6;" d="M301.751,381.252L427.89,162.774c4.958-8.587,15.937-11.529,24.524-6.571l40.615,23.449
	c8.587,4.958,11.529,15.937,6.571,24.524L373.463,422.654L301.751,381.252z"/>
<path style="fill:#FFB954;" d="M478.551,240.633l21.048-36.458c4.958-8.587,2.016-19.567-6.571-24.524l-40.615-23.449
	c-8.587-4.958-19.567-2.016-24.524,6.571l-21.048,36.458L478.551,240.633z"/>
<polygon style="fill:#D8D8E4;" points="291.35,482.073 301.751,381.252 373.463,422.654 "/>
<path d="M62.439,63.929c-5.523,0-10,4.478-10,10c0,5.522,4.477,10,10,10h0.094c5.523,0,9.953-4.478,9.953-10
	C72.486,68.407,67.962,63.929,62.439,63.929z"/>
<path d="M107.944,63.929c-5.523,0-10,4.478-10,10c0,5.522,4.477,10,10,10h0.094c5.523,0,9.953-4.478,9.953-10
	C117.991,68.407,113.467,63.929,107.944,63.929z"/>
<path d="M153.45,63.929c-5.523,0-10,4.478-10,10c0,5.522,4.477,10,10,10h0.093c5.523,0,9.954-4.478,9.954-10
	C163.497,68.407,158.973,63.929,153.45,63.929z"/>
<path d="M395.007,63.928H231.76c-5.523,0-10,4.478-10,10c0,5.522,4.477,10,10,10h163.247c5.523,0,10-4.478,10-10
	C405.007,68.406,400.53,63.928,395.007,63.928z"/>
<path d="M242.334,387.932c-2.63,0-5.21,1.07-7.07,2.93s-2.93,4.44-2.93,7.07c0,2.63,1.07,5.21,2.93,7.07
	c1.86,1.859,4.44,2.93,7.07,2.93s5.21-1.07,7.07-2.93c1.87-1.86,2.93-4.44,2.93-7.07c0-2.63-1.06-5.21-2.93-7.07
	C247.554,389.003,244.974,387.932,242.334,387.932z"/>
<path d="M242.004,341.933V173.93c0-5.522-4.477-10-10-10H64.001c-5.523,0-10,4.478-10,10v168.003c0,5.522,4.477,10,10,10h168.003
	C237.527,351.933,242.004,347.456,242.004,341.933z M222.004,331.933H74.001V183.93h148.003V331.933z"/>
<path d="M498.03,170.991l-40.022-23.106V49.928c0-16.542-13.458-30.001-30.001-30.001H30.001C13.458,19.927,0,33.386,0,49.928
	v328.006c0,16.542,13.458,30.001,30.001,30.001h168.503c5.523,0,10-4.478,10-10s-4.477-10-10-10H30.001c-5.514,0-10-4.486-10-10
	V127.929h418.007v16.406c-0.603,0.12-1.205,0.253-1.805,0.414c-7.212,1.933-13.24,6.559-16.973,13.024l-31.268,54.157h-99.293
	c-5.523,0-10,4.478-10,10s4.477,10,10,10h87.746l-16.166,28h-71.579c-5.523,0-10,4.478-10,10s4.477,10,10,10h60.032l-16.166,28
	h-43.866c-5.523,0-10,4.478-10,10s4.477,10,10,10h32.319l-27.897,48.318c-0.704,1.219-1.143,2.573-1.287,3.974l-10.401,100.821
	c-0.404,3.922,1.533,7.716,4.947,9.687c1.552,0.896,3.278,1.34,4.999,1.34c2.064,0,4.122-0.638,5.863-1.898l82.112-59.419
	c1.141-0.825,2.094-1.883,2.798-3.102l11.385-19.719h34.5c16.542,0,30.001-13.458,30.001-30.001v-78.001
	c0-1.026-0.156-2.016-0.443-2.949l50.696-87.808C515.967,195.829,511.378,178.698,498.03,170.991z M20,107.929V49.928
	c0-5.514,4.486-10,10-10h398.007c5.514,0,10,4.486,10,10v58.001H20z M369.802,408.993l-54.39-31.403l95.09-164.699l54.39,31.402
	L369.802,408.993z M310.115,397.627l44.983,25.971l-51.508,37.273L310.115,397.627z M438.008,377.934c0,5.514-4.486,10-10,10
	h-22.953l32.954-57.076V377.934z M490.941,199.176l-16.048,27.797l-54.39-31.402l16.048-27.797c1.063-1.84,2.777-3.156,4.829-3.706
	c2.053-0.551,4.195-0.267,6.035,0.795l40.615,23.448C491.827,190.505,493.133,195.379,490.941,199.176z"/>
<path d="M137.431,293.004c1.953,1.952,4.512,2.929,7.071,2.929s5.119-0.977,7.071-2.929l56.001-56.001
	c3.905-3.905,3.905-10.237,0-14.143c-3.905-3.904-10.237-3.904-14.143,0l-48.929,48.93l-20.929-20.929
	c-3.905-3.904-10.237-3.904-14.143,0c-3.905,3.905-3.905,10.237,0,14.143L137.431,293.004z"/>
<path d="M370.707,183.93h-82.037c-5.523,0-10-4.478-10-10c0-5.522,4.477-10,10-10h82.037c5.523,0,10,4.478,10,10
	C380.707,179.452,376.23,183.93,370.707,183.93z"/>
<g>
</g>
<g>
</g>
<g>
</g>
<g>
</g>
<g>
</g>
<g>
</g>
<g>
</g>
<g>
</g>
<g>
</g>
<g>
</g>
<g>
</g>
<g>
</g>
<g>
</g>
<g>
</g>
<g>
</g>
</svg>
