<?xml version="1.0" encoding="iso-8859-1"?>
<!-- Generator: Adobe Illustrator 19.0.0, SVG Export Plug-In . SVG Version: 6.00 Build 0)  -->
<svg version="1.1" id="Capa_1" xmlns="http://www.w3.org/2000/svg" xmlns:xlink="http://www.w3.org/1999/xlink" x="0px" y="0px"
	 viewBox="0 0 512 512" style="enable-background:new 0 0 512 512;" xml:space="preserve">
<circle style="fill:#C9F3FF;" cx="256" cy="256" r="206"/>
<path style="fill:#36D28F;" d="M256,256.127l145.6,145.6c37.288-37.256,60.364-88.733,60.399-145.6H256z"/>
<path style="fill:#FFB954;" d="M461.999,256.127c0-0.042,0.001-0.085,0.001-0.127c0-113.771-92.229-206-206-206v206.127H461.999z"/>
<path d="M415.67,266.13c2.63,0,5.2-1.07,7.07-2.93c1.86-1.87,2.93-4.44,2.93-7.07s-1.07-5.21-2.93-7.07
	c-1.86-1.87-4.44-2.93-7.07-2.93c-2.64,0-5.21,1.06-7.07,2.93c-1.87,1.86-2.93,4.44-2.93,7.07s1.06,5.21,2.93,7.07
	C410.46,265.06,413.04,266.13,415.67,266.13z"/>
<path d="M502,364.258h-38.179l-13.574-13.574C464.473,321.564,472,289.362,472,256c0-54.35-19.944-105.63-56.359-145.498L452.142,74
	H502c5.523,0,10-4.477,10-10s-4.477-10-10-10h-54c-2.652,0-5.196,1.054-7.071,2.929L401.498,96.36C361.63,59.944,310.35,40,256,40
	S150.37,59.944,110.502,96.359l-53.431-53.43C55.196,41.054,52.652,40,50,40H10C4.477,40,0,44.477,0,50s4.477,10,10,10h35.858
	l50.501,50.502C59.944,150.37,40,201.65,40,256c0,57.696,22.468,111.938,63.265,152.735S198.304,472,256,472
	s111.938-22.468,152.735-63.265c12.16-12.16,22.678-25.522,31.471-39.807l12.402,12.402c1.875,1.875,4.419,2.929,7.071,2.929H502
	c5.523,0,10-4.477,10-10S507.523,364.258,502,364.258z M60,256c0-50.447,19.162-96.5,50.584-131.274l41.845,41.845
	c1.953,1.953,4.512,2.929,7.071,2.929s5.119-0.976,7.071-2.929c3.905-3.905,3.905-10.237,0-14.143l-41.845-41.845
	C157.188,81.251,199.479,62.602,246,60.253v195.874c0,2.761,1.119,5.261,2.929,7.071l0,0l138.278,138.278
	C352.44,432.862,306.415,452,256,452C147.925,452,60,364.075,60,256z M401.356,387.341L280.143,266.127H371c5.523,0,10-4.477,10-10
	s-4.477-10-10-10H266V60.253c46.521,2.349,88.812,20.998,121.273,50.331l-38.845,38.845c-3.905,3.905-3.905,10.237,0,14.143
	c1.953,1.953,4.512,2.929,7.071,2.929s5.119-0.976,7.071-2.929l38.845-38.845C432.838,159.5,452,205.553,452,256
	c0,28.307-6.041,55.226-16.887,79.55l-24.652-24.653c-3.905-3.905-10.237-3.905-14.143,0s-3.905,10.237,0,14.143l29.218,29.218
	C418.629,366.13,410.515,377.215,401.356,387.341z"/>
<path d="M99.04,266.375c5.523-0.021,9.982-4.516,9.961-10.039V256c0-5.523-4.477-10-10-10s-10,4.477-10,10v0.415
	c0.021,5.51,4.495,9.961,9.999,9.961C99.013,266.375,99.026,266.375,99.04,266.375z"/>
<path d="M165.645,371.96c-23.194-18.1-40.267-42.361-49.373-70.162c-1.72-5.249-7.368-8.11-12.616-6.39
	c-5.249,1.719-8.109,7.367-6.39,12.616c10.347,31.59,29.737,59.151,56.074,79.704c1.828,1.426,3.994,2.117,6.146,2.117
	c2.975,0,5.918-1.322,7.891-3.848C170.773,381.643,169.999,375.358,165.645,371.96z"/>
<g>
</g>
<g>
</g>
<g>
</g>
<g>
</g>
<g>
</g>
<g>
</g>
<g>
</g>
<g>
</g>
<g>
</g>
<g>
</g>
<g>
</g>
<g>
</g>
<g>
</g>
<g>
</g>
<g>
</g>
</svg>
