<?xml version="1.0" encoding="iso-8859-1"?>
<!-- Generator: Adobe Illustrator 19.0.0, SVG Export Plug-In . SVG Version: 6.00 Build 0)  -->
<svg version="1.1" id="Capa_1" xmlns="http://www.w3.org/2000/svg" xmlns:xlink="http://www.w3.org/1999/xlink" x="0px" y="0px"
	 viewBox="0 0 512 512" style="enable-background:new 0 0 512 512;" xml:space="preserve">
<path style="fill:#FFFFFF;" d="M428,78H100c-11.046,0-20,8.954-20,20v384c0,11.046,8.954,20,20,20h328c11.046,0,20-8.954,20-20V98
	C448,86.954,439.046,78,428,78z"/>
<rect x="128" y="158" style="fill:#FF5D5D;" width="272" height="104"/>
<circle style="fill:#FFFFFF;" cx="428" cy="84" r="74"/>
<circle style="fill:#4cbd89;" cx="428" cy="84" r="74"/>
<rect x="128" y="314" style="fill:#FF5D5D;" width="111.77" height="104"/>
<path style="fill:#FFC89F;" d="M80,336l40.511-13.106c14.669-4.746,30.209,4.303,33.321,19.404l0,0
	c1.991,9.659-1.68,19.609-9.465,25.662L80,418v84H10V329.575l70-106.241V336z"/>
<path d="M428,0c-46.318,0-84,37.683-84,84s37.682,84,84,84s84-37.683,84-84S474.318,0,428,0z M428,148c-35.29,0-64-28.71-64-64
	s28.71-64,64-64s64,28.71,64,64S463.29,148,428,148z"/>
<path d="M301.93,150.93c-1.86,1.86-2.93,4.44-2.93,7.07s1.07,5.21,2.93,7.069c1.86,1.86,4.44,2.931,7.07,2.931s5.21-1.07,7.07-2.931
	c1.86-1.859,2.93-4.439,2.93-7.069s-1.07-5.21-2.93-7.07S311.63,148,309,148S303.79,149.069,301.93,150.93z"/>
<path d="M410,207.167c0-5.522-4.477-10-10-10s-10,4.478-10,10V252H138v-84h118c5.523,0,10-4.478,10-10s-4.477-10-10-10H128
	c-5.523,0-10,4.478-10,10v104c0,5.522,4.477,10,10,10h272c5.523,0,10-4.478,10-10V207.167z"/>
<path d="M400,356H288.232c-5.523,0-10,4.478-10,10s4.477,10,10,10H400c5.523,0,10-4.478,10-10S405.523,356,400,356z"/>
<path d="M400,304H288.232c-5.523,0-10,4.478-10,10s4.477,10,10,10H400c5.523,0,10-4.478,10-10S405.523,304,400,304z"/>
<path d="M400,408H288.232c-5.523,0-10,4.478-10,10s4.477,10,10,10H400c5.523,0,10-4.478,10-10S405.523,408,400,408z"/>
<path d="M128,408c-5.523,0-10,4.478-10,10s4.477,10,10,10h111.768c5.523,0,10-4.478,10-10V314c0-5.522-4.477-10-10-10h-55.884
	c-5.523,0-10,4.478-10,10s4.477,10,10,10h45.884v84H128z"/>
<path d="M448,201.5c-5.523,0-10,4.478-10,10v86.307c0,5.522,4.477,10,10,10s10-4.478,10-10V211.5
	C458,205.978,453.523,201.5,448,201.5z"/>
<path d="M448,328c-2.63,0-5.21,1.069-7.07,2.93c-1.86,1.86-2.93,4.44-2.93,7.07s1.07,5.21,2.93,7.069
	c1.86,1.86,4.44,2.931,7.07,2.931s5.21-1.07,7.07-2.931c1.86-1.859,2.93-4.439,2.93-7.069s-1.07-5.21-2.93-7.07S450.63,328,448,328z
	"/>
<path d="M448,372.689c-5.523,0-10,4.478-10,10V482c0,5.514-4.486,10-10,10H100c-5.514,0-10-4.486-10-10v-59.107l60.504-47.038
	c10.875-8.453,15.902-22.085,13.122-35.575c-2.056-9.979-8.285-18.642-17.089-23.769c-8.804-5.124-19.413-6.267-29.104-3.132
	l-40.511,13.106c-5.255,1.7-8.136,7.338-6.437,12.593c1.7,5.255,7.339,8.137,12.593,6.437l40.511-13.106
	c4.354-1.408,8.929-0.916,12.884,1.387s6.642,6.039,7.565,10.521c1.23,5.972-0.995,12.006-5.809,15.749l-64.367,50.04
	C71.425,412,70,414.913,70,418v64v3.136c0,0.807,0.098,1.05,0.279,0.897C72.256,500.674,84.826,512,100,512h328
	c16.542,0,30-13.458,30-30v-99.311C458,377.167,453.523,372.689,448,372.689z"/>
<path d="M70,297.807c0,5.522,4.477,10,10,10s10-4.478,10-10V98c0-5.514,4.486-10,10-10h204.333c5.523,0,10-4.478,10-10
	s-4.477-10-10-10H100c-16.542,0-30,13.458-30,30v122.334L1.649,324.073C0.574,325.707,0,327.619,0,329.575V502
	c0,5.522,4.477,10,10,10s10-4.478,10-10V332.573l50-75.887V297.807z"/>
<path d="M451.756,60.773L426,86.53l-9.343-9.343c-3.905-3.904-10.237-3.904-14.142,0c-3.905,3.906-3.905,10.237,0,14.143
	l16.414,16.413c1.953,1.952,4.512,2.929,7.071,2.929s5.119-0.977,7.071-2.929l32.828-32.827c3.905-3.905,3.906-10.237,0-14.143
	C461.993,56.87,455.662,56.869,451.756,60.773z"/>
<g>
</g>
<g>
</g>
<g>
</g>
<g>
</g>
<g>
</g>
<g>
</g>
<g>
</g>
<g>
</g>
<g>
</g>
<g>
</g>
<g>
</g>
<g>
</g>
<g>
</g>
<g>
</g>
<g>
</g>
</svg>
