<?xml version="1.0" encoding="iso-8859-1"?>
<!-- Generator: Adobe Illustrator 19.0.0, SVG Export Plug-In . SVG Version: 6.00 Build 0)  -->
<svg version="1.1" id="Capa_1" xmlns="http://www.w3.org/2000/svg" xmlns:xlink="http://www.w3.org/1999/xlink" x="0px" y="0px"
	 viewBox="0 0 512.001 512.001" style="enable-background:new 0 0 512.001 512.001;" xml:space="preserve">
<path style="fill:#FFFFFF;" d="M98.001,438h236c11.046,0,20-8.954,20-20V30c0-11.046-8.954-20-20-20h-304c-11.046,0-20,8.954-20,20
	v320L98.001,438z"/>
<path style="fill:#FEDA9B;" d="M10.001,350h60.5c15.188,0,27.5,12.312,27.5,27.5V438L10.001,350z"/>
<path style="fill:#4DBAF6;" d="M422.001,286L422.001,286c-44.183,0-80,35.817-80,80v56c0,44.183,35.817,80,80,80l0,0
	c44.183,0,80-35.817,80-80v-56C502.001,321.817,466.184,286,422.001,286z"/>
<path style="fill:#72D8FF;" d="M422.001,286L422.001,286c-44.183,0-80,35.817-80,80v28h160v-28
	C502.001,321.817,466.184,286,422.001,286z"/>
<rect x="64.001" y="64.13" style="fill:#C9F3FF;" width="132" height="192"/>
<polygon style="fill:#36D28F;" points="196.001,163 162.168,129.167 64.001,227.333 64.001,256.127 196.001,256.127 "/>
<polygon style="fill:#B2F0BF;" points="95.485,167.484 64.001,198.968 64.001,256.127 184.128,256.127 "/>
<path d="M432.001,276.559v-5.016c0-25.62-20.843-46.464-46.463-46.464h-67.503c-14.592,0-26.463-11.871-26.463-26.463V172
	c0-5.522-4.478-10-10-10s-10,4.478-10,10v26.616c0,25.62,20.843,46.463,46.463,46.463h67.503c14.592,0,26.463,11.872,26.463,26.464
	v5.016c-44.937,4.991-80,43.196-80,89.441v56c0,2.017,0.073,4.016,0.205,6H108.001v-50.5c0-20.678-16.822-37.5-37.5-37.5h-50.5V30
	c0-5.514,4.486-10,10-10h304c5.514,0,10,4.486,10,10v157.082c0,5.522,4.478,10,10,10s10-4.478,10-10V30c0-16.542-13.458-30-30-30
	h-304c-16.542,0-30,13.458-30,30v320c0.008-0.004,0.017-0.006,0.024-0.01c-0.002,2.605,0.99,5.167,2.904,7.082l88,88
	c1.913,1.913,4.469,2.928,7.071,2.929l0,0h237.834c11.183,36.989,45.577,64,86.166,64c49.626,0,90-40.374,90-90v-56
	C512.001,319.754,476.938,281.549,432.001,276.559z M88.001,413.857L34.144,360h36.357c9.649,0,17.5,7.851,17.5,17.5V413.857z
	 M492.001,422c0,38.598-31.402,70-70,70s-70-31.402-70-70v-18h140V422z M492.001,384h-60v-21c0-5.522-4.478-10-10-10
	s-10,4.478-10,10v21h-60v-18c0-38.598,31.402-70,70-70s70,31.402,70,70V384z"/>
<path d="M422.001,338.56c2.63,0,5.21-1.069,7.069-2.93c1.86-1.86,2.931-4.44,2.931-7.07s-1.07-5.21-2.931-7.069
	c-1.859-1.86-4.439-2.931-7.069-2.931s-5.21,1.07-7.07,2.931c-1.86,1.859-2.93,4.439-2.93,7.069s1.069,5.21,2.93,7.07
	S419.371,338.56,422.001,338.56z"/>
<path d="M64.001,266.127h132c5.522,0,10-4.478,10-10v-192c0-5.522-4.478-10-10-10h-132c-5.522,0-10,4.478-10,10v192
	C54.001,261.649,58.479,266.127,64.001,266.127z M186.001,74.127v64.73l-16.762-16.762c-3.905-3.903-10.235-3.905-14.143,0
	l-27.167,27.166c-3.905,3.905-3.905,10.237,0,14.143c3.906,3.904,10.236,3.905,14.143,0l20.096-20.096l23.429,23.43
	c0.13,0.13,0.269,0.244,0.404,0.365v79.023h-112V203.11l21.484-21.484l43.111,43.111c1.953,1.952,4.512,2.929,7.071,2.929
	s5.118-0.977,7.071-2.929c3.905-3.905,3.905-10.237,0-14.143l-50.183-50.183c-3.906-3.904-10.236-3.904-14.143,0l-14.411,14.415
	V74.127H186.001z"/>
<path d="M281.578,294.127H64.001c-5.522,0-10,4.478-10,10s4.478,10,10,10h217.577c5.522,0,10-4.478,10-10
	S287.101,294.127,281.578,294.127z"/>
<path d="M281.578,342.127H152.001c-5.522,0-10,4.478-10,10s4.478,10,10,10h129.577c5.522,0,10-4.478,10-10
	S287.101,342.127,281.578,342.127z"/>
<path d="M291.572,62.917c0-5.522-4.478-10-10-10s-10,4.478-10,10v30.016c0,5.522,4.478,10,10,10s10-4.478,10-10V62.917z"/>
<path d="M281.57,118.2c-2.63,0-5.21,1.069-7.069,2.93c-1.86,1.86-2.931,4.439-2.931,7.07c0,2.63,1.07,5.21,2.931,7.069
	c1.859,1.87,4.439,2.931,7.069,2.931c2.631,0,5.211-1.061,7.07-2.931c1.86-1.859,2.93-4.439,2.93-7.069
	c0-2.631-1.069-5.21-2.93-7.07C286.781,119.27,284.201,118.2,281.57,118.2z"/>
<path d="M249.418,129.226c2.561,0,5.121-0.978,7.074-2.932c3.903-3.907,3.9-10.239-0.006-14.143l-12.071-12.061
	c-3.908-3.905-10.238-3.901-14.143,0.006c-3.903,3.907-3.9,10.239,0.006,14.143l12.071,12.061
	C244.303,128.251,246.86,129.226,249.418,129.226z"/>
<path d="M318.735,100.109l-12.833,12.843c-3.903,3.906-3.901,10.238,0.006,14.143c1.952,1.95,4.511,2.926,7.068,2.926
	c2.561,0,5.121-0.978,7.074-2.932l12.833-12.843c3.903-3.906,3.901-10.238-0.006-14.143
	C328.971,96.2,322.639,96.202,318.735,100.109z"/>
<g>
</g>
<g>
</g>
<g>
</g>
<g>
</g>
<g>
</g>
<g>
</g>
<g>
</g>
<g>
</g>
<g>
</g>
<g>
</g>
<g>
</g>
<g>
</g>
<g>
</g>
<g>
</g>
<g>
</g>
</svg>
