<?xml version="1.0" encoding="iso-8859-1"?>
<!-- Generator: Adobe Illustrator 19.0.0, SVG Export Plug-In . SVG Version: 6.00 Build 0)  -->
<svg version="1.1" id="Capa_1" xmlns="http://www.w3.org/2000/svg" xmlns:xlink="http://www.w3.org/1999/xlink" x="0px" y="0px"
	 viewBox="0 0 512 512" style="enable-background:new 0 0 512 512;" xml:space="preserve">
<path style="fill:#EDF2FA;" d="M472,384.083H40c-16.569,0-30-13.431-30-30V40c0-16.569,13.431-30,30-30h432
	c16.569,0,30,13.431,30,30v314.083C502,370.652,488.569,384.083,472,384.083z"/>
<rect x="207" y="385.08" style="fill:#72D8FF;" width="96" height="68.917"/>
<path style="fill:#EDF2FA;" d="M309.333,454H202.667c-26.51,0-48,21.49-48,48l0,0h202.667l0,0
	C357.333,475.49,335.843,454,309.333,454z"/>
<rect x="50" y="50.08" style="fill:#FFFFFF;" width="412" height="270"/>
<circle style="fill:#36D28F;" cx="216.21" cy="215.46" r="53.57"/>
<circle style="fill:#FF5D5D;" cx="181.09" cy="154.62" r="53.57"/>
<circle style="fill:#72D8FF;" cx="145.96" cy="215.46" r="53.57"/>
<path d="M400,374.08c-2.63,0-5.21,1.069-7.07,2.93c-1.86,1.86-2.93,4.44-2.93,7.07c0,2.64,1.07,5.21,2.93,7.069
	c1.86,1.87,4.44,2.931,7.07,2.931s5.21-1.061,7.07-2.931c1.86-1.859,2.93-4.439,2.93-7.069s-1.07-5.21-2.93-7.07
	S402.63,374.08,400,374.08z"/>
<path d="M472,0H40C17.944,0,0,17.944,0,40v314.083c0,22.056,17.944,40,40,40h157v50.198c-29.332,2.858-52.333,27.65-52.333,57.719
	c0,5.522,4.477,10,10,10h202.667c5.523,0,10-4.478,10-10c0-30.749-24.055-55.972-54.333-57.872v-50.045h46.667
	c5.523,0,10-4.478,10-10s-4.477-10-10-10H40c-11.028,0-20-8.972-20-20V40c0-11.028,8.972-20,20-20h432c11.028,0,20,8.972,20,20
	v314.083c0,11.028-8.972,20-20,20h-34.914c-5.523,0-10,4.478-10,10s4.477,10,10,10H472c22.056,0,40-17.944,40-40V40
	C512,17.944,494.056,0,472,0z M345.999,492H166.001c4.4-16.118,19.171-28,36.665-28h106.667
	C326.827,464,341.598,475.882,345.999,492z M293,444h-76v-49.917h76V444z"/>
<path d="M247.93,345.01c-1.86,1.86-2.93,4.44-2.93,7.07s1.07,5.21,2.93,7.069c1.86,1.87,4.44,2.931,7.07,2.931
	s5.21-1.061,7.07-2.931c1.86-1.859,2.93-4.439,2.93-7.069s-1.07-5.21-2.93-7.07s-4.44-2.93-7.07-2.93
	C252.37,342.08,249.79,343.149,247.93,345.01z"/>
<path d="M129.502,276.867c5.478,1.467,11.035,2.193,16.558,2.193c11.016,0,21.888-2.89,31.683-8.545
	c1.143-0.66,2.251-1.362,3.342-2.083c1.091,0.721,2.199,1.424,3.342,2.083c9.796,5.656,20.667,8.545,31.683,8.545
	c5.521,0,11.082-0.727,16.558-2.193c16.402-4.396,30.112-14.915,38.602-29.621c17.527-30.358,7.088-69.315-23.27-86.843
	c-1.146-0.662-2.307-1.27-3.476-1.852c0.08-1.303,0.134-2.613,0.134-3.936c0-35.055-28.519-63.573-63.573-63.573
	c-35.055,0-63.574,28.519-63.574,63.573c0,1.323,0.054,2.633,0.134,3.936c-1.171,0.584-2.333,1.193-3.475,1.853
	c-30.358,17.527-40.797,56.484-23.27,86.843C99.391,261.952,113.1,272.472,129.502,276.867z M157.458,191.198
	c-7.113-4.609-12.8-11.23-16.253-19.055c1.553-0.17,3.114-0.276,4.681-0.276c3.784,0,7.595,0.498,11.348,1.504
	c3.018,0.809,5.898,1.929,8.616,3.317c-1.69,2.199-3.269,4.519-4.693,6.985C159.746,186.117,158.523,188.634,157.458,191.198z
	 M178.478,193.673c0.804-1.392,1.69-2.705,2.619-3.974c0.927,1.27,1.798,2.592,2.596,3.974c0.801,1.386,1.512,2.807,2.15,4.251
	c-1.563,0.17-3.149,0.265-4.758,0.265s-3.194-0.094-4.758-0.265C176.965,196.48,177.677,195.059,178.478,193.673z M201.013,183.673
	c-1.41-2.442-2.976-4.757-4.663-6.959c6.161-3.146,13.002-4.819,19.936-4.819c1.554,0,3.112,0.103,4.668,0.271
	c-3.454,7.816-9.137,14.428-16.243,19.033C203.647,188.634,202.424,186.117,201.013,183.673z M181.085,218.188
	c2.847,0,5.646-0.207,8.395-0.572c-0.157,3.048-0.626,6.102-1.435,9.12c-1.425,5.317-3.799,10.213-6.96,14.521
	c-3.162-4.308-5.536-9.204-6.96-14.521c-0.809-3.018-1.278-6.072-1.435-9.12C175.439,217.981,178.237,218.188,181.085,218.188z
	 M253.949,237.246c-5.819,10.08-15.216,17.29-26.458,20.302c-10.53,2.821-21.496,1.643-31.126-3.298
	c5.045-6.555,8.794-14.106,10.999-22.337c1.81-6.754,2.474-13.631,2.057-20.413c13.67-6.837,24.547-18.45,30.425-32.647
	C259.221,191.345,265.6,217.067,253.949,237.246z M181.085,111.042c23.301,0,42.387,18.385,43.518,41.41
	c-15.234-2.008-30.729,1.605-43.486,10.026c-5.665-3.752-11.952-6.616-18.707-8.426c-8.231-2.205-16.645-2.733-24.843-1.642
	C138.72,129.404,157.798,111.042,181.085,111.042z M122.324,178.853c5.878,14.197,16.755,25.81,30.425,32.647
	c-0.417,6.781,0.247,13.658,2.057,20.413c2.205,8.23,5.955,15.782,10.999,22.337c-9.629,4.942-20.598,6.119-31.126,3.297
	c-11.243-3.012-20.639-10.222-26.458-20.302C96.57,217.067,102.949,191.346,122.324,178.853z"/>
<path d="M310,195.083h46.301v1.417c0,5.522,4.477,10,10,10s10-4.478,10-10v-1.417h46.3c5.523,0,10-4.478,10-10s-4.477-10-10-10
	h-46.3v-1.416c0-5.522-4.477-10-10-10s-10,4.478-10,10v1.416H310c-5.523,0-10,4.478-10,10S304.477,195.083,310,195.083z"/>
<path d="M310,131.083h5.667v1.417c0,5.522,4.477,10,10,10s10-4.478,10-10v-1.417h86.935c5.523,0,10-4.478,10-10s-4.477-10-10-10
	h-86.935v-1.416c0-5.522-4.477-10-10-10s-10,4.478-10,10v1.416H310c-5.523,0-10,4.478-10,10S304.477,131.083,310,131.083z"/>
<path d="M310,259.083h86.935v1.417c0,5.522,4.477,10,10,10s10-4.478,10-10v-1.417h5.667c5.523,0,10-4.478,10-10s-4.477-10-10-10
	h-5.667v-1.416c0-5.522-4.477-10-10-10s-10,4.478-10,10v1.416H310c-5.523,0-10,4.478-10,10S304.477,259.083,310,259.083z"/>
<path d="M472,320.083v-270c0-5.522-4.477-10-10-10H50c-5.523,0-10,4.478-10,10v270c0,5.522,4.477,10,10,10h412
	C467.523,330.083,472,325.605,472,320.083z M452,310.083H60v-250h392V310.083z"/>
<g>
</g>
<g>
</g>
<g>
</g>
<g>
</g>
<g>
</g>
<g>
</g>
<g>
</g>
<g>
</g>
<g>
</g>
<g>
</g>
<g>
</g>
<g>
</g>
<g>
</g>
<g>
</g>
<g>
</g>
</svg>
