<?xml version="1.0" encoding="iso-8859-1"?>
<!-- Generator: Adobe Illustrator 19.0.0, SVG Export Plug-In . SVG Version: 6.00 Build 0)  -->
<svg version="1.1" id="Capa_1" xmlns="http://www.w3.org/2000/svg" xmlns:xlink="http://www.w3.org/1999/xlink" x="0px" y="0px"
	 viewBox="0 0 512 512" style="enable-background:new 0 0 512 512;" xml:space="preserve">
<path style="fill:#FFFFFF;" d="M406,10H138.025c-11.046,0-20,8.954-20,20v452c0,11.046,8.954,20,20,20H482c11.046,0,20-8.954,20-20
	V106.003L406,10z"/>
<path style="fill:#FEDA9B;" d="M426,106.003h76l-96-96.001v76.001C406,97.049,414.954,106.003,426,106.003z"/>
<g>
	<circle style="fill:#C9F3FF;" cx="101.72" cy="430" r="72"/>
	<circle style="fill:#C9F3FF;" cx="285.78" cy="430" r="72"/>
</g>
<rect x="174.01" y="112" style="fill:#FF5D5D;" width="199.48" height="48"/>
<rect x="174.01" y="208" style="fill:#72D8FF;" width="111.77" height="96"/>
<path d="M509.071,98.932l-96-96.003C411.196,1.054,408.652,0,406,0H138.025c-16.542,0-30,13.458-30,30v293.938
	c0,5.523,4.477,10,10,10s10-4.477,10-10V30c0-5.514,4.486-10,10-10H396v66.003c0,16.542,13.458,30,30,30h66v226.375
	c0,5.523,4.477,10,10,10s10-4.477,10-10V106.003C512,103.351,510.946,100.807,509.071,98.932z M416,86.003v-51.86l61.858,61.86H426
	C420.486,96.003,416,91.517,416,86.003z"/>
<path d="M502,379c-2.63,0-5.21,1.07-7.07,2.93c-1.86,1.86-2.93,4.44-2.93,7.07s1.07,5.21,2.93,7.07c1.86,1.86,4.44,2.93,7.07,2.93
	s5.21-1.07,7.07-2.93S512,391.63,512,389s-1.07-5.21-2.93-7.07C507.21,380.07,504.63,379,502,379z"/>
<path d="M502,430.543c-5.523,0-10,4.477-10,10V482c0,5.514-4.486,10-10,10H354c-5.523,0-10,4.477-10,10s4.477,10,10,10h128
	c16.542,0,30-13.458,30-30v-41.457C512,435.02,507.523,430.543,502,430.543z"/>
<path d="M377.219,440c5.523,0,10-4.477,10-10s-4.477-10-10-10h-10.07c-4.951-40.512-39.541-72-81.368-72
	c-35.999,0-66.632,23.329-77.633,55.654c-4.277-2.347-9.184-3.685-14.398-3.685s-10.12,1.338-14.398,3.685
	C168.351,371.329,137.718,348,101.719,348c-41.828,0-76.417,31.488-81.368,72H10c-5.523,0-10,4.477-10,10s4.477,10,10,10h10.351
	c4.951,40.512,39.541,72,81.368,72c45.215,0,82-36.785,82-82c0-5.531,4.5-10.031,10.031-10.031s10.031,4.5,10.031,10.031
	c0,45.215,36.785,82,82,82c41.828,0,76.417-31.488,81.368-72H377.219z M101.719,492c-3.336,0-6.609-0.273-9.803-0.783l43.603-43.603
	c3.905-3.905,3.905-10.237,0-14.143c-3.905-3.905-10.237-3.905-14.143,0L71.017,483.83C52.341,473.136,39.719,453.021,39.719,430
	c0-34.187,27.813-62,62-62c6.573,0,12.906,1.037,18.856,2.941l-49.541,49.542c-3.905,3.905-3.905,10.237,0,14.142
	c1.953,1.953,4.512,2.929,7.071,2.929s5.119-0.977,7.071-2.929l53.993-53.993c14.904,11.334,24.549,29.243,24.549,49.369
	C163.719,464.187,135.906,492,101.719,492z M285.781,492c-3.336,0-6.609-0.273-9.803-0.783l43.603-43.603
	c3.905-3.905,3.905-10.237,0-14.143c-3.905-3.905-10.237-3.905-14.143,0l-50.359,50.359c-18.677-10.694-31.298-30.81-31.298-53.831
	c0-34.187,27.813-62,62-62c6.573,0,12.906,1.037,18.855,2.941l-49.541,49.542c-3.905,3.905-3.905,10.237,0,14.142
	c1.953,1.953,4.512,2.929,7.071,2.929s5.119-0.977,7.071-2.929l53.993-53.993c14.904,11.334,24.55,29.243,24.55,49.369
	C347.781,464.187,319.968,492,285.781,492z"/>
<path d="M174.013,74h58.321c5.523,0,10-4.477,10-10s-4.477-10-10-10h-58.321c-5.523,0-10,4.477-10,10S168.49,74,174.013,74z"/>
<path d="M280.82,119.07c1.87-1.86,2.93-4.44,2.93-7.07s-1.06-5.21-2.93-7.07c-1.86-1.86-4.44-2.93-7.07-2.93s-5.21,1.07-7.07,2.93
	c-1.86,1.86-2.93,4.44-2.93,7.07s1.07,5.21,2.93,7.07s4.44,2.93,7.07,2.93S278.96,120.93,280.82,119.07z"/>
<path d="M164.013,160c0,5.523,4.477,10,10,10h199.479c5.523,0,10-4.477,10-10v-48c0-5.523-4.477-10-10-10h-55.805
	c-5.523,0-10,4.477-10,10s4.477,10,10,10h45.805v28H184.013v-28H222c5.523,0,10-4.477,10-10s-4.477-10-10-10h-47.987
	c-5.523,0-10,4.477-10,10V160z"/>
<path d="M446.013,246H334.245c-5.523,0-10,4.477-10,10c0,5.523,4.477,10,10,10h111.768c5.523,0,10-4.477,10-10
	S451.536,246,446.013,246z"/>
<path d="M446.013,198H334.245c-5.523,0-10,4.477-10,10s4.477,10,10,10h111.768c5.523,0,10-4.477,10-10S451.536,198,446.013,198z"/>
<path d="M446.013,294H334.245c-5.523,0-10,4.477-10,10s4.477,10,10,10h111.768c5.523,0,10-4.477,10-10S451.536,294,446.013,294z"/>
<path d="M164.013,304c0,5.523,4.477,10,10,10h111.768c5.523,0,10-4.477,10-10v-96c0-5.523-4.477-10-10-10H174.013
	c-5.523,0-10,4.477-10,10V304z M184.013,218h91.768v76h-91.768V218z"/>
<g>
</g>
<g>
</g>
<g>
</g>
<g>
</g>
<g>
</g>
<g>
</g>
<g>
</g>
<g>
</g>
<g>
</g>
<g>
</g>
<g>
</g>
<g>
</g>
<g>
</g>
<g>
</g>
<g>
</g>
</svg>
