<?xml version="1.0" encoding="iso-8859-1"?>
<!-- Generator: Adobe Illustrator 19.0.0, SVG Export Plug-In . SVG Version: 6.00 Build 0)  -->
<svg version="1.1" id="Capa_1" xmlns="http://www.w3.org/2000/svg" xmlns:xlink="http://www.w3.org/1999/xlink" x="0px" y="0px"
	 viewBox="0 0 512 512" style="enable-background:new 0 0 512 512;" xml:space="preserve">
<path style="fill:#FFFFFF;" d="M297.975,10H30c-11.046,0-20,8.954-20,20v452c0,11.046,8.954,20,20,20h343.975
	c11.046,0,20-8.954,20-20V106.003L297.975,10z"/>
<path style="fill:#FEDA9B;" d="M317.975,106.003h76l-96-96.001v76.001C297.975,97.049,306.929,106.003,317.975,106.003z"/>
<g>
	<rect x="65.987" y="221.94" style="fill:#72D8FF;" width="111.77" height="96"/>
	<rect x="226.22" y="365.94" style="fill:#72D8FF;" width="111.77" height="96"/>
</g>
<rect x="65.987" y="50" style="fill:#FF5D5D;" width="191.99" height="76"/>
<path style="fill:#4DBAF6;" d="M438,376.495V77.876C438,70.213,444.213,64,451.876,64h36.247C495.787,64,502,70.213,502,77.876
	v298.619H438z"/>
<path style="fill:#FFB954;" d="M502,110.414V77.877C502,70.213,495.787,64,488.124,64h-36.248C444.213,64,438,70.213,438,77.876
	v32.537h64V110.414z"/>
<polygon style="fill:#D8D8E4;" points="470,448 438,376.495 502,376.495 "/>
<path d="M337.987,164h-272c-5.523,0-10,4.477-10,10s4.477,10,10,10h272c5.523,0,10-4.477,10-10S343.51,164,337.987,164z"/>
<path d="M337.987,259.938H226.219c-5.523,0-10,4.478-10,10s4.477,10,10,10h111.768c5.523,0,10-4.478,10-10
	S343.51,259.938,337.987,259.938z"/>
<path d="M337.987,211.938H226.219c-5.523,0-10,4.477-10,10s4.477,10,10,10h111.768c5.523,0,10-4.477,10-10
	S343.51,211.938,337.987,211.938z"/>
<path d="M337.987,307.938H226.219c-5.523,0-10,4.478-10,10s4.477,10,10,10h111.768c5.523,0,10-4.478,10-10
	S343.51,307.938,337.987,307.938z"/>
<path d="M177.755,211.938H65.987c-5.523,0-10,4.477-10,10v96c0,5.522,4.477,10,10,10h111.768c5.523,0,10-4.478,10-10v-96
	C187.755,216.415,183.278,211.938,177.755,211.938z M167.755,307.938H75.987v-76h91.768V307.938z"/>
<path d="M177.755,403.938H65.987c-5.523,0-10,4.478-10,10s4.477,10,10,10h111.768c5.523,0,10-4.478,10-10
	S183.278,403.938,177.755,403.938z"/>
<path d="M65.99,451.939c-2.63,0-5.21,1.07-7.08,2.931c-1.86,1.859-2.92,4.439-2.92,7.069s1.06,5.21,2.92,7.07
	c1.87,1.86,4.45,2.93,7.08,2.93c2.63,0,5.21-1.069,7.07-2.93c1.86-1.87,2.93-4.44,2.93-7.07s-1.07-5.21-2.93-7.069
	C71.2,453.01,68.62,451.939,65.99,451.939z"/>
<path d="M177.755,451.938H111c-5.523,0-10,4.478-10,10s4.477,10,10,10h66.755c5.523,0,10-4.478,10-10
	S183.278,451.938,177.755,451.938z"/>
<path d="M177.755,355.938H65.987c-5.523,0-10,4.478-10,10s4.477,10,10,10h111.768c5.523,0,10-4.478,10-10
	S183.278,355.938,177.755,355.938z"/>
<path d="M337.987,355.938H226.219c-5.523,0-10,4.478-10,10v96c0,5.522,4.477,10,10,10h111.768c5.523,0,10-4.478,10-10v-96
	C347.987,360.415,343.51,355.938,337.987,355.938z M327.987,451.938h-91.768v-76h91.768V451.938z"/>
<path d="M305.046,2.929C303.17,1.054,300.627,0,297.975,0H30C13.458,0,0,13.458,0,30v452c0,16.542,13.458,30,30,30h343.975
	c16.542,0,30-13.458,30-30V106.003c0-2.652-1.054-5.196-2.929-7.071L305.046,2.929z M307.975,34.143l61.858,61.86h-51.858
	c-5.514,0-10-4.486-10-10V34.143z M373.975,492H30c-5.514,0-10-4.486-10-10V30c0-5.514,4.486-10,10-10h257.975v66.003
	c0,16.542,13.458,30,30,30h66V482C383.975,487.514,379.489,492,373.975,492z"/>
<path d="M65.987,136h191.987c5.523,0,10-4.477,10-10V50c0-5.523-4.477-10-10-10H65.987c-5.523,0-10,4.477-10,10v76
	C55.987,131.523,60.464,136,65.987,136z M75.987,60h171.987v56H75.987V60z"/>
<path d="M438,244c2.63,0,5.21-1.07,7.07-2.93S448,236.63,448,234s-1.07-5.21-2.93-7.07S440.63,224,438,224s-5.21,1.07-7.07,2.93
	c-1.86,1.86-2.93,4.44-2.93,7.07s1.07,5.21,2.93,7.07C432.79,242.93,435.37,244,438,244z"/>
<path d="M488.124,54h-36.248C438.711,54,428,64.711,428,77.876v112.458c0,5.523,4.477,10,10,10s10-4.477,10-10v-69.92h44v246.082
	h-44V274.2c0-5.522-4.477-10-10-10s-10,4.478-10,10v102.295c0,1.408,0.297,2.8,0.873,4.085l32,71.505
	c1.61,3.599,5.185,5.915,9.127,5.915s7.517-2.316,9.127-5.915l32-71.505c0.575-1.285,0.873-2.677,0.873-4.085V77.876
	C512,64.711,501.289,54,488.124,54z M448,100.414V77.876c0-2.137,1.739-3.876,3.876-3.876h36.248c2.137,0,3.876,1.739,3.876,3.876
	v22.538H448z M470,423.52l-16.569-37.024h33.138L470,423.52z"/>
<g>
</g>
<g>
</g>
<g>
</g>
<g>
</g>
<g>
</g>
<g>
</g>
<g>
</g>
<g>
</g>
<g>
</g>
<g>
</g>
<g>
</g>
<g>
</g>
<g>
</g>
<g>
</g>
<g>
</g>
</svg>
