<?xml version="1.0" encoding="iso-8859-1"?>
<!-- Generator: Adobe Illustrator 19.0.0, SVG Export Plug-In . SVG Version: 6.00 Build 0)  -->
<svg version="1.1" id="Capa_1" xmlns="http://www.w3.org/2000/svg" xmlns:xlink="http://www.w3.org/1999/xlink" x="0px" y="0px"
	 viewBox="0 0 512 512" style="enable-background:new 0 0 512 512;" xml:space="preserve">
<g>
	<path style="fill:#36D28F;" d="M442.53,147.763V118H502v59.525h-59.47V147.763z"/>
	<path style="fill:#36D28F;" d="M10,147.763V118h59.47v59.525H10V147.763z"/>
	<path style="fill:#36D28F;" d="M442.53,472.237v-29.763H502V502h-59.47V472.237z"/>
	<path style="fill:#36D28F;" d="M10,472.237v-29.763h59.47V502H10V472.237z"/>
</g>
<path style="fill:#4DBAF6;" d="M135.505,10h298.619C441.787,10,448,16.213,448,23.876v36.248C448,67.787,441.787,74,434.124,74
	H135.505V10z"/>
<path style="fill:#FFB954;" d="M401.586,74h32.537C441.787,74,448,67.787,448,60.124V23.876C448,16.213,441.787,10,434.124,10
	h-32.537v64H401.586z"/>
<polygon style="fill:#D8D8E4;" points="64,42 135.505,10 135.505,74 "/>
<path d="M502,108h-59.47c-5.522,0-10,4.477-10,10v19.763H328.797c-5.522,0-10,4.477-10,10s4.478,10,10,10H432.53v19.763
	c0,5.523,4.478,10,10,10h19.734V220c0,5.523,4.478,10,10,10s10-4.477,10-10v-32.475H502c5.522,0,10-4.477,10-10V118
	C512,112.477,507.522,108,502,108z M492,167.525h-39.47V128H492V167.525z"/>
<path d="M289.7,140.69c-1.86-1.86-4.44-2.93-7.07-2.93c-2.64,0-5.21,1.07-7.07,2.93c-1.87,1.86-2.93,4.44-2.93,7.07
	c0,2.64,1.06,5.21,2.93,7.07c1.86,1.87,4.431,2.93,7.07,2.93c2.63,0,5.21-1.06,7.07-2.93c1.859-1.86,2.93-4.43,2.93-7.07
	C292.63,145.13,291.56,142.55,289.7,140.69z"/>
<path d="M234.025,157.763c5.522,0,10-4.477,10-10s-4.478-10-10-10H79.47V118c0-5.523-4.478-10-10-10H10c-5.522,0-10,4.477-10,10
	v59.525c0,5.523,4.478,10,10,10h19.735V220c0,5.523,4.478,10,10,10s10-4.477,10-10v-32.475H69.47c5.522,0,10-4.477,10-10v-19.763
	h154.555V157.763z M59.47,167.525H20V128h39.47V167.525z"/>
<path d="M502,432.475h-19.735V394c0-5.522-4.478-10-10-10s-10,4.478-10,10v38.475H442.53c-5.522,0-10,4.478-10,10v19.763H155
	c-5.522,0-10,4.478-10,10s4.478,10,10,10h277.53V502c0,5.522,4.478,10,10,10H502c5.522,0,10-4.478,10-10v-59.525
	C512,436.952,507.522,432.475,502,432.475z M492,492h-39.47v-39.525H492V492z"/>
<path d="M69.47,432.475H49.735V394c0-5.522-4.478-10-10-10s-10,4.478-10,10v38.475H10c-5.522,0-10,4.478-10,10V502
	c0,5.522,4.478,10,10,10h59.47c5.522,0,10-4.478,10-10v-59.525C79.47,436.952,74.992,432.475,69.47,432.475z M59.47,492H20v-39.525
	h39.47V492z"/>
<path d="M117.5,462.24c-2.63,0-5.21,1.06-7.07,2.93c-1.86,1.86-2.93,4.43-2.93,7.07c0,2.63,1.069,5.21,2.93,7.069
	c1.86,1.86,4.44,2.931,7.07,2.931s5.21-1.07,7.069-2.931c1.86-1.87,2.931-4.439,2.931-7.069c0-2.631-1.07-5.21-2.931-7.07
	C122.71,463.3,120.13,462.24,117.5,462.24z"/>
<path d="M57.682,284.127h11.175c5.522,0,10-4.478,10-10s-4.478-10-10-10H57.682c-15.409,0-27.946,12.537-27.946,27.946v34.051
	c0,15.409,12.537,27.946,27.946,27.946h11.175c5.522,0,10-4.478,10-10s-4.478-10-10-10H57.682c-4.382,0-7.946-3.564-7.946-7.946
	v-34.051C49.735,287.691,53.3,284.127,57.682,284.127z"/>
<path d="M147.5,294.127c0-16.542-13.458-30-30-30s-30,13.458-30,30v32c0,16.542,13.458,30,30,30s30-13.458,30-30V294.127z
	 M127.5,326.127c0,5.514-4.486,10-10,10s-10-4.486-10-10v-32c0-5.514,4.486-10,10-10s10,4.486,10,10V326.127z"/>
<path d="M200.669,274.127v33.409L179.41,269.27c-2.213-3.983-6.837-5.965-11.25-4.824c-4.411,1.144-7.491,5.124-7.491,9.681v72
	c0,5.522,4.478,10,10,10s10-4.478,10-10v-33.409l21.259,38.266c1.794,3.229,5.174,5.145,8.74,5.145c0.832,0,1.675-0.104,2.51-0.32
	c4.411-1.144,7.491-5.124,7.491-9.681v-72c0-5.522-4.478-10-10-10S200.669,268.604,200.669,274.127z"/>
<path d="M394,346.127v-33.409l21.259,38.266c1.794,3.229,5.174,5.145,8.74,5.145c0.832,0,1.675-0.104,2.51-0.32
	c4.411-1.144,7.491-5.124,7.491-9.681v-72c0-5.522-4.478-10-10-10s-10,4.478-10,10v33.409l-21.259-38.266
	c-2.212-3.983-6.836-5.965-11.25-4.824c-4.411,1.144-7.491,5.124-7.491,9.681v72c0,5.522,4.478,10,10,10S394,351.649,394,346.127z"
	/>
<path d="M265.127,356.127c5.522,0,10-4.478,10-10v-62h7.5c5.522,0,10-4.478,10-10s-4.478-10-10-10h-35c-5.522,0-10,4.478-10,10
	s4.478,10,10,10h7.5v62C255.127,351.649,259.604,356.127,265.127,356.127z"/>
<path d="M472.265,356.127c5.522,0,10-4.478,10-10v-62h7.5c5.522,0,10-4.478,10-10s-4.478-10-10-10h-35c-5.522,0-10,4.478-10,10
	s4.478,10,10,10h7.5v62C462.265,351.649,466.742,356.127,472.265,356.127z"/>
<path d="M346.201,284.127c5.522,0,10-4.478,10-10s-4.478-10-10-10h-31.297c-5.522,0-10,4.478-10,10v72c0,5.522,4.478,10,10,10
	h31.297c5.522,0,10-4.478,10-10s-4.478-10-10-10h-21.297v-16h11.771c5.522,0,10-4.478,10-10s-4.478-10-10-10h-11.771v-16H346.201z"
	/>
<path d="M59.915,51.127l71.505,32c1.285,0.575,2.677,0.873,4.085,0.873h298.619C447.289,84,458,73.289,458,60.124V23.876
	C458,10.711,447.289,0,434.124,0H135.505c-1.408,0-2.8,0.297-4.085,0.873l-71.505,32C56.316,34.483,54,38.058,54,42
	S56.316,49.517,59.915,51.127z M145.505,20h246.081v44H145.505V20z M438,23.876v36.248c0,2.137-1.739,3.876-3.876,3.876h-22.538V20
	h22.538C436.261,20,438,21.739,438,23.876z M125.505,25.431v33.138L88.48,42L125.505,25.431z"/>
<g>
</g>
<g>
</g>
<g>
</g>
<g>
</g>
<g>
</g>
<g>
</g>
<g>
</g>
<g>
</g>
<g>
</g>
<g>
</g>
<g>
</g>
<g>
</g>
<g>
</g>
<g>
</g>
<g>
</g>
</svg>
