<?xml version="1.0" encoding="iso-8859-1"?>
<!-- Generator: Adobe Illustrator 19.0.0, SVG Export Plug-In . SVG Version: 6.00 Build 0)  -->
<svg version="1.1" id="Capa_1" xmlns="http://www.w3.org/2000/svg" xmlns:xlink="http://www.w3.org/1999/xlink" x="0px" y="0px"
	 viewBox="0 0 512 512" style="enable-background:new 0 0 512 512;" xml:space="preserve">
<path style="fill:#FFFFFF;" d="M450,118H62c-17.673,0-32,14.327-32,32v288h452V150C482,132.327,467.673,118,450,118z"/>
<path style="fill:#72D8FF;" d="M460,502H52c-23.196,0-42-18.804-42-42v-22h492v22C502,483.196,483.196,502,460,502z"/>
<path style="fill:#FFC66C;" d="M388.743,207.911c0-73.312-59.431-132.743-132.743-132.743s-132.743,59.431-132.743,132.743
	c0,56.409,35.188,104.593,84.808,123.817v0.001h95.87v-0.001C353.555,312.504,388.743,264.32,388.743,207.911z"/>
<path style="fill:#B2F0BF;" d="M298.684,371.729h-85.369c-11.046,0-20-8.954-20-20l0,0c0-11.046,8.954-20,20-20h85.369
	c11.046,0,20,8.954,20,20l0,0C318.684,362.775,309.73,371.729,298.684,371.729z"/>
<path style="fill:#36D28F;" d="M256,438L256,438c-26.474,0-47.935-21.461-47.935-47.935v-18.336h95.87v18.336
	C303.935,416.539,282.474,438,256,438z"/>
<rect x="224" y="208.9" style="fill:#4DBAF6;" width="64" height="122.83"/>
<polygon style="fill:#D8D8E4;" points="256,137.395 288,208.9 224,208.9 "/>
<path d="M30,274c2.63,0,5.21-1.07,7.069-2.931C38.93,269.21,40,266.63,40,264s-1.07-5.21-2.931-7.07C35.21,255.069,32.63,254,30,254
	s-5.21,1.069-7.07,2.93S20,261.37,20,264s1.069,5.21,2.93,7.069C24.79,272.93,27.37,274,30,274z"/>
<path d="M30,231.667c5.522,0,10-4.478,10-10V150c0-12.131,9.869-22,22-22h49c5.522,0,10-4.478,10-10s-4.478-10-10-10H62
	c-23.159,0-42,18.841-42,42v71.667C20,227.189,24.478,231.667,30,231.667z"/>
<path d="M502,428h-10V150c0-23.159-18.841-42-42-42h-48c-5.522,0-10,4.478-10,10s4.478,10,10,10h48c12.131,0,22,9.869,22,22v278h-28
	v-77.667c0-5.522-4.478-10-10-10s-10,4.478-10,10V428H299.732c8.836-10.173,14.204-23.435,14.204-37.936v-12.515
	c8.82-5.23,14.749-14.843,14.749-25.82c0-6.615-2.156-12.732-5.797-17.698c19.974-10.586,37.153-25.757,50.261-44.546
	c16.744-24.001,25.595-52.209,25.595-81.574c0-78.709-64.034-142.743-142.743-142.743s-142.743,64.034-142.743,142.743
	c0,29.365,8.851,57.573,25.595,81.574c13.108,18.79,30.287,33.961,50.26,44.547c-3.64,4.965-5.796,11.083-5.796,17.697
	c0,10.976,5.929,20.59,14.749,25.82v12.515c0,14.5,5.367,27.763,14.204,37.936H40V302.694c0-5.522-4.478-10-10-10s-10,4.478-10,10
	V428H10c-5.522,0-10,4.478-10,10v22c0,28.673,23.327,52,52,52h408c28.673,0,52-23.327,52-52v-22C512,432.478,507.522,428,502,428z
	 M203.315,351.729c0-5.514,4.486-10,10-10h85.369c5.514,0,10,4.486,10,10s-4.486,10-10,10h-85.369
	C207.802,361.729,203.315,357.243,203.315,351.729z M234,218.899h44v102.83h-44V218.899z M239.431,198.899L256,161.875
	l16.569,37.024H239.431z M133.257,207.911c0-67.681,55.063-122.743,122.743-122.743s122.743,55.063,122.743,122.743
	c0,49.697-30.752,95.2-76.716,113.818H298v-112.83c0-1.408-0.297-2.8-0.872-4.085l-32-71.505c-1.61-3.599-5.186-5.915-9.128-5.915
	s-7.518,2.316-9.128,5.915l-32,71.505c-0.575,1.285-0.872,2.677-0.872,4.085v112.829h-4.027
	C164.009,303.111,133.257,257.608,133.257,207.911z M218.064,390.064v-8.335h75.871v8.335C293.936,410.982,276.918,428,256,428
	S218.064,410.982,218.064,390.064z M492,460c0,17.645-14.355,32-32,32H52c-17.645,0-32-14.355-32-32v-12h10h452h10V460z"/>
<path d="M289.667,460h-67.334c-5.522,0-10,4.478-10,10s4.478,10,10,10h67.334c5.522,0,10-4.478,10-10S295.189,460,289.667,460z"/>
<path d="M256,56.168c5.522,0,10-4.478,10-10V10c0-5.522-4.478-10-10-10s-10,4.478-10,10v36.168C246,51.69,250.478,56.168,256,56.168
	z"/>
<path d="M185.351,59.001c1.953,1.951,4.511,2.927,7.069,2.927c2.561,0,5.12-0.978,7.073-2.931
	c3.904-3.907,3.902-10.238-0.004-14.143L167.056,12.44c-3.907-3.903-10.237-3.9-14.143,0.004
	c-3.904,3.907-3.902,10.238,0.004,14.143L185.351,59.001z"/>
<path d="M318.073,63.5c2.561,0,5.12-0.978,7.073-2.932l32.696-32.717c3.904-3.906,3.902-10.237-0.005-14.142
	c-3.905-3.903-10.236-3.901-14.142,0.005L311,46.432c-3.904,3.906-3.902,10.237,0.005,14.142
	C312.957,62.524,315.515,63.5,318.073,63.5z"/>
<path d="M434,323.1c2.63,0,5.21-1.069,7.069-2.93c1.86-1.86,2.931-4.43,2.931-7.07c0-2.63-1.07-5.21-2.931-7.069
	c-1.859-1.86-4.439-2.931-7.069-2.931s-5.21,1.07-7.07,2.931c-1.86,1.859-2.93,4.439-2.93,7.069s1.069,5.21,2.93,7.07
	S431.37,323.1,434,323.1z"/>
<g>
</g>
<g>
</g>
<g>
</g>
<g>
</g>
<g>
</g>
<g>
</g>
<g>
</g>
<g>
</g>
<g>
</g>
<g>
</g>
<g>
</g>
<g>
</g>
<g>
</g>
<g>
</g>
<g>
</g>
</svg>
