<?xml version="1.0" encoding="iso-8859-1"?>
<!-- Generator: Adobe Illustrator 19.0.0, SVG Export Plug-In . SVG Version: 6.00 Build 0)  -->
<svg version="1.1" id="Capa_1" xmlns="http://www.w3.org/2000/svg" xmlns:xlink="http://www.w3.org/1999/xlink" x="0px" y="0px"
	 viewBox="0 0 512.001 512.001" style="enable-background:new 0 0 512.001 512.001;" xml:space="preserve">
<path style="fill:#4DBAF6;" d="M174.255,50.001h-70.257c-22.091,0-40,17.909-40,40v372c0,22.091,17.909,40,40,40h304
	c22.091,0,40-17.909,40-40v-372c0-22.091-17.909-40-40-40H335.84C335.84,50.001,174.255,50.001,174.255,50.001z"/>
<path style="fill:#FFFFFF;" d="M135.998,98.001h240c11.046,0,20,8.954,20,20v310c0,11.046-8.954,20-20,20h-240
	c-11.046,0-20-8.954-20-20v-310C115.998,106.956,124.952,98.001,135.998,98.001z"/>
<path style="fill:#72D8FF;" d="M309.267,42.001h-20.699C288.255,24.276,273.798,10,255.998,10s-32.257,14.275-32.57,32.001h-20.699
	c-15.38,0-27.848,12.468-27.848,27.848v28.152h162.234V69.849C337.115,54.469,324.647,42.001,309.267,42.001z"/>
<rect x="159.999" y="154" style="fill:#FF5D5D;" width="191.99" height="76"/>
<path d="M448.001,294.125c-2.64,0-5.21,1.069-7.08,2.93c-1.86,1.859-2.92,4.439-2.92,7.07c0,2.63,1.06,5.21,2.92,7.069
	c1.87,1.87,4.44,2.931,7.08,2.931c2.63,0,5.21-1.061,7.07-2.931c1.859-1.859,2.93-4.439,2.93-7.069c0-2.631-1.07-5.211-2.93-7.07
	C453.211,295.194,450.631,294.125,448.001,294.125z"/>
<path d="M447.998,340.335c-5.522,0-10,4.478-10,10v111.666c0,16.542-13.458,30-30,30h-304c-16.542,0-30-13.458-30-30v-372
	c0-16.542,13.458-30,30-30h62.19c-0.848,3.142-1.308,6.442-1.308,9.849v18.151h-28.883c-16.542,0-30,13.458-30,30v310
	c0,16.542,13.458,30,30,30h240c16.542,0,30-13.458,30-30v-310c0-16.542-13.458-30-30-30h-28.883V69.85
	c0-3.406-0.46-6.706-1.308-9.849h62.19c16.542,0,30,13.458,30,30v163.998c0,5.522,4.478,10,10,10s10-4.478,10-10V90.001
	c0-27.57-22.43-50-50-50h-75.501c-6.418-5.006-14.478-8-23.229-8h-12.04C292.473,13.663,275.681,0,255.998,0
	s-36.475,13.663-41.229,32.001h-12.04c-8.751,0-16.812,2.994-23.229,8h-75.501c-27.57,0-50,22.43-50,50v372c0,27.57,22.43,50,50,50
	h304c27.57,0,50-22.43,50-50V350.335C457.998,344.813,453.52,340.335,447.998,340.335z M385.998,118.001v310c0,5.514-4.486,10-10,10
	h-240c-5.514,0-10-4.486-10-10v-310c0-5.514,4.486-10,10-10h240C381.512,108.001,385.998,112.487,385.998,118.001z M223.429,52.001
	c5.454,0,9.902-4.37,9.998-9.823C233.643,29.948,243.768,20,255.998,20c12.23,0,22.355,9.948,22.571,22.178
	c0.096,5.453,4.544,9.823,9.998,9.823h20.7c9.841,0,17.848,8.007,17.848,17.849v18.151H184.881V69.85
	c0-9.842,8.007-17.849,17.848-17.849H223.429z"/>
<path d="M256.001,164.005c2.63,0,5.21-1.07,7.07-2.931c1.859-1.87,2.93-4.439,2.93-7.069c0-2.641-1.07-5.21-2.93-7.08
	c-1.86-1.86-4.44-2.92-7.07-2.92c-2.64,0-5.22,1.06-7.07,2.92c-1.87,1.87-2.93,4.439-2.93,7.08c0,2.63,1.06,5.21,2.93,7.069
	C250.791,162.935,253.361,164.005,256.001,164.005z"/>
<path d="M288.998,154.001c0,5.522,4.478,10,10,10h42.994v56H170.005v-56h41.66c5.522,0,10-4.478,10-10s-4.478-10-10-10h-51.66
	c-5.522,0-10,4.478-10,10v76c0,5.522,4.478,10,10,10h191.987c5.522,0,10-4.478,10-10v-76c0-5.522-4.478-10-10-10h-52.994
	C293.476,144.001,288.998,148.479,288.998,154.001z"/>
<path d="M351.992,324.001h-72c-5.522,0-10,4.478-10,10s4.478,10,10,10h72c5.522,0,10-4.478,10-10S357.515,324.001,351.992,324.001z"
	/>
<path d="M351.992,268.001h-72c-5.522,0-10,4.478-10,10s4.478,10,10,10h72c5.522,0,10-4.478,10-10S357.515,268.001,351.992,268.001z"
	/>
<path d="M351.992,380.001h-72c-5.522,0-10,4.478-10,10s4.478,10,10,10h72c5.522,0,10-4.478,10-10S357.515,380.001,351.992,380.001z"
	/>
<path d="M232.005,324.001h-72c-5.522,0-10,4.478-10,10s4.478,10,10,10h72c5.522,0,10-4.478,10-10S237.527,324.001,232.005,324.001z"
	/>
<path d="M232.005,268.001h-72c-5.522,0-10,4.478-10,10s4.478,10,10,10h72c5.522,0,10-4.478,10-10S237.527,268.001,232.005,268.001z"
	/>
<path d="M232.005,380.001h-72c-5.522,0-10,4.478-10,10s4.478,10,10,10h72c5.522,0,10-4.478,10-10S237.527,380.001,232.005,380.001z"
	/>
<g>
</g>
<g>
</g>
<g>
</g>
<g>
</g>
<g>
</g>
<g>
</g>
<g>
</g>
<g>
</g>
<g>
</g>
<g>
</g>
<g>
</g>
<g>
</g>
<g>
</g>
<g>
</g>
<g>
</g>
</svg>
