<?xml version="1.0" encoding="iso-8859-1"?>
<!-- Generator: Adobe Illustrator 19.0.0, SVG Export Plug-In . SVG Version: 6.00 Build 0)  -->
<svg version="1.1" id="Capa_1" xmlns="http://www.w3.org/2000/svg" xmlns:xlink="http://www.w3.org/1999/xlink" x="0px" y="0px"
	 viewBox="0 0 512 512" style="enable-background:new 0 0 512 512;" xml:space="preserve">
<path style="fill:#FFB954;" d="M452.333,502H482c11.046,0,20-8.954,20-20V150.125c0-11.046-8.954-20-20-20H30
	c-11.046,0-20,8.954-20,20V482c0,11.046,8.954,20,20,20h143.139H452.333z"/>
<path style="fill:#FEDA9B;" d="M452.333,461.938H482c11.046,0,20-8.954,20-20V110.063c0-11.046-8.954-20-20-20H30
	c-11.046,0-20,8.954-20,20v331.875c0,11.046,8.954,20,20,20h143.139H452.333z"/>
<path style="fill:#FFFFFF;" d="M452.333,421.875H482c11.046,0,20-8.954,20-20V70c0-11.046-8.954-20-20-20H30
	c-11.046,0-20,8.954-20,20v331.875c0,11.046,8.954,20,20,20h143.139H452.333z"/>
<rect x="64" y="160" style="fill:#FF5D5D;" width="209.78" height="192"/>
<path style="fill:#FEDA9B;" d="M422,357.113v64.762l80-80h-64.762C428.823,341.875,422,348.698,422,357.113z"/>
<path d="M239.93,414.8c-1.86,1.86-2.92,4.44-2.92,7.07c0,2.64,1.06,5.22,2.92,7.08c1.87,1.859,4.44,2.92,7.08,2.92
	c2.63,0,5.2-1.061,7.06-2.92c1.87-1.86,2.94-4.44,2.94-7.08c0-2.63-1.07-5.21-2.94-7.07c-1.859-1.86-4.43-2.93-7.06-2.93
	C244.37,411.87,241.8,412.939,239.93,414.8z"/>
<path d="M482,40h-34.254v-6c0-18.748-15.252-34-34-34s-34,15.252-34,34v6h-89.873v-6c0-18.748-15.252-34-34-34s-34,15.252-34,34v6
	H132v-6c0-18.748-15.252-34-34-34S64,15.252,64,34v6H30C13.458,40,0,53.458,0,70v331.875c0,16.542,13.458,30,30,30h165
	c5.522,0,10-4.478,10-10s-4.478-10-10-10H30c-5.514,0-10-4.486-10-10V70c0-5.514,4.486-10,10-10h34v17.168c0,18.748,15.252,34,34,34
	c5.522,0,10-4.477,10-10s-4.478-10-10-10c-7.72,0-14-6.28-14-14V60h137.873v17.168c0,18.748,15.252,34,34,34c5.522,0,10-4.477,10-10
	s-4.478-10-10-10c-7.72,0-14-6.28-14-14V60h137.873v17.168c0,18.748,15.252,34,34,34c5.522,0,10-4.477,10-10s-4.478-10-10-10
	c-7.72,0-14-6.28-14-14V60H482c5.514,0,10,4.486,10,10v261.875h-54.762c-13.916,0-25.238,11.322-25.238,25.238v54.762H299
	c-5.522,0-10,4.478-10,10s4.478,10,10,10h183c16.542,0,30-13.458,30-30V70C512,53.458,498.542,40,482,40z M84,34
	c0-7.72,6.28-14,14-14s14,6.28,14,14v6H84V34z M241.873,34c0-7.72,6.28-14,14-14c7.72,0,14,6.28,14,14v6h-28L241.873,34L241.873,34z
	 M399.746,34c0-7.72,6.28-14,14-14s14,6.28,14,14v6h-28V34z M432,357.113c0-2.889,2.35-5.238,5.238-5.238h40.619L432,397.732
	V357.113z M482,411.875h-35.857L492,366.018v35.857C492,407.389,487.514,411.875,482,411.875z"/>
<path d="M502,472c-5.522,0-10,4.478-10,10c0,5.514-4.486,10-10,10H30c-5.514,0-10-4.486-10-10c0-5.522-4.478-10-10-10
	s-10,4.478-10,10c0,16.542,13.458,30,30,30h452c16.542,0,30-13.458,30-30C512,476.478,507.522,472,502,472z"/>
<path d="M502,431.938c-5.522,0-10,4.478-10,10c0,5.514-4.486,10-10,10H30c-5.514,0-10-4.486-10-10c0-5.522-4.478-10-10-10
	s-10,4.478-10,10c0,16.542,13.458,30,30,30h452c16.542,0,30-13.458,30-30C512,436.415,507.522,431.938,502,431.938z"/>
<path d="M272.223,150h-10c-5.522,0-10,4.477-10,10s4.478,10,10,10h10c5.522,0,10-4.477,10-10S277.745,150,272.223,150z"/>
<path d="M222.223,170c5.522,0,10-4.477,10-10s-4.478-10-10-10h-10c-5.522,0-10,4.477-10,10s4.478,10,10,10H222.223z"/>
<path d="M213.777,362h10c5.522,0,10-4.478,10-10s-4.478-10-10-10h-10c-5.522,0-10,4.478-10,10S208.255,362,213.777,362z"/>
<path d="M283.777,298.445c0-5.522-4.478-10-10-10s-10,4.478-10,10v10c0,5.522,4.478,10,10,10s10-4.478,10-10V298.445z"/>
<path d="M283.777,198.445c0-5.523-4.478-10-10-10s-10,4.477-10,10v10c0,5.523,4.478,10,10,10s10-4.477,10-10V198.445z"/>
<path d="M273.777,338.445c-3.067,0-5.812,1.381-7.646,3.555h-2.354c-5.522,0-10,4.478-10,10s4.478,10,10,10h10
	c5.522,0,10-4.478,10-10v-3.555C283.777,342.923,279.3,338.445,273.777,338.445z"/>
<path d="M283.777,248.445c0-5.523-4.478-10-10-10s-10,4.477-10,10v10c0,5.522,4.478,10,10,10s10-4.478,10-10V248.445z"/>
<path d="M54,311.777c0,5.522,4.478,10,10,10s10-4.478,10-10v-10c0-5.522-4.478-10-10-10s-10,4.478-10,10V311.777z"/>
<path d="M54,211.777c0,5.523,4.478,10,10,10s10-4.477,10-10v-10c0-5.523-4.478-10-10-10s-10,4.477-10,10V211.777z"/>
<path d="M113.777,362h10c5.522,0,10-4.478,10-10s-4.478-10-10-10h-10c-5.522,0-10,4.478-10,10S108.255,362,113.777,362z"/>
<path d="M64,171.777c2.115,0,4.077-0.657,5.692-1.777h2.53c5.522,0,10-4.477,10-10s-4.478-10-10-10H64c-5.522,0-10,4.477-10,10
	v1.777C54,167.3,58.478,171.777,64,171.777z"/>
<path d="M54,261.777c0,5.522,4.478,10,10,10s10-4.478,10-10v-10c0-5.523-4.478-10-10-10s-10,4.477-10,10V261.777z"/>
<path d="M172.223,170c5.522,0,10-4.477,10-10s-4.478-10-10-10h-10c-5.522,0-10,4.477-10,10s4.478,10,10,10H172.223z"/>
<path d="M54,352c0,5.522,4.478,10,10,10h9.777c5.522,0,10-4.478,10-10s-4.478-10-10-10h-7.669c-0.68-0.146-1.385-0.223-2.108-0.223
	c-5.522,0-10,4.478-10,10V352z"/>
<path d="M122.223,170c5.522,0,10-4.477,10-10s-4.478-10-10-10h-10c-5.522,0-10,4.477-10,10s4.478,10,10,10H122.223z"/>
<path d="M163.777,362h10c5.522,0,10-4.478,10-10s-4.478-10-10-10h-10c-5.522,0-10,4.478-10,10S158.255,362,163.777,362z"/>
<path d="M340.661,314H448c5.522,0,10-4.478,10-10s-4.478-10-10-10H340.661c-5.522,0-10,4.478-10,10S335.139,314,340.661,314z"/>
<path d="M340.661,266H448c5.522,0,10-4.478,10-10c0-5.523-4.478-10-10-10H340.661c-5.522,0-10,4.477-10,10
	C330.661,261.522,335.139,266,340.661,266z"/>
<path d="M340.661,218H448c5.522,0,10-4.477,10-10s-4.478-10-10-10H340.661c-5.522,0-10,4.477-10,10S335.139,218,340.661,218z"/>
<path d="M455.069,167.07c1.86-1.86,2.931-4.44,2.931-7.07s-1.07-5.21-2.931-7.07C453.21,151.07,450.63,150,448,150
	s-5.21,1.07-7.07,2.93c-1.86,1.86-2.93,4.44-2.93,7.07c0,2.64,1.069,5.21,2.93,7.07S445.37,170,448,170
	S453.21,168.93,455.069,167.07z"/>
<path d="M340.661,170h60.342c5.522,0,10-4.477,10-10s-4.478-10-10-10h-60.342c-5.522,0-10,4.477-10,10S335.139,170,340.661,170z"/>
<g>
</g>
<g>
</g>
<g>
</g>
<g>
</g>
<g>
</g>
<g>
</g>
<g>
</g>
<g>
</g>
<g>
</g>
<g>
</g>
<g>
</g>
<g>
</g>
<g>
</g>
<g>
</g>
<g>
</g>
</svg>
