<?xml version="1.0" encoding="iso-8859-1"?>
<!-- Generator: Adobe Illustrator 19.0.0, SVG Export Plug-In . SVG Version: 6.00 Build 0)  -->
<svg version="1.1" id="Capa_1" xmlns="http://www.w3.org/2000/svg" xmlns:xlink="http://www.w3.org/1999/xlink" x="0px" y="0px"
	 viewBox="0 0 512 512" style="enable-background:new 0 0 512 512;" xml:space="preserve">
<path style="fill:#FFFFFF;" d="M351.986,10H84.011c-11.046,0-20,8.954-20,20v452c0,11.046,8.954,20,20,20h343.975
	c11.046,0,20-8.954,20-20V106.003L351.986,10z"/>
<path style="fill:#FEDA9B;" d="M371.986,106.003h76l-96-96.001v76.001C351.986,97.049,360.94,106.003,371.986,106.003z"/>
<rect x="128" y="146.33" style="fill:#36D28F;" width="256" height="192"/>
<path d="M447.986,252c-5.523,0-10,4.478-10,10v220c0,5.514-4.486,10-10,10H84.011c-5.514,0-10-4.486-10-10V30
	c0-5.514,4.486-10,10-10h257.975v66.003c0,16.542,13.458,30,30,30h66V180c0,5.522,4.477,10,10,10s10-4.478,10-10v-73.997
	c0-2.652-1.054-5.195-2.929-7.071l-96-96.003C357.182,1.054,354.638,0,351.986,0H84.011c-16.542,0-30,13.458-30,30v452
	c0,16.542,13.458,30,30,30h343.975c16.542,0,30-13.458,30-30V262C457.986,256.478,453.509,252,447.986,252z M361.986,86.003v-51.86
	l61.859,61.86h-51.859C366.472,96.003,361.986,91.517,361.986,86.003z"/>
<path d="M447.989,212.569c-2.64,0-5.21,1.061-7.07,2.931c-1.87,1.859-2.93,4.43-2.93,7.069c0,2.631,1.06,5.2,2.93,7.07
	c1.86,1.86,4.44,2.93,7.07,2.93s5.21-1.069,7.07-2.93c1.86-1.859,2.93-4.439,2.93-7.07c0-2.64-1.07-5.22-2.93-7.069
	C453.198,213.63,450.618,212.569,447.989,212.569z"/>
<path d="M129.999,136.333c-5.523,0-10,4.478-10,10s4.477,10,10,10h10c5.523,0,10-4.478,10-10s-4.477-10-10-10H129.999z"/>
<path d="M239.999,156.333c5.523,0,10-4.478,10-10s-4.477-10-10-10h-10c-5.523,0-10,4.478-10,10s4.477,10,10,10H239.999z"/>
<path d="M189.999,156.333c5.523,0,10-4.478,10-10s-4.477-10-10-10h-10c-5.523,0-10,4.478-10,10s4.477,10,10,10H189.999z"/>
<path d="M173.999,348.333h10c5.523,0,10-4.478,10-10s-4.477-10-10-10h-10c-5.523,0-10,4.478-10,10S168.476,348.333,173.999,348.333z
	"/>
<path d="M223.999,328.333c-5.523,0-10,4.478-10,10s4.477,10,10,10h10c5.523,0,10-4.478,10-10s-4.477-10-10-10H223.999z"/>
<path d="M323.999,328.333c-5.523,0-10,4.478-10,10s4.477,10,10,10h10c5.523,0,10-4.478,10-10s-4.477-10-10-10H323.999z"/>
<path d="M339.999,156.333c5.523,0,10-4.478,10-10s-4.477-10-10-10h-10c-5.523,0-10,4.478-10,10s4.477,10,10,10H339.999z"/>
<path d="M283.999,328.333h-10c-5.523,0-10,4.478-10,10s4.477,10,10,10h10c5.523,0,10-4.478,10-10S289.522,328.333,283.999,328.333z"
	/>
<path d="M393.999,242.333c0-5.522-4.477-10-10-10s-10,4.478-10,10v10c0,5.522,4.477,10,10,10s10-4.478,10-10V242.333z"/>
<path d="M393.999,192.333c0-5.522-4.477-10-10-10s-10,4.478-10,10v10c0,5.522,4.477,10,10,10s10-4.478,10-10V192.333z"/>
<path d="M383.999,328.333h-10c-5.523,0-10,4.478-10,10s4.477,10,10,10h10c5.523,0,10-4.478,10-10S389.522,328.333,383.999,328.333z"
	/>
<path d="M393.999,292.333c0-5.522-4.477-10-10-10s-10,4.478-10,10v10c0,5.522,4.477,10,10,10s10-4.478,10-10V292.333z"/>
<path d="M393.999,146.333c0-5.522-4.477-10-10-10h-4c-5.523,0-10,4.478-10,10c0,3.377,1.673,6.362,4.237,8.173
	c0.992,4.479,4.987,7.827,9.763,7.827c5.523,0,10-4.478,10-10V146.333z"/>
<path d="M289.999,156.333c5.523,0,10-4.478,10-10s-4.477-10-10-10h-10c-5.523,0-10,4.478-10,10s4.477,10,10,10H289.999z"/>
<path d="M117.999,244.333c0,5.522,4.477,10,10,10c5.523,0,10-4.478,10-10v-10c0-5.522-4.477-10-10-10c-5.523,0-10,4.478-10,10
	C117.999,234.333,117.999,244.333,117.999,244.333z"/>
<path d="M117.999,194.333c0,5.522,4.477,10,10,10c5.523,0,10-4.478,10-10v-10c0-5.522-4.477-10-10-10c-5.523,0-10,4.478-10,10
	C117.999,184.333,117.999,194.333,117.999,194.333z"/>
<path d="M117.999,338.333c0,5.522,4.477,10,10,10h6c5.523,0,10-4.478,10-10c0-4.776-3.349-8.771-7.827-9.763
	c-1.811-2.563-4.796-4.237-8.173-4.237c-5.523,0-10,4.478-10,10C117.999,334.333,117.999,338.333,117.999,338.333z"/>
<path d="M117.999,294.333c0,5.522,4.477,10,10,10c5.523,0,10-4.478,10-10v-10c0-5.522-4.477-10-10-10c-5.523,0-10,4.478-10,10
	C117.999,284.333,117.999,294.333,117.999,294.333z"/>
<path d="M246.865,223.116l-71.208,71.208c-3.905,3.905-3.905,10.237,0,14.143c1.953,1.952,4.512,2.929,7.071,2.929
	c2.559,0,5.119-0.977,7.071-2.929l64.137-64.137l24.366,24.366c3.905,3.904,10.237,3.904,14.143,0l68.118-68.118
	c3.905-3.905,3.905-10.237,0-14.143c-3.906-3.903-10.237-3.904-14.143,0l-61.047,61.047l-24.366-24.366
	C257.102,219.213,250.771,219.212,246.865,223.116z"/>
<path d="M156.665,200c0,16.542,13.458,30,30,30c16.542,0,30-13.458,30-30s-13.458-30-30-30C170.123,170,156.665,183.458,156.665,200
	z M186.665,190c5.514,0,10,4.486,10,10s-4.486,10-10,10c-5.514,0-10-4.486-10-10S181.151,190,186.665,190z"/>
<path d="M127.999,460h256c5.523,0,10-4.478,10-10s-4.477-10-10-10h-256c-5.523,0-10,4.478-10,10S122.476,460,127.999,460z"/>
<path d="M383.999,388h-209c-5.523,0-10,4.478-10,10s4.477,10,10,10h209c5.523,0,10-4.478,10-10S389.522,388,383.999,388z"/>
<path d="M120.928,405.069c1.86,1.86,4.44,2.931,7.07,2.931s5.21-1.07,7.07-2.931c1.86-1.859,2.93-4.439,2.93-7.069
	s-1.07-5.21-2.93-7.07s-4.44-2.93-7.07-2.93c-2.63,0-5.21,1.069-7.07,2.93c-1.86,1.86-2.93,4.44-2.93,7.07
	C117.999,400.64,119.069,403.21,120.928,405.069z"/>
<path d="M254.332,74.333H127.999c-5.523,0-10,4.478-10,10s4.477,10,10,10h126.333c5.523,0,10-4.478,10-10
	S259.855,74.333,254.332,74.333z"/>
<g>
</g>
<g>
</g>
<g>
</g>
<g>
</g>
<g>
</g>
<g>
</g>
<g>
</g>
<g>
</g>
<g>
</g>
<g>
</g>
<g>
</g>
<g>
</g>
<g>
</g>
<g>
</g>
<g>
</g>
</svg>
