<?xml version="1.0" encoding="iso-8859-1"?>
<!-- Generator: Adobe Illustrator 19.0.0, SVG Export Plug-In . SVG Version: 6.00 Build 0)  -->
<svg version="1.1" id="Capa_1" xmlns="http://www.w3.org/2000/svg" xmlns:xlink="http://www.w3.org/1999/xlink" x="0px" y="0px"
	 viewBox="0 0 512.003 512.003" style="enable-background:new 0 0 512.003 512.003;" xml:space="preserve">
<path style="fill:#FFB954;" d="M98,458.002H10v-404c0-24.301,19.699-44,44-44l0,0c24.301,0,44,19.699,44,44V458.002z"/>
<path style="fill:#FFFFFF;" d="M98,54.002h276c11.046,0,20,8.954,20,20v384H98"/>
<path style="fill:#FEDA9B;" d="M98,458.002c0-24.301-19.699-44-44-44l0,0c-24.301,0-44,19.699-44,44l0,0c0,24.301,19.699,44,44,44
	h265.451c11.046,0,20-8.954,20-20v-24H98z"/>
<rect x="138" y="94.001" style="fill:#FFFFFF;" width="216" height="64"/>
<rect x="138" y="206.001" style="fill:#72D8FF;" width="118" height="96"/>
<rect x="138" y="94.001" style="fill:#FF5D5D;" width="216" height="64"/>
<path style="fill:#4DBAF6;" d="M318.361,259.81l178.383,178.383c7.011,7.011,7.011,18.378,0,25.389l-33.161,33.161
	c-7.011,7.011-18.378,7.011-25.389,0L259.81,318.361L318.361,259.81z"/>
<path style="fill:#FFB954;" d="M408.426,466.977l29.767,29.767c7.011,7.011,18.378,7.011,25.389,0l33.161-33.161
	c7.011-7.011,7.011-18.378,0-25.389l-29.767-29.767L408.426,466.977z"/>
<polygon style="fill:#D8D8E4;" points="223.669,223.669 318.361,259.81 259.81,318.361 "/>
<path d="M98,358.002c-2.63,0-5.21,1.069-7.07,2.93c-1.86,1.86-2.93,4.44-2.93,7.07s1.07,5.21,2.93,7.069
	c1.86,1.86,4.44,2.931,7.07,2.931s5.21-1.07,7.07-2.931c1.86-1.859,2.93-4.439,2.93-7.069s-1.07-5.21-2.93-7.07
	S100.63,358.002,98,358.002z"/>
<path d="M394,272.002c-2.63,0-5.21,1.069-7.07,2.93c-1.86,1.86-2.93,4.44-2.93,7.07s1.07,5.21,2.93,7.069
	c1.86,1.86,4.44,2.931,7.07,2.931s5.21-1.07,7.07-2.931c1.86-1.859,2.93-4.439,2.93-7.069s-1.07-5.21-2.93-7.07
	S396.63,272.002,394,272.002z"/>
<path d="M364,94.002c0-5.523-4.477-10-10-10H138c-5.523,0-10,4.477-10,10v64c0,5.523,4.477,10,10,10h216c5.523,0,10-4.477,10-10
	V94.002z M344,148.002H148v-44h196V148.002z"/>
<path d="M354,196.002h-49c-5.523,0-10,4.477-10,10s4.477,10,10,10h49c5.523,0,10-4.477,10-10S359.523,196.002,354,196.002z"/>
<path d="M503.815,431.122L325.432,252.738c-0.996-0.995-2.19-1.77-3.505-2.271l-94.692-36.141
	c-3.683-1.405-7.849-0.516-10.637,2.272c-2.788,2.788-3.677,6.953-2.271,10.637l24.72,64.767H148v-76h49c5.523,0,10-4.477,10-10
	s-4.477-10-10-10h-59c-5.523,0-10,4.477-10,10v96c0,5.522,4.477,10,10,10h108.68l3.788,9.924c0.502,1.315,1.276,2.51,2.271,3.506
	l14.57,14.57H138c-5.523,0-10,4.478-10,10s4.477,10,10,10h149.309l28,28H138c-5.523,0-10,4.478-10,10s4.477,10,10,10h197.309l40,40
	H107.072c-4.704-25.014-26.713-44-53.072-44c-12.877,0-24.71,4.537-34,12.088V54.002c0-18.748,15.252-34,34-34s34,15.252,34,34
	v270.6c0,5.522,4.477,10,10,10s10-4.478,10-10v-260.6h266c5.514,0,10,4.486,10,10v172.294c0,5.523,4.477,10,10,10s10-4.477,10-10
	V74.002c0-16.542-13.458-30-30-30H107.057c-4.705-25.012-26.698-44-53.057-44c-29.776,0-54,24.224-54,54v404
	c0,29.775,24.224,54,54,54h265.452c16.542,0,30-13.458,30-30v-14H394c0.416,0,0.823-0.033,1.226-0.083l35.896,35.896
	c5.45,5.449,12.608,8.174,19.766,8.174s14.316-2.725,19.766-8.174l33.161-33.162c5.28-5.279,8.188-12.299,8.188-19.766
	S509.094,436.401,503.815,431.122z M329.452,482.002c0,5.514-4.486,10-10,10H54c-18.748,0-34-15.252-34-34s15.252-34,34-34
	s34,15.252,34,34c0,5.522,4.477,10,10,10h231.452V482.002z M273.953,318.361l44.408-44.408l134.473,134.474l-44.408,44.408
	L273.953,318.361z M300.378,263.65l-36.728,36.728l-22.671-59.398L300.378,263.65z M489.672,456.511l-33.161,33.162
	c-3.101,3.102-8.146,3.102-11.247,0l-22.696-22.696l44.408-44.408l22.696,22.696c1.502,1.502,2.329,3.499,2.329,5.623
	S491.175,455.009,489.672,456.511z"/>
<g>
</g>
<g>
</g>
<g>
</g>
<g>
</g>
<g>
</g>
<g>
</g>
<g>
</g>
<g>
</g>
<g>
</g>
<g>
</g>
<g>
</g>
<g>
</g>
<g>
</g>
<g>
</g>
<g>
</g>
</svg>
