<?xml version="1.0" encoding="iso-8859-1"?>
<!-- Generator: Adobe Illustrator 19.0.0, SVG Export Plug-In . SVG Version: 6.00 Build 0)  -->
<svg version="1.1" id="Capa_1" xmlns="http://www.w3.org/2000/svg" xmlns:xlink="http://www.w3.org/1999/xlink" x="0px" y="0px"
	 viewBox="0 0 512.001 512.001" style="enable-background:new 0 0 512.001 512.001;" xml:space="preserve">
<path style="fill:#FFFFFF;" d="M373.993,29.937H29.999c-11.046,0-20,8.954-20,20V393.93c0,11.046,8.954,20,20,20h343.994
	c11.046,0,20-8.954,20-20V49.936C393.993,38.891,385.039,29.937,373.993,29.937z"/>
<rect x="57.999" y="77.936" style="fill:#ADE5FF;" width="287.995" height="239.996"/>
<polygon style="fill:#4cbd89;" points="89.79,317.932 345.994,317.932 345.994,254.645 249.536,158.186 "/>
<polygon style="fill:#B2F0BF;" points="154.735,221.194 57.999,317.932 251.473,317.932 "/>
<circle style="fill:#FFB954;" cx="145.667" cy="142.938" r="22"/>
<path style="fill:#4DBAF6;" d="M301.741,381.248l126.134-218.47c4.958-8.587,15.937-11.529,24.524-6.571l40.613,23.449
	c8.587,4.958,11.529,15.937,6.571,24.524L373.449,422.648L301.741,381.248z"/>
<path style="fill:#FFB954;" d="M478.535,240.634l21.048-36.456c4.958-8.587,2.016-19.567-6.571-24.524l-40.613-23.449
	c-8.587-4.958-19.567-2.016-24.524,6.571l-21.048,36.456L478.535,240.634z"/>
<polygon style="fill:#D8D8E4;" points="291.34,482.065 301.741,381.248 373.449,422.648 "/>
<path d="M251.475,403.927c-2.64,0-5.21,1.07-7.069,2.93c-1.87,1.86-2.931,4.44-2.931,7.07c0,2.64,1.061,5.21,2.931,7.07
	c1.859,1.87,4.439,2.93,7.069,2.93s5.2-1.06,7.07-2.93c1.86-1.86,2.93-4.44,2.93-7.07c0-2.63-1.069-5.21-2.93-7.07
	C256.684,404.997,254.105,403.927,251.475,403.927z"/>
<path d="M201.996,403.929H29.999c-5.514,0-10-4.486-10-10V49.935c0-5.514,4.486-10,10-10h343.994c5.514,0,10,4.486,10,10v92.998
	c0,5.523,4.478,10,10,10s10-4.477,10-10V49.935c0-16.542-13.458-29.999-29.999-29.999H29.999C13.458,19.936,0,33.394,0,49.935
	v343.994c0,16.542,13.458,29.999,29.999,29.999h171.997c5.522,0,10-4.477,10-10C211.996,408.406,207.518,403.929,201.996,403.929z"
	/>
<path d="M113.665,142.934c0,17.645,14.355,31.999,31.999,31.999s31.999-14.355,31.999-31.999s-14.355-31.999-31.999-31.999
	S113.665,125.289,113.665,142.934z M157.664,142.934c0,6.617-5.383,12-12,12c-6.617,0-12-5.383-12-12c0-6.617,5.383-12,12-12
	C152.281,130.934,157.664,136.318,157.664,142.934z"/>
<path d="M511.036,187.967c-1.933-7.212-6.559-13.24-13.024-16.973l-40.613-23.449c-13.351-7.708-30.477-3.116-38.184,10.231
	l-63.221,109.502V77.935c0-5.523-4.478-10-10-10H57.999c-5.522,0-10,4.477-10,10v239.996c0,5.523,4.478,10,10,10H291.34
	c5.522,0,10-4.477,10-10s-4.478-10-10-10H82.142l72.595-72.595l53.928,53.928c3.906,3.905,10.236,3.905,14.143,0
	c3.905-3.905,3.905-10.237,0-14.143l-60.999-60.999c-1.876-1.875-4.419-2.929-7.071-2.929s-5.195,1.054-7.071,2.929l-79.668,79.667
	V87.935h267.995v142.568l-79.389-79.388c-1.876-1.875-4.419-2.929-7.071-2.929s-5.195,1.054-7.071,2.929l-52.976,52.976
	c-3.905,3.905-3.905,10.237,0,14.142c3.906,3.905,10.236,3.905,14.143,0l45.904-45.905l86.388,86.389
	c0.023,0.023,0.048,0.042,0.071,0.064v43.138l-42.913,74.329c-0.704,1.219-1.143,2.573-1.287,3.974l-10.401,100.817
	c-0.404,3.922,1.533,7.715,4.947,9.687c1.553,0.896,3.278,1.34,4.999,1.34c2.064,0,4.121-0.638,5.863-1.898l82.11-59.417
	c1.141-0.826,2.094-1.882,2.798-3.102l126.134-218.469C511.976,202.712,512.969,195.179,511.036,187.967z M310.104,397.622
	l44.982,25.971l-51.506,37.271L310.104,397.622z M369.789,408.988L315.4,377.587l95.086-164.693l54.389,31.4L369.789,408.988z
	 M490.923,199.178l-16.048,27.797l-54.389-31.4l16.048-27.797c2.193-3.797,7.065-5.103,10.864-2.912l40.613,23.449
	c1.84,1.063,3.156,2.777,3.706,4.829C492.267,195.196,491.985,197.339,490.923,199.178z"/>
<g>
</g>
<g>
</g>
<g>
</g>
<g>
</g>
<g>
</g>
<g>
</g>
<g>
</g>
<g>
</g>
<g>
</g>
<g>
</g>
<g>
</g>
<g>
</g>
<g>
</g>
<g>
</g>
<g>
</g>
</svg>
