<?xml version="1.0" encoding="iso-8859-1"?>
<!-- Generator: Adobe Illustrator 19.0.0, SVG Export Plug-In . SVG Version: 6.00 Build 0)  -->
<svg version="1.1" id="Capa_1" xmlns="http://www.w3.org/2000/svg" xmlns:xlink="http://www.w3.org/1999/xlink" x="0px" y="0px"
	 viewBox="0 0 512 512" style="enable-background:new 0 0 512 512;" xml:space="preserve">
<path id="SVGCleanerId_0" style="fill:#72D8FF;" d="M216.222,344.771v15.721c0,10.129-7.11,18.867-17.027,20.927l-56.431,11.722
	C108.537,400.252,84,430.41,84,465.368V502h344v-36.592c0-34.976-24.562-65.144-58.811-72.235l-56.806-11.761
	c-9.924-2.055-17.041-10.796-17.041-20.93V344.65L216.222,344.771z"/>
<path style="fill:#72D8FF;" d="M216.222,344.832v15.66c0,10.129-7.11,18.867-17.027,20.927l-56.431,11.722
	C108.537,400.252,84,430.41,84,465.368V502h344v-36.592c0-34.976-24.562-65.144-58.811-72.235l-56.806-11.761
	c-9.924-2.055-17.041-10.796-17.041-20.93v-15.77"/>
<g>
	<rect x="212" y="10" style="fill:#FEDA9B;" width="88" height="96"/>
	<rect x="10" y="10" style="fill:#FEDA9B;" width="88" height="96"/>
	<rect x="414" y="10" style="fill:#FEDA9B;" width="88" height="96"/>
</g>
<g>
	<path id="SVGCleanerId_0_1_" style="fill:#72D8FF;" d="M216.222,344.771v15.721c0,10.129-7.11,18.867-17.027,20.927l-56.431,11.722
		C108.537,400.252,84,430.41,84,465.368V502h344v-36.592c0-34.976-24.562-65.144-58.811-72.235l-56.806-11.761
		c-9.924-2.055-17.041-10.796-17.041-20.93V344.65L216.222,344.771z"/>
</g>
<g>
	<polygon style="fill:#FFC89F;" points="214.412,375 255.782,440.895 297.152,375 297.152,351.274 214.412,351.274 	"/>
	<path style="fill:#FFC89F;" d="M256,351.274L256,351.274c-41.247,0-74.684-33.437-74.684-74.684v-59.748
		c0-41.247,33.437-74.684,74.684-74.684l0,0c41.247,0,74.684,33.437,74.684,74.684v59.748
		C330.684,317.837,297.247,351.274,256,351.274z"/>
</g>
<path style="fill:#FFB954;" d="M256,142.158L256,142.158c-41.247,0-74.684,33.437-74.684,74.684v29.485l0.921,0.213h47.751
	c34.148,0,66.897-13.565,91.044-37.712l4.867-4.867l3.095-2.92C321.741,167.385,291.823,142.158,256,142.158z"/>
<path d="M371.216,383.38l-56.806-11.761c-5.254-1.088-9.068-5.772-9.068-11.138v-15.132c21.381-15.387,35.342-40.466,35.342-68.759
	v-59.748c0-46.695-37.989-84.684-84.684-84.684s-84.684,37.989-84.684,84.684v59.748c0,28.102,13.77,53.036,34.906,68.448v15.454
	c0,5.362-3.811,10.046-9.061,11.136L140.73,383.35C102.064,391.383,74,425.876,74,465.368V502c0,5.523,4.477,10,10,10h222
	c5.523,0,10-4.477,10-10s-4.477-10-10-10H94v-26.632c0-30.063,21.364-56.32,50.798-62.435l56.431-11.722
	c3.343-0.694,6.47-1.922,9.309-3.574l36.775,58.575c1.83,2.914,5.028,4.683,8.469,4.683c3.441,0,6.64-1.769,8.469-4.683
	l36.78-58.583c2.843,1.653,5.976,2.881,9.324,3.575l56.806,11.761c29.458,6.099,50.839,32.36,50.839,62.443V492h-16
	c-5.523,0-10,4.477-10,10s4.477,10,10,10h26c5.523,0,10-4.477,10-10v-36.592C438,425.89,409.913,391.392,371.216,383.38z
	 M256,152.158c29.069,0,53.716,19.277,61.842,45.718l-3.881,3.881c-22.431,22.43-52.252,34.783-83.973,34.783h-38.672v-19.697
	C191.316,181.175,220.333,152.158,256,152.158z M191.316,276.59v-20.05h38.672c33.666,0,65.501-11.911,90.696-33.736v53.787
	c0,35.667-29.017,64.684-64.684,64.684S191.316,312.257,191.316,276.59z M255.782,422.087l-31.649-50.41
	c1.348-3.499,2.089-7.275,2.089-11.185v-4.639c9.27,3.494,19.302,5.42,29.778,5.42c10.311,0,20.195-1.858,29.342-5.248v4.455
	c0,3.913,0.742,7.691,2.091,11.193L255.782,422.087z"/>
<path d="M357,492c-2.63,0-5.21,1.07-7.07,2.93c-1.86,1.86-2.93,4.44-2.93,7.07s1.07,5.21,2.93,7.07c1.86,1.86,4.44,2.93,7.07,2.93
	s5.21-1.07,7.07-2.93S367,504.63,367,502s-1.07-5.21-2.93-7.07C362.21,493.07,359.63,492,357,492z"/>
<path d="M212,116h88c5.523,0,10-4.477,10-10V10c0-5.523-4.477-10-10-10h-88c-5.523,0-10,4.477-10,10v96
	C202,111.523,206.477,116,212,116z M222,20h68v76h-68V20z"/>
<path d="M108,106V10c0-5.523-4.477-10-10-10H10C4.477,0,0,4.477,0,10v96c0,5.523,4.477,10,10,10h88C103.523,116,108,111.523,108,106
	z M88,96H20V20h68V96z"/>
<path d="M502,0h-88c-5.523,0-10,4.477-10,10v96c0,5.523,4.477,10,10,10h88c5.523,0,10-4.477,10-10V10C512,4.477,507.523,0,502,0z
	 M492,96h-68V20h68V96z"/>
<path d="M90.929,167.663c-3.905,3.905-3.905,10.237,0,14.143l27.447,27.447c1.953,1.953,4.512,2.929,7.071,2.929
	s5.119-0.976,7.071-2.929c3.905-3.905,3.905-10.237,0-14.143l-27.447-27.447C101.166,163.757,94.834,163.757,90.929,167.663z"/>
<path d="M72.7,135.29c-1.86-1.86-4.44-2.92-7.07-2.92s-5.21,1.06-7.07,2.92c-1.86,1.87-2.93,4.44-2.93,7.08
	c0,2.63,1.07,5.2,2.93,7.07c1.86,1.86,4.44,2.92,7.07,2.92c2.63,0,5.21-1.06,7.07-2.92c1.86-1.87,2.93-4.44,2.93-7.07
	C75.63,139.73,74.56,137.16,72.7,135.29z"/>
<path d="M386.553,212.181c2.559,0,5.119-0.976,7.071-2.929l39.092-39.092c3.905-3.905,3.905-10.237,0-14.143
	c-3.905-3.905-10.237-3.905-14.143,0l-39.092,39.092c-3.905,3.905-3.905,10.237,0,14.143
	C381.435,211.205,383.994,212.181,386.553,212.181z"/>
<g>
</g>
<g>
</g>
<g>
</g>
<g>
</g>
<g>
</g>
<g>
</g>
<g>
</g>
<g>
</g>
<g>
</g>
<g>
</g>
<g>
</g>
<g>
</g>
<g>
</g>
<g>
</g>
<g>
</g>
</svg>
