<?xml version="1.0" encoding="iso-8859-1"?>
<!-- Generator: Adobe Illustrator 19.0.0, SVG Export Plug-In . SVG Version: 6.00 Build 0)  -->
<svg version="1.1" id="Capa_1" xmlns="http://www.w3.org/2000/svg" xmlns:xlink="http://www.w3.org/1999/xlink" x="0px" y="0px"
	 viewBox="0 0 512 512" style="enable-background:new 0 0 512 512;" xml:space="preserve">
<path style="fill:#EDF2FA;" d="M472,384.083H40c-16.569,0-30-13.431-30-30V40.001c0-16.569,13.431-30,30-30h432
	c16.569,0,30,13.431,30,30v314.083C502,370.653,488.569,384.083,472,384.083z"/>
<rect x="207" y="385.081" style="fill:#72D8FF;" width="96" height="68.917"/>
<path style="fill:#EDF2FA;" d="M309.333,454H202.667c-26.51,0-48,21.49-48,48l0,0h202.667l0,0
	C357.333,475.49,335.843,454,309.333,454z"/>
<rect x="50" y="50.081" style="fill:#FFFFFF;" width="412" height="270"/>
<path style="fill:#FF5D5D;" d="M210.095,237.645h-48.19c-30.876,0-55.905,25.03-55.905,55.905v26.534h160v-26.534
	C266,262.674,240.97,237.645,210.095,237.645z"/>
<path style="fill:#FFC89F;" d="M186,152.788L186,152.788c-19.987,0-36.191,16.203-36.191,36.19v12.475
	c0,19.987,16.203,36.19,36.19,36.19l0,0c19.987,0,36.19-16.203,36.19-36.19v-12.475C222.19,168.992,205.987,152.788,186,152.788z"/>
<path style="fill:#FFB954;" d="M394,98.096H282c-11.046,0-20,8.954-20,20v56c0,11.046,8.954,20,20,20h14.333v29.572l29.572-29.572
	H394c11.046,0,20-8.954,20-20v-56C414,107.05,405.046,98.096,394,98.096z"/>
<path d="M400,374.081c-2.63,0-5.21,1.07-7.07,2.93c-1.86,1.86-2.93,4.44-2.93,7.07s1.07,5.21,2.93,7.07
	c1.86,1.87,4.44,2.93,7.07,2.93s5.21-1.06,7.07-2.93c1.86-1.86,2.93-4.43,2.93-7.07c0-2.63-1.07-5.21-2.93-7.07
	C405.21,375.15,402.63,374.081,400,374.081z"/>
<path d="M472,0.001H40c-22.056,0-40,17.944-40,40v314.083c0,22.056,17.944,40,40,40h157v50.197
	c-29.332,2.858-52.333,27.65-52.333,57.719c0,5.523,4.477,10,10,10h202.667c5.523,0,10-4.477,10-10
	c0-30.749-24.055-55.972-54.333-57.872v-50.044h46.667c5.523,0,10-4.477,10-10s-4.477-10-10-10H40c-11.028,0-20-8.972-20-20V40.001
	c0-11.028,8.972-20,20-20h432c11.028,0,20,8.972,20,20v314.083c0,11.028-8.972,20-20,20h-34.914c-5.523,0-10,4.477-10,10
	s4.477,10,10,10H472c22.056,0,40-17.944,40-40V40.001C512,17.945,494.056,0.001,472,0.001z M345.999,492H166.001
	c4.4-16.118,19.171-28,36.665-28h106.667C326.827,464,341.598,475.883,345.999,492z M293,444h-76v-49.917h76V444z"/>
<path d="M247.93,345.01c-1.86,1.86-2.93,4.44-2.93,7.07c0,2.64,1.07,5.21,2.93,7.07c1.86,1.87,4.44,2.93,7.07,2.93
	s5.21-1.06,7.07-2.93c1.86-1.86,2.93-4.44,2.93-7.07s-1.07-5.21-2.93-7.07c-1.86-1.86-4.44-2.93-7.07-2.93
	S249.79,343.151,247.93,345.01z"/>
<path d="M462,330.083c5.523,0,10-4.477,10-10v-270c0-5.523-4.477-10-10-10H50c-5.523,0-10,4.477-10,10v270c0,5.523,4.477,10,10,10
	H462z M60,60.084h392v250H276v-16.534c0-31.89-22.769-58.556-52.902-64.611c5.709-7.686,9.093-17.197,9.093-27.485v-12.475
	c0-25.469-20.721-46.19-46.19-46.19s-46.19,20.721-46.19,46.19v12.475c0,10.288,3.384,19.799,9.093,27.485
	C118.769,234.993,96,261.661,96,293.549v16.534H60V60.084z M159.81,201.454v-12.475c0-14.441,11.749-26.19,26.19-26.19
	s26.19,11.749,26.19,26.19v12.475c0,14.441-11.749,26.19-26.19,26.19S159.81,215.896,159.81,201.454z M116,310.083v-16.534
	c0-25.313,20.593-45.905,45.905-45.905h48.189c25.313,0,45.905,20.593,45.905,45.905v16.534H116z"/>
<path d="M282,204.096h4.333v19.572c0,4.044,2.437,7.691,6.173,9.239c1.237,0.513,2.536,0.762,3.824,0.762
	c2.603,0,5.161-1.017,7.074-2.929l26.643-26.643H394c16.542,0,30-13.458,30-30v-56c0-16.542-13.458-30-30-30H282
	c-16.542,0-30,13.458-30,30v56C252,190.637,265.458,204.096,282,204.096z M272,118.096c0-5.514,4.486-10,10-10h112
	c5.514,0,10,4.486,10,10v56c0,5.514-4.486,10-10,10h-68.095c-2.652,0-5.196,1.054-7.071,2.929l-12.5,12.501v-5.43
	c0-5.523-4.477-10-10-10H282c-5.514,0-10-4.486-10-10V118.096z"/>
<path d="M298.5,155.001c2.63,0,5.21-1.07,7.07-2.93s2.93-4.44,2.93-7.07s-1.07-5.21-2.93-7.07s-4.44-2.93-7.07-2.93
	s-5.21,1.07-7.07,2.93c-1.86,1.86-2.93,4.44-2.93,7.07s1.07,5.21,2.93,7.07C293.29,153.93,295.87,155.001,298.5,155.001z"/>
<path d="M338,155.001c2.63,0,5.21-1.07,7.07-2.93s2.93-4.44,2.93-7.07s-1.07-5.21-2.93-7.07s-4.44-2.93-7.07-2.93
	s-5.21,1.07-7.07,2.93c-1.86,1.86-2.93,4.44-2.93,7.07s1.07,5.21,2.93,7.07C332.79,153.93,335.37,155.001,338,155.001z"/>
<path d="M377.5,155.001c2.63,0,5.21-1.07,7.07-2.93s2.93-4.44,2.93-7.07s-1.07-5.21-2.93-7.07s-4.44-2.93-7.07-2.93
	s-5.21,1.07-7.07,2.93c-1.86,1.86-2.93,4.44-2.93,7.07s1.07,5.21,2.93,7.07C372.29,153.93,374.87,155.001,377.5,155.001z"/>
<g>
</g>
<g>
</g>
<g>
</g>
<g>
</g>
<g>
</g>
<g>
</g>
<g>
</g>
<g>
</g>
<g>
</g>
<g>
</g>
<g>
</g>
<g>
</g>
<g>
</g>
<g>
</g>
<g>
</g>
</svg>
