<?xml version="1.0" encoding="iso-8859-1"?>
<!-- Generator: Adobe Illustrator 19.0.0, SVG Export Plug-In . SVG Version: 6.00 Build 0)  -->
<svg version="1.1" id="Capa_1" xmlns="http://www.w3.org/2000/svg" xmlns:xlink="http://www.w3.org/1999/xlink" x="0px" y="0px"
	 viewBox="0 0 512 512" style="enable-background:new 0 0 512 512;" xml:space="preserve">
<path style="fill:#FFFFFF;" d="M414,10.002H174c-8.837,0-16,7.163-16,16v392c0,8.837,7.163,16,16,16h312c8.837,0,16-7.163,16-16
	v-320L414,10.002z"/>
<path style="fill:#FEDA9B;" d="M502,98.002h-72c-8.837,0-16-7.163-16-16v-72L502,98.002z"/>
<path style="fill:#4cbd89;" d="M448,251.741v210.257c0,22.091-17.909,40-40,40H50c-22.091,0-40-17.909-40-40V251.741
	c0-22.091,17.909-40,40-40h358C430.091,211.741,448,229.65,448,251.741z"/>
<rect x="205.92" y="63.998" style="fill:#FF5D5D;" width="136" height="48"/>
<path d="M509.071,90.931l-88-88c-1.876-1.875-4.419-2.929-7.071-2.929H174c-14.337,0-26,11.664-26,26v175.739H50
	c-27.57,0-50,22.43-50,50v210.257c0,27.57,22.43,50,50,50h358c27.57,0,50-22.43,50-50v-17.996h28c14.337,0,26-11.664,26-26v-320
	C512,95.35,510.946,92.806,509.071,90.931z M424,34.144l53.858,53.857H430c-3.309,0-6-2.691-6-6V34.144z M20,461.998V251.741
	c0-11.853,6.91-22.12,16.913-26.99l69.916,69.915c1.953,1.953,4.512,2.929,7.071,2.929s5.118-0.976,7.071-2.929
	c3.905-3.905,3.905-10.237,0-14.143L62.188,221.74h333.625L283.537,334.017c-0.363,0.363-0.681,0.753-0.977,1.155
	c-16.456-8.155-34.693-12.472-53.596-12.472c-32.285,0-62.638,12.572-85.467,35.401L24.242,477.356
	C21.551,472.86,20,467.608,20,461.998z M408,491.998H50c-3.615,0-7.083-0.643-10.295-1.82L157.64,372.244
	c19.052-19.052,44.382-29.543,71.324-29.543s52.272,10.492,71.323,29.543L418.24,490.196
	C415.043,491.361,411.595,491.998,408,491.998z M438,461.998c0,5.629-1.561,10.898-4.269,15.404l-119.301-119.3
	c-4.513-4.513-9.323-8.618-14.381-12.311l121.039-121.039c10.002,4.87,16.912,15.137,16.912,26.99L438,461.998L438,461.998z
	 M492,418.002c0,3.309-2.691,6-6,6h-28V251.741c0-27.57-22.43-50-50-50H168V26.002c0-3.309,2.691-6,6-6h230v62
	c0,14.336,11.663,26,26,26h62V418.002z"/>
<path d="M151.189,314.88c0-2.63-1.069-5.2-2.93-7.07c-1.86-1.86-4.44-2.93-7.07-2.93s-5.21,1.07-7.069,2.93
	c-1.86,1.87-2.931,4.44-2.931,7.07c0,2.64,1.07,5.22,2.931,7.08c1.859,1.86,4.439,2.92,7.069,2.92s5.21-1.06,7.07-2.92
	C150.12,320.09,151.189,317.52,151.189,314.88z"/>
<path d="M309,149.998h-97.645c-5.522,0-10,4.477-10,10s4.478,10,10,10H309c5.522,0,10-4.477,10-10S314.522,149.998,309,149.998z"/>
<path d="M454.649,170c2.63,0,5.2-1.07,7.07-2.93c1.86-1.86,2.93-4.44,2.93-7.07s-1.069-5.21-2.93-7.07
	c-1.87-1.86-4.44-2.93-7.07-2.93c-2.64,0-5.22,1.07-7.08,2.93c-1.859,1.86-2.92,4.43-2.92,7.07c0,2.63,1.061,5.21,2.92,7.07
	C449.43,168.93,452.01,170,454.649,170z"/>
<path d="M406.834,149.998H355c-5.522,0-10,4.477-10,10s4.478,10,10,10h51.834c5.522,0,10-4.477,10-10
	S412.356,149.998,406.834,149.998z"/>
<path d="M351.917,111.998v-48c0-5.523-4.478-10-10-10h-136c-5.522,0-10,4.477-10,10v48c0,5.523,4.478,10,10,10h136
	C347.439,121.998,351.917,117.521,351.917,111.998z M331.917,101.998h-116v-28h116V101.998z"/>
<g>
</g>
<g>
</g>
<g>
</g>
<g>
</g>
<g>
</g>
<g>
</g>
<g>
</g>
<g>
</g>
<g>
</g>
<g>
</g>
<g>
</g>
<g>
</g>
<g>
</g>
<g>
</g>
<g>
</g>
</svg>
