<?xml version="1.0" encoding="iso-8859-1"?>
<!-- Generator: Adobe Illustrator 19.0.0, SVG Export Plug-In . SVG Version: 6.00 Build 0)  -->
<svg version="1.1" id="Capa_1" xmlns="http://www.w3.org/2000/svg" xmlns:xlink="http://www.w3.org/1999/xlink" x="0px" y="0px"
	 viewBox="0 0 512 512" style="enable-background:new 0 0 512 512;" xml:space="preserve">
<path style="fill:#FFB954;" d="M376,74H72c-11.046,0-20,8.954-20,20v388c0,11.046,8.954,20,20,20h304c11.046,0,20-8.954,20-20V94
	C396,82.954,387.046,74,376,74z"/>
<path style="fill:#FFFFFF;" d="M204,10h236c11.046,0,20,8.954,20,20v388c0,11.046-8.954,20-20,20H136c-11.046,0-20-8.954-20-20V98
	L204,10z"/>
<rect x="180.67" y="74" style="fill:#FF5D5D;" width="215.33" height="72"/>
<path style="fill:#FEDA9B;" d="M116,98h60.5c15.188,0,27.5-12.312,27.5-27.5V10L116,98z"/>
<rect x="298" y="218" style="fill:#72D8FF;" width="98" height="72"/>
<path d="M440,0H204c0.004,0.009,0.006,0.016,0.01,0.025c-2.605-0.002-5.167,0.989-7.081,2.904l-88,88
	c-1.913,1.914-2.905,4.472-2.905,7.075c-0.008-0.001-0.016-0.002-0.024-0.004v320c0,16.542,13.458,30,30,30h304
	c16.542,0,30-13.458,30-30V30C470,13.458,456.542,0,440,0z M194,34.143V70.5c0,9.649-7.851,17.5-17.5,17.5h-36.358L194,34.143z
	 M450,418c0,5.514-4.486,10-10,10H136c-5.514,0-10-4.486-10-10V108h50.5c20.678,0,37.5-16.822,37.5-37.5V20h226
	c5.514,0,10,4.486,10,10V418z"/>
<path d="M114.475,492h-10c-5.523,0-10,4.478-10,10s4.477,10,10,10h10c5.523,0,10-4.478,10-10S119.998,492,114.475,492z"/>
<path d="M52,415.905c5.523,0,10-4.478,10-10v-10c0-5.522-4.477-10-10-10s-10,4.478-10,10v10C42,411.428,46.477,415.905,52,415.905z"
	/>
<path d="M62,455.905v-10c0-5.522-4.477-10-10-10s-10,4.478-10,10v10c0,5.522,4.477,10,10,10S62,461.428,62,455.905z"/>
<path d="M164.475,492h-10c-5.523,0-10,4.478-10,10s4.477,10,10,10h10c5.523,0,10-4.478,10-10S169.998,492,164.475,492z"/>
<path d="M68.33,491.31c-1.55-0.613-2.938-1.619-4.015-2.909c-3.538-4.24-9.845-4.809-14.085-1.271s-4.809,9.845-1.271,14.085
	c3.211,3.849,7.366,6.854,12.016,8.692c1.207,0.478,2.451,0.704,3.674,0.704c3.983,0,7.749-2.396,9.302-6.325
	C75.983,499.15,73.466,493.34,68.33,491.31z"/>
<path d="M52,165.905c5.523,0,10-4.478,10-10v-10c0-5.522-4.477-10-10-10s-10,4.478-10,10v10C42,161.428,46.477,165.905,52,165.905z"
	/>
<path d="M52,115.905c5.523,0,10-4.478,10-10v-10c0-5.522-4.477-10-10-10s-10,4.478-10,10v10C42,111.428,46.477,115.905,52,115.905z"
	/>
<path d="M52,215.905c5.523,0,10-4.478,10-10v-10c0-5.522-4.477-10-10-10s-10,4.478-10,10v10C42,211.428,46.477,215.905,52,215.905z"
	/>
<path d="M52,365.905c5.523,0,10-4.478,10-10v-10c0-5.522-4.477-10-10-10s-10,4.478-10,10v10C42,361.428,46.477,365.905,52,365.905z"
	/>
<path d="M52,265.905c5.523,0,10-4.478,10-10v-10c0-5.522-4.477-10-10-10s-10,4.478-10,10v10C42,261.428,46.477,265.905,52,265.905z"
	/>
<path d="M52,315.905c5.523,0,10-4.478,10-10v-10c0-5.522-4.477-10-10-10s-10,4.478-10,10v10C42,311.428,46.477,315.905,52,315.905z"
	/>
<path d="M98.667,74c0-5.522-4.477-10-10-10h-10c-5.523,0-10,4.478-10,10s4.477,10,10,10h10C94.189,84,98.667,79.522,98.667,74z"/>
<path d="M364.475,492h-10c-5.523,0-10,4.478-10,10s4.477,10,10,10h10c5.523,0,10-4.478,10-10S369.998,492,364.475,492z"/>
<path d="M214.475,492h-10c-5.523,0-10,4.478-10,10s4.477,10,10,10h10c5.523,0,10-4.478,10-10S219.998,492,214.475,492z"/>
<path d="M396,464.953c-5.523,0-10,4.478-10,10V482c0,0.499-0.036,0.997-0.108,1.482c-0.806,5.464,2.97,10.546,8.434,11.352
	c0.495,0.073,0.986,0.108,1.472,0.108c4.877,0,9.148-3.573,9.881-8.542c0.213-1.447,0.322-2.929,0.322-4.4v-7.047
	C406,469.431,401.523,464.953,396,464.953z"/>
<path d="M314.475,492h-10c-5.523,0-10,4.478-10,10s4.477,10,10,10h10c5.523,0,10-4.478,10-10S319.998,492,314.475,492z"/>
<path d="M264.475,492h-10c-5.523,0-10,4.478-10,10s4.477,10,10,10h10c5.523,0,10-4.478,10-10S269.998,492,264.475,492z"/>
<path d="M180.667,228h72c5.523,0,10-4.478,10-10s-4.477-10-10-10h-72c-5.523,0-10,4.478-10,10S175.144,228,180.667,228z"/>
<path d="M347,352H180.667c-5.523,0-10,4.478-10,10s4.477,10,10,10H347c5.523,0,10-4.478,10-10S352.523,352,347,352z"/>
<path d="M393.24,352c-2.63,0-5.21,1.069-7.07,2.93s-2.93,4.44-2.93,7.07s1.07,5.21,2.93,7.069c1.86,1.86,4.44,2.931,7.07,2.931
	s5.21-1.07,7.07-2.931c1.86-1.859,2.93-4.439,2.93-7.069s-1.07-5.21-2.93-7.07C398.45,353.069,395.87,352,393.24,352z"/>
<path d="M180.667,300h72c5.523,0,10-4.478,10-10s-4.477-10-10-10h-72c-5.523,0-10,4.478-10,10S175.144,300,180.667,300z"/>
<path d="M396,64H245.333c-5.523,0-10,4.478-10,10s4.477,10,10,10H386v52H180.667c-5.523,0-10,4.478-10,10s4.477,10,10,10H396
	c5.523,0,10-4.478,10-10V74C406,68.478,401.523,64,396,64z"/>
<path d="M396,208h-98c-5.523,0-10,4.478-10,10v72c0,5.522,4.477,10,10,10h98c5.523,0,10-4.478,10-10v-72
	C406,212.478,401.523,208,396,208z M386,280h-78v-52h78V280z"/>
<g>
</g>
<g>
</g>
<g>
</g>
<g>
</g>
<g>
</g>
<g>
</g>
<g>
</g>
<g>
</g>
<g>
</g>
<g>
</g>
<g>
</g>
<g>
</g>
<g>
</g>
<g>
</g>
<g>
</g>
</svg>
