<?xml version="1.0" encoding="iso-8859-1"?>
<!-- Generator: Adobe Illustrator 19.0.0, SVG Export Plug-In . SVG Version: 6.00 Build 0)  -->
<svg version="1.1" id="Capa_1" xmlns="http://www.w3.org/2000/svg" xmlns:xlink="http://www.w3.org/1999/xlink" x="0px" y="0px"
	 viewBox="0 0 512 512" style="enable-background:new 0 0 512 512;" xml:space="preserve">
<path style="fill:#ADE5FF;" d="M450,118H62c-17.673,0-32,14.327-32,32v288h452V150C482,132.327,467.673,118,450,118z"/>
<path style="fill:#FFFFFF;" d="M442,438V103.01l-93.006-93.009H89.376C78.675,10.001,70,18.676,70,29.377V438H442z"/>
<rect x="120" y="112" style="fill:#FF5D5D;" width="272" height="104"/>
<path style="fill:#FEDA9B;" d="M368.37,103.009H442l-93.006-93.007v73.631C348.994,94.334,357.669,103.009,368.37,103.009z"/>
<g>
	<rect x="120" y="268" style="fill:#72D8FF;" width="111.77" height="104"/>
	<path style="fill:#72D8FF;" d="M460,502H52c-23.196,0-42-18.804-42-42v-22h492v22C502,483.196,483.196,502,460,502z"/>
</g>
<path d="M120,74h44c5.522,0,10-4.477,10-10s-4.478-10-10-10h-44c-5.522,0-10,4.477-10,10S114.478,74,120,74z"/>
<path d="M216.399,74c2.63,0,5.21-1.07,7.07-2.93s2.93-4.44,2.93-7.07c0-2.63-1.069-5.21-2.93-7.07c-1.86-1.86-4.44-2.93-7.07-2.93
	s-5.21,1.07-7.069,2.93c-1.86,1.86-2.931,4.44-2.931,7.07c0,2.63,1.07,5.21,2.931,7.07C211.189,72.93,213.77,74,216.399,74z"/>
<path d="M120,226h272c5.522,0,10-4.477,10-10v-54.833c0-5.523-4.478-10-10-10s-10,4.477-10,10V206H130v-84h171
	c5.522,0,10-4.477,10-10s-4.478-10-10-10H120c-5.522,0-10,4.477-10,10v104C110,221.523,114.478,226,120,226z"/>
<path d="M392,310H280.232c-5.522,0-10,4.478-10,10s4.478,10,10,10H392c5.522,0,10-4.478,10-10S397.522,310,392,310z"/>
<path d="M392,258H280.232c-5.522,0-10,4.478-10,10s4.478,10,10,10H392c5.522,0,10-4.478,10-10S397.522,258,392,258z"/>
<path d="M392,362h-67c-5.522,0-10,4.478-10,10s4.478,10,10,10h67c5.522,0,10-4.478,10-10S397.522,362,392,362z"/>
<path d="M280.229,362c-2.63,0-5.21,1.069-7.069,2.93c-1.86,1.86-2.931,4.44-2.931,7.07s1.07,5.21,2.931,7.069
	c1.859,1.86,4.439,2.931,7.069,2.931s5.21-1.07,7.07-2.931c1.86-1.859,2.93-4.439,2.93-7.069s-1.069-5.21-2.93-7.07
	S282.87,362,280.229,362z"/>
<path d="M120,382h111.768c5.522,0,10-4.478,10-10V268c0-5.522-4.478-10-10-10H120c-5.522,0-10,4.478-10,10v104
	C110,377.522,114.478,382,120,382z M130,278h91.768v84H130V278z"/>
<path d="M502,428h-10V150c0-22.488-17.766-40.901-40-41.949v-5.042c0-2.652-1.054-5.196-2.929-7.071L356.065,2.929
	C354.189,1.054,351.646,0,348.994,0H89.376C73.178,0,60,13.178,60,29.376v78.674c-22.234,1.049-40,19.462-40,41.95v278H10
	c-5.522,0-10,4.478-10,10v22c0,28.673,23.327,52,52,52h408c28.673,0,52-23.327,52-52v-22C512,432.478,507.522,428,502,428z M472,150
	v278h-20V128.095C463.196,129.109,472,138.544,472,150z M358.994,34.143l58.864,58.866H368.37c-5.17,0-9.376-4.206-9.376-9.376
	V34.143z M89.376,20h249.618v63.633c0,16.198,13.178,29.376,29.376,29.376H432V428H80V29.376C80,24.206,84.206,20,89.376,20z
	 M40,150c0-11.456,8.804-20.891,20-21.905V428H40V150z M492,460c0,17.645-14.355,32-32,32H52c-17.645,0-32-14.355-32-32v-12h472V460
	z"/>
<path d="M289.667,460h-67.334c-5.522,0-10,4.478-10,10s4.478,10,10,10h67.334c5.522,0,10-4.478,10-10S295.189,460,289.667,460z"/>
<g>
</g>
<g>
</g>
<g>
</g>
<g>
</g>
<g>
</g>
<g>
</g>
<g>
</g>
<g>
</g>
<g>
</g>
<g>
</g>
<g>
</g>
<g>
</g>
<g>
</g>
<g>
</g>
<g>
</g>
</svg>
