<?xml version="1.0" encoding="iso-8859-1"?>
<!-- Generator: Adobe Illustrator 19.0.0, SVG Export Plug-In . SVG Version: 6.00 Build 0)  -->
<svg version="1.1" id="Capa_1" xmlns="http://www.w3.org/2000/svg" xmlns:xlink="http://www.w3.org/1999/xlink" x="0px" y="0px"
	 viewBox="0 0 512 512" style="enable-background:new 0 0 512 512;" xml:space="preserve">
<path style="fill:#FFFFFF;" d="M297.975,10H30c-11.046,0-20,8.954-20,20v452c0,11.046,8.954,20,20,20h343.975
	c11.046,0,20-8.954,20-20V106.003L297.975,10z"/>
<path style="fill:#FEDA9B;" d="M317.975,106.003h76l-96-96.001v76.001C297.975,97.049,306.929,106.003,317.975,106.003z"/>
<rect x="65.987" y="256" style="fill:#72D8FF;" width="111.77" height="192"/>
<g>
	<rect x="226.22" y="352" style="fill:#FF5D5D;" width="100.77" height="96"/>
	<rect x="65.987" y="64" style="fill:#FF5D5D;" width="191.99" height="96.06"/>
</g>
<path style="fill:#FFC66C;" d="M429.743,386L429.743,386c-29.689,0-53.756-24.067-53.756-53.756v-62.243h107.511v62.243
	C483.499,361.933,459.432,386,429.743,386z"/>
<g>
	<rect x="375.99" y="270" style="fill:#72D8FF;" width="107.51" height="54.44"/>
	<path style="fill:#72D8FF;" d="M429.743,386L429.743,386c29.689,0,53.756,24.067,53.756,53.756v62.243H375.988v-62.243
		C375.988,410.067,400.055,386,429.743,386z"/>
</g>
<rect x="375.99" y="447.56" style="fill:#FFC66C;" width="107.51" height="54.44"/>
<path d="M326.987,198.063H114c-5.523,0-10,4.478-10,10s4.477,10,10,10h212.987c5.523,0,10-4.478,10-10
	S332.51,198.063,326.987,198.063z"/>
<path d="M65.99,198.06c-2.64,0-5.21,1.07-7.07,2.931c-1.86,1.859-2.93,4.439-2.93,7.069s1.07,5.21,2.93,7.07s4.43,2.93,7.07,2.93
	c2.63,0,5.21-1.069,7.07-2.93c1.86-1.86,2.93-4.44,2.93-7.07s-1.07-5.2-2.93-7.069C71.2,199.13,68.62,198.06,65.99,198.06z"/>
<path d="M326.987,294H226.219c-5.523,0-10,4.478-10,10s4.477,10,10,10h100.768c5.523,0,10-4.478,10-10S332.51,294,326.987,294z"/>
<path d="M326.987,246H226.219c-5.523,0-10,4.478-10,10s4.477,10,10,10h100.768c5.523,0,10-4.478,10-10S332.51,246,326.987,246z"/>
<path d="M55.987,256v192c0,5.522,4.477,10,10,10h111.768c5.523,0,10-4.478,10-10V256c0-5.522-4.477-10-10-10H65.987
	C60.464,246,55.987,250.478,55.987,256z M75.987,266h91.768v172H75.987V266z"/>
<path d="M326.987,342H226.219c-5.523,0-10,4.478-10,10v96c0,5.522,4.477,10,10,10h100.768c5.523,0,10-4.478,10-10v-96
	C336.987,346.478,332.51,342,326.987,342z M316.987,438h-80.768v-76h80.768V438z"/>
<path d="M307,492c-2.63,0-5.21,1.069-7.07,2.93c-1.86,1.86-2.93,4.44-2.93,7.07s1.07,5.21,2.93,7.069
	c1.86,1.86,4.44,2.931,7.07,2.931s5.21-1.07,7.07-2.931c1.86-1.859,2.93-4.439,2.93-7.069s-1.07-5.21-2.93-7.07S309.63,492,307,492z
	"/>
<path d="M267.975,160.063V64c0-5.522-4.477-10-10-10H65.987c-5.523,0-10,4.478-10,10v96.063c0,5.522,4.477,10,10,10h191.987
	C263.498,170.063,267.975,165.585,267.975,160.063z M247.975,150.063H75.987V74h171.987v76.063H247.975z"/>
<path d="M502,492h-8.501v-52.244c0-22.57-11.799-42.423-29.542-53.756c17.743-11.333,29.542-31.186,29.542-53.756V280H502
	c5.523,0,10-4.478,10-10s-4.477-10-10-10h-98.025V106.003c0-2.652-1.054-5.195-2.929-7.071l-96-96.003
	C303.17,1.054,300.627,0,297.975,0H30C13.458,0,0,13.458,0,30v452c0,16.542,13.458,30,30,30h226c5.523,0,10-4.478,10-10
	s-4.477-10-10-10H30c-5.514,0-10-4.486-10-10V30c0-5.514,4.486-10,10-10h257.975v66.003c0,16.542,13.458,30,30,30h66V260h-26.488
	c-5.523,0-10,4.478-10,10s4.477,10,10,10h8.501v52.244c0,22.57,11.799,42.423,29.542,53.756
	c-17.743,11.333-29.542,31.186-29.542,53.756V492h-8.501c-5.523,0-10,4.478-10,10s4.477,10,10,10H502c5.523,0,10-4.478,10-10
	S507.523,492,502,492z M317.975,96.003c-5.514,0-10-4.486-10-10v-51.86l61.859,61.86H317.975z M385.987,280.001h87.512v34.441
	h-87.512V280.001z M386.043,334.442h87.4c-1.149,23.11-20.31,41.558-43.7,41.558S387.192,357.552,386.043,334.442z M429.743,396
	c23.39,0,42.551,18.448,43.7,41.558h-87.4C387.193,414.448,406.353,396,429.743,396z M473.499,491.999h-87.511v-34.441h87.511
	L473.499,491.999L473.499,491.999z"/>
<g>
</g>
<g>
</g>
<g>
</g>
<g>
</g>
<g>
</g>
<g>
</g>
<g>
</g>
<g>
</g>
<g>
</g>
<g>
</g>
<g>
</g>
<g>
</g>
<g>
</g>
<g>
</g>
<g>
</g>
</svg>
