<?xml version="1.0" encoding="iso-8859-1"?>
<!-- Generator: Adobe Illustrator 19.0.0, SVG Export Plug-In . SVG Version: 6.00 Build 0)  -->
<svg version="1.1" id="Capa_1" xmlns="http://www.w3.org/2000/svg" xmlns:xlink="http://www.w3.org/1999/xlink" x="0px" y="0px"
	 viewBox="0 0 512 512" style="enable-background:new 0 0 512 512;" xml:space="preserve">
<rect x="10" y="64" style="fill:#898998;" width="492" height="384"/>
<g>
	<path style="fill:#D8D8E4;" d="M502,376h-36c-11.046,0-20-8.954-20-20V156c0-11.046,8.954-20,20-20h36"/>
	<path style="fill:#D8D8E4;" d="M10,136h36c11.046,0,20,8.954,20,20v200c0,11.046-8.954,20-20,20H10"/>
	<path style="fill:#D8D8E4;" d="M378,376.775H134c-11.046,0-20-8.954-20-20v-201.55c0-11.046,8.954-20,20-20h244
		c11.046,0,20,8.954,20,20v201.55C398,367.821,389.046,376.775,378,376.775z"/>
</g>
<path style="fill:#B3B6C3;" d="M398,356.775v-62.187l-91.65-91.65L132.584,376.703c0.47,0.033,0.938,0.072,1.416,0.072h244
	C389.046,376.775,398,367.821,398,356.775z"/>
<path style="fill:#EDF2FA;" d="M204.801,259.199L114,350v6.775c0,11.046,8.954,20,20,20h188.377L204.801,259.199z"/>
<circle style="fill:#898998;" cx="212.39" cy="197.33" r="22"/>
<path d="M502,126h-36c-16.542,0-30,13.458-30,30v61.025c0,5.523,4.477,10,10,10s10-4.477,10-10V156c0-5.514,4.486-10,10-10h36
	c5.523,0,10-4.477,10-10S507.523,126,502,126z"/>
<path d="M446,269.81c2.63,0,5.21-1.069,7.07-2.93s2.93-4.44,2.93-7.07s-1.07-5.21-2.93-7.07s-4.44-2.93-7.07-2.93
	s-5.21,1.07-7.07,2.93c-1.86,1.86-2.93,4.44-2.93,7.07s1.07,5.21,2.93,7.07C440.79,268.74,443.37,269.81,446,269.81z"/>
<path d="M502,366h-36c-5.514,0-10-4.486-10-10v-51.89c0-5.522-4.477-10-10-10s-10,4.478-10,10V356c0,16.542,13.458,30,30,30h36
	c5.523,0,10-4.478,10-10S507.523,366,502,366z"/>
<path d="M502,438H10c-5.523,0-10,4.478-10,10s4.477,10,10,10h492c5.523,0,10-4.478,10-10S507.523,438,502,438z"/>
<path d="M46,366H10c-5.523,0-10,4.478-10,10s4.477,10,10,10h36c16.542,0,30-13.458,30-30V156c0-16.542-13.458-30-30-30H10
	c-5.523,0-10,4.477-10,10s4.477,10,10,10h36c5.514,0,10,4.486,10,10v200C56,361.514,51.514,366,46,366z"/>
<path d="M10,74h492c5.523,0,10-4.477,10-10s-4.477-10-10-10H10C4.477,54,0,58.477,0,64S4.477,74,10,74z"/>
<path d="M408,356.775v-201.55c0-16.542-13.458-30-30-30H134c-16.542,0-30,13.458-30,30v201.55c0,16.542,13.458,30,30,30h244
	C394.542,386.775,408,373.317,408,356.775z M124,356.775v-2.633l80.801-80.8l29.929,29.929c3.905,3.904,10.237,3.904,14.143,0
	c3.905-3.905,3.905-10.237,0-14.143l-37-37c-3.906-3.904-10.237-3.904-14.143,0L124,325.857V155.225c0-5.514,4.486-10,10-10h244
	c5.514,0,10,4.486,10,10v115.22l-74.579-74.579c-3.905-3.904-10.237-3.904-14.142,0l-49.153,49.152
	c-3.905,3.905-3.905,10.237,0,14.142c3.906,3.906,10.238,3.907,14.142,0l42.082-42.081l79.642,79.642
	c0.614,0.614,1.293,1.12,2.009,1.541v58.513c0,5.514-4.486,10-10,10H134C128.486,366.775,124,362.289,124,356.775z"/>
<path d="M49,90c-5.523,0-10,4.477-10,10s4.477,10,10,10h15c5.523,0,10-4.477,10-10s-4.477-10-10-10H49z"/>
<path d="M163.75,110c5.523,0,10-4.477,10-10s-4.477-10-10-10h-15c-5.523,0-10,4.477-10,10s4.477,10,10,10H163.75z"/>
<path d="M263.5,110c5.523,0,10-4.477,10-10s-4.477-10-10-10h-15c-5.523,0-10,4.477-10,10s4.477,10,10,10H263.5z"/>
<path d="M363.25,110c5.523,0,10-4.477,10-10s-4.477-10-10-10h-15c-5.523,0-10,4.477-10,10s4.477,10,10,10H363.25z"/>
<path d="M448,90c-5.523,0-10,4.477-10,10s4.477,10,10,10h15c5.523,0,10-4.477,10-10s-4.477-10-10-10H448z"/>
<path d="M49,402c-5.523,0-10,4.478-10,10s4.477,10,10,10h15c5.523,0,10-4.478,10-10s-4.477-10-10-10H49z"/>
<path d="M148.75,402c-5.523,0-10,4.478-10,10s4.477,10,10,10h15c5.523,0,10-4.478,10-10s-4.477-10-10-10H148.75z"/>
<path d="M248.5,402c-5.523,0-10,4.478-10,10s4.477,10,10,10h15c5.523,0,10-4.478,10-10s-4.477-10-10-10H248.5z"/>
<path d="M348.25,402c-5.523,0-10,4.478-10,10s4.477,10,10,10h15c5.523,0,10-4.478,10-10s-4.477-10-10-10H348.25z"/>
<path d="M463,422c5.523,0,10-4.478,10-10s-4.477-10-10-10h-15c-5.523,0-10,4.478-10,10s4.477,10,10,10H463z"/>
<path d="M265.8,310.2c-2.63,0-5.21,1.069-7.07,2.93c-1.86,1.86-2.93,4.439-2.93,7.07c0,2.63,1.07,5.21,2.93,7.069
	c1.86,1.86,4.44,2.931,7.07,2.931s5.21-1.07,7.07-2.931c1.86-1.859,2.93-4.439,2.93-7.069c0-2.631-1.07-5.21-2.93-7.07
	S268.43,310.2,265.8,310.2z"/>
<path d="M212.39,165.331c-17.645,0-32,14.355-32,32s14.355,32,32,32s32-14.355,32-32S230.035,165.331,212.39,165.331z
	 M212.39,209.331c-6.617,0-12-5.383-12-12s5.383-12,12-12s12,5.383,12,12S219.007,209.331,212.39,209.331z"/>
<g>
</g>
<g>
</g>
<g>
</g>
<g>
</g>
<g>
</g>
<g>
</g>
<g>
</g>
<g>
</g>
<g>
</g>
<g>
</g>
<g>
</g>
<g>
</g>
<g>
</g>
<g>
</g>
<g>
</g>
</svg>
