<?xml version="1.0" encoding="iso-8859-1"?>
<!-- Generator: Adobe Illustrator 19.0.0, SVG Export Plug-In . SVG Version: 6.00 Build 0)  -->
<svg version="1.1" id="Capa_1" xmlns="http://www.w3.org/2000/svg" xmlns:xlink="http://www.w3.org/1999/xlink" x="0px" y="0px"
	 viewBox="0 0 511.999 511.999" style="enable-background:new 0 0 511.999 511.999;" xml:space="preserve">
<path style="fill:#FFFFFF;" d="M340,10H100c-8.837,0-16,7.163-16,16v392c0,8.837,7.163,16,16,16h312c8.837,0,16-7.163,16-16V98
	L340,10z"/>
<path style="fill:#FEDA9B;" d="M428,98h-72c-8.837,0-16-7.163-16-16V10L428,98z"/>
<rect x="131.921" y="63.996" style="fill:#FF5D5D;" width="146.08" height="96"/>
<path style="fill:#FFC89F;" d="M367.401,289.828L367.401,289.828c-14.912,0-27,12.088-27,27v-21.475c0-14.912-12.088-27-27-27l0,0
	c-14.912,0-27,12.088-27,27c0-14.912-12.088-27-27-27l0,0c-14.912,0-27,12.088-27,27V186.996c0-14.912-12.088-27-27-27l0,0
	c-14.912,0-27,12.088-27,27v90.924v132.203l-32.578-53.455c-8.009-13.141-25.042-17.489-38.37-9.794l0,0
	c-12.854,7.421-17.804,23.503-11.35,36.868L154,501.997h240.401V316.828C394.401,301.916,382.313,289.828,367.401,289.828z"/>
<path d="M435.072,90.929l-88-88C345.196,1.054,342.653,0,340,0H100C85.663,0,74,11.664,74,26v231.105c0,5.523,4.478,10,10,10
	s10-4.477,10-10V26c0-3.309,2.691-6,6-6h230v62c0,14.336,11.663,26,26,26h62v109.279c0,5.523,4.478,10,10,10s10-4.477,10-10V98
	C438,95.348,436.947,92.804,435.072,90.929z M350,82V34.143L403.858,88H356C352.692,88,350,85.309,350,82z"/>
<path d="M428,245.138c-2.63,0-5.21,1.07-7.07,2.93s-2.93,4.44-2.93,7.07s1.069,5.21,2.93,7.07c1.86,1.86,4.44,2.93,7.07,2.93
	s5.21-1.07,7.069-2.93c1.86-1.86,2.931-4.44,2.931-7.07s-1.07-5.2-2.931-7.07C433.21,246.208,430.63,245.138,428,245.138z"/>
<path d="M380.645,169.996c5.522,0,10-4.477,10-10s-4.478-10-10-10h-57.069c-5.522,0-10,4.477-10,10s4.478,10,10,10H380.645z"/>
<path d="M264.333,149.996c-5.522,0-10,4.477-10,10s4.478,10,10,10H278c5.522,0,10-4.477,10-10v-96c0-5.523-4.478-10-10-10H131.917
	c-5.522,0-10,4.477-10,10v96c0,5.523,4.478,10,10,10h17.75c5.522,0,10-4.477,10-10s-4.478-10-10-10h-7.75v-76H268v76H264.333z"/>
<path d="M367.401,279.828c-6.751,0-13.08,1.826-18.534,4.998c-4.546-15.288-18.721-26.473-35.466-26.473
	c-10.643,0-20.244,4.523-27,11.74c-6.756-7.217-16.357-11.74-27-11.74c-6.127,0-11.906,1.506-17,4.153v-75.51
	c0-20.402-16.599-37-37-37s-37,16.598-37,37v59.105c0,5.523,4.478,10,10,10s10-4.477,10-10v-59.105c0-9.374,7.626-17,17-17
	s17,7.626,17,17v173.787c0,5.523,4.478,10,10,10s10-4.477,10-10v-65.43c0-9.374,7.626-17,17-17s17,7.626,17,17v65.43
	c0,5.523,4.478,10,10,10s10-4.477,10-10v-65.43c0-9.374,7.626-17,17-17s17,7.626,17,17v65.43c0,5.523,4.478,10,10,10s10-4.477,10-10
	v-43.955c0-9.374,7.626-17,17-17s17,7.626,17,17v185.168c0,5.523,4.478,10,10,10s10-4.477,10-10V316.828
	C404.401,296.426,387.802,279.828,367.401,279.828z"/>
<path d="M178.401,302.122c-5.522,0-10,4.477-10,10v62.377l-14.039-23.035c-10.925-17.928-33.727-23.75-51.909-13.25
	c-17.294,9.985-24.039,31.893-15.331,49.925l57.897,118.255c1.736,3.545,5.291,5.605,8.989,5.605c1.476,0,2.975-0.329,4.39-1.021
	c4.96-2.429,7.013-8.418,4.584-13.379l-57.874-118.206c-4.154-8.603-0.928-19.083,7.345-23.859
	c8.698-5.022,19.605-2.236,24.831,6.338l32.578,53.455c2.332,3.827,6.925,5.635,11.242,4.424c4.314-1.211,7.297-5.146,7.297-9.628
	v-98C188.401,306.599,183.923,302.122,178.401,302.122z"/>
<path d="M178.4,290.118c2.63,0,5.21-1.06,7.07-2.92c1.86-1.87,2.93-4.44,2.93-7.08c0-2.63-1.069-5.2-2.93-7.07
	c-1.86-1.86-4.44-2.93-7.07-2.93s-5.21,1.07-7.069,2.93c-1.86,1.86-2.931,4.44-2.931,7.07c0,2.64,1.07,5.22,2.931,7.08
	C173.19,289.058,175.77,290.118,178.4,290.118z"/>
<g>
</g>
<g>
</g>
<g>
</g>
<g>
</g>
<g>
</g>
<g>
</g>
<g>
</g>
<g>
</g>
<g>
</g>
<g>
</g>
<g>
</g>
<g>
</g>
<g>
</g>
<g>
</g>
<g>
</g>
</svg>
