<?xml version="1.0" encoding="iso-8859-1"?>
<!-- Generator: Adobe Illustrator 19.0.0, SVG Export Plug-In . SVG Version: 6.00 Build 0)  -->
<svg version="1.1" id="Capa_1" xmlns="http://www.w3.org/2000/svg" xmlns:xlink="http://www.w3.org/1999/xlink" x="0px" y="0px"
	 viewBox="0 0 512 512" style="enable-background:new 0 0 512 512;" xml:space="preserve">
<polygon style="fill:#36D28F;" points="407.667,10 280,10 185.582,344.486 267.41,344.486 296.52,228 392.157,228 420.172,344.486 
	502,344.486 "/>
<polygon style="fill:#FFFFFF;" points="335.194,70 309.704,172 377.878,172 353.347,70 "/>
<path d="M382,306h-40.829c-5.522,0-10,4.478-10,10s4.478,10,10,10h10.084C346.292,403.839,283.839,466.292,206,471.255v-10.084
	c0-5.522-4.478-10-10-10s-10,4.478-10,10v10.086c-24.775-1.587-48.813-9.044-70.06-21.821c-4.732-2.85-10.878-1.316-13.723,3.416
	c-2.847,4.732-1.317,10.877,3.416,13.723c24.356,14.648,51.955,23.092,80.366,24.705V502c0,5.522,4.478,10,10,10s10-4.478,10-10
	v-10.706c88.872-5.015,160.279-76.423,165.294-165.294H382c5.522,0,10-4.478,10-10S387.522,306,382,306z"/>
<path d="M85.902,425.933c-3.906-3.904-10.236-3.904-14.143,0c-3.905,3.905-3.905,10.237,0,14.143l0.132,0.132
	c1.953,1.952,4.512,2.929,7.071,2.929s5.118-0.977,7.071-2.929c3.905-3.905,3.905-10.237,0-14.143L85.902,425.933z"/>
<path d="M40.739,326h10.09c5.522,0,10-4.478,10-10s-4.478-10-10-10H40.745C45.708,228.161,108.161,165.708,186,160.745v10.084
	c0,5.523,4.478,10,10,10s10-4.477,10-10V130c0-5.523-4.478-10-10-10s-10,4.477-10,10v10.706
	C97.129,145.721,25.721,217.128,20.706,306H10c-5.522,0-10,4.478-10,10s4.478,10,10,10h10.718
	c1.559,27.394,9.486,54.105,23.193,77.801c1.854,3.204,5.212,4.995,8.666,4.995c1.698,0,3.421-0.434,4.997-1.346
	c4.781-2.766,6.415-8.883,3.649-13.663C49.273,373.129,42.272,349.877,40.739,326z"/>
<path d="M353.347,60h-18.152c-4.589,0-8.589,3.124-9.701,7.576l-25.49,102c-0.747,2.987-0.075,6.152,1.819,8.579
	c1.896,2.427,4.803,3.846,7.882,3.846h68.174c3.063,0,5.958-1.404,7.854-3.811s2.585-5.549,1.868-8.528l-24.531-102
	C361.988,63.168,357.969,60,353.347,60z M322.511,162l20.492-82h2.464l19.721,82H322.511z"/>
<path d="M511.625,341.772l-43.887-155.614c-1.499-5.315-7.022-8.409-12.339-6.91c-5.316,1.499-8.41,7.023-6.911,12.339
	l40.302,142.899h-60.737L401.88,225.662c-1.081-4.494-5.101-7.662-9.723-7.662H296.52c-4.589,0-8.589,3.124-9.701,7.575
	L259.6,334.485h-60.805L287.568,20h112.528l26.268,93.141c1.499,5.316,7.025,8.41,12.339,6.91c5.316-1.499,8.41-7.023,6.911-12.339
	L417.292,7.286C416.076,2.976,412.145,0,407.667,0H280c-4.477,0-8.408,2.975-9.624,7.283l-94.418,334.485
	c-0.851,3.015-0.24,6.254,1.65,8.751c1.89,2.498,4.842,3.966,7.974,3.966h81.827c4.589,0,8.589-3.123,9.701-7.575L304.329,238
	h79.948l26.173,108.824c1.081,4.493,5.101,7.661,9.723,7.661H502c3.132,0,6.083-1.467,7.974-3.965
	C511.863,348.024,512.475,344.785,511.625,341.772z"/>
<path d="M437.27,150.41c0,2.64,1.061,5.21,2.931,7.07c1.859,1.87,4.439,2.93,7.069,2.93s5.21-1.06,7.07-2.93
	c1.86-1.86,2.93-4.43,2.93-7.07c0-2.63-1.069-5.2-2.93-7.07c-1.86-1.86-4.44-2.93-7.07-2.93s-5.21,1.07-7.069,2.93
	C438.33,145.21,437.27,147.78,437.27,150.41z"/>
<g>
</g>
<g>
</g>
<g>
</g>
<g>
</g>
<g>
</g>
<g>
</g>
<g>
</g>
<g>
</g>
<g>
</g>
<g>
</g>
<g>
</g>
<g>
</g>
<g>
</g>
<g>
</g>
<g>
</g>
</svg>
