<?xml version="1.0" encoding="iso-8859-1"?>
<!-- Generator: Adobe Illustrator 19.0.0, SVG Export Plug-In . SVG Version: 6.00 Build 0)  -->
<svg version="1.1" id="Capa_1" xmlns="http://www.w3.org/2000/svg" xmlns:xlink="http://www.w3.org/1999/xlink" x="0px" y="0px"
	 viewBox="0 0 512 512" style="enable-background:new 0 0 512 512;" xml:space="preserve">
<path style="fill:#72D8FF;" d="M460,448H52c-23.196,0-42-18.804-42-42v-22h492v22C502,429.196,483.196,448,460,448z"/>
<path style="fill:#FFFFFF;" d="M450,64H62c-17.673,0-32,14.327-32,32v288h452V96C482,78.327,467.673,64,450,64z"/>
<rect x="78" y="128" style="fill:#FFB954;" width="150" height="192"/>
<rect x="284" y="128" style="fill:#36D28F;" width="150" height="192"/>
<path d="M502,374h-10v-36c0-5.523-4.478-10-10-10s-10,4.477-10,10v36H40V96c0-12.131,9.869-22,22-22h388c12.131,0,22,9.869,22,22
	v146c0,5.523,4.478,10,10,10s10-4.477,10-10V96c0-23.159-18.841-42-42-42H62c-23.159,0-42,18.841-42,42v278H10
	c-5.522,0-10,4.477-10,10v22c0,28.673,23.327,52,52,52h408c28.673,0,52-23.327,52-52v-22C512,378.477,507.522,374,502,374z M492,406
	c0,17.645-14.355,32-32,32H52c-17.645,0-32-14.355-32-32v-12h472V406z"/>
<path d="M482,285c-2.63,0-5.21,1.07-7.07,2.93c-1.86,1.86-2.93,4.44-2.93,7.07s1.069,5.21,2.93,7.07S479.37,305,482,305
	s5.21-1.07,7.069-2.93c1.86-1.86,2.931-4.44,2.931-7.07s-1.07-5.21-2.931-7.07C487.21,286.07,484.63,285,482,285z"/>
<path d="M289.667,406h-67.334c-5.522,0-10,4.477-10,10s4.478,10,10,10h67.334c5.522,0,10-4.477,10-10S295.189,406,289.667,406z"/>
<path d="M284,118c-5.522,0-10,4.477-10,10v192c0,5.523,4.478,10,10,10h150c5.522,0,10-4.477,10-10V128c0-5.523-4.478-10-10-10H284z
	 M424,290.957L371.689,224L424,157.043V290.957z M294,157.043L346.311,224L294,290.957V157.043z M304.502,138h108.997L359,207.758
	L304.502,138z M359,240.242L413.498,310H304.502L359,240.242z"/>
<path d="M116.333,186h73.334c5.522,0,10-4.477,10-10s-4.478-10-10-10h-73.334c-5.522,0-10,4.477-10,10S110.811,186,116.333,186z"/>
<path d="M116.333,234h73.334c5.522,0,10-4.477,10-10s-4.478-10-10-10h-73.334c-5.522,0-10,4.477-10,10S110.811,234,116.333,234z"/>
<path d="M199.667,272c0-5.523-4.478-10-10-10h-73.334c-5.522,0-10,4.477-10,10s4.478,10,10,10h73.334
	C195.189,282,199.667,277.523,199.667,272z"/>
<path d="M149.93,312.93c-1.86,1.86-2.93,4.44-2.93,7.07s1.069,5.21,2.93,7.07S154.37,330,157,330s5.21-1.07,7.069-2.93
	c1.86-1.86,2.931-4.44,2.931-7.07s-1.07-5.21-2.931-7.07C162.21,311.07,159.63,310,157,310S151.79,311.07,149.93,312.93z"/>
<path d="M201,330h27c5.522,0,10-4.477,10-10V128c0-5.523-4.478-10-10-10H78c-5.522,0-10,4.477-10,10v192c0,5.523,4.478,10,10,10h31
	c5.522,0,10-4.477,10-10s-4.478-10-10-10H88V138h130v172h-17c-5.522,0-10,4.477-10,10S195.478,330,201,330z"/>
<g>
</g>
<g>
</g>
<g>
</g>
<g>
</g>
<g>
</g>
<g>
</g>
<g>
</g>
<g>
</g>
<g>
</g>
<g>
</g>
<g>
</g>
<g>
</g>
<g>
</g>
<g>
</g>
<g>
</g>
</svg>
