<?xml version="1.0" encoding="iso-8859-1"?>
<!-- Generator: Adobe Illustrator 19.0.0, SVG Export Plug-In . SVG Version: 6.00 Build 0)  -->
<svg version="1.1" id="Capa_1" xmlns="http://www.w3.org/2000/svg" xmlns:xlink="http://www.w3.org/1999/xlink" x="0px" y="0px"
	 viewBox="0 0 512 512" style="enable-background:new 0 0 512 512;" xml:space="preserve">
<rect x="421.881" y="153.337" style="fill:#4DBAF6;" width="79.977" height="348.661"/>
<rect x="421.881" y="443.854" style="fill:#FFB954;" width="79.977" height="58.144"/>
<polygon style="fill:#D8D8E4;" points="461.864,63.982 501.853,153.338 421.876,153.338 "/>
<path style="fill:#72D8FF;" d="M203.964,502.002V27.761c0-9.81,7.953-17.764,17.764-17.764h90.43c9.81,0,17.764,7.953,17.764,17.764
	v474.242H203.964V502.002z"/>
<path style="fill:#4DBAF6;" d="M91.917,502.002c10.82-37.582,16.358-76.585,16.358-115.883v-76.294h-71.98v76.294
	c0,39.298,5.538,78.301,16.358,115.883L91.917,502.002L91.917,502.002z"/>
<rect x="36.3" y="229.375" style="fill:#FFFFFF;" width="71.98" height="80.537"/>
<path style="fill:#FFB954;" d="M134.678,167.114c0-54.46-62.265-52.622-62.265-103.132c-46.953,37.652-62.265,68.745-62.265,103.132
	s27.877,62.265,62.265,62.265S134.678,201.502,134.678,167.114z"/>
<path d="M421.876,292.919c2.629,0,5.208-1.07,7.067-2.929c1.859-1.869,2.93-4.439,2.93-7.068s-1.07-5.209-2.93-7.068
	c-1.858-1.868-4.438-2.929-7.067-2.929c-2.629,0-5.209,1.061-7.068,2.929c-1.859,1.859-2.929,4.439-2.929,7.068
	s1.069,5.209,2.929,7.068C416.667,291.849,419.246,292.919,421.876,292.919z"/>
<path d="M510.978,149.254L470.99,59.898c-1.61-3.598-5.185-5.913-9.125-5.913c-3.941,0-7.516,2.315-9.125,5.913l-39.989,89.356
	c-0.575,1.285-0.872,2.676-0.872,4.084V237.6c0,5.52,4.477,9.997,9.997,9.997c5.52,0,9.997-4.477,9.997-9.997v-74.265h59.983
	v270.526h-59.983V319.909c0-5.52-4.477-9.997-9.997-9.997c-5.52,0-9.997,4.477-9.997,9.997v182.093c0,5.52,4.477,9.997,9.997,9.997
	c5.52,0,9.997-4.477,9.997-9.997v-48.147h59.983v48.147c0,5.52,4.477,9.997,9.997,9.997s9.997-4.477,9.997-9.997V153.338
	C511.85,151.93,511.553,150.538,510.978,149.254z M461.864,88.455l24.562,54.884h-49.124L461.864,88.455z"/>
<path d="M312.159,0h-90.43c-15.308,0-27.761,12.453-27.761,27.761v333.137c0,5.52,4.477,9.997,9.997,9.997
	c5.52,0,9.997-4.477,9.997-9.997V27.761c0-4.282,3.484-7.767,7.767-7.767h90.43c4.282,0,7.767,3.484,7.767,7.767v21.551h-34.99
	c-5.52,0-9.997,4.477-9.997,9.997s4.477,9.997,9.997,9.997h34.99v29.192h-10.997c-5.52,0-9.997,4.477-9.997,9.997
	s4.477,9.997,9.997,9.997h10.997v29.211h-34.99c-5.52,0-9.997,4.477-9.997,9.997c0,5.52,4.477,9.997,9.997,9.997h34.99v29.192
	h-10.997c-5.52,0-9.997,4.477-9.997,9.997c0,5.52,4.477,9.997,9.997,9.997h10.997v29.192h-34.99c-5.52,0-9.997,4.477-9.997,9.997
	c0,5.52,4.477,9.997,9.997,9.997h34.99v29.192h-10.997c-5.52,0-9.997,4.477-9.997,9.997c0,5.52,4.477,9.997,9.997,9.997h10.997
	v29.191h-34.976c-5.52,0-9.997,4.477-9.997,9.997s4.477,9.997,9.997,9.997h34.975v29.192h-10.997c-5.52,0-9.997,4.477-9.997,9.997
	c0,5.52,4.477,9.997,9.997,9.997h10.997v29.192h-34.99c-5.52,0-9.997,4.477-9.997,9.997s4.477,9.997,9.997,9.997h34.99v39.189
	c0,5.52,4.477,9.997,9.997,9.997s9.997-4.477,9.997-9.997V27.761C339.919,12.453,327.465,0,312.159,0z"/>
<path d="M203.967,397.889c-2.63,0-5.21,1.07-7.068,2.929c-1.869,1.859-2.929,4.439-2.929,7.068s1.06,5.209,2.929,7.068
	c1.858,1.858,4.438,2.929,7.068,2.929c2.629,0,5.209-1.07,7.067-2.929c1.859-1.869,2.93-4.439,2.93-7.068s-1.07-5.209-2.93-7.068
	C209.176,398.959,206.596,397.889,203.967,397.889z"/>
<path d="M203.964,437.876c-5.52,0-9.997,4.477-9.997,9.997v54.13c0,5.52,4.477,9.997,9.997,9.997c5.52,0,9.997-4.477,9.997-9.997
	v-54.13C213.961,442.353,209.485,437.876,203.964,437.876z"/>
<path d="M108.972,105.595C94.132,93.533,82.41,84.004,82.41,63.982c0-3.845-2.205-7.35-5.672-9.013
	c-3.468-1.664-7.581-1.19-10.579,1.214C19.89,93.287,0.15,126.461,0.15,167.114c0,23.061,10.872,43.619,27.745,56.859
	c-1.006,1.56-1.597,3.413-1.597,5.406v80.446v0.087v76.207c0,40.077,5.62,79.946,16.706,118.501c1.526,5.307,7.06,8.371,12.37,6.845
	c5.306-1.525,8.371-7.063,6.845-12.371c-10.568-36.759-15.927-74.769-15.927-112.976v-66.21h51.985v66.21
	c0,38.207-5.358,76.217-15.927,112.976c-1.526,5.307,1.539,10.846,6.845,12.371c0.924,0.266,1.853,0.393,2.768,0.393
	c4.344,0,8.343-2.854,9.602-7.237c11.086-38.555,16.706-78.425,16.706-118.501v-76.208v-0.087v-80.446
	c0-1.937-0.561-3.74-1.515-5.271c16.971-13.235,27.917-33.854,27.917-56.994C144.675,134.614,125.707,119.197,108.972,105.595z
	 M98.278,239.376v60.452H46.293v-60.452H98.278z M72.412,219.382c-28.821,0-52.268-23.447-52.268-52.268
	c0-29.988,13.676-55.746,45.178-84.039c5.735,17.47,18.995,28.247,31.038,38.036c15.196,12.351,28.32,23.018,28.32,46.004
	C124.681,195.935,101.233,219.382,72.412,219.382z"/>
<g>
</g>
<g>
</g>
<g>
</g>
<g>
</g>
<g>
</g>
<g>
</g>
<g>
</g>
<g>
</g>
<g>
</g>
<g>
</g>
<g>
</g>
<g>
</g>
<g>
</g>
<g>
</g>
<g>
</g>
</svg>
