<?xml version="1.0" encoding="iso-8859-1"?>
<!-- Generator: Adobe Illustrator 19.0.0, SVG Export Plug-In . SVG Version: 6.00 Build 0)  -->
<svg version="1.1" id="Capa_1" xmlns="http://www.w3.org/2000/svg" xmlns:xlink="http://www.w3.org/1999/xlink" x="0px" y="0px"
	 viewBox="0 0 512 512" style="enable-background:new 0 0 512 512;" xml:space="preserve">
<path style="fill:#72D8FF;" d="M362.808,502l0.198-297.858C363.063,119.028,294.081,50,208.967,50l0,0
	c-85.074,0-154.04,68.966-154.04,154.04v11.762L10,319h49v61.11c0,26.578,21.546,48.124,48.124,48.124h51.4V502H362.808z"/>
<path style="fill:#FFB954;" d="M399.67,107.647c-43.711,0.658-79.563,36.243-80.53,79.948
	c-0.787,35.561,21.124,66.106,52.248,78.164v23.334c0,13.245,10.737,23.982,23.982,23.982h11.122
	c13.245,0,23.982-10.737,23.982-23.982v-23.334c30.582-11.848,52.269-41.545,52.269-76.31
	C482.743,143.846,445.431,106.957,399.67,107.647z"/>
<path d="M362.911,337.938h-0.018c-5.522,0-9.991,4.477-9.991,10s4.486,10,10.009,10s10-4.477,10-10S368.434,337.938,362.911,337.938
	z"/>
<path d="M362.874,385c-0.002,0-0.004,0-0.006,0c-5.521,0-9.997,4.474-10,9.995L352.815,492H168.524v-63.767c0-5.523-4.478-10-10-10
	h-51.399C86.103,418.233,69,401.131,69,380.11V319c0-5.523-4.478-10-10-10H25.26l38.836-89.207c0.548-1.259,0.831-2.618,0.831-3.992
	V204.04c0-79.424,64.616-144.04,144.04-144.04c15.033,0,29.842,2.303,44.013,6.846c5.269,1.688,10.89-1.212,12.575-6.471
	c1.687-5.259-1.211-10.889-6.47-12.575c-16.147-5.175-33.01-7.8-50.119-7.8c-90.451,0-164.039,73.588-164.039,164.04v9.679
	L0.831,315.008c-1.346,3.091-1.043,6.653,0.805,9.473C3.483,327.301,6.629,329,10,329h39v51.11
	c0,32.049,26.074,58.124,58.124,58.124h41.399V502c0,5.523,4.478,10,10,10h204.285c5.521,0,9.997-4.474,10-9.995l0.06-107
	C372.871,389.483,368.397,385.003,362.874,385z"/>
<path d="M400.945,97.637c-0.474,0-0.95,0.004-1.426,0.011c-23.742,0.358-46.184,9.852-63.189,26.734
	c-17.007,16.883-26.663,39.254-27.188,62.992c-0.802,36.211,19.944,69.512,52.245,84.951v16.769
	c0,18.738,15.244,33.982,33.982,33.982h11.122c18.737,0,33.981-15.245,33.981-33.982v-16.765
	c14.337-6.835,26.622-17.247,35.805-30.409c10.771-15.44,16.465-33.584,16.465-52.471c0-24.785-9.726-48.015-27.385-65.41
	C448.041,106.98,425.217,97.637,400.945,97.637z M406.492,303.076H395.37c-7.71,0-13.982-6.272-13.982-13.982V275.76h39.086v13.334
	C420.474,296.803,414.201,303.076,406.492,303.076z M428.508,255.759h-17.651c0.044-0.382,0.073-0.769,0.073-1.164v-40.081
	c0-5.523-4.478-10-10-10s-10,4.477-10,10v40.081c0,0.394,0.029,0.781,0.073,1.164h-17.65
	c-27.167-11.312-44.871-38.382-44.217-67.943c0.844-38.118,32.552-69.596,70.684-70.17c19.431-0.292,37.694,7.039,51.503,20.642
	c13.813,13.606,21.42,31.776,21.42,51.162C472.743,218.288,455.036,244.702,428.508,255.759z"/>
<path d="M400.921,67.027c5.522,0,10-4.477,10-10V10c0-5.523-4.478-10-10-10s-10,4.477-10,10v47.027
	C390.921,62.55,395.399,67.027,400.921,67.027z"/>
<path d="M320.375,83.403c1.953,1.951,4.511,2.926,7.068,2.926c2.561,0,5.121-0.978,7.074-2.932c3.903-3.907,3.9-10.239-0.006-14.142
	L306.93,41.696c-3.909-3.905-10.239-3.901-14.143,0.005c-3.903,3.907-3.9,10.239,0.006,14.142L320.375,83.403z"/>
<path d="M509.068,41.726c-3.909-3.905-10.239-3.901-14.143,0.005l-29.323,29.347c-3.903,3.907-3.9,10.239,0.006,14.142
	c1.953,1.951,4.511,2.926,7.068,2.926c2.561,0,5.121-0.978,7.074-2.932l29.323-29.347C512.978,51.961,512.975,45.629,509.068,41.726
	z"/>
<path d="M98.93,208.73c-1.86,1.86-2.93,4.44-2.93,7.07s1.069,5.21,2.93,7.07c1.86,1.86,4.44,2.93,7.07,2.93s5.21-1.07,7.069-2.93
	c1.86-1.86,2.931-4.44,2.931-7.07s-1.07-5.21-2.931-7.07c-1.859-1.86-4.439-2.93-7.069-2.93S100.79,206.87,98.93,208.73z"/>
<g>
</g>
<g>
</g>
<g>
</g>
<g>
</g>
<g>
</g>
<g>
</g>
<g>
</g>
<g>
</g>
<g>
</g>
<g>
</g>
<g>
</g>
<g>
</g>
<g>
</g>
<g>
</g>
<g>
</g>
</svg>
