<?xml version="1.0" encoding="iso-8859-1"?>
<!-- Generator: Adobe Illustrator 19.0.0, SVG Export Plug-In . SVG Version: 6.00 Build 0)  -->
<svg version="1.1" id="Capa_1" xmlns="http://www.w3.org/2000/svg" xmlns:xlink="http://www.w3.org/1999/xlink" x="0px" y="0px"
	 viewBox="0 0 512 512" style="enable-background:new 0 0 512 512;" xml:space="preserve">
<path style="fill:#FFB954;" d="M37,458V54c0-24.301,19.699-44,44-44l0,0c24.301,0,44,19.699,44,44v404H37z"/>
<path style="fill:#FFFFFF;" d="M125,458h330c11.046,0,20-8.954,20-20V282V74c0-11.046-8.954-20-20-20H125v401.212"/>
<g>
	<path style="fill:#FEDA9B;" d="M420.451,465.09V482c0,11.046-8.954,20-20,20H81c-24.301,0-44-19.699-44-44l0,0
		c0-24.301,19.699-44,44-44l0,0c24.301,0,44,19.699,44,44"/>
</g>
<rect x="173" y="254" style="fill:#FF5D5D;" width="138.76" height="96"/>
<rect x="173" y="94" style="fill:#36D28F;" width="254" height="112"/>
<path d="M125,358c-2.63,0-5.21,1.069-7.07,2.93S115,365.37,115,368s1.069,5.21,2.93,7.069c1.86,1.86,4.44,2.931,7.07,2.931
	s5.21-1.07,7.069-2.931C133.93,373.21,135,370.63,135,368s-1.07-5.21-2.931-7.07C130.21,359.069,127.63,358,125,358z"/>
<path d="M455,44H134.057C129.352,18.988,107.358,0,81,0C51.225,0,27,24.224,27,54v404c0,29.775,24.225,54,54,54h319.451
	c16.542,0,30-13.458,30-30v-14H455c16.542,0,30-13.458,30-30V74C485,57.458,471.542,44,455,44z M410.451,482c0,5.514-4.486,10-10,10
	H81c-18.748,0-34-15.252-34-34s15.252-34,34-34s34,15.252,34,34c0,5.522,4.478,10,10,10h285.451V482z M465,438
	c0,5.514-4.486,10-10,10H134.072c-4.704-25.014-26.713-44-53.072-44c-12.877,0-24.71,4.537-34,12.088V54c0-18.748,15.252-34,34-34
	s34,15.252,34,34v272c0,5.522,4.478,10,10,10c5.522,0,10-4.478,10-10V64h320c5.514,0,10,4.486,10,10V438z"/>
<path d="M173,360h138.759c5.522,0,10-4.478,10-10v-96c0-5.523-4.478-10-10-10H173c-5.522,0-10,4.477-10,10v96
	C163,355.522,167.478,360,173,360z M183,264h118.759v76H183V264z"/>
<path d="M427,84H173c-5.522,0-10,4.477-10,10v112c0,5.523,4.478,10,10,10h254c5.522,0,10-4.477,10-10V94
	C437,88.477,432.522,84,427,84z M183,109.338L275.215,150L183,190.662V109.338z M220.464,104h159.072L300,139.071L220.464,104z
	 M300,160.929L379.536,196H220.464L300,160.929z M324.785,150L417,109.338v81.324L324.785,150z"/>
<path d="M427,388c-2.63,0-5.21,1.069-7.07,2.93S417,395.37,417,398s1.069,5.21,2.93,7.069c1.86,1.86,4.44,2.931,7.07,2.931
	s5.21-1.07,7.069-2.931C435.93,403.21,437,400.63,437,398s-1.07-5.21-2.931-7.07C432.21,389.069,429.63,388,427,388z"/>
<path d="M379,388H173c-5.522,0-10,4.478-10,10s4.478,10,10,10h206c5.522,0,10-4.478,10-10S384.522,388,379,388z"/>
<path d="M427,340h-71c-5.522,0-10,4.478-10,10s4.478,10,10,10h71c5.522,0,10-4.478,10-10S432.522,340,427,340z"/>
<path d="M427,246.127h-71c-5.522,0-10,4.477-10,10c0,5.522,4.478,10,10,10h71c5.522,0,10-4.478,10-10
	C437,250.604,432.522,246.127,427,246.127z"/>
<path d="M427,292h-71c-5.522,0-10,4.478-10,10s4.478,10,10,10h71c5.522,0,10-4.478,10-10S432.522,292,427,292z"/>
<g>
</g>
<g>
</g>
<g>
</g>
<g>
</g>
<g>
</g>
<g>
</g>
<g>
</g>
<g>
</g>
<g>
</g>
<g>
</g>
<g>
</g>
<g>
</g>
<g>
</g>
<g>
</g>
<g>
</g>
</svg>
