<?xml version="1.0" encoding="iso-8859-1"?>
<!-- Generator: Adobe Illustrator 19.0.0, SVG Export Plug-In . SVG Version: 6.00 Build 0)  -->
<svg version="1.1" id="Capa_1" xmlns="http://www.w3.org/2000/svg" xmlns:xlink="http://www.w3.org/1999/xlink" x="0px" y="0px"
	 viewBox="0 0 512 512" style="enable-background:new 0 0 512 512;" xml:space="preserve">
<path style="fill:#FFB954;" d="M376,74H72c-11.046,0-20,8.954-20,20v388c0,11.046,8.954,20,20,20h304c11.046,0,20-8.954,20-20V94
	C396,82.954,387.046,74,376,74z"/>
<path style="fill:#FFFFFF;" d="M372,438H136c-11.046,0-20-8.954-20-20V30c0-11.046,8.954-20,20-20h304c11.046,0,20,8.954,20,20v320
	L372,438z"/>
<rect x="307.75" y="231.17" style="fill:#72D8FF;" width="98" height="156"/>
<path style="fill:#FEDA9B;" d="M460,350h-60.5c-15.188,0-27.5,12.312-27.5,27.5V438L460,350z"/>
<circle style="fill:#FF5D5D;" cx="223" cy="126.58" r="52.584"/>
<path d="M194.92,430.93c-1.87,1.86-2.93,4.44-2.93,7.07s1.06,5.21,2.93,7.07c1.86,1.86,4.43,2.93,7.07,2.93
	c2.63,0,5.21-1.07,7.07-2.93s2.93-4.44,2.93-7.07s-1.07-5.21-2.93-7.07c-1.86-1.86-4.44-2.93-7.07-2.93
	C199.35,428,196.78,429.07,194.92,430.93z"/>
<path d="M440,0H136c-16.542,0-30,13.458-30,30v34H72c-16.542,0-30,13.458-30,30v388c0,16.542,13.458,30,30,30h304
	c16.542,0,30-13.458,30-30v-30.5c0-5.523-4.477-10-10-10s-10,4.477-10,10V482c0,5.514-4.486,10-10,10H72c-5.514,0-10-4.486-10-10V94
	c0-5.514,4.486-10,10-10h34v334c0,16.542,13.458,30,30,30h18.333c5.523,0,10-4.477,10-10s-4.477-10-10-10H136
	c-5.514,0-10-4.486-10-10V30c0-5.514,4.486-10,10-10h304c5.514,0,10,4.486,10,10v310h-34.25V231.168c0-5.523-4.477-10-10-10h-98
	c-5.523,0-10,4.477-10,10v156c0,5.523,4.477,10,10,10H362V428H244c-5.523,0-10,4.477-10,10s4.477,10,10,10h127.987
	c0.003,0,0.007,0,0.01,0c2.603,0,5.161-1.017,7.074-2.929l88-88c1.911-1.911,2.903-4.467,2.905-7.067
	c0.008-0.001,0.015-0.003,0.024-0.004V30C470,13.458,456.542,0,440,0z M362.008,377.168H317.75v-136h78v99.02
	C376.935,342.065,362.177,357.906,362.008,377.168z M382,413.858V377.5c0-9.649,7.851-17.5,17.5-17.5h36.358L382,413.858z"/>
<path d="M223,189.168c34.509,0,62.584-28.075,62.584-62.584S257.509,64,223,64s-62.584,28.075-62.584,62.584
	S188.492,189.168,223,189.168z M223,84c23.481,0,42.584,19.103,42.584,42.584S246.481,169.168,223,169.168
	s-42.584-19.103-42.584-42.584S199.52,84,223,84z"/>
<path d="M170.25,241.168h87c5.523,0,10-4.477,10-10s-4.477-10-10-10h-87c-5.523,0-10,4.477-10,10S164.727,241.168,170.25,241.168z"
	/>
<path d="M318.75,137.168h87c5.523,0,10-4.477,10-10s-4.477-10-10-10h-87c-5.523,0-10,4.477-10,10
	C308.75,132.691,313.227,137.168,318.75,137.168z"/>
<path d="M405.75,85.168c5.523,0,10-4.477,10-10s-4.477-10-10-10h-49.667c-5.523,0-10,4.477-10,10s4.477,10,10,10H405.75z"/>
<path d="M318.75,85.17c2.63,0,5.21-1.07,7.07-2.93s2.93-4.44,2.93-7.07s-1.07-5.21-2.93-7.07s-4.44-2.93-7.07-2.93
	s-5.21,1.07-7.07,2.93c-1.86,1.86-2.93,4.43-2.93,7.07c0,2.63,1.07,5.21,2.93,7.07C313.54,84.1,316.12,85.17,318.75,85.17z"/>
<path d="M318.75,189.168h87c5.523,0,10-4.477,10-10s-4.477-10-10-10h-87c-5.523,0-10,4.477-10,10S313.227,189.168,318.75,189.168z"
	/>
<path d="M170.25,293.168h87c5.523,0,10-4.477,10-10s-4.477-10-10-10h-87c-5.523,0-10,4.477-10,10S164.727,293.168,170.25,293.168z"
	/>
<path d="M170.25,345.168h87c5.523,0,10-4.477,10-10s-4.477-10-10-10h-87c-5.523,0-10,4.477-10,10S164.727,345.168,170.25,345.168z"
	/>
<path d="M267.25,387.168c0-5.523-4.477-10-10-10h-87c-5.523,0-10,4.477-10,10s4.477,10,10,10h87
	C262.773,397.168,267.25,392.691,267.25,387.168z"/>
<g>
</g>
<g>
</g>
<g>
</g>
<g>
</g>
<g>
</g>
<g>
</g>
<g>
</g>
<g>
</g>
<g>
</g>
<g>
</g>
<g>
</g>
<g>
</g>
<g>
</g>
<g>
</g>
<g>
</g>
</svg>
