<?xml version="1.0" encoding="iso-8859-1"?>
<!-- Generator: Adobe Illustrator 19.0.0, SVG Export Plug-In . SVG Version: 6.00 Build 0)  -->
<svg version="1.1" id="Capa_1" xmlns="http://www.w3.org/2000/svg" xmlns:xlink="http://www.w3.org/1999/xlink" x="0px" y="0px"
	 viewBox="0 0 512 512" style="enable-background:new 0 0 512 512;" xml:space="preserve">
<path style="fill:#FFFFFF;" d="M351.989,10H84.014c-11.046,0-20,8.954-20,20v452c0,11.046,8.954,20,20,20h343.975
	c11.046,0,20-8.954,20-20V106.003L351.989,10z"/>
<path style="fill:#FEDA9B;" d="M371.989,106.003h76l-96-96.001v76.001C351.989,97.049,360.943,106.003,371.989,106.003z"/>
<rect x="128" y="118" style="fill:#36D28F;" width="104" height="140"/>
<polygon style="fill:#B2F0BF;" points="232.001,207.333 205.335,180.667 128.001,258 128.001,258 232.001,258 "/>
<rect x="280" y="146.33" style="fill:#36D28F;" width="104" height="140"/>
<polygon style="fill:#B2F0BF;" points="384.001,235.667 357.335,209 280.001,286.333 280.001,286.333 384.001,286.333 "/>
<rect x="128" y="310" style="fill:#36D28F;" width="104" height="140"/>
<polygon style="fill:#B2F0BF;" points="232.001,399.333 205.335,372.667 128.001,450 128.001,450 232.001,450 "/>
<path d="M64.011,273.67c2.64,0,5.21-1.07,7.07-2.93c1.859-1.86,2.93-4.44,2.93-7.07c0-2.64-1.07-5.21-2.93-7.07
	c-1.86-1.87-4.431-2.93-7.07-2.93c-2.63,0-5.21,1.06-7.07,2.93c-1.859,1.86-2.93,4.431-2.93,7.07c0,2.63,1.07,5.21,2.93,7.07
	C58.801,272.6,61.381,273.67,64.011,273.67z"/>
<path d="M455.06,98.932l-96-96.003C357.184,1.054,354.641,0,351.989,0H84.014c-16.542,0-30,13.458-30,30v194c0,5.522,4.478,10,10,10
	s10-4.478,10-10V30c0-5.514,4.486-10,10-10h257.975v66.003c0,16.542,13.458,30,30,30h66V482c0,5.514-4.486,10-10,10H84.014
	c-5.514,0-10-4.486-10-10V310c0-5.522-4.478-10-10-10s-10,4.478-10,10v172c0,16.542,13.458,30,30,30h343.975
	c16.542,0,30-13.458,30-30V106.003C457.989,103.351,456.935,100.808,455.06,98.932z M361.989,86.003v-51.86l61.859,61.86h-51.859
	C366.475,96.003,361.989,91.517,361.989,86.003z"/>
<path d="M384.001,440h-59c-5.522,0-10,4.478-10,10s4.478,10,10,10h59c5.522,0,10-4.478,10-10S389.524,440,384.001,440z"/>
<path d="M272.931,457.069c1.86,1.86,4.44,2.931,7.07,2.931s5.21-1.07,7.069-2.931c1.86-1.859,2.931-4.439,2.931-7.069
	s-1.07-5.21-2.931-7.07c-1.859-1.86-4.439-2.93-7.069-2.93s-5.21,1.069-7.07,2.93s-2.93,4.44-2.93,7.07
	S271.071,455.21,272.931,457.069z"/>
<path d="M280.001,408h104c5.522,0,10-4.478,10-10s-4.478-10-10-10h-104c-5.522,0-10,4.478-10,10S274.479,408,280.001,408z"/>
<path d="M280.001,348.333h104c5.522,0,10-4.478,10-10s-4.478-10-10-10h-104c-5.522,0-10,4.478-10,10
	S274.479,348.333,280.001,348.333z"/>
<path d="M232.001,108h-104c-5.522,0-10,4.478-10,10v140c0,5.522,4.478,10,10,10h104c5.522,0,10-4.478,10-10V118
	C242.001,112.478,237.524,108,232.001,108z M222.001,128v55.191l-9.596-9.595c-3.906-3.904-10.236-3.904-14.143,0L138,233.858V128
	H222.001z M152.144,248l53.191-53.191l16.667,16.667V248H152.144z"/>
<path d="M384.001,136.333h-104c-5.522,0-10,4.478-10,10v140c0,5.522,4.478,10,10,10h104c5.522,0,10-4.478,10-10v-140
	C394.001,140.811,389.524,136.333,384.001,136.333z M374.001,156.333v55.191l-9.596-9.596c-3.906-3.904-10.236-3.904-14.143,0
	L290,262.19V156.333H374.001z M304.144,276.333l53.19-53.19l16.667,16.667v36.523H304.144z"/>
<path d="M118.001,450c0,5.522,4.478,10,10,10h104c5.522,0,10-4.478,10-10V310c0-5.522-4.478-10-10-10h-104c-5.522,0-10,4.478-10,10
	C118.001,310,118.001,450,118.001,450z M152.144,440l53.191-53.191l16.667,16.667V440H152.144z M222.001,320v55.191l-9.596-9.595
	c-3.906-3.904-10.236-3.904-14.143,0L138,425.858V320H222.001z"/>
<g>
</g>
<g>
</g>
<g>
</g>
<g>
</g>
<g>
</g>
<g>
</g>
<g>
</g>
<g>
</g>
<g>
</g>
<g>
</g>
<g>
</g>
<g>
</g>
<g>
</g>
<g>
</g>
<g>
</g>
</svg>
