<?xml version="1.0" encoding="iso-8859-1"?>
<!-- Generator: Adobe Illustrator 19.0.0, SVG Export Plug-In . SVG Version: 6.00 Build 0)  -->
<svg version="1.1" id="Capa_1" xmlns="http://www.w3.org/2000/svg" xmlns:xlink="http://www.w3.org/1999/xlink" x="0px" y="0px"
	 viewBox="0 0 512 512" style="enable-background:new 0 0 512 512;" xml:space="preserve">
<rect x="84" y="316" style="fill:#36D28F;" width="112" height="145.94"/>
<rect x="316" y="316" style="fill:#72D8FF;" width="112" height="65.937"/>
<rect x="84" y="130" style="fill:#FF5D5D;" width="112" height="65.969"/>
<rect x="316" y="50.03" style="fill:#36D28F;" width="112" height="105.94"/>
<path d="M448,246H296c-16.542,0-30-13.458-30-30V30c0-16.542,13.458-30,30-30h152c16.542,0,30,13.458,30,30v186
	C478,232.542,464.542,246,448,246z M296,20c-5.514,0-10,4.486-10,10v186c0,5.514,4.486,10,10,10h152c5.514,0,10-4.486,10-10V30
	c0-5.514-4.486-10-10-10H296z"/>
<path d="M448,512H296c-16.542,0-30-13.458-30-30V296c0-16.542,13.458-30,30-30h152c16.542,0,30,13.458,30,30v186
	C478,498.542,464.542,512,448,512z M296,286c-5.514,0-10,4.486-10,10v186c0,5.514,4.486,10,10,10h152c5.514,0,10-4.486,10-10V296
	c0-5.514-4.486-10-10-10H296z"/>
<path d="M216,246H64c-16.542,0-30-13.458-30-30V30C34,13.458,47.458,0,64,0h152c16.542,0,30,13.458,30,30v186
	C246,232.542,232.542,246,216,246z M64,20c-5.514,0-10,4.486-10,10v186c0,5.514,4.486,10,10,10h152c5.514,0,10-4.486,10-10V30
	c0-5.514-4.486-10-10-10H64z"/>
<path d="M44,398.97c-2.63,0-5.21-1.07-7.07-2.93S34,391.6,34,388.97s1.069-5.21,2.93-7.07s4.44-2.93,7.07-2.93s5.21,1.07,7.069,2.93
	c1.86,1.86,2.931,4.44,2.931,7.07s-1.07,5.21-2.931,7.07C49.21,397.9,46.63,398.97,44,398.97z"/>
<path d="M216,512H64c-16.542,0-30-13.458-30-30v-51.667c0-5.523,4.478-10,10-10s10,4.477,10,10V482c0,5.514,4.486,10,10,10h152
	c5.514,0,10-4.486,10-10V296c0-5.514-4.486-10-10-10H64c-5.514,0-10,4.486-10,10v45.091c0,5.523-4.478,10-10,10s-10-4.477-10-10V296
	c0-16.542,13.458-30,30-30h152c16.542,0,30,13.458,30,30v186C246,498.542,232.542,512,216,512z"/>
<path d="M196,471.938H84c-5.522,0-10-4.477-10-10V316c0-5.523,4.478-10,10-10h112c5.522,0,10,4.477,10,10v145.938
	C206,467.46,201.522,471.938,196,471.938z M94,451.938h92V326H94V451.938z"/>
<path d="M428,391.938H316c-5.522,0-10-4.477-10-10V316c0-5.523,4.478-10,10-10h112c5.522,0,10,4.477,10,10v65.938
	C438,387.46,433.522,391.938,428,391.938z M326,371.938h92V326h-92V371.938z"/>
<path d="M428,471.938H316c-5.522,0-10-4.477-10-10s4.478-10,10-10h112c5.522,0,10,4.477,10,10S433.522,471.938,428,471.938z"/>
<path d="M428,431.938H316c-5.522,0-10-4.477-10-10s4.478-10,10-10h112c5.522,0,10,4.477,10,10S433.522,431.938,428,431.938z"/>
<path d="M196,60H84c-5.522,0-10-4.477-10-10s4.478-10,10-10h112c5.522,0,10,4.477,10,10S201.522,60,196,60z"/>
<path d="M196,100H84c-5.522,0-10-4.477-10-10s4.478-10,10-10h112c5.522,0,10,4.477,10,10S201.522,100,196,100z"/>
<path d="M196,205.969H84c-5.522,0-10-4.477-10-10V130c0-5.523,4.478-10,10-10h112c5.522,0,10,4.477,10,10v65.969
	C206,201.492,201.522,205.969,196,205.969z M94,185.969h92V140H94V185.969z"/>
<path d="M428,165.969H316c-5.522,0-10-4.477-10-10V50.031c0-5.523,4.478-10,10-10h112c5.522,0,10,4.477,10,10v105.938
	C438,161.492,433.522,165.969,428,165.969z M326,145.969h92V60.031h-92V145.969z"/>
<path d="M428,205.97c-2.63,0-5.21-1.07-7.07-2.93c-1.86-1.86-2.93-4.44-2.93-7.07s1.069-5.21,2.93-7.07s4.44-2.93,7.07-2.93
	s5.21,1.07,7.069,2.93c1.86,1.86,2.931,4.44,2.931,7.07s-1.07,5.21-2.931,7.07C433.21,204.9,430.63,205.97,428,205.97z"/>
<path d="M382.333,205.969H316c-5.522,0-10-4.477-10-10s4.478-10,10-10h66.333c5.522,0,10,4.477,10,10
	S387.855,205.969,382.333,205.969z"/>
<g>
</g>
<g>
</g>
<g>
</g>
<g>
</g>
<g>
</g>
<g>
</g>
<g>
</g>
<g>
</g>
<g>
</g>
<g>
</g>
<g>
</g>
<g>
</g>
<g>
</g>
<g>
</g>
<g>
</g>
</svg>
