<?xml version="1.0" encoding="iso-8859-1"?>
<!-- Generator: Adobe Illustrator 19.0.0, SVG Export Plug-In . SVG Version: 6.00 Build 0)  -->
<svg version="1.1" id="Capa_1" xmlns="http://www.w3.org/2000/svg" xmlns:xlink="http://www.w3.org/1999/xlink" x="0px" y="0px"
	 viewBox="0 0 512 512" style="enable-background:new 0 0 512 512;" xml:space="preserve">
<rect x="10" y="403" style="fill:#FEDA9B;" width="492" height="50"/>
<path style="fill:#C9F3FF;" d="M502,403H321.82c-27.687,0-53.068,15.424-65.82,40l0,0V99l0,0c12.752-24.576,38.133-40,65.82-40H502
	V403z"/>
<path style="fill:#FFFFFF;" d="M10,403h180.18c27.687,0,53.068,15.424,65.82,40l0,0V99l0,0c-12.752-24.576-38.133-40-65.82-40H10
	V403z"/>
<rect x="57.51" y="219" style="fill:#72D8FF;" width="136" height="48"/>
<rect x="57.51" y="115" style="fill:#FF5D5D;" width="136" height="56"/>
<rect x="318.15" y="115" style="fill:#FFB954;" width="56" height="96"/>
<rect x="318.15" y="267" style="fill:#72D8FF;" width="135.97" height="88"/>
<path d="M502,209c-2.63,0-5.21,1.07-7.07,2.93c-1.86,1.86-2.93,4.44-2.93,7.07s1.07,5.21,2.93,7.07S499.37,229,502,229
	s5.21-1.07,7.07-2.93S512,221.63,512,219s-1.07-5.21-2.93-7.07C507.21,210.07,504.63,209,502,209z"/>
<path d="M502,49H321.82c-26.022,0-50.047,11.845-65.82,31.707C240.227,60.845,216.202,49,190.18,49H10C4.477,49,0,53.477,0,59v394
	c0,5.523,4.477,10,10,10h492c5.523,0,10-4.477,10-10V261.063c0-5.523-4.477-10-10-10s-10,4.477-10,10V393H321.82
	c-21,0-40.707,7.71-55.82,21.125V101.532C277.385,81.404,298.56,69,321.82,69H492v109.063c0,5.523,4.477,10,10,10s10-4.477,10-10V59
	C512,53.477,507.523,49,502,49z M20,69h170.18c23.26,0,44.435,12.404,55.82,32.532v312.592C230.886,400.71,211.18,393,190.18,393H20
	V69z M20,413h170.18c22.266,0,42.614,11.373,54.301,30H20V413z M321.82,413H492v30H267.52C279.206,424.373,299.555,413,321.82,413z"
	/>
<path d="M200.58,362.07c1.86-1.86,2.93-4.44,2.93-7.07s-1.07-5.21-2.93-7.07c-1.86-1.86-4.44-2.93-7.07-2.93
	c-2.64,0-5.21,1.07-7.08,2.93c-1.86,1.86-2.92,4.44-2.92,7.07s1.06,5.21,2.92,7.07c1.87,1.86,4.44,2.93,7.08,2.93
	C196.14,365,198.72,363.93,200.58,362.07z"/>
<path d="M154.963,345H62.945c-5.523,0-10,4.477-10,10s4.477,10,10,10h92.019c5.523,0,10-4.477,10-10S160.486,345,154.963,345z"/>
<path d="M193.506,305H62.945c-5.523,0-10,4.477-10,10s4.477,10,10,10h130.562c5.523,0,10-4.477,10-10S199.029,305,193.506,305z"/>
<path d="M193.506,277c5.523,0,10-4.477,10-10v-48c0-5.523-4.477-10-10-10h-136c-5.523,0-10,4.477-10,10v48c0,5.523,4.477,10,10,10
	H193.506z M67.506,229h116v28h-116V229z"/>
<path d="M57.506,181h136c5.523,0,10-4.477,10-10v-56c0-5.523-4.477-10-10-10h-136c-5.523,0-10,4.477-10,10v56
	C47.506,176.523,51.983,181,57.506,181z M67.506,125h116v36h-116V125z"/>
<path d="M412.18,173h37.945c5.523,0,10-4.477,10-10s-4.477-10-10-10H412.18c-5.523,0-10,4.477-10,10S406.657,173,412.18,173z"/>
<path d="M412.18,221h37.945c5.523,0,10-4.477,10-10s-4.477-10-10-10H412.18c-5.523,0-10,4.477-10,10S406.657,221,412.18,221z"/>
<path d="M412.18,125h37.945c5.523,0,10-4.477,10-10s-4.477-10-10-10H412.18c-5.523,0-10,4.477-10,10S406.657,125,412.18,125z"/>
<path d="M318.153,221h56c5.523,0,10-4.477,10-10v-96c0-5.523-4.477-10-10-10h-56c-5.523,0-10,4.477-10,10v96
	C308.153,216.523,312.63,221,318.153,221z M328.153,125h36v76h-36V125z"/>
<path d="M308.153,355c0,5.523,4.477,10,10,10h135.972c5.523,0,10-4.477,10-10v-88c0-5.523-4.477-10-10-10H318.153
	c-5.523,0-10,4.477-10,10V355z M444.125,336.617L404.544,311l39.581-25.617V336.617z M420.269,345h-68.26l34.13-22.089L420.269,345z
	 M386.139,299.089L352.009,277h68.26L386.139,299.089z M367.735,311l-39.581,25.617v-51.233L367.735,311z"/>
<g>
</g>
<g>
</g>
<g>
</g>
<g>
</g>
<g>
</g>
<g>
</g>
<g>
</g>
<g>
</g>
<g>
</g>
<g>
</g>
<g>
</g>
<g>
</g>
<g>
</g>
<g>
</g>
<g>
</g>
</svg>
