<?xml version="1.0" encoding="iso-8859-1"?>
<!-- Generator: Adobe Illustrator 19.0.0, SVG Export Plug-In . SVG Version: 6.00 Build 0)  -->
<svg version="1.1" id="Capa_1" xmlns="http://www.w3.org/2000/svg" xmlns:xlink="http://www.w3.org/1999/xlink" x="0px" y="0px"
	 viewBox="0 0 512 512" style="enable-background:new 0 0 512 512;" xml:space="preserve">
<path style="fill:#72D8FF;" d="M496.156,465.036l-31.113,31.113c-7.81,7.81-20.474,7.81-28.284,0L116.761,176.152
	c-7.81-7.81-7.81-20.474,0-28.284l31.113-31.113c7.81-7.81,20.474-7.81,28.284,0l319.997,319.997
	C503.966,444.563,503.966,457.226,496.156,465.036z"/>
<path style="fill:#FF5D5D;" d="M237.622,178.218l-61.464-61.464c-7.81-7.81-20.474-7.81-28.284,0l-31.113,31.113
	c-7.81,7.81-7.81,20.474,0,28.284l61.464,61.464L237.622,178.218z"/>
<path d="M363.262,313.858c2.63,0,5.21-1.07,7.07-2.93c1.86-1.86,2.93-4.44,2.93-7.07s-1.07-5.21-2.93-7.07
	c-1.86-1.86-4.44-2.93-7.07-2.93s-5.21,1.07-7.07,2.93c-1.86,1.86-2.93,4.43-2.93,7.07c0,2.63,1.07,5.21,2.93,7.07
	C358.052,312.788,360.631,313.858,363.262,313.858z"/>
<path d="M503.227,429.681L399.28,325.734c-3.905-3.905-10.237-3.905-14.143,0c-3.905,3.905-3.905,10.237,0,14.143l103.946,103.946
	c3.899,3.899,3.899,10.243,0,14.142l-31.112,31.113c-3.899,3.899-10.244,3.899-14.142,0L192.965,238.214l45.256-45.256
	l88.668,88.668c3.905,3.904,10.237,3.904,14.143,0c3.905-3.905,3.905-10.237,0-14.142l-95.735-95.735
	c-0.002-0.002-0.003-0.003-0.005-0.005s-0.003-0.003-0.005-0.005l-62.057-62.057c-5.666-5.666-13.2-8.787-21.213-8.787
	c-8.014,0-15.547,3.121-21.213,8.787l-31.113,31.112c-11.697,11.697-11.697,30.73,0,42.428L429.687,503.22
	c5.849,5.848,13.531,8.772,21.213,8.772c7.682,0,15.365-2.924,21.213-8.772l31.113-31.113
	C514.924,460.41,514.924,441.378,503.227,429.681z M123.832,154.939l31.113-31.113c1.889-1.889,4.399-2.929,7.071-2.929
	c2.671,0,5.182,1.04,7.071,2.929l54.991,54.991l-45.256,45.256l-54.991-54.991C119.933,165.182,119.933,158.838,123.832,154.939z"/>
<path d="M408.013,87.813c5.523,0,10-4.477,10-10V64.002c0-5.523-4.477-10-10-10c-5.523,0-10,4.477-10,10v13.811
	C398.012,83.336,402.49,87.813,408.013,87.813z"/>
<path d="M408.013,154.003c5.523,0,10-4.477,10-10v-13.811c0-5.523-4.477-10-10-10c-5.523,0-10,4.477-10,10v13.811
	C398.012,149.526,402.49,154.003,408.013,154.003z"/>
<path d="M434.202,114.002h13.811c5.523,0,10-4.477,10-10s-4.477-10-10-10h-13.811c-5.523,0-10,4.477-10,10
	S428.679,114.002,434.202,114.002z"/>
<path d="M368.012,114.002h13.811c5.523,0,10-4.477,10-10s-4.477-10-10-10h-13.811c-5.523,0-10,4.477-10,10
	S362.489,114.002,368.012,114.002z"/>
<path d="M104.008,358.006c-5.523,0-10,4.477-10,10v13.811c0,5.523,4.477,10,10,10s10-4.477,10-10v-13.811
	C114.009,362.483,109.532,358.006,104.008,358.006z"/>
<path d="M104.008,424.196c-5.523,0-10,4.477-10,10v13.811c0,5.523,4.477,10,10,10s10-4.477,10-10v-13.811
	C114.009,428.673,109.532,424.196,104.008,424.196z"/>
<path d="M144.009,398.006h-13.811c-5.523,0-10,4.477-10,10c0,5.523,4.477,10,10,10h13.811c5.523,0,10-4.477,10-10
	C154.009,402.483,149.532,398.006,144.009,398.006z"/>
<path d="M77.819,398.006H64.008c-5.523,0-10,4.477-10,10c0,5.523,4.477,10,10,10h13.811c5.523,0,10-4.477,10-10
	C87.819,402.483,83.342,398.006,77.819,398.006z"/>
<path d="M65.214,79.365c1.953,1.953,4.512,2.929,7.071,2.929c2.559,0,5.119-0.977,7.071-2.929c3.905-3.905,3.905-10.237,0-14.142
	L17.078,2.944c-3.906-3.906-10.237-3.904-14.142,0c-3.905,3.905-3.906,10.237,0,14.142L65.214,79.365z"/>
<path d="M107.568,107.585c1.87-1.87,2.93-4.44,2.93-7.08c0-2.63-1.06-5.21-2.93-7.07c-1.86-1.86-4.43-2.93-7.07-2.93
	c-2.63,0-5.21,1.07-7.07,2.93s-2.93,4.44-2.93,7.07c0,2.64,1.07,5.21,2.93,7.08c1.87,1.86,4.44,2.92,7.07,2.92
	C103.138,110.505,105.708,109.445,107.568,107.585z"/>
<path d="M58.508,120.006c0-5.523-4.477-10-10-10H10c-5.523,0-10,4.477-10,10s4.477,10,10,10h38.508
	C54.031,130.006,58.508,125.529,58.508,120.006z"/>
<path d="M120.042,61.94c0.001,0,0.002,0,0.003,0c5.523-0.001,9.999-4.48,9.997-10.003l-0.013-41.932
	c-0.001-5.522-4.479-9.997-10-9.997c-0.001,0-0.002,0-0.003,0c-5.523,0.001-9.999,4.48-9.997,10.003l0.013,41.932
	C110.044,57.465,114.521,61.94,120.042,61.94z"/>
<g>
</g>
<g>
</g>
<g>
</g>
<g>
</g>
<g>
</g>
<g>
</g>
<g>
</g>
<g>
</g>
<g>
</g>
<g>
</g>
<g>
</g>
<g>
</g>
<g>
</g>
<g>
</g>
<g>
</g>
</svg>
