<?xml version="1.0" encoding="iso-8859-1"?>
<!-- Generator: Adobe Illustrator 19.0.0, SVG Export Plug-In . SVG Version: 6.00 Build 0)  -->
<svg version="1.1" id="Capa_1" xmlns="http://www.w3.org/2000/svg" xmlns:xlink="http://www.w3.org/1999/xlink" x="0px" y="0px"
	 viewBox="0 0 512.002 512.002" style="enable-background:new 0 0 512.002 512.002;" xml:space="preserve">
<path style="fill:#72D8FF;" d="M354.172,311.444l139.101,139.101c11.647,11.647,11.555,30.799-0.205,42.559l0,0
	c-11.76,11.76-30.911,11.852-42.559,0.205L311.408,354.208L354.172,311.444z"/>
<rect x="324.402" y="323.777" transform="matrix(0.7071 -0.7071 0.7071 0.7071 -146.92 354.6514)" style="fill:#FFFFFF;" width="60.479" height="61.793"/>
<path style="fill:#72D8FF;" d="M394.028,201.906c0-106.042-85.958-192-192-192s-192,85.958-192,192s85.958,192,192,192
	C308.069,393.906,394.028,307.947,394.028,201.906z"/>
<circle style="fill:#FFFFFF;" cx="202.03" cy="201.91" r="144"/>
<path style="fill:#FF5D5D;" d="M202.028,345.906c79.531,0,144-64.469,144-144c0-26.886-7.375-52.044-20.202-73.579L201.309,252.844
	l-54.521-54.521l-71.671,71.671C99.411,315.183,147.128,345.906,202.028,345.906z"/>
<path d="M500.345,443.475L370.403,313.533c52.017-78.41,43.508-185.415-25.539-254.463c-78.761-78.76-206.911-78.76-285.672,0
	C26.387,91.876,5.744,135.315,1.065,181.386c-4.612,45.418,6.371,91.459,30.925,129.643c2.988,4.645,9.176,5.988,13.82,3.002
	c4.646-2.987,5.989-9.175,3.002-13.82C2.894,228.807,13.207,133.34,73.334,73.213c70.962-70.962,186.425-70.962,257.387,0
	s70.962,186.425,0,257.386c-60.19,60.192-152.618,70.856-224.766,25.935c-4.688-2.917-10.855-1.485-13.775,3.204
	c-2.919,4.688-1.484,10.855,3.204,13.774c31.932,19.881,69.193,30.383,106.837,30.383c7.241,0,14.502-0.389,21.736-1.175
	c32.022-3.478,62.76-14.707,89.472-32.349l130.01,130.01c7.751,7.751,17.942,11.622,28.161,11.621
	c10.314-0.001,20.659-3.946,28.54-11.827C515.828,484.485,515.92,459.05,500.345,443.475z M344.864,344.741
	c4.802-4.802,9.307-9.791,13.524-14.939l25.337,25.337l-28.621,28.621l-25.368-25.368C334.99,354.11,340.045,349.56,344.864,344.741
	z M485.998,486.033c-7.892,7.893-20.639,7.983-28.417,0.205l-88.336-88.336l28.621-28.621l88.336,88.335
	C493.98,465.395,493.888,478.142,485.998,486.033z"/>
<path d="M73.074,330.339c-3.917-3.893-10.248-3.874-14.142,0.044c-3.893,3.917-3.874,10.248,0.043,14.142l0.238,0.238
	c1.951,1.938,4.5,2.907,7.049,2.907c2.569,0,5.138-0.984,7.093-2.951c3.893-3.917,3.874-10.248-0.043-14.142L73.074,330.339z"/>
<path d="M202.028,355.905c84.916,0,154-69.084,154-154s-69.084-154-154-154s-154,69.084-154,154
	C48.028,286.821,117.112,355.905,202.028,355.905z M202.028,67.906c73.888,0,134,60.112,134,134c0,73.887-60.112,134-134,134
	c-48.369,0-90.832-25.763-114.395-64.284l59.156-59.156l47.449,47.45c1.875,1.876,4.419,2.93,7.071,2.93s5.196-1.054,7.071-2.93
	l74.532-74.532v3.024c0,5.523,4.477,10,10,10s10-4.477,10-10v-27.167c0-5.523-4.477-10-10-10h-27.167c-5.523,0-10,4.477-10,10
	s4.477,10,10,10h3.024l-67.461,67.461l-47.449-47.45c-1.875-1.875-4.419-2.929-7.071-2.929s-5.196,1.054-7.071,2.929l-61.613,61.612
	c-6.487-15.718-10.076-32.926-10.076-50.958C68.028,128.018,128.14,67.906,202.028,67.906z"/>
<g>
</g>
<g>
</g>
<g>
</g>
<g>
</g>
<g>
</g>
<g>
</g>
<g>
</g>
<g>
</g>
<g>
</g>
<g>
</g>
<g>
</g>
<g>
</g>
<g>
</g>
<g>
</g>
<g>
</g>
</svg>
