<?xml version="1.0" encoding="iso-8859-1"?>
<!-- Generator: Adobe Illustrator 19.0.0, SVG Export Plug-In . SVG Version: 6.00 Build 0)  -->
<svg version="1.1" id="Capa_1" xmlns="http://www.w3.org/2000/svg" xmlns:xlink="http://www.w3.org/1999/xlink" x="0px" y="0px"
	 viewBox="0 0 512 512" style="enable-background:new 0 0 512 512;" xml:space="preserve">
<path style="fill:#FFC66C;" d="M374.004,485.926l116.403-49.752c9.7-4.146,14.202-15.37,10.057-25.07L378.856,126.581
	c-1.139-2.664-2.824-4.919-4.852-6.727"/>
<path style="fill:#FEDA9B;" d="M354.004,121.987H30c-11.046,0-20,8.954-20,20v324.004c0,11.046,8.954,20,20,20h324.004
	c11.046,0,20-8.954,20-20V141.987C374.004,130.941,365.05,121.987,354.004,121.987z"/>
<path style="fill:#72D8FF;" d="M448.444,181.453l-47.526,47.526c-4.043,4.043-10.597,4.043-14.64,0L267.039,109.739
	c-4.043-4.043-4.043-10.597,0-14.64l47.526-47.526c4.043-4.043,10.597-4.043,14.64,0l35.916,35.916
	c6.297,6.297,16.506,6.297,22.803,0l0,0c6.607-6.607,10.933-15.27,11.688-24.583c0.642-7.921,3.991-15.662,10.051-21.723l1.02-1.02
	c13.565-13.565,35.557-13.565,49.123,0l0,0c13.565,13.565,13.565,35.557,0,49.123l-1.02,1.02c-6.06,6.06-13.802,9.409-21.723,10.051
	c-9.312,0.755-17.976,5.081-24.582,11.687l0,0c-6.297,6.297-6.297,16.506,0,22.803l35.964,35.964
	C452.487,170.855,452.487,177.41,448.444,181.453z"/>
<path d="M309.004,389.99H125.001c-5.522,0-10,4.477-10,10s4.478,10,10,10h184.002c5.522,0,10-4.477,10-10
	S314.526,389.99,309.004,389.99z"/>
<path d="M67.931,392.922c-1.86,1.86-2.93,4.44-2.93,7.07s1.069,5.21,2.93,7.07c1.861,1.86,4.44,2.93,7.07,2.93s5.21-1.07,7.069-2.93
	c1.86-1.86,2.931-4.44,2.931-7.07s-1.07-5.21-2.931-7.07c-1.859-1.86-4.439-2.93-7.069-2.93S69.791,391.062,67.931,392.922z"/>
<path d="M309.004,261.988H75.001c-5.522,0-10,4.477-10,10c0,5.523,4.478,10,10,10h234.003c5.522,0,10-4.477,10-10
	C319.004,266.466,314.526,261.988,309.004,261.988z"/>
<path d="M309.004,197.988H75.001c-5.522,0-10,4.477-10,10c0,5.523,4.478,10,10,10h234.003c5.522,0,10-4.477,10-10
	C319.004,202.465,314.526,197.988,309.004,197.988z"/>
<path d="M309.004,325.989H75.001c-5.522,0-10,4.477-10,10s4.478,10,10,10h234.003c5.522,0,10-4.477,10-10
	S314.526,325.989,309.004,325.989z"/>
<path d="M211.002,131.989c2.63,0,5.21-1.07,7.069-2.93c1.86-1.86,2.931-4.44,2.931-7.07s-1.07-5.21-2.931-7.07
	c-1.859-1.86-4.439-2.93-7.069-2.93s-5.21,1.07-7.07,2.93c-1.86,1.86-2.93,4.44-2.93,7.07s1.069,5.21,2.93,7.07
	C205.793,130.919,208.372,131.989,211.002,131.989z"/>
<path d="M509.659,407.175l-72.552-169.752c-2.171-5.078-8.047-7.437-13.125-5.265c-5.079,2.17-7.437,8.047-5.266,13.125
	l72.553,169.753c1.972,4.614-0.178,9.972-4.791,11.944l-72.11,30.82c-5.079,2.17-7.437,8.047-5.266,13.125
	c1.623,3.797,5.316,6.072,9.2,6.072c1.311,0,2.644-0.259,3.925-0.807l72.111-30.82C509.092,439.065,515.965,421.93,509.659,407.175z
	"/>
<path d="M461.477,174.132c0-5.437-2.117-10.547-5.961-14.392l-35.964-35.963c-2.388-2.388-2.388-6.274,0-8.662
	c5.127-5.127,11.633-8.25,18.318-8.792c10.554-0.855,20.492-5.454,27.988-12.949l1.019-1.018
	c8.449-8.449,13.103-19.683,13.103-31.632s-4.653-23.183-13.103-31.632c-17.443-17.441-45.822-17.443-63.266,0l-1.02,1.02
	c-7.493,7.494-12.092,17.432-12.948,27.986c-0.542,6.687-3.664,13.193-8.791,18.32c-2.387,2.388-6.273,2.388-8.66,0l-35.917-35.916
	c-7.934-7.935-20.847-7.935-28.782,0l-47.524,47.526c-3.845,3.844-5.962,8.955-5.962,14.391c0,5.436,2.117,10.547,5.961,14.392
	l104.036,104.036v245.145c0,5.514-4.486,10-10,10H30c-5.514,0-10-4.486-10-10V141.987c0-5.514,4.486-10,10-10h134.002
	c5.522,0,10-4.477,10-10c0-5.523-4.478-10-10-10H30c-16.542,0-30,13.458-30,30v324.004c0,16.542,13.458,30,30,30h324.004
	c16.542,0,30-13.458,30-30V239.617c2.917,1.563,6.191,2.393,9.594,2.393c5.437,0,10.547-2.117,14.392-5.96l47.526-47.526
	C459.359,184.68,461.477,179.569,461.477,174.132z M441.374,174.381L441.374,174.381l-47.526,47.526
	c-0.034,0.033-0.104,0.103-0.25,0.103s-0.215-0.069-0.248-0.103L274.11,102.668c-0.034-0.033-0.104-0.103-0.104-0.249
	s0.069-0.215,0.104-0.249l47.524-47.526c0.069-0.069,0.16-0.103,0.25-0.103c0.091,0,0.181,0.034,0.249,0.103l35.916,35.916
	c10.186,10.186,26.76,10.186,36.945,0c8.479-8.479,13.658-19.435,14.583-30.846c0.474-5.828,3.015-11.319,7.156-15.46l1.02-1.02
	c4.672-4.672,10.883-7.245,17.489-7.245c6.607,0,12.818,2.573,17.49,7.245c4.672,4.671,7.245,10.883,7.245,17.49
	c0,6.606-2.573,12.818-7.246,17.491l-1.018,1.018c-4.143,4.142-9.633,6.683-15.461,7.155c-11.412,0.925-22.366,6.104-30.846,14.584
	c-10.186,10.186-10.186,26.759,0,36.946l35.964,35.963c0.034,0.033,0.104,0.103,0.104,0.249
	C441.477,174.277,441.407,174.347,441.374,174.381z"/>
<g>
</g>
<g>
</g>
<g>
</g>
<g>
</g>
<g>
</g>
<g>
</g>
<g>
</g>
<g>
</g>
<g>
</g>
<g>
</g>
<g>
</g>
<g>
</g>
<g>
</g>
<g>
</g>
<g>
</g>
</svg>
