<?xml version="1.0" encoding="iso-8859-1"?>
<!-- Generator: Adobe Illustrator 19.0.0, SVG Export Plug-In . SVG Version: 6.00 Build 0)  -->
<svg version="1.1" id="Capa_1" xmlns="http://www.w3.org/2000/svg" xmlns:xlink="http://www.w3.org/1999/xlink" x="0px" y="0px"
	 viewBox="0 0 512 512" style="enable-background:new 0 0 512 512;" xml:space="preserve">
<g>
	<circle style="fill:#36D28F;" cx="101.85" cy="101.851" r="28"/>
	<circle style="fill:#36D28F;" cx="410.15" cy="101.851" r="28"/>
</g>
<g>
	<circle style="fill:#FF5D5D;" cx="256" cy="38.001" r="28"/>
	<circle style="fill:#FF5D5D;" cx="474" cy="256" r="28"/>
	<circle style="fill:#FF5D5D;" cx="38" cy="256" r="28"/>
</g>
<polygon style="fill:#36D28F;" points="370.986,369 256,161.001 141.014,369 196,369 196,502 206,502 306,502 316,502 316,369 "/>
<path d="M256,76.001c-20.953,0-38-17.047-38-38s17.047-38,38-38s38,17.047,38,38S276.953,76.001,256,76.001z M256,20.001
	c-9.925,0-18,8.075-18,18s8.075,18,18,18c9.925,0,18-8.075,18-18S265.925,20.001,256,20.001z"/>
<path d="M474,294c-20.953,0-38-17.047-38-38s17.047-38,38-38s38,17.047,38,38S494.953,294,474,294z M474,238.001
	c-9.925,0-18,8.075-18,18s8.075,18,18,18s18-8.075,18-18C492,246.076,483.925,238.001,474,238.001z"/>
<path d="M38,294c-20.953,0-38-17.047-38-38s17.047-38,38-38s38,17.047,38,38S58.953,294,38,294z M38,238.001
	c-9.925,0-18,8.075-18,18s8.075,18,18,18s18-8.075,18-18C56,246.076,47.925,238.001,38,238.001z"/>
<path d="M101.851,139.833c-9.731,0-19.462-3.704-26.87-11.112c-14.816-14.817-14.816-38.925,0-53.741
	c14.816-14.815,38.924-14.815,53.74,0l0,0c14.816,14.816,14.816,38.924,0,53.74C121.313,136.13,111.582,139.833,101.851,139.833z
	 M101.851,83.86c-4.609,0-9.219,1.754-12.728,5.264c-7.018,7.018-7.018,18.438,0,25.456c7.017,7.017,18.437,7.018,25.456,0
	c7.018-7.018,7.018-18.438,0-25.456C111.07,85.615,106.46,83.86,101.851,83.86z"/>
<path d="M410.149,139.833c-9.731,0-19.462-3.704-26.87-11.112c-14.816-14.817-14.816-38.925,0-53.741
	c14.817-14.815,38.924-14.815,53.741,0c14.816,14.816,14.816,38.924,0,53.74l0,0C429.611,136.13,419.88,139.833,410.149,139.833z
	 M410.149,83.86c-4.61,0-9.219,1.754-12.729,5.264c-7.018,7.018-7.018,18.438,0,25.456c7.018,7.017,18.437,7.018,25.456,0
	c7.018-7.018,7.018-18.438,0-25.456C419.369,85.615,414.758,83.86,410.149,83.86z"/>
<path d="M256,136.836c-5.523,0-10-4.477-10-10v-24.835c0-5.523,4.477-10,10-10c5.523,0,10,4.477,10,10v24.835
	C266,132.359,261.523,136.836,256,136.836z"/>
<path d="M407.134,266h-49.969c-5.523,0-10-4.477-10-10c0-5.523,4.477-10,10-10h49.969c5.523,0,10,4.477,10,10
	C417.134,261.523,412.657,266,407.134,266z"/>
<path d="M154.835,266h-49.969c-5.523,0-10-4.477-10-10c0-5.523,4.477-10,10-10h49.969c5.523,0,10,4.477,10,10
	C164.835,261.523,160.358,266,154.835,266z"/>
<path d="M179.325,189.326c-2.559,0-5.119-0.976-7.071-2.929l-30.825-30.825c-3.905-3.905-3.905-10.237,0-14.143
	c3.905-3.905,10.237-3.905,14.143,0l30.825,30.825c3.905,3.905,3.905,10.237,0,14.143
	C184.443,188.35,181.884,189.326,179.325,189.326z"/>
<path d="M333.3,188.701c-2.559,0-5.119-0.976-7.071-2.929c-3.905-3.905-3.905-10.237,0-14.143l28.2-28.2
	c3.905-3.905,10.237-3.905,14.143,0c3.905,3.905,3.905,10.237,0,14.143l-28.2,28.2C338.419,187.725,335.859,188.701,333.3,188.701z"
	/>
<path d="M379.738,364.162l-114.986-208c-1.761-3.185-5.113-5.162-8.752-5.162s-6.991,1.977-8.752,5.162l-114.986,208
	c-1.712,3.098-1.66,6.87,0.139,9.918c1.798,3.048,5.074,4.919,8.613,4.919H186v123c0,5.523,4.477,10,10,10h120
	c5.523,0,10-4.477,10-10V379h44.986c3.54,0,6.815-1.871,8.613-4.919C381.397,371.033,381.45,367.26,379.738,364.162z M316,359
	c-5.523,0-10,4.477-10,10v123h-24v-84c0-5.523-4.477-10-10-10s-10,4.477-10,10v84h-56V369c0-5.523-4.477-10-10-10h-38.031
	L256,181.67L354.031,359H316z"/>
<path d="M272,379c-2.63,0-5.21-1.06-7.07-2.93c-1.86-1.86-2.93-4.43-2.93-7.07c0-2.63,1.07-5.21,2.93-7.07
	c1.86-1.86,4.44-2.93,7.07-2.93s5.21,1.07,7.07,2.93c1.86,1.86,2.93,4.44,2.93,7.07c0,2.64-1.07,5.21-2.93,7.07
	C277.21,377.94,274.63,379,272,379z"/>
<g>
</g>
<g>
</g>
<g>
</g>
<g>
</g>
<g>
</g>
<g>
</g>
<g>
</g>
<g>
</g>
<g>
</g>
<g>
</g>
<g>
</g>
<g>
</g>
<g>
</g>
<g>
</g>
<g>
</g>
</svg>
