<?xml version="1.0" encoding="iso-8859-1"?>
<!-- Generator: Adobe Illustrator 19.0.0, SVG Export Plug-In . SVG Version: 6.00 Build 0)  -->
<svg version="1.1" id="Capa_1" xmlns="http://www.w3.org/2000/svg" xmlns:xlink="http://www.w3.org/1999/xlink" x="0px" y="0px"
	 viewBox="0 0 512 512" style="enable-background:new 0 0 512 512;" xml:space="preserve">
<path style="fill:#FEDA9B;" d="M453.291,481.345h-62.726l-26.662-21.016l-66.335,27.599l-55.696-68.807l14.678-36.438l-41.307-8.873
	V312l15.213-25.391c9.132-15.242,29.46-19.208,43.651-8.515l2.333,1.758l24.111-17.861h57.708l27.52-30.924L469.25,268L502,373.566
	L453.291,481.345z"/>
<path style="fill:#FFEFD5;" d="M10,129.123l44.354-44.354l45.503-15.705l-0.325-44.993h102.183l15.387,42.309l35.483-23.777
	l58.991,58.991v45.684l-34.374,7.762l-33.981,66.79c-2.672,5.252-8.703,7.861-14.361,6.211l-26.734-7.795l-20.343,41.744h-50.12
	l-89.316-50.842L10,129.123z"/>
<path d="M511.551,370.604l-32.75-105.567c-0.855-2.759-2.863-5.013-5.505-6.182l-83.473-36.934
	c-3.972-1.76-8.628-0.749-11.517,2.497l-24.536,27.571h-53.22c-2.144,0-4.23,0.688-5.953,1.965l-18.333,13.582
	c-8.333-4.872-18.232-6.593-27.796-4.727c-11.091,2.164-20.783,8.965-26.591,18.658l-15.213,25.392
	c-0.931,1.553-1.422,3.329-1.422,5.14v61.811c0,4.714,3.291,8.787,7.899,9.777l29.694,6.378l-10.239,25.42
	c-1.356,3.367-0.781,7.206,1.503,10.028l55.695,68.807c1.942,2.399,4.823,3.709,7.775,3.709c1.29,0,2.594-0.25,3.839-0.769
	l60.914-25.344l22.051,17.382c1.764,1.391,3.944,2.146,6.19,2.146h62.726c3.93,0,7.494-2.301,9.112-5.882l48.71-107.778
	C512.12,375.458,512.276,372.939,511.551,370.604z M446.836,471.345h-52.804l-23.939-18.87c-2.847-2.244-6.685-2.773-10.032-1.379
	l-59.428,24.726l-47.287-58.42l9.352-23.218l17.257,3.605c0.687,0.143,1.372,0.212,2.05,0.212c4.072,0,7.834-2.499,9.337-6.432
	l10.89-28.502c1.971-5.159-0.613-10.939-5.772-12.911c-5.16-1.971-10.94,0.613-12.911,5.772l-7.847,20.54l-50.459-10.738v-50.964
	l13.791-23.019c2.939-4.907,7.65-8.212,13.264-9.308c5.618-1.097,11.223,0.197,15.792,3.64l2.333,1.758
	c3.537,2.666,8.407,2.687,11.971,0.049l21.458-15.896h54.407c2.854,0,5.572-1.22,7.471-3.353l22.671-25.476l72.646,32.144
	l30.279,97.601L446.836,471.345z"/>
<path d="M226.06,237.64c10.263,2.996,21.229-1.748,26.074-11.276l31.852-62.604l29.793-6.727c4.56-1.03,7.798-5.081,7.798-9.755
	v-45.685c0-2.652-1.054-5.195-2.929-7.071l-58.991-58.99c-3.378-3.377-8.671-3.895-12.638-1.236l-24.88,16.672l-11.025-30.314
	c-1.437-3.951-5.192-6.582-9.397-6.582H99.533c-2.665,0-5.219,1.063-7.097,2.954c-1.877,1.892-2.922,4.453-2.903,7.118l0.273,37.812
	l-38.715,13.36c-1.434,0.495-2.736,1.31-3.809,2.382L2.929,122.051c-2.816,2.816-3.692,7.035-2.231,10.74l32.348,82.024
	c0.837,2.121,2.374,3.894,4.355,5.021l89.316,50.843c1.508,0.858,3.213,1.31,4.947,1.31h50.12c3.824,0,7.314-2.182,8.989-5.619
	l16.649-34.164L226.06,237.64z M193.138,215.865l-17.604,36.125h-30.37l18.687-41.556c2.136-4.75,0.269-10.344-4.292-12.858
	l-35.063-19.333c-4.834-2.668-10.919-0.908-13.585,3.929c-2.667,4.836-0.908,10.918,3.929,13.585l26.99,14.882l-16.337,36.331
	L50.358,204.2L21.71,131.556L59.795,93.47l43.325-14.953c4.057-1.4,6.769-5.233,6.737-9.525l-0.253-34.921h85.107l12.993,35.727
	c1.05,2.888,3.37,5.133,6.292,6.088c2.922,0.954,6.12,0.513,8.672-1.198l28.656-19.202l50.251,50.251v33.548l-26.575,6
	c-2.902,0.655-5.361,2.568-6.711,5.221l-33.981,66.791c-0.493,0.967-1.606,1.449-2.648,1.144l-26.733-7.795
	C200.246,209.285,195.271,211.487,193.138,215.865z"/>
<path d="M191.035,89.31l-18.507-7.402V61.707c0-5.522-4.478-10-10-10s-10,4.478-10,10v26.972c0,4.089,2.489,7.767,6.286,9.285
	l24.793,9.917c1.218,0.487,2.475,0.718,3.711,0.718c3.969-0.001,7.724-2.379,9.288-6.289
	C198.657,97.181,196.162,91.362,191.035,89.31z"/>
<path d="M397.874,333.145l6.236-29.395c1.146-5.402-2.305-10.711-7.707-11.857c-5.403-1.146-10.711,2.305-11.857,7.707
	l-7.362,34.703c-0.702,3.311,0.317,6.753,2.711,9.146l27.327,27.328c1.953,1.952,4.512,2.929,7.071,2.929
	c2.559,0,5.118-0.977,7.071-2.929c3.905-3.905,3.905-10.237,0-14.143L397.874,333.145z"/>
<path d="M443.67,383.079c-2.641,0-5.21,1.069-7.07,2.93c-1.859,1.86-2.93,4.44-2.93,7.07s1.07,5.21,2.93,7.069
	c1.86,1.86,4.44,2.931,7.07,2.931s5.2-1.07,7.07-2.931c1.859-1.859,2.93-4.439,2.93-7.069s-1.07-5.21-2.93-7.07
	C448.88,384.148,446.3,383.079,443.67,383.079z"/>
<g>
</g>
<g>
</g>
<g>
</g>
<g>
</g>
<g>
</g>
<g>
</g>
<g>
</g>
<g>
</g>
<g>
</g>
<g>
</g>
<g>
</g>
<g>
</g>
<g>
</g>
<g>
</g>
<g>
</g>
</svg>
