<?xml version="1.0" encoding="iso-8859-1"?>
<!-- Generator: Adobe Illustrator 19.0.0, SVG Export Plug-In . SVG Version: 6.00 Build 0)  -->
<svg version="1.1" id="Capa_1" xmlns="http://www.w3.org/2000/svg" xmlns:xlink="http://www.w3.org/1999/xlink" x="0px" y="0px"
	 viewBox="0 0 512 512" style="enable-background:new 0 0 512 512;" xml:space="preserve">
<path style="fill:#FFFFFF;" d="M374.007,117.992H30.001c-11.046,0-20,8.954-20,20v344.006c0,11.046,8.954,20,20,20h344.006
	c11.046,0,20-8.954,20-20V137.992C394.007,126.946,385.053,117.992,374.007,117.992z"/>
<rect x="58.001" y="165.992" style="fill:#ADE5FF;" width="288.005" height="240.004"/>
<polygon style="fill:#36D28F;" points="89.794,405.997 346.006,405.997 346.006,342.708 249.545,246.246 "/>
<polygon style="fill:#B2F0BF;" points="154.741,309.256 58.001,405.997 251.482,405.997 "/>
<g>
	<path style="fill:#72D8FF;" d="M374.007,117.992c4.683,0,8.98,1.622,12.388,4.318L327.323,19.993
		c-5.523-9.566-17.755-12.843-27.32-7.32L117.584,117.992H374.007z"/>
	<path style="fill:#72D8FF;" d="M499.326,317.912L393.773,135.087c0.139,0.951,0.234,1.915,0.234,2.905v263.82l97.999-56.579
		C501.572,339.709,504.849,327.477,499.326,317.912z"/>
</g>
<circle style="fill:#FFB954;" cx="145.673" cy="230.993" r="22"/>
<path d="M374.007,107.991H154.905l150.098-86.659c4.772-2.758,10.902-1.115,13.66,3.661l33.868,58.661
	c2.763,4.783,8.879,6.422,13.66,3.66c4.783-2.761,6.422-8.877,3.66-13.66l-33.868-58.661c-8.271-14.325-26.656-19.25-40.981-10.98
	L115.119,107.869c-0.067,0.039-0.126,0.084-0.192,0.124H30.001C13.458,107.993,0,121.451,0,137.993v344.006
	C0,498.542,13.458,512,30.001,512h344.006c16.542,0,30.001-13.458,30.001-30.001V137.993
	C404.007,121.45,390.549,107.991,374.007,107.991z M384.007,481.998c0,5.514-4.486,10-10,10H30.001c-5.514,0-10-4.486-10-10V137.992
	c0-5.514,4.486-10,10-10h344.006c5.514,0,10,4.486,10,10V481.998z"/>
<path d="M440.237,225.574c2.63,0,5.21-1.07,7.07-2.93s2.93-4.44,2.93-7.07s-1.069-5.21-2.93-7.07c-1.861-1.86-4.44-2.93-7.07-2.93
	c-2.63,0-5.21,1.07-7.069,2.93c-1.86,1.86-2.931,4.44-2.931,7.07s1.07,5.21,2.931,7.07
	C435.028,224.503,437.608,225.574,440.237,225.574z"/>
<path d="M507.987,312.911l-41.376-71.665c-2.762-4.783-8.876-6.421-13.66-3.66c-4.783,2.761-6.422,8.877-3.66,13.66l41.376,71.664
	c2.757,4.776,1.115,10.904-3.66,13.661l-64.312,37.13c-4.783,2.761-6.422,8.877-3.66,13.66c1.853,3.208,5.213,5.001,8.67,5.001
	c1.696,0,3.416-0.432,4.99-1.341l64.312-37.13C511.331,345.621,516.257,327.238,507.987,312.911z"/>
<path d="M256.005,175.992c2.63,0,5.21-1.07,7.069-2.93c1.86-1.86,2.931-4.44,2.931-7.07s-1.07-5.21-2.931-7.07
	c-1.859-1.86-4.439-2.93-7.069-2.93c-2.63,0-5.21,1.07-7.07,2.93c-1.86,1.86-2.93,4.44-2.93,7.07s1.069,5.21,2.93,7.07
	C250.796,174.922,253.375,175.992,256.005,175.992z"/>
<path d="M346.006,155.992h-39.001c-5.522,0-10,4.477-10,10c0,5.523,4.478,10,10,10h29.001v142.572l-79.391-79.39
	c-1.876-1.875-4.419-2.929-7.071-2.929s-5.195,1.054-7.071,2.929l-52.978,52.978c-3.905,3.905-3.905,10.237,0,14.142
	c3.906,3.905,10.236,3.905,14.143,0l45.906-45.907l86.392,86.392c0.023,0.023,0.048,0.042,0.071,0.064v49.152H82.145l72.597-72.597
	l53.93,53.93c3.906,3.905,10.236,3.905,14.143,0c3.905-3.905,3.905-10.237,0-14.143l-61.001-61.001
	c-1.876-1.875-4.419-2.929-7.071-2.929s-5.195,1.054-7.071,2.929l-79.67,79.67V175.992h134.002c5.522,0,10-4.477,10-10
	c0-5.523-4.478-10-10-10H58.001c-5.522,0-10,4.477-10,10v240.004c0,5.523,4.478,10,10,10h288.005c5.522,0,10-4.477,10-10V165.992
	C356.006,160.47,351.528,155.992,346.006,155.992z"/>
<path d="M113.669,230.993c0,17.645,14.355,32.001,32.001,32.001s32.001-14.355,32.001-32.001s-14.355-32.001-32.001-32.001
	S113.669,213.348,113.669,230.993z M157.67,230.993c0,6.617-5.383,12-12,12c-6.617,0-12-5.383-12-12c0-6.617,5.383-12,12-12
	C152.287,218.993,157.67,224.377,157.67,230.993z"/>
<g>
</g>
<g>
</g>
<g>
</g>
<g>
</g>
<g>
</g>
<g>
</g>
<g>
</g>
<g>
</g>
<g>
</g>
<g>
</g>
<g>
</g>
<g>
</g>
<g>
</g>
<g>
</g>
<g>
</g>
</svg>
