<?xml version="1.0" encoding="iso-8859-1"?>
<!-- Generator: Adobe Illustrator 19.0.0, SVG Export Plug-In . SVG Version: 6.00 Build 0)  -->
<svg version="1.1" id="Capa_1" xmlns="http://www.w3.org/2000/svg" xmlns:xlink="http://www.w3.org/1999/xlink" x="0px" y="0px"
	 viewBox="0 0 512 512" style="enable-background:new 0 0 512 512;" xml:space="preserve">
<rect x="10" y="10" style="fill:#72D8FF;" width="492" height="64"/>
<path style="fill:#FFFFFF;" d="M482,74H30v308.063c0,11.046,8.954,20,20,20h412c11.046,0,20-8.954,20-20V74z"/>
<rect x="96" y="138" style="fill:#FF5D5D;" width="131.49" height="104"/>
<path d="M502,0H10C4.477,0,0,4.477,0,10v64c0,5.523,4.477,10,10,10h10v298.063c0,16.542,13.458,30,30,30h196.127v25.246
	C229.946,441.667,218,456.462,218,474c0,20.953,17.047,38,38,38s38-17.047,38-38c0-17.446-11.822-32.174-27.873-36.619v-25.318
	h40.054c5.523,0,10-4.477,10-10s-4.477-10-10-10H50c-5.514,0-10-4.486-10-10V84h432v298.063c0,5.514-4.486,10-10,10h-61.324
	c-5.523,0-10,4.477-10,10s4.477,10,10,10H462c16.542,0,30-13.458,30-30V84h10c5.523,0,10-4.477,10-10V10C512,4.477,507.523,0,502,0z
	 M274,474c0,9.925-8.075,18-18,18s-18-8.075-18-18s8.075-18,18-18C265.925,456,274,464.075,274,474z M492,64H20V20h472V64z"/>
<path d="M350.25,392.06c-2.63,0-5.21,1.07-7.07,2.93c-1.86,1.86-2.93,4.44-2.93,7.07c0,2.64,1.07,5.21,2.93,7.07
	c1.87,1.87,4.44,2.93,7.07,2.93c2.64,0,5.21-1.06,7.07-2.93c1.87-1.86,2.94-4.44,2.94-7.07s-1.07-5.21-2.94-7.07
	C355.47,393.13,352.89,392.06,350.25,392.06z"/>
<path d="M284.508,304H416c5.523,0,10-4.477,10-10s-4.477-10-10-10H284.508c-5.523,0-10,4.477-10,10S278.985,304,284.508,304z"/>
<path d="M284.508,200H416c5.523,0,10-4.477,10-10s-4.477-10-10-10H284.508c-5.523,0-10,4.477-10,10S278.985,200,284.508,200z"/>
<path d="M416,148c5.523,0,10-4.477,10-10s-4.477-10-10-10h-93c-5.523,0-10,4.477-10,10s4.477,10,10,10H416z"/>
<path d="M284.51,148c2.63,0,5.21-1.07,7.07-2.93c1.86-1.86,2.93-4.44,2.93-7.07s-1.07-5.21-2.93-7.07s-4.44-2.93-7.07-2.93
	s-5.21,1.07-7.07,2.93c-1.86,1.86-2.93,4.44-2.93,7.07s1.07,5.21,2.93,7.07S281.88,148,284.51,148z"/>
<path d="M284.508,252H416c5.523,0,10-4.477,10-10s-4.477-10-10-10H284.508c-5.523,0-10,4.477-10,10S278.985,252,284.508,252z"/>
<path d="M284.508,356H416c5.523,0,10-4.477,10-10s-4.477-10-10-10H284.508c-5.523,0-10,4.477-10,10S278.985,356,284.508,356z"/>
<path d="M227.119,284H96c-5.523,0-10,4.477-10,10s4.477,10,10,10h131.119c5.523,0,10-4.477,10-10S232.642,284,227.119,284z"/>
<path d="M227.119,336H96c-5.523,0-10,4.477-10,10s4.477,10,10,10h131.119c5.523,0,10-4.477,10-10S232.642,336,227.119,336z"/>
<path d="M237.492,138c0-5.523-4.477-10-10-10H96c-5.523,0-10,4.477-10,10v104c0,5.523,4.477,10,10,10h131.492
	c5.523,0,10-4.477,10-10V138z M217.492,232H106v-84h111.492V232z"/>
<g>
</g>
<g>
</g>
<g>
</g>
<g>
</g>
<g>
</g>
<g>
</g>
<g>
</g>
<g>
</g>
<g>
</g>
<g>
</g>
<g>
</g>
<g>
</g>
<g>
</g>
<g>
</g>
<g>
</g>
</svg>
