<?xml version="1.0" encoding="iso-8859-1"?>
<!-- Generator: Adobe Illustrator 19.0.0, SVG Export Plug-In . SVG Version: 6.00 Build 0)  -->
<svg version="1.1" id="Capa_1" xmlns="http://www.w3.org/2000/svg" xmlns:xlink="http://www.w3.org/1999/xlink" x="0px" y="0px"
	 viewBox="0 0 512 512" style="enable-background:new 0 0 512 512;" xml:space="preserve">
<path style="fill:#FEDA9B;" d="M406,384v70c0,26.51,21.49,48,48,48l0,0c26.51,0,48-21.49,48-48v-70H406z"/>
<path style="fill:#FFFFFF;" d="M454,502H109.982c-26.51,0-48-21.49-48-48V10H406v444C406,480.51,427.49,502,454,502L454,502"/>
<path style="fill:#EDF2FA;" d="M307,229.442c0,1.645-66.495,87.938-148.5,87.938S10,230.536,10,229.442
	c0-1.644,66.495-87.938,148.5-87.938S307,228.348,307,229.442z"/>
<circle style="fill:#72D8FF;" cx="158.5" cy="229.44" r="48.26"/>
<circle style="fill:#FFFFFF;" cx="177.3" cy="210.64" r="21.677"/>
<rect x="121.99" y="368" style="fill:#ADE5FF;" width="224" height="80"/>
<path d="M502,374h-48c-5.522,0-10,4.478-10,10s4.478,10,10,10h38v60c0,20.953-17.047,38-38,38s-38-17.047-38-38V10
	c0-5.522-4.478-10-10-10H61.981c-5.522,0-10,4.478-10,10v47c0,5.522,4.478,10,10,10s10-4.478,10-10V20H396v434
	c0,14.527,5.381,27.813,14.238,38H109.981c-20.953,0-38-17.047-38-38v-76c0-5.522-4.478-10-10-10s-10,4.478-10,10v76
	c0,31.981,26.019,58,58,58H454c31.981,0,58-26.019,58-58v-70C512,378.478,507.522,374,502,374z"/>
<path d="M61.979,342c2.63,0,5.21-1.07,7.07-2.931c1.86-1.859,2.93-4.439,2.93-7.069s-1.069-5.21-2.93-7.07s-4.44-2.93-7.07-2.93
	s-5.21,1.069-7.069,2.93c-1.86,1.86-2.931,4.44-2.931,7.07s1.07,5.21,2.931,7.069C56.78,340.93,59.35,342,61.979,342z"/>
<path d="M269.798,281.797c14.668-11.887,26.016-23.537,32.952-31.218C317,234.801,317,232.317,317,229.442
	c0-3.005,0-5.176-14.26-20.916c-6.983-7.708-18.364-19.382-32.931-31.224c-25.7-20.893-65.874-45.799-111.31-45.799
	c-45.499,0-85.638,24.788-111.298,45.583c-14.668,11.888-26.016,23.538-32.952,31.219C0,224.084,0,226.567,0,229.442
	c0,3.004,0,5.175,14.26,20.916c6.983,7.708,18.365,19.381,32.931,31.223c25.7,20.893,65.874,45.799,111.31,45.799
	C203.999,327.38,244.138,302.592,269.798,281.797z M22.537,229.299c6.448-7.879,20.541-23.562,40.21-39.031
	c22.485-17.684,57.35-38.764,95.753-38.764c65.986,0,121.056,60.146,135.963,78.082c-6.448,7.879-20.541,23.562-40.21,39.03
	c-22.485,17.684-57.35,38.764-95.753,38.764C92.518,307.38,37.445,247.233,22.537,229.299z"/>
<path d="M216.763,229.442c0-15.306-5.942-29.244-15.629-39.652c-0.461-0.526-0.934-1.044-1.436-1.546
	c-0.501-0.5-1.019-0.973-1.543-1.434c-10.408-9.688-24.347-15.631-39.655-15.631c-32.126,0-58.263,26.137-58.263,58.263
	s26.137,58.262,58.263,58.262S216.763,261.568,216.763,229.442z M185.556,218.899c-4.553,4.553-11.961,4.553-16.514,0
	s-4.553-11.96,0-16.513c2.276-2.276,5.267-3.415,8.257-3.415c2.781,0,5.553,0.998,7.76,2.966c0.321,0.31,0.636,0.625,0.946,0.946
	C190.09,207.463,189.949,214.506,185.556,218.899z M120.237,229.442c0-18.833,13.681-34.52,31.623-37.674
	c-9.208,12.393-8.197,30.038,3.039,41.274c6.176,6.175,14.287,9.263,22.399,9.263c6.648,0,13.293-2.077,18.875-6.224
	c-3.153,17.943-18.841,31.624-37.674,31.624C137.402,267.704,120.237,250.54,120.237,229.442z"/>
<path d="M168.49,95.312V50c0-5.522-4.478-10-10-10s-10,4.478-10,10v45.312c0,5.522,4.478,10,10,10S168.49,100.834,168.49,95.312z"/>
<path d="M109.951,122.8c2.561,0,5.121-0.978,7.074-2.932c3.903-3.907,3.9-10.239-0.006-14.143L98.797,87.519
	c-3.909-3.904-10.239-3.9-14.143,0.006c-3.903,3.907-3.9,10.239,0.006,14.143l18.223,18.207
	C104.836,121.825,107.394,122.8,109.951,122.8z"/>
<path d="M212.973,121.068l19.373-19.389c3.903-3.907,3.9-10.238-0.006-14.143c-3.907-3.902-10.239-3.9-14.143,0.006l-19.373,19.389
	c-3.903,3.907-3.9,10.238,0.006,14.143c1.952,1.95,4.511,2.926,7.068,2.926C208.459,124,211.02,123.022,212.973,121.068z"/>
<path d="M345.991,358h-224c-5.522,0-10,4.478-10,10v80c0,5.522,4.478,10,10,10h224c5.522,0,10-4.478,10-10v-80
	C355.991,362.478,351.514,358,345.991,358z M335.991,438h-204v-60h204V438z"/>
<path d="M345.991,310H284c-5.522,0-10,4.478-10,10s4.478,10,10,10h61.991c5.522,0,10-4.478,10-10S351.514,310,345.991,310z"/>
<path d="M345.991,262h-19.496c-5.522,0-10,4.478-10,10s4.478,10,10,10h19.496c5.522,0,10-4.478,10-10S351.514,262,345.991,262z"/>
<path d="M303.5,122h42.491c5.522,0,10-4.478,10-10s-4.478-10-10-10H303.5c-5.522,0-10,4.478-10,10S297.978,122,303.5,122z"/>
<path d="M303.5,74h42.491c5.522,0,10-4.478,10-10s-4.478-10-10-10H303.5c-5.522,0-10,4.478-10,10S297.978,74,303.5,74z"/>
<path d="M303.5,170h42.491c5.522,0,10-4.478,10-10s-4.478-10-10-10H303.5c-5.522,0-10,4.478-10,10S297.978,170,303.5,170z"/>
<g>
</g>
<g>
</g>
<g>
</g>
<g>
</g>
<g>
</g>
<g>
</g>
<g>
</g>
<g>
</g>
<g>
</g>
<g>
</g>
<g>
</g>
<g>
</g>
<g>
</g>
<g>
</g>
<g>
</g>
</svg>
