<?xml version="1.0" encoding="iso-8859-1"?>
<!-- Generator: Adobe Illustrator 19.0.0, SVG Export Plug-In . SVG Version: 6.00 Build 0)  -->
<svg version="1.1" id="Capa_1" xmlns="http://www.w3.org/2000/svg" xmlns:xlink="http://www.w3.org/1999/xlink" x="0px" y="0px"
	 viewBox="0 0 512 512" style="enable-background:new 0 0 512 512;" xml:space="preserve">
<path style="fill:#D8D8E4;" d="M458.053,502C482.324,502,502,482.324,502,458.053v-249.09c0-22.091-17.909-40-40-40H187.526
	L215.119,234h158.773c22.075,0,39.977,17.884,40,39.959l0.214,184.136C414.13,482.35,433.799,502,458.053,502L458.053,502"/>
<path style="fill:#FFFFFF;" d="M360,10H124c-11.046,0-20,8.954-20,20v388c0,11.046,8.954,20,20,20h304c11.046,0,20-8.954,20-20V98
	L360,10z"/>
<rect x="167.54" y="64" style="fill:#FF5D5D;" width="216" height="64"/>
<path style="fill:#FEDA9B;" d="M448,98h-60.5C372.312,98,360,85.688,360,70.5V10L448,98z"/>
<g>
	<path style="fill:#FFC66C;" d="M414.107,458.095V273.959C414.084,251.884,395.968,234,373.892,234H215.119l-34.63-81.623
		C174.219,137.598,159.721,128,143.667,128H10v334c0,22.091,17.909,40,40,40h406l-0.002-0.052
		C432.698,500.875,414.129,481.66,414.107,458.095z"/>
	<path style="fill:#FFC66C;" d="M414.107,458.095V273.959C414.084,251.884,395.968,234,373.892,234H215.119l-34.63-81.623
		C174.219,137.598,159.721,128,143.667,128H10v334c0,22.091,17.909,40,40,40h406l-0.002-0.052
		C432.698,500.875,414.129,481.66,414.107,458.095z"/>
</g>
<path style="fill:#FFFFFF;" d="M314.667,296H109.335c-15.096,0-27.334,12.238-27.334,27.334v89.332
	c0,15.096,12.238,27.334,27.334,27.334h205.332c15.096,0,27.334-12.238,27.334-27.334v-89.332
	C342.001,308.238,329.763,296,314.667,296z"/>
<path d="M167.543,103c5.522,0,10-4.478,10-10V74h134.79c5.522,0,10-4.478,10-10s-4.478-10-10-10h-144.79c-5.522,0-10,4.478-10,10v29
	C157.543,98.522,162.021,103,167.543,103z"/>
<path d="M314.667,286H109.335c-20.586,0-37.334,16.748-37.334,37.334v89.332c0,20.586,16.748,37.334,37.334,37.334h205.332
	c20.586,0,37.334-16.748,37.334-37.334v-89.332C352.001,302.748,335.253,286,314.667,286z M332.001,412.666
	c0,9.558-7.776,17.334-17.334,17.334H109.335c-9.558,0-17.334-7.776-17.334-17.334v-89.332c0-9.558,7.776-17.334,17.334-17.334
	h205.332c9.558,0,17.334,7.776,17.334,17.334L332.001,412.666L332.001,412.666z"/>
<path d="M289,186h94.543c5.522,0,10-4.478,10-10s-4.478-10-10-10H289c-5.522,0-10,4.478-10,10S283.478,186,289,186z"/>
<path d="M243,186c2.63,0,5.21-1.07,7.069-2.931C251.93,181.21,253,178.63,253,176s-1.07-5.21-2.931-7.07
	C248.21,167.07,245.63,166,243,166s-5.21,1.069-7.07,2.93S233,173.359,233,176c0,2.63,1.069,5.21,2.93,7.069
	C237.79,184.93,240.37,186,243,186z"/>
<path d="M273,358h-87.998c-5.522,0-10,4.478-10,10s4.478,10,10,10H273c5.522,0,10-4.478,10-10S278.522,358,273,358z"/>
<path d="M143.53,358c-2.641,0-5.211,1.069-7.07,2.93c-1.87,1.86-2.93,4.44-2.93,7.07s1.06,5.21,2.93,7.069
	c1.859,1.86,4.439,2.931,7.07,2.931c2.63,0,5.199-1.07,7.069-2.931c1.86-1.859,2.931-4.439,2.931-7.069s-1.07-5.21-2.931-7.07
	C148.74,359.069,146.16,358,143.53,358z"/>
<path d="M462,158.963h-4V98c-0.008,0-0.016-0.001-0.024-0.001c-0.001-2.601-0.993-5.158-2.905-7.07l-88-88
	c-1.914-1.914-4.476-2.906-7.081-2.904C359.994,0.016,359.997,0.009,360,0H124c-16.542,0-30,13.458-30,30v88H10
	c-5.522,0-10,4.478-10,10v334c0,27.57,22.43,50,50,50h406c0.208,0,0.414-0.007,0.619-0.019c0.478,0.013,0.954,0.019,1.435,0.019
	C487.8,512,512,487.8,512,458.054V208.963C512,181.393,489.57,158.963,462,158.963z M387.5,88c-9.649,0-17.5-7.851-17.5-17.5V34.143
	L423.857,88H387.5z M114,30c0-5.514,4.486-10,10-10h226v50.5c0,15.746,9.759,29.247,23.543,34.796V118H212.001
	c-5.522,0-10,4.478-10,10s4.478,10,10,10h171.542c5.522,0,10-4.478,10-10v-20H438v310c0,5.514-4.486,10-10,10h-3.894V273.949
	C424.078,246.407,401.553,224,373.893,224H221.739l-32.044-75.528C181.842,129.961,163.775,118,143.667,118H114V30z M50,492
	c-16.542,0-30-13.458-30-30V138h123.667c12.064,0,22.905,7.177,27.616,18.282l34.63,81.623c1.568,3.695,5.192,6.095,9.206,6.095
	h158.773c16.644,0,30.197,13.444,30.214,29.959v184.146c0.013,12.831,4.531,24.63,12.055,33.896L50,492L50,492z M492,458.054
	C492,476.771,476.771,492,458.054,492c-18.7,0-33.929-15.214-33.947-33.905V448H428c16.542,0,30-13.458,30-30V178.963h4
	c16.542,0,30,13.458,30,30V458.054z"/>
<g>
</g>
<g>
</g>
<g>
</g>
<g>
</g>
<g>
</g>
<g>
</g>
<g>
</g>
<g>
</g>
<g>
</g>
<g>
</g>
<g>
</g>
<g>
</g>
<g>
</g>
<g>
</g>
<g>
</g>
</svg>
