<?xml version="1.0" encoding="iso-8859-1"?>
<!-- Generator: Adobe Illustrator 19.0.0, SVG Export Plug-In . SVG Version: 6.00 Build 0)  -->
<svg version="1.1" id="Capa_1" xmlns="http://www.w3.org/2000/svg" xmlns:xlink="http://www.w3.org/1999/xlink" x="0px" y="0px"
	 viewBox="0 0 512 512" style="enable-background:new 0 0 512 512;" xml:space="preserve">
<path style="fill:#FFFFFF;" d="M450,64H62c-17.673,0-32,14.327-32,32v288h452V96C482,78.327,467.673,64,450,64z"/>
<path style="fill:#72D8FF;" d="M460,448H52c-23.196,0-42-18.804-42-42v-22h492v22C502,429.196,483.196,448,460,448z"/>
<rect x="70" y="116" style="fill:#4DBAF6;" width="164" height="216"/>
<rect x="278" y="116" style="fill:#FF5D5D;" width="164" height="216"/>
<path d="M482,296c-2.63,0-5.21,1.069-7.07,2.93c-1.86,1.86-2.93,4.44-2.93,7.07s1.07,5.21,2.93,7.069
	c1.86,1.86,4.44,2.931,7.07,2.931s5.21-1.07,7.07-2.931c1.86-1.859,2.93-4.439,2.93-7.069s-1.07-5.21-2.93-7.07S484.63,296,482,296z
	"/>
<path d="M502,374h-10v-28.5c0-5.522-4.477-10-10-10s-10,4.478-10,10V374H40V96c0-12.131,9.869-22,22-22h388c12.131,0,22,9.869,22,22
	v168c0,5.522,4.477,10,10,10s10-4.478,10-10V96c0-23.159-18.841-42-42-42H62c-23.159,0-42,18.841-42,42v278H10
	c-5.523,0-10,4.478-10,10v22c0,28.673,23.327,52,52,52h408c28.673,0,52-23.327,52-52v-22C512,378.478,507.523,374,502,374z M492,406
	c0,17.645-14.355,32-32,32H52c-17.645,0-32-14.355-32-32v-12h472V406z"/>
<path d="M289.667,406h-67.333c-5.523,0-10,4.478-10,10s4.477,10,10,10h67.333c5.523,0,10-4.478,10-10S295.189,406,289.667,406z"/>
<path d="M105.894,106H70c-5.523,0-10,4.478-10,10v216c0,5.522,4.477,10,10,10h164c5.523,0,10-4.478,10-10V116
	c0-5.522-4.477-10-10-10h-35.894c-5.523,0-10,4.478-10,10s4.477,10,10,10H224v196H80V126h25.894c5.523,0,10-4.478,10-10
	S111.417,106,105.894,106z"/>
<path d="M152,106c-2.63,0-5.21,1.069-7.07,2.93c-1.86,1.86-2.93,4.44-2.93,7.07s1.07,5.21,2.93,7.069
	c1.86,1.86,4.44,2.931,7.07,2.931s5.21-1.07,7.07-2.931c1.86-1.859,2.93-4.439,2.93-7.069s-1.07-5.21-2.93-7.07S154.63,106,152,106z
	"/>
<path d="M120.594,174h-14.701c-5.523,0-10,4.478-10,10v39.956V264c0,5.522,4.477,10,10,10s10-4.478,10-10v-30.044h4.701
	c16.53,0,29.978-13.448,29.978-29.979C150.572,187.448,137.124,174,120.594,174z M120.594,213.956h-4.701V194h4.701
	c5.502,0,9.978,4.476,9.978,9.978S126.096,213.956,120.594,213.956z"/>
<path d="M182.007,213.978h7.555c5.523,0,10-4.478,10-10s-4.477-10-10-10h-7.555c-13.788,0-25.006,11.218-25.006,25.006
	s11.218,25.006,25.006,25.006h1.094c2.76,0,5.005,2.245,5.005,5.005S185.861,254,183.101,254h-16.1c-5.523,0-10,4.478-10,10
	s4.477,10,10,10h16.1c13.788,0,25.005-11.218,25.005-25.006s-11.217-25.005-25.005-25.005h-1.094c-2.76,0-5.006-2.246-5.006-5.006
	S179.247,213.978,182.007,213.978z"/>
<path d="M317.528,273.594c0.942,0.277,1.892,0.409,2.826,0.409c4.322-0.001,8.308-2.825,9.589-7.182l2.232-7.589h23.408l2.232,7.589
	c1.558,5.299,7.117,8.332,12.416,6.772c5.298-1.559,8.33-7.117,6.772-12.415l-23.529-80c-1.252-4.256-5.158-7.179-9.594-7.179
	s-8.342,2.923-9.594,7.179l-23.53,80C309.198,266.477,312.23,272.035,317.528,273.594z M349.701,239.232h-11.643l5.822-19.793
	L349.701,239.232z"/>
<path d="M399.65,274c5.523,0,10-4.478,10-10v-54.277c0-5.522-4.477-10-10-10s-10,4.478-10,10V264
	C389.65,269.522,394.127,274,399.65,274z"/>
<path d="M442,106H278c-5.523,0-10,4.478-10,10v216c0,5.522,4.477,10,10,10h164c5.523,0,10-4.478,10-10V116
	C452,110.478,447.523,106,442,106z M432,322H288V126h144V322z"/>
<g>
</g>
<g>
</g>
<g>
</g>
<g>
</g>
<g>
</g>
<g>
</g>
<g>
</g>
<g>
</g>
<g>
</g>
<g>
</g>
<g>
</g>
<g>
</g>
<g>
</g>
<g>
</g>
<g>
</g>
</svg>
