<?xml version="1.0" encoding="iso-8859-1"?>
<!-- Generator: Adobe Illustrator 19.0.0, SVG Export Plug-In . SVG Version: 6.00 Build 0)  -->
<svg version="1.1" id="Capa_1" xmlns="http://www.w3.org/2000/svg" xmlns:xlink="http://www.w3.org/1999/xlink" x="0px" y="0px"
	 viewBox="0 0 512 512" style="enable-background:new 0 0 512 512;" xml:space="preserve">
<path style="fill:#D8D8E4;" d="M502,312H10V50c0-11.046,8.954-20,20-20h452c11.046,0,20,8.954,20,20V312z"/>
<g>
	<path style="fill:#FFC89F;" d="M481.923,249.358L481.923,249.358c-11.088,0-20.077,8.989-20.077,20.077v-5.282v-9.512
		c0-11.088-8.989-20.077-20.077-20.077c-11.088,0-20.077,8.989-20.077,20.077v-12.717c0-11.088-8.989-20.077-20.077-20.077
		c-11.088,0-20.077,8.989-20.077,20.077v-65.661c0-11.088-8.989-20.077-20.077-20.077l0,0c-11.088,0-20.077,8.989-20.077,20.077
		v145.384l-23.579-43.662c-5.447-10.086-17.93-14.005-28.164-8.842l0,0c-8.776,4.427-13.351,14.312-11.045,23.868l15.286,63.361
		c3.297,13.664,9.263,26.542,17.557,37.891l29.946,40.979V482h139.992v-46.759l11.778-37.559c5.865-18.703,8.849-38.189,8.849-57.79
		v-70.456C502,258.347,493.011,249.358,481.923,249.358z"/>
	<path style="fill:#FFC89F;" d="M30.077,249.358L30.077,249.358c11.088,0,20.077,8.989,20.077,20.077v-5.282v-9.512
		c0-11.088,8.989-20.077,20.077-20.077s20.077,8.989,20.077,20.077v-12.717c0-11.088,8.989-20.077,20.077-20.077
		s20.077,8.989,20.077,20.077v-65.661c0-11.088,8.989-20.077,20.077-20.077l0,0c11.088,0,20.077,8.989,20.077,20.077v145.384
		l23.579-43.662c5.447-10.086,17.93-14.005,28.164-8.842l0,0c8.776,4.427,13.351,14.312,11.045,23.868l-15.286,63.361
		c-3.297,13.664-9.263,26.542-17.557,37.891l-29.946,40.979V482H30.627v-46.759l-11.778-37.559
		C12.984,378.978,10,359.492,10,339.891v-70.456C10,258.347,18.989,249.358,30.077,249.358z"/>
</g>
<path d="M512,50c0-16.542-13.458-30-30-30H30C13.458,20,0,33.458,0,50v219c0,0.049,0.007,0.096,0.007,0.145
	C0.006,269.242,0,269.338,0,269.435v70.456c0,20.641,3.131,41.091,9.307,60.783l11.32,36.098V482c0,5.522,4.478,10,10,10
	s10-4.478,10-10v-46.76c0-1.015-0.154-2.023-0.458-2.992l-11.778-37.559C22.823,376.936,20,358.499,20,339.891v-70.456
	c0-5.557,4.521-10.077,10.077-10.077s10.077,4.521,10.077,10.077v24.506c0,5.522,4.478,10,10,10s10-4.478,10-10V254.64
	c0-5.557,4.521-10.077,10.078-10.077s10.077,4.521,10.077,10.077v39.301c0,5.522,4.478,10,10,10s10-4.478,10-10v-52.018
	c0-5.557,4.521-10.077,10.077-10.077s10.077,4.521,10.077,10.077v52.018c0,5.522,4.478,10,10,10s10-4.478,10-10V176.262
	c0-5.557,4.521-10.077,10.077-10.077s10.078,4.521,10.078,10.077v145.385c0,4.579,3.11,8.573,7.55,9.695
	c4.436,1.12,9.073-0.914,11.249-4.943l23.578-43.662c2.896-5.36,9.422-7.411,14.861-4.667c4.654,2.349,7.052,7.527,5.829,12.595
	L208.4,354.026c-3.003,12.446-8.355,23.998-15.91,34.335l-29.945,40.979c-1.251,1.713-1.926,3.779-1.926,5.9V482
	c0,5.522,4.478,10,10,10s10-4.478,10-10v-43.495l28.019-38.343c9.119-12.478,15.581-26.422,19.204-41.445L236.7,322h38.6
	l8.857,36.716c3.624,15.024,10.086,28.969,19.204,41.446l28.02,38.343V482c0,5.522,4.478,10,10,10s10-4.478,10-10v-46.76
	c0-2.121-0.675-4.188-1.926-5.9l-29.946-40.979c-7.554-10.337-12.906-21.889-15.909-34.336l-15.286-63.361
	c-1.223-5.067,1.175-10.246,5.828-12.594c5.437-2.743,11.967-0.693,14.862,4.666l23.578,43.662c2.176,4.03,6.82,6.063,11.249,4.943
	c4.439-1.122,7.55-5.116,7.55-9.695V176.262c0-5.557,4.521-10.077,10.078-10.077s10.077,4.521,10.077,10.077V293.94
	c0,5.522,4.478,10,10,10s10-4.478,10-10v-52.018c0-5.557,4.521-10.077,10.077-10.077s10.077,4.521,10.077,10.077v52.018
	c0,5.522,4.478,10,10,10s10-4.478,10-10v-39.3c0-5.557,4.521-10.077,10.077-10.077s10.078,4.521,10.078,10.077v39.301
	c0,5.522,4.478,10,10,10s10-4.478,10-10v-24.506c0-5.557,4.521-10.077,10.077-10.077S492,263.878,492,269.435v70.456
	c0,18.608-2.823,37.045-8.391,54.799l-11.778,37.559c-0.304,0.969-0.458,1.978-0.458,2.992V482c0,5.522,4.478,10,10,10
	s10-4.478,10-10v-45.229l11.32-36.098C508.869,380.981,512,360.53,512,339.89v-70.456c0-0.097-0.006-0.193-0.007-0.289
	c0-0.049,0.007-0.096,0.007-0.145V50z M268.872,295.355l1.603,6.645h-28.95l1.603-6.645c2.858-11.843-1.373-23.903-10.454-31.358
	h46.652C270.246,271.452,266.014,283.512,268.872,295.355z M481.923,239.357c-4.563,0-8.892,1.021-12.77,2.847
	c-4.74-10.397-15.232-17.642-27.386-17.642c-4.891,0-9.51,1.173-13.596,3.252c-5.063-9.492-15.069-15.969-26.559-15.969
	c-3.533,0-6.926,0.612-10.077,1.736v-37.32c0-16.585-13.492-30.077-30.077-30.077s-30.078,13.492-30.078,30.077v105.821
	l-4.779-8.851c-4.544-8.413-12.296-13.904-20.911-15.734c0.409-1.091,0.643-2.267,0.643-3.501c0-5.522-4.478-10-10-10H227
	c-5.522,0-10,4.478-10,10c0,1.124,0.194,2.201,0.536,3.209c-12.703-1.992-25.67,4.051-32.138,16.026l-4.779,8.851v-105.82
	c0-16.585-13.493-30.077-30.078-30.077s-30.077,13.492-30.077,30.077v37.32c-3.151-1.124-6.544-1.736-10.077-1.736
	c-11.489,0-21.495,6.477-26.559,15.969c-4.086-2.079-8.705-3.252-13.596-3.252c-12.153,0-22.646,7.244-27.386,17.642
	c-3.878-1.826-8.206-2.847-12.77-2.847c-3.534,0-6.925,0.617-10.077,1.742V50c0-5.514,4.486-10,10-10h452c5.514,0,10,4.486,10,10
	v191.099C488.848,239.975,485.457,239.357,481.923,239.357z"/>
<path d="M64,152.003h43c5.522,0,10-4.478,10-10s-4.478-10-10-10H64c-5.522,0-10,4.478-10,10S58.478,152.003,64,152.003z"/>
<path d="M217.261,142.003c0-5.522-4.478-10-10-10h-15.839c-5.522,0-10,4.478-10,10s4.478,10,10,10h15.839
	C212.783,152.003,217.261,147.525,217.261,142.003z"/>
<path d="M64,208h17.275c5.522,0,10-4.478,10-10s-4.478-10-10-10H64c-5.522,0-10,4.478-10,10S58.478,208,64,208z"/>
<path d="M205.358,198c0,5.522,4.478,10,10,10h18.615c5.522,0,10-4.478,10-10s-4.478-10-10-10h-18.615
	C209.836,188,205.358,192.478,205.358,198z"/>
<path d="M64,96.005h34.552c5.522,0,10-4.478,10-10s-4.478-10-10-10H64c-5.522,0-10,4.478-10,10S58.478,96.005,64,96.005z"/>
<path d="M207.261,76.005h-31.679c-5.522,0-10,4.478-10,10s4.478,10,10,10h31.679c5.522,0,10-4.478,10-10
	S212.783,76.005,207.261,76.005z"/>
<path d="M137.59,96c2.63,0,5.21-1.061,7.07-2.92c1.859-1.87,2.93-4.44,2.93-7.08c0-2.63-1.07-5.21-2.93-7.07
	c-1.86-1.86-4.431-2.92-7.07-2.92c-2.63,0-5.21,1.06-7.07,2.92c-1.859,1.86-2.93,4.44-2.93,7.07c0,2.64,1.07,5.21,2.93,7.08
	C132.38,94.939,134.96,96,137.59,96z"/>
<path d="M233.5,142.003c0,5.522,4.478,10,10,10h26.499c5.522,0,10-4.478,10-10s-4.478-10-10-10H243.5
	C237.978,132.003,233.5,136.48,233.5,142.003z"/>
<path d="M324.569,149.069c1.86-1.859,2.931-4.439,2.931-7.069s-1.07-5.21-2.931-7.07c-1.859-1.86-4.439-2.93-7.069-2.93
	s-5.21,1.069-7.07,2.93s-2.93,4.44-2.93,7.07c0,2.64,1.069,5.21,2.93,7.069c1.86,1.87,4.44,2.931,7.07,2.931
	S322.71,150.939,324.569,149.069z"/>
<path d="M400.711,142.003c0,5.522,4.478,10,10,10h37.634c5.522,0,10-4.478,10-10s-4.478-10-10-10h-37.634
	C405.188,132.003,400.711,136.48,400.711,142.003z"/>
<path d="M284.833,188c-5.522,0-10,4.478-10,10s4.478,10,10,10H305c5.522,0,10-4.478,10-10s-4.478-10-10-10H284.833z"/>
<path d="M446.394,188h-18.615c-5.522,0-10,4.478-10,10s4.478,10,10,10h18.615c5.522,0,10-4.478,10-10S451.916,188,446.394,188z"/>
<path d="M282.499,76.005H256c-5.522,0-10,4.478-10,10s4.478,10,10,10h26.499c5.522,0,10-4.478,10-10S288.021,76.005,282.499,76.005z
	"/>
<path d="M448.127,96.005c5.522,0,10-4.478,10-10s-4.478-10-10-10h-33.103c-5.522,0-10,4.478-10,10s4.478,10,10,10H448.127z"/>
<path d="M363.5,96.005c5.522,0,10-4.478,10-10s-4.478-10-10-10h-21.908c-5.522,0-10,4.478-10,10s4.478,10,10,10H363.5z"/>
<g>
</g>
<g>
</g>
<g>
</g>
<g>
</g>
<g>
</g>
<g>
</g>
<g>
</g>
<g>
</g>
<g>
</g>
<g>
</g>
<g>
</g>
<g>
</g>
<g>
</g>
<g>
</g>
<g>
</g>
</svg>
