<?xml version="1.0" encoding="iso-8859-1"?>
<!-- Generator: Adobe Illustrator 19.0.0, SVG Export Plug-In . SVG Version: 6.00 Build 0)  -->
<svg version="1.1" id="Capa_1" xmlns="http://www.w3.org/2000/svg" xmlns:xlink="http://www.w3.org/1999/xlink" x="0px" y="0px"
	 viewBox="0 0 512 512" style="enable-background:new 0 0 512 512;" xml:space="preserve">
<path style="fill:#FFC66C;" d="M82.01,345.998h399.991c11.046,0,20-8.954,20-20V30.005c0-11.046-8.954-20-20-20H82.01
	c-11.046,0-20,8.954-20,20v295.993C62.011,337.044,70.964,345.998,82.01,345.998z"/>
<rect x="102.008" y="50.009" style="fill:#FFFFFF;" width="359.992" height="255.994"/>
<g>
	<path style="fill:#72D8FF;" d="M129.919,359.395v14.259c0,9.187-6.448,17.112-15.443,18.981l-51.18,10.632
		C32.253,409.713,10,437.065,10,468.77v33.224h311.993v-33.187c0-31.721-22.276-59.083-53.34-65.514l-51.521-10.667
		c-9.001-1.864-15.455-9.792-15.455-18.983v-14.359L129.919,359.395z"/>
	<path style="fill:#72D8FF;" d="M129.919,359.45v14.204c0,9.187-6.448,17.112-15.443,18.981l-51.18,10.632
		C32.253,409.713,10,437.065,10,468.77v33.224h311.993v-33.187c0-31.721-22.276-59.083-53.34-65.514l-51.521-10.667
		c-9.001-1.864-15.455-9.792-15.455-18.983v-14.303"/>
</g>
<path style="fill:#36D28F;" d="M129.919,359.395v14.259c0,9.187-6.448,17.112-15.443,18.981l-51.18,10.632
	C32.253,409.713,10,437.065,10,468.77v33.224h311.993v-33.187c0-31.721-22.276-59.083-53.34-65.514l-51.521-10.667
	c-9.001-1.864-15.455-9.792-15.455-18.983v-14.359L129.919,359.395z"/>
<g>
	<polygon style="fill:#FFC89F;" points="128.277,386.811 165.798,446.574 203.319,386.811 203.319,365.292 128.277,365.292 	"/>
	<path style="fill:#FFC89F;" d="M221.797,274.2v44.799c0,30.927-25.071,55.999-55.999,55.999l0,0
		c-30.927,0-55.999-25.071-55.999-55.999V274.2"/>
</g>
<g>
	<circle style="fill:#FF5D5D;" cx="166.086" cy="201.975" r="31.239"/>
	<path style="fill:#FF5D5D;" d="M165.798,201.001L165.798,201.001c-30.927,0-55.999,25.071-55.999,55.999v4.438
		c0,14.117,11.444,25.561,25.561,25.561h60.875c14.117,0,25.561-11.444,25.561-25.561V257
		C221.797,226.073,196.725,201.001,165.798,201.001z"/>
</g>
<g>
	<path style="fill:#C9F3FF;" d="M210.402,326.998h-33.209c-6.293,0-11.395-5.102-11.395-11.395v-17.21
		c0-6.293,5.102-11.395,11.395-11.395h33.209c6.293,0,11.395,5.102,11.395,11.395v17.21
		C221.797,321.896,216.695,326.998,210.402,326.998z"/>
	<path style="fill:#C9F3FF;" d="M154.403,326.998h-33.209c-6.293,0-11.395-5.102-11.395-11.395v-17.21
		c0-6.293,5.102-11.395,11.395-11.395h33.209c6.293,0,11.395,5.102,11.395,11.395v17.21
		C165.798,321.896,160.696,326.998,154.403,326.998z"/>
</g>
<rect x="256.004" y="90.008" style="fill:#FF5D5D;" width="165.996" height="119.997"/>
<path style="fill:#FFFFFF;" d="M334.675,126.963l21.157,12.215c8.333,4.811,8.333,16.839,0,21.65l-21.157,12.215
	c-8.333,4.811-18.75-1.203-18.75-10.825v-24.429C315.926,128.166,326.342,122.151,334.675,126.963z"/>
<path d="M482.001,0.006H82.01c-16.542,0-29.999,13.458-29.999,29.999v295.993c0,16.542,13.458,29.999,29.999,29.999h29.165
	c2.553,3.757,5.492,7.228,8.745,10.379v7.277c0,4.425-3.145,8.29-7.477,9.189l-51.181,10.632C25.764,400.848,0,432.514,0,468.77
	v33.224c0,5.522,4.477,10,10,10h311.993c5.523,0,10-4.478,10-10v-33.187c0-36.279-25.785-67.95-61.312-75.306l-51.52-10.667
	c-4.336-0.898-7.483-4.764-7.483-9.191v-7.267c12.393-12.005,20.12-28.801,20.12-47.377v-3h230.205c5.523,0,10-4.478,10-10V50.006
	c0-5.523-4.477-10-10-10H102.011c-5.523,0-10,4.477-10,10v137.997c0,5.523,4.477,10,10,10s10-4.477,10-10V60.006h339.992V296
	H231.798v-34.561v-4.438v-0.873c0-0.298-0.019-0.591-0.045-0.882c-0.54-20.527-10.488-38.741-25.691-50.486
	c0.471-1.161,0.737-2.428,0.737-3.758c0-22.606-18.393-40.999-40.999-40.999S124.8,178.396,124.8,201.002
	c0,1.33,0.265,2.597,0.737,3.758c-15.204,11.745-25.151,29.959-25.691,50.486c-0.025,0.291-0.045,0.584-0.045,0.882v0.873v4.438
	v36.956v17.209V319c0,5.877,0.783,11.573,2.231,17H82.01c-5.514,0-10-4.486-10-10V30.006c0-5.514,4.486-10,10-10h399.991
	c5.514,0,10,4.486,10,10v295.993c0,5.514-4.486,10-10,10h-180.25c-5.523,0-10,4.478-10,10c0,5.522,4.477,10,10,10h180.25
	c16.542,0,29.999-13.458,29.999-29.999V30.006C512,13.464,498.542,0.006,482.001,0.006z M123.47,336.998h30.933
	c4.19,0,8.091-1.229,11.395-3.319c3.304,2.09,7.205,3.319,11.395,3.319h30.933c-7.02,16.444-23.348,27.999-42.328,27.999
	S130.49,353.442,123.47,336.998z M210.402,296.999c0.769,0,1.395,0.626,1.395,1.396v17.209c0,0.77-0.626,1.396-1.395,1.396h-33.209
	c-0.769,0-1.395-0.626-1.395-1.396v-17.209c0-0.77,0.626-1.396,1.395-1.396h19.043L210.402,296.999L210.402,296.999z
	 M154.403,296.999c0.769,0,1.395,0.626,1.395,1.396v17.209c0,0.77-0.626,1.396-1.395,1.396h-33.209
	c-0.769,0-1.395-0.626-1.395-1.396v-17.209c0-0.77,0.626-1.396,1.395-1.396h14.167h5.648h1.676L154.403,296.999L154.403,296.999z
	 M266.626,413.084c26.287,5.443,45.367,28.877,45.367,55.722v23.187H20v-23.224c0-26.827,19.064-50.259,45.33-55.715l51.181-10.632
	c0.208-0.043,0.413-0.095,0.619-0.143l40.2,64.031c1.83,2.914,5.028,4.683,8.469,4.683s6.64-1.769,8.469-4.683l40.206-64.04
	c0.211,0.049,0.419,0.102,0.632,0.146L266.626,413.084z M197.689,391.391l-31.892,50.798l-31.888-50.793
	c2.651-3.489,4.531-7.567,5.422-11.957c8.108,3.564,17.057,5.558,26.466,5.558c9.411,0,18.361-1.994,26.468-5.559
	C193.158,383.828,195.039,387.904,197.689,391.391z M211.797,261.438c0,8.581-6.981,15.562-15.562,15.562h-12.091
	c4.58-5.767,8.011-12.553,9.896-20.065c1.344-5.357-1.91-10.789-7.267-12.133c-5.36-1.343-10.789,1.911-12.133,7.267
	c-3.682,14.68-16.824,24.931-31.957,24.931h-1.676h-5.648c-8.581,0-15.562-6.98-15.562-15.562v-4.438
	c0-25.363,20.636-45.999,45.999-45.999s45.999,20.636,45.999,45.999L211.797,261.438L211.797,261.438z M165.798,180.002
	c9.135,0,16.905,5.873,19.787,14.034c-6.25-1.968-12.896-3.034-19.787-3.034c-6.891,0-13.538,1.066-19.787,3.034
	C148.894,185.875,156.663,180.002,165.798,180.002z"/>
<path d="M251.935,338.928c-1.86,1.86-2.93,4.44-2.93,7.07s1.07,5.21,2.93,7.069c1.86,1.86,4.44,2.931,7.07,2.931
	s5.21-1.07,7.07-2.931c1.86-1.859,2.93-4.439,2.93-7.069s-1.07-5.21-2.93-7.07c-1.86-1.86-4.43-2.93-7.07-2.93
	C256.375,335.998,253.796,337.067,251.935,338.928z"/>
<path d="M422.002,246c-2.63,0-5.21,1.07-7.07,2.93c-1.86,1.86-2.93,4.44-2.93,7.07c0,2.63,1.07,5.21,2.93,7.069
	c1.86,1.86,4.44,2.931,7.07,2.931s5.21-1.07,7.07-2.931c1.86-1.859,2.93-4.439,2.93-7.069c0-2.63-1.07-5.21-2.93-7.07
	C427.212,247.07,424.632,246,422.002,246z"/>
<path d="M256.006,266h124.997c5.523,0,10-4.478,10-10c0-5.523-4.477-10-10-10H256.006c-5.523,0-10,4.477-10,10
	C246.006,261.522,250.483,266,256.006,266z"/>
<path d="M317.177,181.703c3.522,2.034,7.385,3.05,11.249,3.05c3.864,0,7.728-1.017,11.25-3.051l21.155-12.215
	c7.045-4.067,11.25-11.351,11.25-19.485c0-8.134-4.206-15.418-11.25-19.485l-21.155-12.215c-7.044-4.067-15.456-4.067-22.499,0
	c-7.045,4.067-11.25,11.352-11.25,19.486v24.429C305.927,170.351,310.132,177.636,317.177,181.703z M325.926,137.788
	c0-1.193,0.68-1.836,1.25-2.165c0.324-0.187,0.753-0.354,1.253-0.354c0.379,0,0.8,0.096,1.246,0.354l0,0l21.157,12.215
	c1.033,0.597,1.25,1.507,1.25,2.165s-0.217,1.568-1.25,2.165l-21.157,12.215c-1.033,0.596-1.93,0.329-2.499,0
	c-0.57-0.329-1.25-0.972-1.25-2.165V137.788z"/>
<path d="M432.002,90.004c0-5.523-4.477-10-10-10H256.006c-5.523,0-10,4.477-10,10v119.997c0,5.523,4.477,10,10,10h165.996
	c5.523,0,10-4.477,10-10V90.004z M412.002,200.001H266.006v-99.998h145.997V200.001z"/>
<g>
</g>
<g>
</g>
<g>
</g>
<g>
</g>
<g>
</g>
<g>
</g>
<g>
</g>
<g>
</g>
<g>
</g>
<g>
</g>
<g>
</g>
<g>
</g>
<g>
</g>
<g>
</g>
<g>
</g>
</svg>
