<?xml version="1.0" encoding="iso-8859-1"?>
<!-- Generator: Adobe Illustrator 19.0.0, SVG Export Plug-In . SVG Version: 6.00 Build 0)  -->
<svg version="1.1" id="Capa_1" xmlns="http://www.w3.org/2000/svg" xmlns:xlink="http://www.w3.org/1999/xlink" x="0px" y="0px"
	 viewBox="0 0 512 512" style="enable-background:new 0 0 512 512;" xml:space="preserve">
<path style="fill:#898998;" d="M482,502H30c-11.046,0-20-8.954-20-20V146c0-11.046,8.954-20,20-20h452c11.046,0,20,8.954,20,20v336
	C502,493.046,493.046,502,482,502z"/>
<rect x="58" y="182" style="fill:#D8D8E4;" width="316" height="264"/>
<g>
	<circle style="fill:#EDF2FA;" cx="438" cy="314" r="24"/>
	<rect x="414" y="174" style="fill:#EDF2FA;" width="48" height="76"/>
	<rect x="414" y="378" style="fill:#EDF2FA;" width="48" height="76"/>
</g>
<path style="fill:#C9F3FF;" d="M269.802,241.51L269.802,241.51c8.867,8.867,23.243,8.867,32.11,0l199.4-199.4L469.202,10
	l-199.4,199.4C260.935,218.267,260.935,232.644,269.802,241.51z"/>
<rect x="358.181" y="38.357" transform="matrix(0.7071 0.7071 -0.7071 0.7071 203.7914 -231.1233)" style="fill:#4DBAF6;" width="45.41" height="184.158"/>
<path d="M291,136c2.63,0,5.21-1.07,7.07-2.931c1.86-1.859,2.93-4.439,2.93-7.069s-1.07-5.21-2.93-7.07S293.63,116,291,116
	s-5.21,1.069-7.07,2.93c-1.86,1.86-2.93,4.44-2.93,7.07c0,2.63,1.07,5.21,2.93,7.069C285.79,134.93,288.37,136,291,136z"/>
<path d="M482,116h-8c-5.523,0-10,4.478-10,10s4.477,10,10,10h8c5.514,0,10,4.486,10,10v336c0,5.514-4.486,10-10,10H30
	c-5.514,0-10-4.486-10-10V146c0-5.514,4.486-10,10-10h218.5c5.523,0,10-4.478,10-10s-4.477-10-10-10H30c-16.542,0-30,13.458-30,30
	v336c0,16.542,13.458,30,30,30h452c16.542,0,30-13.458,30-30V146C512,129.458,498.542,116,482,116z"/>
<path d="M438,280c-18.748,0-34,15.252-34,34s15.252,34,34,34s34-15.252,34-34S456.748,280,438,280z M438,328c-7.72,0-14-6.28-14-14
	s6.28-14,14-14s14,6.28,14,14S445.72,328,438,328z"/>
<path d="M472,174c0-5.522-4.477-10-10-10h-48c-5.523,0-10,4.478-10,10v76c0,5.522,4.477,10,10,10h48c5.523,0,10-4.478,10-10V174z
	 M452,240h-28v-56h28V240z"/>
<path d="M414,368c-5.523,0-10,4.478-10,10v76c0,5.522,4.477,10,10,10h48c5.523,0,10-4.478,10-10v-76c0-5.522-4.477-10-10-10H414z
	 M452,444h-28v-56h28V444z"/>
<path d="M256.769,240.401l-11.334,11.334c-21.19-7.249-43.666-11.034-66.732-11.034C132.115,240.701,91.15,265.207,68,302V192h176
	c5.523,0,10-4.478,10-10s-4.477-10-10-10H58c-5.523,0-10,4.478-10,10v264c0,5.522,4.477,10,10,10h316c5.523,0,10-4.478,10-10
	V223.333c0-5.522-4.477-10-10-10s-10,4.478-10,10v133.99c-9.921-20.714-23.386-39.812-40.097-56.524
	c-17.19-17.19-36.904-30.945-58.306-40.941l5.307-5.307c4.57,2.355,9.664,3.61,14.953,3.61c8.736,0,16.949-3.402,23.126-9.579
	l29.914-29.914c0.002-0.002,0.003-0.003,0.005-0.005s0.003-0.003,0.005-0.005L469.122,88.443c0.002-0.002,0.003-0.003,0.005-0.005
	s0.003-0.003,0.005-0.005l39.252-39.252c3.905-3.905,3.905-10.237,0-14.143l-32.11-32.11C474.398,1.054,471.854,0,469.202,0
	s-5.196,1.054-7.071,2.929l-39.256,39.256l-0.001,0.001l-0.001,0.001l-130.219,130.22c-0.001,0.001-0.003,0.002-0.004,0.004
	s-0.002,0.003-0.004,0.004l-29.915,29.915C252.445,212.615,250.462,228.102,256.769,240.401z M68,426.031
	c1.514,1.785,3.091,3.53,4.765,5.204s3.418,3.25,5.204,4.765H68V426.031z M363.728,436H175.493
	c8.234-9.766,13.209-22.365,13.209-36.109c0-21.222-17.265-38.487-38.487-38.487c-15.23,0-27.62,12.391-27.62,27.621
	c0,5.522,4.477,10,10,10s10-4.478,10-10c0-4.202,3.418-7.621,7.62-7.621c10.194,0,18.487,8.293,18.487,18.487
	c0,19.91-16.198,36.108-36.107,36.109C96.978,436,68,407.022,68,371.403c0-61.041,49.661-110.702,110.702-110.702
	C277.521,260.701,358.515,338.458,363.728,436z M429.945,63.399l17.968,17.968L331.831,197.449l-17.968-17.968L429.945,63.399z
	 M469.202,24.143L487.17,42.11l-25.114,25.114l-17.968-17.968L469.202,24.143z M276.873,216.472l22.848-22.848l17.968,17.968
	l-22.848,22.848c-2.399,2.4-5.59,3.722-8.983,3.722c-3.394,0-6.584-1.321-8.984-3.722c-2.4-2.399-3.722-5.59-3.722-8.984
	C273.151,222.062,274.473,218.871,276.873,216.472z"/>
<g>
</g>
<g>
</g>
<g>
</g>
<g>
</g>
<g>
</g>
<g>
</g>
<g>
</g>
<g>
</g>
<g>
</g>
<g>
</g>
<g>
</g>
<g>
</g>
<g>
</g>
<g>
</g>
<g>
</g>
</svg>
