<?xml version="1.0" encoding="iso-8859-1"?>
<!-- Generator: Adobe Illustrator 19.0.0, SVG Export Plug-In . SVG Version: 6.00 Build 0)  -->
<svg version="1.1" id="Capa_1" xmlns="http://www.w3.org/2000/svg" xmlns:xlink="http://www.w3.org/1999/xlink" x="0px" y="0px"
	 viewBox="0 0 512 512" style="enable-background:new 0 0 512 512;" xml:space="preserve">
<path style="fill:#FF5D5D;" d="M332.799,53.456c0-23.993-19.45-43.441-43.441-43.441c-23.992,0-43.442,19.449-43.442,43.441H332.799
	z"/>
<path style="fill:#4DBAF6;" d="M240.517,287.226c0,12.505-8.777,23.293-21.021,25.835l-69.667,14.472
	c-42.255,8.777-72.548,46.009-72.548,89.167v85.285H501.97V416.75c0-43.179-30.323-80.424-72.606-89.179l-70.131-14.52
	c-12.251-2.537-21.038-13.328-21.038-25.839v-23.546h-97.678L240.517,287.226L240.517,287.226z"/>
<path style="fill:#FFC89F;" d="M361.352,147.565v57.597c0,39.762-32.233,71.996-71.996,71.996l0,0
	c-39.762,0-71.996-32.233-71.996-71.996v-57.597H361.352z"/>
<path style="fill:#FF5D5D;" d="M289.356,53.456L289.356,53.456c-39.763,0-71.996,32.233-71.996,71.996v5.706
	c0,18.15,14.713,32.863,32.863,32.863h78.265c18.15,0,32.863-14.713,32.863-32.863v-5.706
	C361.352,85.69,329.119,53.456,289.356,53.456z"/>
<g>
	<path style="fill:#C9F3FF;" d="M346.702,215.446h-42.695c-8.091,0-14.65-6.559-14.65-14.65v-22.126
		c0-8.091,6.559-14.65,14.65-14.65h42.695c8.091,0,14.65,6.559,14.65,14.65v22.126C361.352,208.888,354.794,215.446,346.702,215.446
		z"/>
	<path style="fill:#C9F3FF;" d="M274.706,215.446h-42.695c-8.091,0-14.65-6.559-14.65-14.65v-22.126
		c0-8.091,6.559-14.65,14.65-14.65h42.695c8.091,0,14.65,6.559,14.65,14.65v22.126C289.356,208.888,282.798,215.446,274.706,215.446
		z"/>
	<path style="fill:#C9F3FF;" d="M348.195,313.062H99.778c-9.799,0-17.744,7.945-17.744,17.744v171.179h283.905V330.806
		C365.939,321.006,357.994,313.062,348.195,313.062z"/>
	<circle style="fill:#C9F3FF;" cx="223.986" cy="407.525" r="24.841"/>
</g>
<path style="fill:#FFC66C;" d="M127.992,85.067H19.999c-5.523,0-9.999,4.477-9.999,9.999v135.992c0,5.523,4.477,9.999,9.999,9.999
	h107.993c5.523,0,9.999-4.477,9.999-9.999V95.067C137.992,89.545,133.515,85.067,127.992,85.067z"/>
<path style="fill:#4DBAF6;" d="M446.004,192.758V22.155c0-6.706,5.436-12.141,12.141-12.141h31.715
	c6.706,0,12.141,5.436,12.141,12.141v170.603H446.004z"/>
<path style="fill:#FFB954;" d="M502.001,64.012V22.156c0-6.706-5.436-12.141-12.141-12.141h-31.715
	c-6.706,0-12.141,5.436-12.141,12.141v41.855H502.001z"/>
<polygon style="fill:#D8D8E4;" points="474.002,255.32 446.004,192.758 502.001,192.758 "/>
<path d="M431.391,317.78l-70.131-14.52c-7.57-1.567-13.064-8.315-13.064-16.048c0-5.522-4.477-9.999-9.999-9.999
	s-9.999,4.478-9.999,9.999c0,5.629,1.319,11.019,3.675,15.851h-85.023c2.352-4.828,3.669-10.213,3.669-15.836
	c0-5.522-4.477-9.999-9.999-9.999s-9.999,4.478-9.999,9.999c0,7.442-5.099,13.96-12.232,15.836H99.778
	c-15.298,0-27.743,12.445-27.743,27.743v171.179c0,5.522,4.477,9.999,9.999,9.999H501.97c5.523,0,9.999-4.478,9.999-9.999V416.75
	c0-23.177-8.059-45.839-22.692-63.812C474.644,334.964,454.087,322.479,431.391,317.78z M139.992,491.986v-45.997
	c0-5.522-4.477-9.999-9.999-9.999s-9.999,4.478-9.999,9.999v45.997H92.033v-161.18c0-4.271,3.475-7.745,7.745-7.745h248.417
	c4.271,0,7.745,3.475,7.745,7.745v161.179H139.992V491.986z M491.97,491.986H375.938v-161.18c0-1.41-0.107-2.795-0.311-4.15
	l51.71,10.706c37.451,7.756,64.633,41.142,64.633,79.387V491.986z"/>
<path d="M289.357,287.157c45.212,0,81.995-36.783,81.995-81.995v-4.365v-75.345v-1.122c0-0.353-0.019-0.701-0.055-1.044
	c-0.664-25.393-12.917-47.939-31.668-62.54c1.947-1.825,3.17-4.412,3.17-7.29c0-29.468-23.974-53.441-53.441-53.441
	c-29.468,0-53.442,23.974-53.442,53.441c0,2.878,1.223,5.465,3.17,7.29c-18.751,14.601-31.004,37.146-31.668,62.54
	c-0.036,0.343-0.055,0.692-0.055,1.044v76.467v4.365C207.361,250.374,244.144,287.157,289.357,287.157z M289.356,267.158
	c-27.093,0-50.168-17.477-58.581-41.743c0.409,0.02,0.821,0.031,1.236,0.031h42.696c5.483,0,10.551-1.801,14.649-4.84
	c4.099,3.039,9.167,4.84,14.65,4.84h42.696c0.414,0,0.826-0.011,1.235-0.031C339.524,249.681,316.45,267.158,289.356,267.158z
	 M346.703,174.02c2.564,0,4.65,2.087,4.65,4.651v22.126c0,2.564-2.086,4.65-4.65,4.65h-42.696c-2.564,0-4.651-2.086-4.651-4.65
	v-22.126c0-2.564,2.086-4.651,4.651-4.651H346.703z M274.707,174.02c2.564,0,4.65,2.087,4.65,4.651v22.126
	c0,2.564-2.086,4.65-4.65,4.65h-42.696c-2.564,0-4.651-2.086-4.651-4.65v-22.126c0-2.564,2.086-4.651,4.651-4.651H274.707z
	 M289.357,20.014c17.462,0,31.832,13.455,33.309,30.541c-10.186-4.548-21.452-7.099-33.309-7.099l0,0
	c-11.856,0-23.123,2.55-33.309,7.099C257.524,33.469,271.895,20.014,289.357,20.014z M289.357,63.456
	c34.185,0,61.996,27.811,61.996,61.996v5.706c0,12.607-10.256,22.864-22.864,22.864h-21.842c7.684-7.99,13.4-17.996,16.248-29.349
	c1.344-5.356-1.91-10.787-7.267-12.131c-5.36-1.344-10.788,1.91-12.132,7.267c-5.053,20.145-23.088,34.214-43.856,34.214h-2.156
	h-7.262c-12.607,0-22.864-10.256-22.864-22.864v-5.706C227.36,91.267,255.173,63.456,289.357,63.456z"/>
<path d="M223.986,372.682c-19.211,0-34.841,15.63-34.841,34.842c0,19.211,15.63,34.841,34.841,34.841s34.841-15.63,34.841-34.841
	C258.827,388.312,243.197,372.682,223.986,372.682z M223.986,422.366c-8.185,0-14.842-6.658-14.842-14.842
	c0-8.184,6.659-14.843,14.842-14.843s14.842,6.659,14.842,14.843C238.829,415.708,232.171,422.366,223.986,422.366z"/>
<path d="M147.991,231.059v-22.057c0-5.522-4.477-9.999-9.999-9.999s-9.999,4.478-9.999,9.999v22.057H19.999V95.067h107.993v27.173
	c0,5.522,4.477,9.999,9.999,9.999s9.999-4.478,9.999-9.999V95.067c0-11.027-8.971-19.999-19.999-19.999H19.999
	C8.971,75.068,0,84.039,0,95.067v135.992c0,11.027,8.971,19.999,19.999,19.999h107.993
	C139.02,251.057,147.991,242.087,147.991,231.059z"/>
<path d="M137.992,153.065c-2.63,0-5.21,1.061-7.07,2.931c-1.86,1.859-2.93,4.439-2.93,7.069s1.07,5.21,2.93,7.07
	c1.86,1.86,4.44,2.93,7.07,2.93c2.63,0,5.21-1.069,7.07-2.93c1.86-1.861,2.93-4.44,2.93-7.07s-1.07-5.21-2.93-7.069
	C143.201,154.126,140.621,153.065,137.992,153.065z"/>
<path d="M489.86,0.016h-31.715c-12.208,0-22.141,9.932-22.141,22.141v170.602c0,1.408,0.297,2.8,0.873,4.085l27.998,62.562
	c1.61,3.599,5.185,5.915,9.126,5.915c3.942,0,7.517-2.316,9.126-5.915l27.998-62.562c0.575-1.285,0.873-2.677,0.873-4.085V22.155
	C512,9.947,502.069,0.016,489.86,0.016z M456.003,182.758V74.011h35.998v108.747H456.003z M458.145,20.014h31.715
	c1.181,0,2.142,0.961,2.142,2.142v31.856h-35.998V22.155C456.003,20.975,456.964,20.014,458.145,20.014z M474.002,230.841
	l-12.568-28.084h25.136L474.002,230.841z"/>
<path d="M129.992,397.521c-2.63,0-5.21,1.069-7.07,2.93c-1.86,1.859-2.93,4.439-2.93,7.07c0,2.64,1.07,5.21,2.93,7.069
	c1.86,1.87,4.44,2.931,7.07,2.931c2.63,0,5.21-1.061,7.07-2.931c1.86-1.859,2.93-4.439,2.93-7.069c0-2.631-1.07-5.211-2.93-7.07
	C135.202,398.59,132.622,397.521,129.992,397.521z"/>
<g>
</g>
<g>
</g>
<g>
</g>
<g>
</g>
<g>
</g>
<g>
</g>
<g>
</g>
<g>
</g>
<g>
</g>
<g>
</g>
<g>
</g>
<g>
</g>
<g>
</g>
<g>
</g>
<g>
</g>
</svg>
