<?xml version="1.0" encoding="UTF-8" standalone="no"?>
<!-- Created with Inkscape (http://www.inkscape.org/) -->

<svg
   class="navbar-brand-item"
   preserveAspectRatio="xMinYMid"
   width="455"
   height="100"
   viewBox="0 0 454.99999 100"
   version="1.1"
   id="svg10"
   sodipodi:docname="logo.svg"
   inkscape:version="1.1 (1:1.1+202105261517+ce6663b3b7)"
   xmlns:inkscape="http://www.inkscape.org/namespaces/inkscape"
   xmlns:sodipodi="http://sodipodi.sourceforge.net/DTD/sodipodi-0.dtd"
   xmlns="http://www.w3.org/2000/svg"
   xmlns:svg="http://www.w3.org/2000/svg"
   xmlns:rdf="http://www.w3.org/1999/02/22-rdf-syntax-ns#"
   xmlns:cc="http://creativecommons.org/ns#"
   xmlns:dc="http://purl.org/dc/elements/1.1/">
  <metadata
     id="metadata16">
    <rdf:RDF>
      <cc:Work
         rdf:about="">
        <dc:format>image/svg+xml</dc:format>
        <dc:type
           rdf:resource="http://purl.org/dc/dcmitype/StillImage" />
        <dc:title />
      </cc:Work>
    </rdf:RDF>
  </metadata>
  <defs
     id="defs14" />
  <sodipodi:namedview
     pagecolor="#ffffff"
     bordercolor="#666666"
     borderopacity="1"
     objecttolerance="10"
     gridtolerance="10"
     guidetolerance="10"
     inkscape:pageopacity="0"
     inkscape:pageshadow="2"
     inkscape:window-width="2560"
     inkscape:window-height="1355"
     id="namedview12"
     showgrid="false"
     inkscape:pagecheckerboard="true"
     inkscape:zoom="2.9032967"
     inkscape:cx="227.5"
     inkscape:cy="50.115443"
     inkscape:window-x="0"
     inkscape:window-y="0"
     inkscape:window-maximized="1"
     inkscape:current-layer="svg10" />
  <g
     id="g1942"
     transform="matrix(3.9370079,0,0,3.9370079,-114.14981,-496.26083)">
    <ellipse
       style="opacity:1;fill:#86be43;fill-opacity:1;stroke:none;stroke-width:1.14764464;stroke-miterlimit:4;stroke-dasharray:none;stroke-opacity:1"
       id="path1393-5"
       cx="41.531094"
       cy="138.80809"
       rx="10.953006"
       ry="11.169896" />
    <path
       inkscape:connector-curvature="0"
       id="path1374-2-6-7"
       d="m 41.694052,126.05025 c -7.001497,0 -12.7,5.6985 -12.7,12.7 0,7.0015 5.698503,12.7 12.7,12.7 7.001497,0 12.700001,-5.6985 12.700001,-12.7 0,-7.0015 -5.698504,-12.7 -12.700001,-12.7 z m 0,2.11659 c 5.85755,0 10.583408,4.72586 10.583408,10.58341 0,5.85755 -4.725858,10.58341 -10.583408,10.58341 -5.85755,0 -10.583408,-4.72586 -10.583408,-10.58341 0,-5.85755 4.725858,-10.58341 10.583408,-10.58341 z"
       style="color:#000000;font-style:normal;font-variant:normal;font-weight:normal;font-stretch:normal;font-size:medium;line-height:normal;font-family:sans-serif;font-variant-ligatures:normal;font-variant-position:normal;font-variant-caps:normal;font-variant-numeric:normal;font-variant-alternates:normal;font-feature-settings:normal;text-indent:0;text-align:start;text-decoration:none;text-decoration-line:none;text-decoration-style:solid;text-decoration-color:#000000;letter-spacing:normal;word-spacing:normal;text-transform:none;writing-mode:lr-tb;direction:ltr;text-orientation:mixed;dominant-baseline:auto;baseline-shift:baseline;text-anchor:start;white-space:normal;shape-padding:0;clip-rule:nonzero;display:inline;overflow:visible;visibility:visible;opacity:1;isolation:auto;mix-blend-mode:normal;color-interpolation:sRGB;color-interpolation-filters:linearRGB;solid-color:#000000;solid-opacity:1;vector-effect:none;fill:#ffffff;fill-opacity:1;fill-rule:nonzero;stroke:none;stroke-width:2.11669564;stroke-linecap:butt;stroke-linejoin:miter;stroke-miterlimit:4;stroke-dasharray:none;stroke-dashoffset:0;stroke-opacity:1;color-rendering:auto;image-rendering:auto;shape-rendering:auto;text-rendering:auto;enable-background:accumulate" />
    <path
       style="color:#000000;font-style:normal;font-variant:normal;font-weight:normal;font-stretch:normal;font-size:medium;line-height:normal;font-family:sans-serif;font-variant-ligatures:normal;font-variant-position:normal;font-variant-caps:normal;font-variant-numeric:normal;font-variant-alternates:normal;font-feature-settings:normal;text-indent:0;text-align:start;text-decoration:none;text-decoration-line:none;text-decoration-style:solid;text-decoration-color:#000000;letter-spacing:normal;word-spacing:normal;text-transform:none;writing-mode:lr-tb;direction:ltr;text-orientation:mixed;dominant-baseline:auto;baseline-shift:baseline;text-anchor:start;white-space:normal;shape-padding:0;clip-rule:nonzero;display:inline;overflow:visible;visibility:visible;opacity:1;isolation:auto;mix-blend-mode:normal;color-interpolation:sRGB;color-interpolation-filters:linearRGB;solid-color:#000000;solid-opacity:1;vector-effect:none;fill:#ffffff;fill-opacity:1;fill-rule:nonzero;stroke:none;stroke-width:1.95385087;stroke-linecap:butt;stroke-linejoin:miter;stroke-miterlimit:4;stroke-dasharray:none;stroke-dashoffset:0;stroke-opacity:1;color-rendering:auto;image-rendering:auto;shape-rendering:auto;text-rendering:auto;enable-background:accumulate"
       d="m 34.855604,132.40021 v 8.79232 c 0,2.1466 1.761109,3.90771 3.907702,3.90771 h 5.861553 c 2.146592,0 3.907701,-1.76111 3.907701,-3.90771 v -4.88462 c 0,-1.60705 -1.323724,-2.93078 -2.930776,-2.93078 -0.750762,0 -1.432835,0.29675 -1.953851,0.76847 -0.521016,-0.47172 -1.203089,-0.76847 -1.953851,-0.76847 -1.607051,0 -2.930776,1.32373 -2.930776,2.93078 v 4.88462 h 1.953851 v -4.88462 c 0,-0.55112 0.425813,-0.97693 0.976925,-0.97693 0.551113,0 0.976926,0.42581 0.976926,0.97693 v 4.88462 h 1.953851 v -4.88462 c 0,-0.55112 0.425813,-0.97693 0.976925,-0.97693 0.551112,0 0.976925,0.42581 0.976925,0.97693 v 4.88462 c 0,1.09066 -0.863197,1.95386 -1.95385,1.95386 h -5.861553 c -1.090654,0 -1.953851,-0.8632 -1.953851,-1.95386 v -8.79232 z"
       id="path4193-1-9-4"
       inkscape:connector-curvature="0" />
  </g>
  <g
     aria-label="linuxmint"
     id="text2004"
     style="font-size:80.0509px;line-height:125%;font-family:Ubuntu;-inkscape-font-specification:'Ubuntu, Normal';letter-spacing:0px;word-spacing:0px;stroke-width:0.750474px">
    <path
       d="m 128.98053,78.819918 q -6.88438,-0.160102 -9.76621,-2.961883 -2.88183,-2.801782 -2.88183,-8.725549 V 17.180723 l 7.44473,-1.280815 v 50.031815 q 0,1.841171 0.3202,3.041934 0.32021,1.200764 1.04067,1.921222 0.72045,0.720458 1.92122,1.120712 1.20076,0.320204 2.96188,0.560357 z"
       style="fill:#ffffff"
       id="path1326" />
    <path
       d="m 145.79112,78.019409 h -7.44473 v -41.62647 h 7.44473 z m -3.76239,-49.151254 q -2.00127,0 -3.44219,-1.280815 -1.36086,-1.360865 -1.36086,-3.602291 0,-2.241425 1.36086,-3.522239 1.44092,-1.360866 3.44219,-1.360866 2.00127,0 3.36214,1.360866 1.44092,1.280814 1.44092,3.522239 0,2.241426 -1.44092,3.602291 -1.36087,1.280815 -3.36214,1.280815 z"
       style="fill:#ffffff"
       id="path1328" />
    <path
       d="m 158.59914,37.593703 q 2.56163,-0.640407 6.80432,-1.360865 4.2427,-0.720458 9.76621,-0.720458 4.96316,0 8.24525,1.440916 3.28208,1.360865 5.20331,3.922494 2.00127,2.481578 2.80178,6.003818 0.80051,3.52224 0.80051,7.764937 v 23.374864 h -7.44474 V 56.245563 q 0,-3.842443 -0.56035,-6.564174 -0.48031,-2.72173 -1.68107,-4.402799 -1.20077,-1.681069 -3.20204,-2.401527 -2.00127,-0.800509 -4.96316,-0.800509 -1.20076,0 -2.48157,0.08005 -1.28082,0.08005 -2.48158,0.240153 -1.12071,0.08005 -2.08132,0.240153 -0.88056,0.160102 -1.28082,0.240153 v 35.142346 h -7.44473 z"
       style="fill:#ffffff"
       id="path1330" />
    <path
       d="m 237.68938,76.818646 q -2.56163,0.640407 -6.80433,1.360865 -4.16264,0.720458 -9.68616,0.720458 -4.80305,0 -8.08514,-1.360865 -3.28208,-1.440917 -5.28336,-4.002545 -2.00127,-2.561629 -2.88183,-6.003818 -0.88056,-3.52224 -0.88056,-7.764938 V 36.392939 h 7.44473 v 21.773846 q 0,7.604836 2.40153,10.886923 2.40153,3.282087 8.08514,3.282087 1.20077,0 2.48158,-0.08005 1.28082,-0.08005 2.40153,-0.160102 1.12071,-0.160101 2.00127,-0.240152 0.96061,-0.160102 1.36087,-0.320204 V 36.392939 h 7.44473 z"
       style="fill:#ffffff"
       id="path1332" />
    <path
       d="m 275.3933,78.019409 q -0.88056,-1.76112 -2.16137,-3.922494 -1.28082,-2.161374 -2.80178,-4.4028 -1.52097,-2.321476 -3.12199,-4.562901 -1.60102,-2.241426 -3.12198,-4.242698 -1.52097,2.001272 -3.12199,4.322749 -1.60102,2.241425 -3.12198,4.562901 -1.44092,2.241425 -2.72174,4.4028 -1.28081,2.161374 -2.16137,3.842443 h -7.68489 q 2.80179,-5.443461 6.64423,-11.047024 3.92249,-5.683615 7.76494,-10.806872 L 246.01462,36.392939 h 8.40535 l 9.92631,14.569265 10.00636,-14.569265 h 7.92504 l -13.44855,19.292268 q 3.84244,5.203309 7.84499,11.047025 4.08259,5.763665 6.88437,11.287177 z"
       style="fill:#ffffff"
       id="path1334" />
    <path
       d="m 291.40346,37.593703 q 2.56163,-0.640407 6.72428,-1.360865 4.2427,-0.720458 9.76621,-0.720458 4.00254,0 6.72427,1.120712 2.72173,1.040662 4.56291,3.121985 0.56035,-0.400254 1.76112,-1.120712 1.20076,-0.720458 2.96188,-1.360866 1.76112,-0.720458 3.92249,-1.200763 2.16138,-0.560356 4.64296,-0.560356 4.80305,0 7.84498,1.440916 3.04194,1.360865 4.72301,3.922494 1.76112,2.561629 2.32147,6.083869 0.64041,3.522239 0.64041,7.684886 v 23.374864 h -7.44473 V 56.245563 q 0,-3.682341 -0.40026,-6.324021 -0.3202,-2.64168 -1.36086,-4.4028 -0.96061,-1.761119 -2.72173,-2.561628 -1.68107,-0.88056 -4.4028,-0.88056 -3.7624,0 -6.24397,1.040661 -2.40153,0.960611 -3.28209,1.76112 0.64041,2.081324 0.96061,4.562902 0.3202,2.481578 0.3202,5.203308 v 23.374864 h -7.44473 V 56.245563 q 0,-3.682341 -0.40026,-6.324021 -0.40025,-2.64168 -1.44091,-4.4028 -0.96061,-1.761119 -2.72173,-2.561628 -1.68107,-0.88056 -4.32275,-0.88056 -1.12071,0 -2.40153,0.08005 -1.28081,0.08005 -2.48158,0.240153 -1.12071,0.08005 -2.08132,0.240153 -0.96061,0.160102 -1.28081,0.240153 v 35.142346 h -7.44474 z"
       style="fill:#ffffff"
       id="path1336" />
    <path
       d="m 367.77189,78.019409 h -7.44474 v -41.62647 h 7.44474 z m -3.7624,-49.151254 q -2.00127,0 -3.44218,-1.280815 -1.36087,-1.360865 -1.36087,-3.602291 0,-2.241425 1.36087,-3.522239 1.44091,-1.360866 3.44218,-1.360866 2.00128,0 3.36214,1.360866 1.44092,1.280814 1.44092,3.522239 0,2.241426 -1.44092,3.602291 -1.36086,1.280815 -3.36214,1.280815 z"
       style="fill:#ffffff"
       id="path1338" />
    <path
       d="m 380.5799,37.593703 q 2.56163,-0.640407 6.80433,-1.360865 4.24269,-0.720458 9.76621,-0.720458 4.96315,0 8.24524,1.440916 3.28209,1.360865 5.20331,3.922494 2.00127,2.481578 2.80178,6.003818 0.80051,3.52224 0.80051,7.764937 v 23.374864 h -7.44474 V 56.245563 q 0,-3.842443 -0.56035,-6.564174 -0.48031,-2.72173 -1.68107,-4.402799 -1.20076,-1.681069 -3.20204,-2.401527 -2.00127,-0.800509 -4.96315,-0.800509 -1.20077,0 -2.48158,0.08005 -1.28082,0.08005 -2.48158,0.240153 -1.12071,0.08005 -2.08132,0.240153 -0.88056,0.160102 -1.28082,0.240153 v 35.142346 h -7.44473 z"
       style="fill:#ffffff"
       id="path1340" />
    <path
       d="m 433.49349,36.392939 h 15.77002 v 6.243971 h -15.77002 v 19.212217 q 0,3.121985 0.4803,5.203308 0.48031,2.001273 1.44092,3.202037 0.96061,1.120712 2.40152,1.601018 1.44092,0.480305 3.36214,0.480305 3.36214,0 5.36341,-0.720458 2.08133,-0.800509 2.88184,-1.120713 l 1.44091,6.16392 q -1.12071,0.560356 -3.92249,1.360865 -2.80178,0.88056 -6.40407,0.88056 -4.2427,0 -7.04448,-1.040662 -2.72174,-1.120712 -4.4028,-3.282087 -1.68107,-2.161374 -2.40153,-5.283359 -0.64041,-3.202036 -0.64041,-7.364683 v -37.14362 l 7.44474,-1.280814 z"
       style="fill:#ffffff"
       id="path1342" />
  </g>
</svg>
