<?xml version="1.0" encoding="UTF-8"?>
<svg width="1280" height="256" version="1.1" viewBox="0 0 1280 256" xmlns="http://www.w3.org/2000/svg">
 <title>LinuxMint logo</title>
 <g transform="translate(-80,-88)">
  <g fill="#fff" stroke-linecap="round" stroke-width="0" aria-label="linuxmint">
   <path d="m417.75 300.35q-19.35-0.45-27.45-8.325t-8.1-24.525v-140.4l20.925-3.6v140.62q0 5.175 0.9 8.55t2.925 5.4 5.4 3.15q3.375 0.9 8.325 1.575z"/>
   <path d="m459 298.1h-20.925v-117h20.925zm-10.575-138.15q-5.625 0-9.675-3.6-3.825-3.825-3.825-10.125t3.825-9.9q4.05-3.825 9.675-3.825t9.45 3.825q4.05 3.6 4.05 9.9t-4.05 10.125q-3.825 3.6-9.45 3.6z"/>
   <path d="m489 184.48q7.2-1.8 19.125-3.825t27.45-2.025q13.95 0 23.175 4.05 9.225 3.825 14.625 11.025 5.625 6.975 7.875 16.875t2.25 21.825v65.7h-20.925v-61.2q0-10.8-1.575-18.45-1.35-7.65-4.725-12.375t-9-6.75q-5.625-2.25-13.95-2.25-3.375 0-6.975 0.225t-6.975 0.675q-3.15 0.225-5.85 0.675-2.475 0.45-3.6 0.675v98.775h-20.925z"/>
   <path d="m703.3 294.73q-7.2 1.8-19.125 3.825-11.7 2.025-27.225 2.025-13.5 0-22.725-3.825-9.225-4.05-14.85-11.25t-8.1-16.875q-2.475-9.9-2.475-21.825v-65.7h20.925v61.2q0 21.375 6.75 30.6t22.725 9.225q3.375 0 6.975-0.225t6.75-0.45q3.15-0.45 5.625-0.675 2.7-0.45 3.825-0.9v-98.775h20.925z"/>
   <path d="m802.27 298.1q-2.475-4.95-6.075-11.025t-7.875-12.375q-4.275-6.525-8.775-12.825t-8.775-11.925q-4.275 5.625-8.775 12.15-4.5 6.3-8.775 12.825-4.05 6.3-7.65 12.375t-6.075 10.8h-21.6q7.875-15.3 18.675-31.05 11.025-15.975 21.825-30.375l-38.7-55.575h23.625l27.9 40.95 28.125-40.95h22.275l-37.8 54.225q10.8 14.625 22.05 31.05 11.475 16.2 19.35 31.725z"/>
   <path d="m841.27 184.48q7.2-1.8 18.9-3.825 11.925-2.025 27.45-2.025 11.25 0 18.9 3.15 7.65 2.925 12.825 8.775 1.575-1.125 4.95-3.15t8.325-3.825q4.95-2.025 11.025-3.375 6.075-1.575 13.05-1.575 13.5 0 22.05 4.05 8.55 3.825 13.275 11.025 4.95 7.2 6.525 17.1 1.8 9.9 1.8 21.6v65.7h-20.925v-61.2q0-10.35-1.125-17.775-0.9-7.425-3.825-12.375-2.7-4.95-7.65-7.2-4.725-2.475-12.375-2.475-10.575 0-17.55 2.925-6.75 2.7-9.225 4.95 1.8 5.85 2.7 12.825t0.9 14.625v65.7h-20.925v-61.2q0-10.35-1.125-17.775t-4.05-12.375q-2.7-4.95-7.65-7.2-4.725-2.475-12.15-2.475-3.15 0-6.75 0.225t-6.975 0.675q-3.15 0.225-5.85 0.675t-3.6 0.675v98.775h-20.925z"/>
   <path d="m1049.9 298.1h-20.925v-117h20.925zm-10.575-138.15q-5.625 0-9.675-3.6-3.825-3.825-3.825-10.125t3.825-9.9q4.05-3.825 9.675-3.825t9.45 3.825q4.05 3.6 4.05 9.9t-4.05 10.125q-3.825 3.6-9.45 3.6z"/>
   <path d="m1079.9 184.48q7.2-1.8 19.125-3.825t27.45-2.025q13.95 0 23.175 4.05 9.225 3.825 14.625 11.025 5.625 6.975 7.875 16.875t2.25 21.825v65.7h-20.925v-61.2q0-10.8-1.575-18.45-1.35-7.65-4.725-12.375t-9-6.75q-5.625-2.25-13.95-2.25-3.375 0-6.975 0.225t-6.975 0.675q-3.15 0.225-5.85 0.675-2.475 0.45-3.6 0.675v98.775h-20.925z"/>
   <path d="m1221.6 181.1h44.325v17.55h-44.325v54q0 8.775 1.35 14.625 1.35 5.625 4.05 9 2.7 3.15 6.75 4.5t9.45 1.35q9.45 0 15.075-2.025 5.85-2.25 8.1-3.15l4.05 17.325q-3.15 1.575-11.025 3.825-7.875 2.475-18 2.475-11.925 0-19.8-2.925-7.65-3.15-12.375-9.225t-6.75-14.85q-1.8-9-1.8-20.7v-104.4l20.925-3.6z"/>
  </g>
  <g transform="matrix(.83117 0 0 .83117 34.286 35.636)" fill="none" stroke="#fff">
   <path d="m136 138v108c0 19.882 16.118 36 36 36h72c19.882 0 36-16.118 36-36v-60c0-13.255-10.745-24-24-24s-24 10.745-24 24v60-60c0-13.255-10.745-24-24-24s-24 10.745-24 24v60" color="#000000" color-rendering="auto" image-rendering="auto" shape-rendering="auto" solid-color="#000000" stroke-width="24" style="isolation:auto;mix-blend-mode:normal"/>
   <circle cx="209" cy="217" r="142" stroke-linecap="round" stroke-width="24"/>
  </g>
 </g>
</svg>
