<?xml version="1.0" encoding="UTF-8" standalone="no"?>
<!-- Created with Inkscape (http://www.inkscape.org/) -->

<svg
   class="navbar-brand-item"
   preserveAspectRatio="xMinYMid"
   width="455"
   height="100"
   viewBox="0 0 454.99999 100"
   version="1.1"
   id="svg10"
   sodipodi:docname="logo2-name-mono.svg"
   inkscape:version="1.1 (1:1.1+202105261517+ce6663b3b7)"
   xmlns:inkscape="http://www.inkscape.org/namespaces/inkscape"
   xmlns:sodipodi="http://sodipodi.sourceforge.net/DTD/sodipodi-0.dtd"
   xmlns="http://www.w3.org/2000/svg"
   xmlns:svg="http://www.w3.org/2000/svg"
   xmlns:rdf="http://www.w3.org/1999/02/22-rdf-syntax-ns#"
   xmlns:cc="http://creativecommons.org/ns#"
   xmlns:dc="http://purl.org/dc/elements/1.1/">
  <metadata
     id="metadata16">
    <rdf:RDF>
      <cc:Work
         rdf:about="">
        <dc:format>image/svg+xml</dc:format>
        <dc:type
           rdf:resource="http://purl.org/dc/dcmitype/StillImage" />
      </cc:Work>
    </rdf:RDF>
  </metadata>
  <defs
     id="defs14" />
  <sodipodi:namedview
     pagecolor="#cccccc"
     bordercolor="#666666"
     borderopacity="1"
     objecttolerance="10"
     gridtolerance="10"
     guidetolerance="10"
     inkscape:pageopacity="0"
     inkscape:pageshadow="2"
     inkscape:window-width="2560"
     inkscape:window-height="1415"
     id="namedview12"
     showgrid="false"
     inkscape:pagecheckerboard="false"
     inkscape:zoom="2.4043956"
     inkscape:cx="218.14214"
     inkscape:cy="50.116545"
     inkscape:window-x="2560"
     inkscape:window-y="0"
     inkscape:window-maximized="1"
     inkscape:current-layer="svg10"
     showguides="false">
    <sodipodi:guide
       position="1.7770108e-06,17.969015"
       orientation="0,455"
       id="guide1215" />
  </sodipodi:namedview>
  <g
     id="g1942"
     transform="matrix(3.9370079,0,0,3.9370079,-114.14981,-496.26083)">
    <path
       id="path833"
       style="fill:#ffffff;fill-opacity:1;stroke:none;stroke-width:0;stroke-linecap:round"
       d="m 41.661883,126.05026 a 12.7,12.7 0 0 0 -6.41705,1.75939 v 13.91718 c 0,1.44 1.139687,2.57968 2.579687,2.57968 h 7.739063 c 1.44,0 2.579688,-1.13968 2.579688,-2.57968 v -6.44922 c 0,-0.72764 -0.562206,-1.28985 -1.289844,-1.28985 -0.727639,0 -1.289844,0.56221 -1.289844,1.28985 v 6.44922 h -2.579688 v -6.44922 c 0,-0.72764 -0.562205,-1.28985 -1.289843,-1.28985 -0.727639,0 -1.289844,0.56221 -1.289844,1.28985 v 6.44922 H 37.82452 v -6.44922 c 0,-2.12181 1.747727,-3.86953 3.869532,-3.86953 0.991238,0 1.891785,0.39185 2.579687,1.01466 0.687903,-0.62281 1.58845,-1.01466 2.579688,-1.01466 2.121805,0 3.869531,1.74772 3.869531,3.86953 v 6.44922 c 0,2.83416 -2.325208,5.15937 -5.159375,5.15937 H 37.82452 c -2.834166,0 -5.159375,-2.32521 -5.159375,-5.15937 v -11.908 a 12.7,12.7 0 0 0 -3.671093,8.93143 12.7,12.7 0 0 0 12.7,12.7 12.7,12.7 0 0 0 12.7,-12.7 12.7,12.7 0 0 0 -12.7,-12.7 12.7,12.7 0 0 0 -0.03217,0 z" />
  </g>
  <g
     aria-label="linuxmint"
     id="text2004"
     style="font-size:80.0509px;line-height:125%;font-family:Ubuntu;-inkscape-font-specification:'Ubuntu, Normal';letter-spacing:0px;word-spacing:0px;stroke-width:0.750474px">
    <path
       d="M 128.64804,81.419985 Q 121.76366,81.259884 118.88183,78.458102 116,75.65632 116,69.732553 V 19.78079 l 7.44473,-1.280815 V 68.53179 q 0,1.841171 0.32021,3.041934 0.3202,1.200764 1.04066,1.921222 0.72046,0.720458 1.92122,1.120713 1.20076,0.320203 2.96188,0.560356 z"
       style="fill:#ffffff"
       id="path1156" />
    <path
       d="M 145.45864,80.619476 H 138.0139 V 38.993007 h 7.44474 z m -3.7624,-49.151254 q -2.00127,0 -3.44219,-1.280815 -1.36086,-1.360865 -1.36086,-3.60229 0,-2.241426 1.36086,-3.52224 1.44092,-1.360866 3.44219,-1.360866 2.00128,0 3.36214,1.360866 1.44092,1.280814 1.44092,3.52224 0,2.241425 -1.44092,3.60229 -1.36086,1.280815 -3.36214,1.280815 z"
       style="fill:#ffffff"
       id="path1158" />
    <path
       d="m 158.26665,40.19377 q 2.56163,-0.640407 6.80432,-1.360865 4.2427,-0.720458 9.76621,-0.720458 4.96316,0 8.24525,1.440916 3.28208,1.360865 5.20331,3.922494 2.00127,2.481578 2.80178,6.003818 0.80051,3.52224 0.80051,7.764938 v 23.374863 h -7.44474 V 58.845631 q 0,-3.842444 -0.56035,-6.564174 -0.48031,-2.721731 -1.68107,-4.4028 -1.20077,-1.681069 -3.20204,-2.401527 -2.00127,-0.800509 -4.96315,-0.800509 -1.20077,0 -2.48158,0.08005 -1.28082,0.08005 -2.48158,0.240152 -1.12071,0.08005 -2.08132,0.240153 -0.88056,0.160102 -1.28082,0.240153 v 35.142346 h -7.44473 z"
       style="fill:#ffffff"
       id="path1160" />
    <path
       d="m 237.35689,79.418713 q -2.56163,0.640407 -6.80433,1.360865 -4.16264,0.720458 -9.68616,0.720458 -4.80305,0 -8.08514,-1.360865 -3.28208,-1.440916 -5.28336,-4.002545 -2.00127,-2.561629 -2.88183,-6.003818 -0.88056,-3.52224 -0.88056,-7.764938 V 38.993007 h 7.44474 v 21.773845 q 0,7.604836 2.40152,10.886923 2.40153,3.282087 8.08514,3.282087 1.20077,0 2.48158,-0.08005 1.28082,-0.08005 2.40153,-0.160102 1.12071,-0.160101 2.00127,-0.240152 0.96061,-0.160102 1.36087,-0.320204 V 38.993007 h 7.44473 z"
       style="fill:#ffffff"
       id="path1162" />
    <path
       d="m 275.06081,80.619476 q -0.88056,-1.76112 -2.16137,-3.922494 -1.28082,-2.161374 -2.80178,-4.4028 -1.52097,-2.321476 -3.12199,-4.562901 -1.60102,-2.241425 -3.12198,-4.242698 -1.52097,2.001273 -3.12199,4.322749 -1.60102,2.241425 -3.12198,4.562901 -1.44092,2.241426 -2.72173,4.4028 -1.28082,2.161374 -2.16138,3.842443 h -7.68489 q 2.80179,-5.443461 6.64423,-11.047024 3.92249,-5.683614 7.76494,-10.806872 L 245.68213,38.993007 h 8.40535 l 9.92631,14.569264 10.00636,-14.569264 h 7.92504 l -13.44855,19.292267 q 3.84244,5.203309 7.84499,11.047025 4.08259,5.763665 6.88438,11.287177 z"
       style="fill:#ffffff"
       id="path1164" />
    <path
       d="m 291.07097,40.19377 q 2.56163,-0.640407 6.72428,-1.360865 4.2427,-0.720458 9.76621,-0.720458 4.00254,0 6.72427,1.120712 2.72174,1.040662 4.56291,3.121986 0.56035,-0.400255 1.76112,-1.120713 1.20076,-0.720458 2.96188,-1.360865 1.76112,-0.720459 3.92249,-1.200764 2.16138,-0.560356 4.64296,-0.560356 4.80305,0 7.84498,1.440916 3.04194,1.360865 4.72301,3.922494 1.76112,2.561629 2.32147,6.083869 0.64041,3.52224 0.64041,7.684887 v 23.374863 h -7.44473 V 58.845631 q 0,-3.682342 -0.40026,-6.324022 -0.3202,-2.64168 -1.36086,-4.402799 -0.96061,-1.76112 -2.72173,-2.561629 -1.68107,-0.88056 -4.4028,-0.88056 -3.7624,0 -6.24397,1.040661 -2.40153,0.960611 -3.28209,1.76112 0.64041,2.081324 0.96061,4.562902 0.3202,2.481578 0.3202,5.203309 V 80.619476 H 315.6466 V 58.845631 q 0,-3.682342 -0.40025,-6.324022 -0.40026,-2.64168 -1.44092,-4.402799 -0.96061,-1.76112 -2.72173,-2.561629 -1.68107,-0.88056 -4.32275,-0.88056 -1.12071,0 -2.40153,0.08005 -1.28081,0.08005 -2.48158,0.240152 -1.12071,0.08005 -2.08132,0.240153 -0.96061,0.160102 -1.28081,0.240153 v 35.142346 h -7.44474 z"
       style="fill:#ffffff"
       id="path1166" />
    <path
       d="m 367.4394,80.619476 h -7.44474 V 38.993007 h 7.44474 z m -3.76239,-49.151254 q -2.00128,0 -3.44219,-1.280815 -1.36087,-1.360865 -1.36087,-3.60229 0,-2.241426 1.36087,-3.52224 1.44091,-1.360866 3.44219,-1.360866 2.00127,0 3.36213,1.360866 1.44092,1.280814 1.44092,3.52224 0,2.241425 -1.44092,3.60229 -1.36086,1.280815 -3.36213,1.280815 z"
       style="fill:#ffffff"
       id="path1168" />
    <path
       d="m 380.24741,40.19377 q 2.56163,-0.640407 6.80433,-1.360865 4.24269,-0.720458 9.76621,-0.720458 4.96315,0 8.24524,1.440916 3.28209,1.360865 5.20331,3.922494 2.00127,2.481578 2.80178,6.003818 0.80051,3.52224 0.80051,7.764938 v 23.374863 h -7.44473 V 58.845631 q 0,-3.842444 -0.56036,-6.564174 -0.48031,-2.721731 -1.68107,-4.4028 -1.20076,-1.681069 -3.20204,-2.401527 -2.00127,-0.800509 -4.96315,-0.800509 -1.20077,0 -2.48158,0.08005 -1.28081,0.08005 -2.48158,0.240152 -1.12071,0.08005 -2.08132,0.240153 -0.88056,0.160102 -1.28082,0.240153 v 35.142346 h -7.44473 z"
       style="fill:#ffffff"
       id="path1170" />
    <path
       d="m 433.161,38.993007 h 15.77002 v 6.24397 H 433.161 v 19.212217 q 0,3.121985 0.4803,5.203309 0.48031,2.001272 1.44092,3.202036 0.96061,1.120712 2.40153,1.601018 1.44091,0.480305 3.36213,0.480305 3.36214,0 5.36341,-0.720458 2.08133,-0.800509 2.88184,-1.120713 l 1.44091,6.16392 q -1.12071,0.560356 -3.92249,1.360865 -2.80178,0.88056 -6.40407,0.88056 -4.2427,0 -7.04448,-1.040661 -2.72173,-1.120713 -4.4028,-3.282088 -1.68107,-2.161374 -2.40153,-5.283359 -0.64041,-3.202036 -0.64041,-7.364683 V 27.385626 l 7.44474,-1.280815 z"
       style="fill:#ffffff"
       id="path1172" />
  </g>
</svg>
