<?xml version="1.0" encoding="UTF-8"?>
<!-- Created with Inkscape (http://www.inkscape.org/) -->
<svg width="462" height="96" version="1.1" viewBox="0 0 122.24 25.4" xmlns="http://www.w3.org/2000/svg" xmlns:cc="http://creativecommons.org/ns#" xmlns:dc="http://purl.org/dc/elements/1.1/" xmlns:rdf="http://www.w3.org/1999/02/22-rdf-syntax-ns#">
 <metadata>
  <rdf:RDF>
   <cc:Work rdf:about="">
    <dc:format>image/svg+xml</dc:format>
    <dc:type rdf:resource="http://purl.org/dc/dcmitype/StillImage"/>
   </cc:Work>
  </rdf:RDF>
 </metadata>
 <g transform="translate(0 -271.6)">
  <g fill="#ffffff" stroke-width=".25928" aria-label="Linux Mint">
   <path d="m38.28 289.51v1.5215h-7.5887v-13.376h1.8015v11.854z"/>
   <path d="m41.641 281.58v9.4556h-1.6615v-9.4556zm0.3547-2.9683q0 0.24269-0.10268 0.45737-0.09334 0.20536-0.26136 0.37337-0.15868 0.15868-0.3827 0.25202-0.21469 0.0933-0.45738 0.0933t-0.45738-0.0933q-0.20535-0.0933-0.36403-0.25202-0.15868-0.16801-0.25202-0.37337-0.09334-0.21468-0.09334-0.45737t0.09334-0.45738q0.09334-0.22402 0.25202-0.3827 0.15868-0.16802 0.36403-0.26136 0.21469-0.0933 0.45738-0.0933t0.45738 0.0933q0.22402 0.0933 0.3827 0.26136 0.16802 0.15868 0.26136 0.3827 0.10268 0.21469 0.10268 0.45738z"/>
   <path d="m45.934 282.95q0.30803-0.34537 0.65339-0.62539 0.34536-0.28003 0.72807-0.47605 0.39204-0.20535 0.82141-0.30802 0.43871-0.11201 0.94275-0.11201 0.77474 0 1.3628 0.26135 0.59739 0.25203 0.98943 0.72807 0.40137 0.46671 0.60672 1.1294 0.20535 0.66273 0.20535 1.4655v6.0206h-1.6708v-6.0206q0-1.0734-0.49471-1.6615-0.48538-0.59739-1.4841-0.59739-0.7374 0-1.3815 0.3547-0.63472 0.3547-1.1761 0.96142v6.9633h-1.6708v-9.4556h0.99876q0.3547 0 0.43871 0.34537z"/>
   <path d="m62.559 281.58v9.4556h-0.98942q-0.3547 0-0.44804-0.34537l-0.13068-1.0174q-0.61606 0.6814-1.3815 1.1014-0.7654 0.4107-1.7548 0.4107-0.77474 0-1.3721-0.25202-0.58805-0.26136-0.98942-0.72807-0.40137-0.46671-0.60672-1.1294-0.19602-0.66272-0.19602-1.4655v-6.0299h1.6615v6.0299q0 1.0734 0.48538 1.6615 0.49471 0.58806 1.5028 0.58806 0.7374 0 1.3721-0.34537 0.64406-0.3547 1.1854-0.97075v-6.9633z"/>
   <path d="m72.957 291.03h-1.5961q-0.20535 0-0.3267-0.10268-0.11201-0.11201-0.18668-0.24269l-2.3802-3.7057q-0.03734 0.13068-0.08401 0.26136-0.03734 0.12135-0.11201 0.22402l-2.2029 3.2203q-0.09334 0.13068-0.20535 0.24269-0.10268 0.10268-0.28936 0.10268h-1.4841l3.3136-4.8538-3.183-4.6018h1.5961q0.20535 0 0.29869 0.0653 0.09334 0.0653 0.16802 0.18669l2.3242 3.547q0.07467-0.27069 0.23336-0.52271l2.0349-2.987q0.08401-0.13068 0.17735-0.20535 0.10268-0.084 0.24269-0.084h1.5308l-3.183 4.5178z"/>
   <path d="m93.576 277.66v13.376h-1.5868v-9.8289q0-0.19601 0.0093-0.42003 0.01867-0.22403 0.03734-0.45738l-4.5924 8.3634q-0.21469 0.42004-0.65339 0.42004h-0.26136q-0.43871 0-0.65339-0.42004l-4.6858-8.4008q0.05601 0.49472 0.05601 0.91475v9.8289h-1.5868v-13.376h1.3348q0.24269 0 0.37337 0.0467t0.25202 0.26136l4.6204 8.2328q0.11201 0.22402 0.21469 0.46671 0.11201 0.24269 0.20535 0.49471 0.09334-0.25202 0.19602-0.49471 0.10268-0.25202 0.22402-0.47604l4.5364-8.2234q0.11201-0.21469 0.24269-0.26136 0.14001-0.0467 0.3827-0.0467z"/>
   <path d="m98.215 281.58v9.4556h-1.6615v-9.4556zm0.3547-2.9683q0 0.24269-0.10268 0.45737-0.09334 0.20536-0.26136 0.37337-0.15868 0.15868-0.3827 0.25202-0.21469 0.0933-0.45738 0.0933-0.24269 0-0.45738-0.0933-0.20535-0.0933-0.36403-0.25202-0.15868-0.16801-0.25202-0.37337-0.09334-0.21468-0.09334-0.45737t0.09334-0.45738q0.09334-0.22402 0.25202-0.3827 0.15868-0.16802 0.36403-0.26136 0.21469-0.0933 0.45738-0.0933 0.24269 0 0.45738 0.0933 0.22402 0.0933 0.3827 0.26136 0.16802 0.15868 0.26136 0.3827 0.10268 0.21469 0.10268 0.45738z"/>
   <path d="m102.51 282.95q0.30803-0.34537 0.6534-0.62539 0.34536-0.28003 0.72806-0.47605 0.39204-0.20535 0.82141-0.30802 0.43871-0.11201 0.94276-0.11201 0.77474 0 1.3628 0.26135 0.59739 0.25203 0.98943 0.72807 0.40137 0.46671 0.60672 1.1294t0.20535 1.4655v6.0206h-1.6708v-6.0206q0-1.0734-0.49471-1.6615-0.48538-0.59739-1.4841-0.59739-0.7374 0-1.3815 0.3547-0.63473 0.3547-1.1761 0.96142v6.9633h-1.6708v-9.4556h0.99876q0.35469 0 0.4387 0.34537z"/>
   <path d="m114.13 291.18q-1.1201 0-1.7268-0.62539-0.59739-0.62539-0.59739-1.8015v-5.7872h-1.1388q-0.14935 0-0.25203-0.084-0.10267-0.0933-0.10267-0.28003v-0.66272l1.5495-0.19602 0.38271-2.9216q0.028-0.14001 0.12134-0.22402 0.10268-0.0933 0.26136-0.0933h0.84008v3.2576h2.7349v1.2041h-2.7349v5.6752q0 0.59739 0.28936 0.88675t0.74673 0.28936q0.26136 0 0.44804-0.0653 0.19602-0.0747 0.33603-0.15868 0.14002-0.084 0.23336-0.14935 0.10268-0.0747 0.17735-0.0747 0.13068 0 0.23335 0.15868l0.48538 0.79341q-0.42937 0.40137-1.0361 0.63472-0.60673 0.22402-1.2508 0.22402z"/>
   <path d="m4.6401 276.82v10.391c0 2.5369 2.0813 4.6182 4.6182 4.6182h6.9273c2.5369 0 4.6182-2.0813 4.6182-4.6182v-5.7727c0-1.8992-1.5644-3.4636-3.4636-3.4636-0.88726 0-1.6933 0.35071-2.3091 0.90819-0.61574-0.55748-1.4218-0.90819-2.3091-0.90819-1.8992 0-3.4636 1.5644-3.4636 3.4636v5.7727h2.3091v-5.7727c0-0.65132 0.50323-1.1545 1.1545-1.1545s1.1545 0.50322 1.1545 1.1545v5.7727h2.3091v-5.7727c0-0.65132 0.50323-1.1545 1.1545-1.1545s1.1545 0.50322 1.1545 1.1545v5.7727c0 1.289-1.0201 2.3091-2.3091 2.3091h-6.9273c-1.289 0-2.3091-1.0201-2.3091-2.3091v-10.391z" color="#000000" color-rendering="auto" dominant-baseline="auto" image-rendering="auto" shape-rendering="auto" solid-color="#000000" style="font-feature-settings:normal;font-variant-alternates:normal;font-variant-caps:normal;font-variant-ligatures:normal;font-variant-numeric:normal;font-variant-position:normal;isolation:auto;mix-blend-mode:normal;shape-padding:0;text-decoration-color:#000000;text-decoration-line:none;text-decoration-style:solid;text-indent:0;text-orientation:mixed;text-transform:none;white-space:normal"/>
   <g transform="matrix(.25069 0 0 .25081 .66669 272.27)" stroke="#ffffff" stroke-width="4.2203" style="paint-order:markers fill stroke">
    <path d="m-0.54102-0.53906 0.10352 26.711c0.049349 12.72 0.079963 19.291 0.16211 23.059 0.082147 3.7675 0.22137 4.769 0.48242 6.2324 1.3276 7.4427 3.7697 13.694 7.5234 19.232 8.7027 12.84 22.018 20.546 37.236 21.541 0.86309 0.05645 4.2454 0.10367 9.1328 0.14453 4.8874 0.04086 11.232 0.07176 17.855 0.08203l24.586 0.037111-0.10547-26.689c-0.049328-12.711-0.078013-19.278-0.16016-23.043-0.082144-3.7653-0.22138-4.7671-0.48242-6.2305-0.95409-5.3487-1.9989-8.7105-4.0762-13.125-4.6796-9.9445-12.736-18.088-22.625-22.867-4.7533-2.2972-8.0158-3.3347-13.629-4.3379-1.4646-0.26175-2.4601-0.40241-6.2246-0.48438s-10.336-0.11168-23.068-0.16016zm1.0039 1.0039 25.703 0.097656c12.732 0.048476 19.307 0.078631 23.051 0.16016 3.7442 0.081526 4.6199 0.20954 6.0703 0.46875 5.5625 0.99413 8.6719 1.9829 13.371 4.2539 9.6796 4.678 17.573 12.658 22.154 22.393 2.0494 4.3551 3.0493 7.5783 3.9941 12.875 0.25844 1.4488 0.38705 2.3311 0.46875 6.0762 0.0817 3.7451 0.11278 10.315 0.16211 23.025l0.099609 25.686-23.58-0.037109c-6.6214-0.01027-12.963-0.0412-17.848-0.08203-4.8843-0.04084-8.358-0.09561-9.0762-0.14258-14.922-0.97589-27.933-8.5011-36.475-21.104-3.6709-5.4162-6.0578-11.518-7.3652-18.848-0.25845-1.4489-0.38704-2.3308-0.46875-6.0781-0.081706-3.7473-0.11276-10.321-0.16211-23.041z" color="#000000" fill="#ffffff" stroke="#ffffff" stroke-width="4.2203" style="paint-order:markers fill stroke"/>
   </g>
  </g>
 </g>
</svg>
