<?xml version="1.0" encoding="UTF-8" standalone="no"?>
<!-- Created with Inkscape (http://www.inkscape.org/) -->

<svg
   width="462"
   height="96"
   viewBox="0 0 122.23742 25.400001"
   version="1.1"
   id="svg8"
   inkscape:version="1.1 (c68e22c387, 2021-05-23)"
   sodipodi:docname="linuxmint-logo.svg"
   xmlns:inkscape="http://www.inkscape.org/namespaces/inkscape"
   xmlns:sodipodi="http://sodipodi.sourceforge.net/DTD/sodipodi-0.dtd"
   xmlns="http://www.w3.org/2000/svg"
   xmlns:svg="http://www.w3.org/2000/svg"
   xmlns:rdf="http://www.w3.org/1999/02/22-rdf-syntax-ns#"
   xmlns:cc="http://creativecommons.org/ns#"
   xmlns:dc="http://purl.org/dc/elements/1.1/">
  <defs
     id="defs2" />
  <sodipodi:namedview
     id="base"
     pagecolor="#ffffff"
     bordercolor="#666666"
     borderopacity="1.0"
     inkscape:pageopacity="0.0"
     inkscape:pageshadow="2"
     inkscape:zoom="2"
     inkscape:cx="250.25"
     inkscape:cy="59.75"
     inkscape:document-units="px"
     inkscape:current-layer="text2643"
     showgrid="false"
     inkscape:pagecheckerboard="true"
     units="px"
     inkscape:window-width="1920"
     inkscape:window-height="1052"
     inkscape:window-x="0"
     inkscape:window-y="0"
     inkscape:window-maximized="1"
     width="97px" />
  <metadata
     id="metadata5">
    <rdf:RDF>
      <cc:Work
         rdf:about="">
        <dc:format>image/svg+xml</dc:format>
        <dc:type
           rdf:resource="http://purl.org/dc/dcmitype/StillImage" />
      </cc:Work>
    </rdf:RDF>
  </metadata>
  <g
     inkscape:label="Calque 1"
     inkscape:groupmode="layer"
     id="layer1"
     transform="translate(0,-271.59998)">
    <g
       transform="matrix(0.27272728,0,0,0.27272728,-6.1234151e-8,215.99998)"
       id="layer1-0"
       inkscape:label="Calque 1"
       style="stroke:none">
      <path
         id="path1374-6"
         style="opacity:1;fill:#4caf50;fill-opacity:1;stroke:none;stroke-width:6.1257"
         d="m 93.133331,250.43332 c -2e-6,12.86027 0,46.56667 0,46.56667 L 2.2452521e-7,203.86666 c 0,0 35.29371477547479,-1e-5 46.56666577547479,-1e-5 25.718061,0 46.566668,20.84861 46.566665,46.56667 z"
         sodipodi:nodetypes="sccss" />
      <g
         style="stroke:none;stroke-opacity:1"
         id="layer3"
         inkscape:label="Layer 1"
         transform="matrix(0.26458333,0,0,0.26458333,-4.2333326,195.39998)" />
      <path
         id="path1139"
         style="opacity:1;fill:#388e3c;fill-opacity:1;stroke:none;stroke-width:6.1257"
         d="m 2.2452554e-7,250.43332 c 1.99999996e-6,-12.86027 0,-46.56667 0,-46.56667 L 93.133331,296.99998 c 0,0 -35.293715,1e-5 -46.566666,1e-5 C 20.848604,296.99999 -2.7754745e-6,276.15138 2.2452554e-7,250.43332 Z"
         sodipodi:nodetypes="sccss" />
    </g>
    <path
       inkscape:connector-curvature="0"
       id="path4193"
       d="m 4.6181819,276.79543 v 10.3909 c 0,2.53688 2.0813056,4.61819 4.6181818,4.61819 h 6.9272723 c 2.536877,0 4.618182,-2.0813 4.618182,-4.61819 v -5.77272 c 0,-1.89924 -1.564398,-3.46364 -3.463636,-3.46364 -0.887262,0 -1.693346,0.35071 -2.309091,0.90819 -0.615745,-0.55748 -1.421829,-0.90819 -2.309091,-0.90819 -1.899238,0 -3.4636363,1.5644 -3.4636363,3.46364 v 5.77272 h 2.3090913 v -5.77272 c 0,-0.65132 0.503232,-1.15454 1.154545,-1.15454 0.651313,0 1.154545,0.50322 1.154545,1.15454 v 5.77272 h 2.309091 v -5.77272 c 0,-0.65132 0.503233,-1.15454 1.154546,-1.15454 0.651313,0 1.154545,0.50322 1.154545,1.15454 v 5.77272 c 0,1.28896 -1.02014,2.3091 -2.309091,2.3091 H 9.2363637 c -1.2889511,0 -2.3090909,-1.02014 -2.3090909,-2.3091 v -10.3909 z"
       style="color:#000000;font-style:normal;font-variant:normal;font-weight:normal;font-stretch:normal;font-size:medium;line-height:normal;font-family:sans-serif;font-variant-ligatures:normal;font-variant-position:normal;font-variant-caps:normal;font-variant-numeric:normal;font-variant-alternates:normal;font-feature-settings:normal;text-indent:0;text-align:start;text-decoration:none;text-decoration-line:none;text-decoration-style:solid;text-decoration-color:#000000;letter-spacing:normal;word-spacing:normal;text-transform:none;writing-mode:lr-tb;direction:ltr;text-orientation:mixed;dominant-baseline:auto;baseline-shift:baseline;text-anchor:start;white-space:normal;shape-padding:0;clip-rule:nonzero;display:inline;overflow:visible;visibility:visible;opacity:1;isolation:auto;mix-blend-mode:normal;color-interpolation:sRGB;color-interpolation-filters:linearRGB;solid-color:#000000;solid-opacity:1;vector-effect:none;fill:#fafafa;fill-opacity:1;fill-rule:nonzero;stroke:none;stroke-width:2.30909;stroke-linecap:butt;stroke-linejoin:miter;stroke-miterlimit:4;stroke-dasharray:none;stroke-dashoffset:0;stroke-opacity:1;color-rendering:auto;image-rendering:auto;shape-rendering:auto;text-rendering:auto;enable-background:accumulate" />
    <g
       aria-label="Linux Mint"
       id="text2643"
       style="font-size:18.6684px;line-height:1.25;font-family:Lato;-inkscape-font-specification:Lato;fill:#212121;stroke-width:0.259282">
      <path
         d="m 38.280365,289.51313 v 1.52148 H 30.69166 V 277.6587 h 1.801501 v 11.85443 z"
         id="path829"
         style="fill:#ffffff;fill-opacity:1" />
      <path
         d="m 41.640645,281.57906 v 9.45555 h -1.661487 v -9.45555 z m 0.3547,-2.96827 q 0,0.24269 -0.102676,0.45737 -0.09334,0.20536 -0.261358,0.37337 -0.158681,0.15868 -0.382702,0.25202 -0.214687,0.0933 -0.457376,0.0933 -0.242689,0 -0.457376,-0.0933 -0.205352,-0.0933 -0.364033,-0.25202 -0.158682,-0.16801 -0.252024,-0.37337 -0.09334,-0.21468 -0.09334,-0.45737 0,-0.24269 0.09334,-0.45738 0.09334,-0.22402 0.252024,-0.3827 0.158681,-0.16802 0.364033,-0.26136 0.214687,-0.0933 0.457376,-0.0933 0.242689,0 0.457376,0.0933 0.224021,0.0933 0.382702,0.26136 0.168016,0.15868 0.261358,0.3827 0.102676,0.21469 0.102676,0.45738 z"
         id="path831"
         style="fill:#ffffff;fill-opacity:1" />
      <path
         d="m 45.934373,282.95119 q 0.308028,-0.34537 0.653394,-0.62539 0.345365,-0.28003 0.728067,-0.47605 0.392037,-0.20535 0.82141,-0.30802 0.438707,-0.11201 0.942754,-0.11201 0.774739,0 1.362793,0.26135 0.597389,0.25203 0.989426,0.72807 0.40137,0.46671 0.606723,1.12944 0.205352,0.66273 0.205352,1.46547 v 6.02056 H 50.57347 v -6.02056 q 0,-1.07343 -0.494712,-1.66149 -0.485379,-0.59739 -1.484138,-0.59739 -0.737402,0 -1.381462,0.3547 -0.634725,0.3547 -1.176109,0.96142 v 6.96332 h -1.670822 v -9.45555 h 0.99876 q 0.354699,0 0.438707,0.34537 z"
         id="path833"
         style="fill:#ffffff;fill-opacity:1" />
      <path
         d="m 62.558557,281.57906 v 9.45555 h -0.989425 q -0.354699,0 -0.448041,-0.34537 l -0.130679,-1.01743 q -0.616057,0.6814 -1.381462,1.10144 -0.765404,0.4107 -1.754829,0.4107 -0.774739,0 -1.372128,-0.25202 -0.588054,-0.26136 -0.989425,-0.72807 -0.40137,-0.46671 -0.606723,-1.12944 -0.196018,-0.66272 -0.196018,-1.46546 v -6.0299 h 1.661488 v 6.0299 q 0,1.07343 0.485378,1.66148 0.494712,0.58806 1.502806,0.58806 0.737402,0 1.372127,-0.34537 0.64406,-0.3547 1.185444,-0.97075 v -6.96332 z"
         id="path835"
         style="fill:#ffffff;fill-opacity:1" />
      <path
         d="m 72.956837,291.03461 h -1.596148 q -0.205353,0 -0.326697,-0.10268 -0.112011,-0.11201 -0.186684,-0.24269 l -2.380221,-3.70568 q -0.03734,0.13068 -0.08401,0.26136 -0.03734,0.12135 -0.11201,0.22402 l -2.202872,3.2203 q -0.09334,0.13068 -0.205352,0.24269 -0.102676,0.10268 -0.28936,0.10268 h -1.484138 l 3.313641,-4.85379 -3.182962,-4.60176 h 1.596148 q 0.205352,0 0.298694,0.0653 0.09334,0.0653 0.168016,0.18669 l 2.324216,3.54699 q 0.07467,-0.27069 0.233355,-0.52271 l 2.034855,-2.98695 q 0.08401,-0.13068 0.17735,-0.20535 0.102676,-0.084 0.242689,-0.084 h 1.530809 l -3.182962,4.51776 z"
         id="path837"
         style="fill:#ffffff;fill-opacity:1" />
      <path
         d="m 93.576043,277.6587 v 13.37591 h -1.586814 v -9.82892 q 0,-0.19601 0.0093,-0.42003 0.01867,-0.22403 0.03734,-0.45738 l -4.592427,8.36344 q -0.214686,0.42004 -0.653394,0.42004 h -0.261357 q -0.438708,0 -0.653394,-0.42004 l -4.685769,-8.40078 q 0.05601,0.49472 0.05601,0.91475 v 9.82892 H 79.658751 V 277.6587 h 1.33479 q 0.242689,0 0.373368,0.0467 0.130679,0.0467 0.252024,0.26136 l 4.620429,8.23276 q 0.11201,0.22402 0.214686,0.46671 0.112011,0.24269 0.205353,0.49471 0.09334,-0.25202 0.196018,-0.49471 0.102676,-0.25202 0.224021,-0.47604 l 4.536421,-8.22343 q 0.11201,-0.21469 0.242689,-0.26136 0.140013,-0.0467 0.382702,-0.0467 z"
         id="path839"
         style="fill:#ffffff;fill-opacity:1" />
      <path
         d="m 98.215098,281.57906 v 9.45555 H 96.55361 v -9.45555 z m 0.354699,-2.96827 q 0,0.24269 -0.102676,0.45737 -0.09334,0.20536 -0.261357,0.37337 -0.158682,0.15868 -0.382703,0.25202 -0.214686,0.0933 -0.457375,0.0933 -0.24269,0 -0.457376,-0.0933 -0.205353,-0.0933 -0.364034,-0.25202 -0.158681,-0.16801 -0.252023,-0.37337 -0.09334,-0.21468 -0.09334,-0.45737 0,-0.24269 0.09334,-0.45738 0.09334,-0.22402 0.252023,-0.3827 0.158681,-0.16802 0.364034,-0.26136 0.214686,-0.0933 0.457376,-0.0933 0.242689,0 0.457375,0.0933 0.224021,0.0933 0.382703,0.26136 0.168015,0.15868 0.261357,0.3827 0.102676,0.21469 0.102676,0.45738 z"
         id="path841"
         style="fill:#ffffff;fill-opacity:1" />
      <path
         d="m 102.50882,282.95119 q 0.30803,-0.34537 0.6534,-0.62539 0.34536,-0.28003 0.72806,-0.47605 0.39204,-0.20535 0.82141,-0.30802 0.43871,-0.11201 0.94276,-0.11201 0.77474,0 1.36279,0.26135 0.59739,0.25203 0.98943,0.72807 0.40137,0.46671 0.60672,1.12944 0.20535,0.66273 0.20535,1.46547 v 6.02056 h -1.67082 v -6.02056 q 0,-1.07343 -0.49471,-1.66149 -0.48538,-0.59739 -1.48414,-0.59739 -0.7374,0 -1.38146,0.3547 -0.63473,0.3547 -1.17611,0.96142 v 6.96332 h -1.67082 v -9.45555 h 0.99876 q 0.35469,0 0.4387,0.34537 z"
         id="path843"
         style="fill:#ffffff;fill-opacity:1" />
      <path
         d="m 114.12984,291.18395 q -1.1201,0 -1.72682,-0.62539 -0.59739,-0.62539 -0.59739,-1.8015 v -5.7872 h -1.13877 q -0.14935,0 -0.25203,-0.084 -0.10267,-0.0933 -0.10267,-0.28003 v -0.66272 l 1.54947,-0.19602 0.38271,-2.92161 q 0.028,-0.14001 0.12134,-0.22402 0.10268,-0.0933 0.26136,-0.0933 h 0.84008 v 3.25764 h 2.73492 v 1.20411 h -2.73492 v 5.67519 q 0,0.59739 0.28936,0.88675 0.28936,0.28936 0.74673,0.28936 0.26136,0 0.44804,-0.0653 0.19602,-0.0747 0.33603,-0.15868 0.14002,-0.084 0.23336,-0.14935 0.10268,-0.0747 0.17735,-0.0747 0.13068,0 0.23335,0.15868 l 0.48538,0.79341 q -0.42937,0.40137 -1.03609,0.63472 -0.60673,0.22402 -1.25079,0.22402 z"
         id="path845"
         style="fill:#ffffff;fill-opacity:1" />
    </g>
  </g>
</svg>
