<?xml version="1.0" encoding="UTF-8"?>
<svg width="1240" height="256" version="1.1" viewBox="0 0 1240 256" xmlns="http://www.w3.org/2000/svg">
 <title>LinuxMint logo</title>
 <circle cx="128" cy="128" r="128" fill="#fff"/>
 <path d="m127.68 0a128 128 0 0 0-64.676 17.732v140.27c0 14.513 11.487 26 26 26h78c14.513 0 26-11.487 26-26v-65c0-7.3337-5.6663-13-13-13s-13 5.6663-13 13v65h-26v-65c0-7.3337-5.6663-13-13-13s-13 5.6663-13 13v65h-26v-65c0-21.385 17.615-39 39-39 9.9904 0 19.067 3.9494 26 10.227 6.9332-6.2772 16.01-10.227 26-10.227 21.385 0 39 17.615 39 39v65c0 28.565-23.435 52-52 52h-78c-28.565 0-52-23.435-52-52v-120.02a128 128 0 0 0-37 90.018 128 128 0 0 0 128 128 128 128 0 0 0 128-128 128 128 0 0 0-128-128 128 128 0 0 0-0.32422 0z" fill="#00b894"/>
 <g fill="#fff" stroke-linecap="round" aria-label="LinuxMint">
  <path d="m304 210v-155.25h18.9v138.15h75.6v17.1z"/>
  <path d="m413 71.175v-21.15h19.8v21.15zm0.9 138.82v-117h18v117z"/>
  <path d="m459.9 210v-117h63q33.75 0 33.75 33.75v83.25h-18v-85.5q0-15.75-15.75-15.75h-45v101.25z"/>
  <path d="m582.85 176.25v-83.25h18v85.5q0 15.75 15.75 15.75h45v-101.25h18v117h-63q-33.75 0-33.75-33.75z"/>
  <path d="m696.35 206.62 41.4-56.25-39.825-54 1.575-3.375h16.65l31.95 44.325 31.95-44.325h16.65l1.575 3.375-39.6 54 41.175 56.25-1.575 3.375h-16.65l-33.525-46.575-33.525 46.575h-16.65z"/>
  <path d="m818.85 210v-155.25h24.975l51.975 110.25 51.75-110.25h24.975v155.25h-18.9v-126.9l-49.05 104.4h-17.775l-49.05-104.4v126.9z"/>
  <path d="m1001.9 71.175v-21.15h19.8v21.15zm0.9 138.82v-117h18v117z"/>
  <path d="m1048.8 210v-117h63q33.75 0 33.75 33.75v83.25h-18v-85.5q0-15.75-15.75-15.75h-45v101.25z"/>
  <path d="m1171.7 176.25v-121.5h18v38.25h42.75v15.75h-42.75v69.75q0 15.75 15.75 15.75h29.25v9l-9 6.75h-20.25q-33.75 0-33.75-33.75z"/>
 </g>
</svg>
