<?xml version="1.0" encoding="UTF-8" standalone="no"?>
<!-- Created with Inkscape (http://www.inkscape.org/) -->

<svg
   class="navbar-brand-item"
   preserveAspectRatio="xMinYMid"
   width="455"
   height="100"
   viewBox="0 0 454.99999 100"
   version="1.1"
   id="svg10"
   sodipodi:docname="logo2-name-mono.svg"
   inkscape:version="1.1 (1:1.1+202105261517+ce6663b3b7)"
   xmlns:inkscape="http://www.inkscape.org/namespaces/inkscape"
   xmlns:sodipodi="http://sodipodi.sourceforge.net/DTD/sodipodi-0.dtd"
   xmlns="http://www.w3.org/2000/svg"
   xmlns:svg="http://www.w3.org/2000/svg"
   xmlns:rdf="http://www.w3.org/1999/02/22-rdf-syntax-ns#"
   xmlns:cc="http://creativecommons.org/ns#"
   xmlns:dc="http://purl.org/dc/elements/1.1/">
  <metadata
     id="metadata16">
    <rdf:RDF>
      <cc:Work
         rdf:about="">
        <dc:format>image/svg+xml</dc:format>
        <dc:type
           rdf:resource="http://purl.org/dc/dcmitype/StillImage" />
      </cc:Work>
    </rdf:RDF>
  </metadata>
  <defs
     id="defs14" />
  <sodipodi:namedview
     pagecolor="#cccccc"
     bordercolor="#666666"
     borderopacity="1"
     objecttolerance="10"
     gridtolerance="10"
     guidetolerance="10"
     inkscape:pageopacity="0"
     inkscape:pageshadow="2"
     inkscape:window-width="2560"
     inkscape:window-height="1415"
     id="namedview12"
     showgrid="false"
     inkscape:pagecheckerboard="false"
     inkscape:zoom="2.4043956"
     inkscape:cx="227.5"
     inkscape:cy="50.116545"
     inkscape:window-x="2560"
     inkscape:window-y="0"
     inkscape:window-maximized="1"
     inkscape:current-layer="svg10"
     showguides="false">
    <sodipodi:guide
       position="1.7770108e-06,17.969015"
       orientation="0,455"
       id="guide1215" />
  </sodipodi:namedview>
  <g
     id="g1942"
     transform="matrix(3.9370079,0,0,3.9370079,-114.14981,-496.26083)">
    <path
       id="path833"
       style="fill:#ffffff;fill-opacity:1;stroke:none;stroke-width:0;stroke-linecap:round"
       d="m 41.661883,126.05026 a 12.7,12.7 0 0 0 -6.41705,1.75939 v 13.91718 c 0,1.44 1.139687,2.57968 2.579687,2.57968 h 7.739063 c 1.44,0 2.579688,-1.13968 2.579688,-2.57968 v -6.44922 c 0,-0.72764 -0.562206,-1.28985 -1.289844,-1.28985 -0.727639,0 -1.289844,0.56221 -1.289844,1.28985 v 6.44922 h -2.579688 v -6.44922 c 0,-0.72764 -0.562205,-1.28985 -1.289843,-1.28985 -0.727639,0 -1.289844,0.56221 -1.289844,1.28985 v 6.44922 H 37.82452 v -6.44922 c 0,-2.12181 1.747727,-3.86953 3.869532,-3.86953 0.991238,0 1.891785,0.39185 2.579687,1.01466 0.687903,-0.62281 1.58845,-1.01466 2.579688,-1.01466 2.121805,0 3.869531,1.74772 3.869531,3.86953 v 6.44922 c 0,2.83416 -2.325208,5.15937 -5.159375,5.15937 H 37.82452 c -2.834166,0 -5.159375,-2.32521 -5.159375,-5.15937 v -11.908 a 12.7,12.7 0 0 0 -3.671093,8.93143 12.7,12.7 0 0 0 12.7,12.7 12.7,12.7 0 0 0 12.7,-12.7 12.7,12.7 0 0 0 -12.7,-12.7 12.7,12.7 0 0 0 -0.03217,0 z" />
  </g>
  <g
     id="g1959"
     transform="matrix(5.757733,0,0,5.757733,133.20905,-821.02574)">
    <text
       id="text2004"
       y="156.81107"
       x="-4.0155602"
       style="font-style:normal;font-variant:normal;font-weight:normal;font-stretch:normal;font-size:13.9032px;line-height:125%;font-family:Ubuntu;-inkscape-font-specification:'Ubuntu, Normal';font-variant-ligatures:normal;font-variant-caps:normal;font-variant-numeric:normal;font-feature-settings:normal;text-align:start;letter-spacing:0px;word-spacing:0px;writing-mode:lr-tb;text-anchor:start;fill:#000000;fill-opacity:1;stroke:none;stroke-width:0.130342px;stroke-linecap:butt;stroke-linejoin:miter;stroke-opacity:1"
       xml:space="preserve"><tspan
         style="font-style:normal;font-variant:normal;font-weight:normal;font-stretch:normal;font-size:13.9032px;font-family:Ubuntu;-inkscape-font-specification:'Ubuntu, Normal';font-variant-ligatures:normal;font-variant-caps:normal;font-variant-numeric:normal;font-feature-settings:normal;text-align:start;writing-mode:lr-tb;text-anchor:start;fill:#ffffff;stroke-width:0.130342px"
         y="156.81107"
         x="-4.0155602"
         id="tspan2002"
         sodipodi:role="line">linuxmint</tspan></text>
  </g>
</svg>
