<?xml version="1.0" encoding="UTF-8" standalone="no"?>
<svg
   xmlns:dc="http://purl.org/dc/elements/1.1/"
   xmlns:cc="http://creativecommons.org/ns#"
   xmlns:rdf="http://www.w3.org/1999/02/22-rdf-syntax-ns#"
   xmlns:svg="http://www.w3.org/2000/svg"
   xmlns="http://www.w3.org/2000/svg"
   xmlns:xlink="http://www.w3.org/1999/xlink"
   xmlns:sodipodi="http://sodipodi.sourceforge.net/DTD/sodipodi-0.dtd"
   xmlns:inkscape="http://www.inkscape.org/namespaces/inkscape"
   width="2500"
   height="788"
   viewBox="0.015 0.019 221.964 69.966"
   version="1.1"
   id="svg105"
   sodipodi:docname="duckduckgo.svg"
   inkscape:version="0.92.5 (2060ec1f9f, 2020-04-08)">
  <metadata
     id="metadata111">
    <rdf:RDF>
      <cc:Work
         rdf:about="">
        <dc:format>image/svg+xml</dc:format>
        <dc:type
           rdf:resource="http://purl.org/dc/dcmitype/StillImage" />
        <dc:title></dc:title>
      </cc:Work>
    </rdf:RDF>
  </metadata>
  <defs
     id="defs109" />
  <sodipodi:namedview
     pagecolor="#ffffff"
     bordercolor="#666666"
     borderopacity="1"
     objecttolerance="10"
     gridtolerance="10"
     guidetolerance="10"
     inkscape:pageopacity="0"
     inkscape:pageshadow="2"
     inkscape:window-width="856"
     inkscape:window-height="480"
     id="namedview107"
     showgrid="false"
     inkscape:zoom="0.1484"
     inkscape:cx="1250"
     inkscape:cy="394"
     inkscape:window-x="0"
     inkscape:window-y="0"
     inkscape:window-maximized="0"
     inkscape:current-layer="svg105" />
  <path
     d="M1.563 34.645c0-18.392 14.907-33.298 33.3-33.298 18.39 0 33.302 14.906 33.302 33.298 0 18.39-14.912 33.3-33.302 33.3-18.393 0-33.3-14.91-33.3-33.3"
     fill="#ec2027"
     id="path2" />
  <g
     transform="matrix(.21929 0 0 -.2193 -42.509 129.2)"
     id="g26">
    <defs
       id="defs5">
      <path
         id="a"
         d="M200.977 431.179c0 83.871 67.979 151.845 151.849 151.845 83.865 0 151.866-67.975 151.866-151.845 0-83.86-68.001-151.848-151.866-151.848-83.87 0-151.849 67.988-151.849 151.848" />
    </defs>
    <clipPath
       id="b">
      <use
         xlink:href="#a"
         overflow="visible"
         id="use7" />
    </clipPath>
    <g
       clip-path="url(#b)"
       id="g24">
      <path
         d="M404.479 225.273c-4.707 21.616-32.001 70.562-42.351 91.261-10.34 20.699-20.703 49.873-15.996 68.701.846 3.42-8.969 29.512-6.137 31.351 21.955 14.335 27.753-1.559 36.553 4.863 4.538 3.322 10.661-2.73 12.247 2.765 5.643 19.755-7.847 54.181-22.895 69.233-4.907 4.91-12.447 7.985-20.957 9.626-3.26 4.471-8.533 8.764-15.996 12.728-8.341 4.431-26.426 10.283-35.818 11.841-6.498 1.066-7.958-.753-10.732-1.211 2.583-.225 14.865-6.295 17.265-6.651-2.4-1.612-9.428.076-13.903-1.935-2.263-1.018-3.95-4.901-3.941-6.733 12.826 1.292 32.83.036 44.64-5.222-9.405-1.066-23.7-2.255-29.85-5.495-17.875-9.421-25.758-31.414-21.064-57.766 4.721-26.337 25.419-122.323 32.006-154.315 6.591-32.001-14.121-52.7-27.285-58.338l14.122-.949-4.716-10.354c16.936-1.875 35.76 3.759 35.76 3.759-3.768-10.345-29.169-14.117-29.169-14.117s12.233-3.754 31.988 3.771a11802.003 11802.003 0 0 1 31.988 12.229l9.419-24.458 17.884 17.871 7.526-18.82c-.002.001 14.106 4.709 9.412 26.365"
         fill="#cccdce"
         id="path10" />
      <path
         d="M408.607 229.396c-4.698 21.634-31.993 70.58-42.351 91.279-10.35 20.699-20.699 49.877-15.996 68.688.864 3.416.882 17.408 3.718 19.265 21.959 14.335 20.401.477 29.2 6.903 4.538 3.309 8.167 7.316 9.744 12.819 5.656 19.761-7.833 54.181-22.89 69.242-4.903 4.901-12.438 7.984-20.939 9.61-3.282 4.485-8.555 8.778-16.019 12.743-14.068 7.479-31.511 10.458-47.668 7.526 2.587-.241 8.497-5.578 10.884-5.934-3.607-2.44-13.19-2.126-13.133-7.553 12.834 1.278 26.894-.753 38.722-6.003-9.405-1.066-18.156-3.389-24.311-6.631-17.88-9.405-22.587-28.225-17.88-54.583 4.703-26.354 25.415-122.327 31.993-154.32 6.582-31.992-14.112-52.691-27.29-58.338l14.121-.939-4.703-10.372c16.927-1.861 35.76 3.776 35.76 3.776-3.768-10.363-29.183-14.108-29.183-14.108s12.233-3.776 32.006 3.772c19.759 7.521 31.992 12.215 31.992 12.215l9.406-24.458 17.875 17.875 7.539-18.82c.002.001 14.11 4.713 9.403 26.346"
         fill="#fff"
         id="path12" />
      <path
         d="M300.419 445.46c0 5.453 4.426 9.884 9.895 9.884 5.456 0 9.869-4.431 9.869-9.884 0-5.471-4.413-9.886-9.869-9.886-5.469 0-9.895 4.416-9.895 9.886"
         fill="#0071bc"
         id="path14" />
      <path
         d="M312.131 448.754a2.566 2.566 0 1 0 5.135 0 2.579 2.579 0 0 0-2.574-2.57 2.57 2.57 0 0 0-2.561 2.57"
         fill="#fff"
         id="path16" />
      <path
         d="M367.877 451.326c0 4.676 3.808 8.483 8.492 8.483 4.694 0 8.488-3.808 8.488-8.483 0-4.705-3.794-8.506-8.488-8.506-4.684 0-8.492 3.801-8.492 8.506"
         fill="#0071bc"
         id="path18" />
      <path
         d="M377.942 454.14c0 1.218.989 2.202 2.2 2.202a2.19 2.19 0 0 0 2.196-2.202 2.184 2.184 0 0 0-2.196-2.193c-1.211 0-2.2.977-2.2 2.193"
         fill="#fff"
         id="path20" />
      <path
         d="M313.115 474.102s-7.451 3.364-14.683-1.183-6.974-9.2-6.974-9.2-3.843 8.572 6.413 12.761c10.252 4.21 15.244-2.378 15.244-2.378M381.482 474.772s-5.353 3.062-9.503 3.015c-8.537-.116-10.871-3.89-10.871-3.89s1.438 8.989 12.362 7.192c5.906-.984 8.012-6.317 8.012-6.317"
         fill="#188dcd"
         id="path22" />
    </g>
  </g>
  <path
     d="M2.488 34.902c0-18.025 14.608-32.632 32.63-32.632s32.636 14.607 32.636 32.632c0 18.021-14.612 32.634-32.635 32.634S2.488 52.923 2.488 34.902z"
     fill="none"
     stroke="#fff"
     stroke-width="4.540545"
     id="path28" />
  <path
     d="M31.743 39.834c.219-1.328 3.651-3.842 6.081-3.994 2.435-.152 3.194-.118 5.225-.603 2.03-.487 7.268-1.79 8.717-2.46 1.45-.67 7.595.333 3.263 2.747-1.876 1.05-6.928 2.977-10.536 4.053-3.607 1.079-5.792-1.03-6.992.743-.952 1.41-.194 3.34 4.114 3.741 5.819.54 11.4-2.619 12.013-.942.618 1.677-5.001 3.774-8.422 3.841-3.418.065-10.31-2.26-11.34-2.978-1.03-.72-2.41-2.397-2.123-4.148"
     fill="#fdd204"
     id="path30" />
  <g
     transform="matrix(.21929 0 0 -.2193 -42.509 129.2)"
     id="g51">
    <defs
       id="defs33">
      <path
         id="c"
         d="M347.152 332.338s-36.143 19.278-36.744 11.458c-.61-7.833 0-39.759 4.213-42.177 4.222-2.409 34.344 15.658 34.344 15.658l-1.813 15.061z" />
    </defs>
    <clipPath
       id="d">
      <use
         xlink:href="#c"
         overflow="visible"
         id="use35" />
    </clipPath>
    <g
       clip-path="url(#d)"
       id="g49">
      <linearGradient
         id="e"
         gradientUnits="userSpaceOnUse"
         x1="-5821.397"
         y1="-5893.699"
         x2="-5820.397"
         y2="-5893.699"
         gradientTransform="matrix(8.4986 0 0 -8.4986 49783.7 -49764.602)">
        <stop
           offset="0"
           stop-color="#b4d66f"
           id="stop38" />
        <stop
           offset=".691"
           stop-color="#0db14b"
           id="stop40" />
        <stop
           offset=".691"
           stop-color="#0db14b"
           id="stop42" />
        <stop
           offset="1"
           stop-color="#0db14b"
           id="stop44" />
      </linearGradient>
      <path
         d="M347.152 332.338s-36.143 19.278-36.744 11.458c-.61-7.833 0-39.759 4.213-42.177 4.222-2.409 34.344 15.658 34.344 15.658l-1.813 15.061z"
         fill="url(#e)"
         id="path47" />
    </g>
  </g>
  <g
     transform="matrix(.21929 0 0 -.2193 -42.509 129.2)"
     id="g72">
    <defs
       id="defs54">
      <path
         id="f"
         d="M361.007 333.554s24.707 18.677 30.126 17.47c5.424-1.211 6.626-39.759 1.799-41.584-4.818-1.795-33.088 9.788-33.088 9.788l1.163 14.326z" />
    </defs>
    <clipPath
       id="g">
      <use
         xlink:href="#f"
         overflow="visible"
         id="use56" />
    </clipPath>
    <g
       clip-path="url(#g)"
       id="g70">
      <linearGradient
         id="h"
         gradientUnits="userSpaceOnUse"
         x1="-5809.239"
         y1="-5883.399"
         x2="-5808.239"
         y2="-5883.399"
         gradientTransform="matrix(7.9189 0 0 -7.9189 46362.352 -46259.723)">
        <stop
           offset="0"
           stop-color="#b4d66f"
           id="stop59" />
        <stop
           offset=".691"
           stop-color="#0db14b"
           id="stop61" />
        <stop
           offset=".691"
           stop-color="#0db14b"
           id="stop63" />
        <stop
           offset="1"
           stop-color="#0db14b"
           id="stop65" />
      </linearGradient>
      <path
         d="M361.007 333.554s24.707 18.677 30.126 17.47c5.424-1.211 6.626-39.759 1.799-41.584-4.818-1.795-33.088 9.788-33.088 9.788l1.163 14.326z"
         fill="url(#h)"
         id="path68" />
    </g>
  </g>
  <g
     transform="matrix(.21929 0 0 -.2193 -42.509 129.2)"
     id="g89">
    <defs
       id="defs75">
      <path
         id="i"
         d="M339.925 332.338c0-12.638-1.803-18.071 3.616-19.273 5.424-1.207 15.658 0 19.278 2.409 3.612 2.414.597 18.668-.605 21.696-1.207 3.002-22.289.588-22.289-4.832" />
    </defs>
    <clipPath
       id="j">
      <use
         xlink:href="#i"
         overflow="visible"
         id="use77" />
    </clipPath>
    <g
       clip-path="url(#j)"
       id="g87">
      <linearGradient
         id="k"
         gradientUnits="userSpaceOnUse"
         x1="-5728.952"
         y1="-5815.366"
         x2="-5727.952"
         y2="-5815.366"
         gradientTransform="matrix(5.46 0 0 -5.46 31619.586 -31426.344)">
        <stop
           offset="0"
           stop-color="#73c063"
           id="stop80" />
        <stop
           offset="1"
           stop-color="#0db14b"
           id="stop82" />
      </linearGradient>
      <path
         d="M339.925 332.338c0-12.638-1.803-18.071 3.616-19.273 5.424-1.207 15.658 0 19.278 2.409 3.612 2.414.597 18.668-.605 21.696-1.207 3.002-22.289.588-22.289-4.832"
         fill="url(#k)"
         id="path85" />
    </g>
  </g>
  <path
     d="M1.7 35.001c0-18.39 14.909-33.3 33.297-33.3s33.3 14.908 33.3 33.3c0 18.39-14.911 33.3-33.3 33.3S1.7 53.393 1.7 35z"
     fill="none"
     stroke="#ec2027"
     stroke-width="3.39834568"
     id="path91" />
  <g
     stroke-width=".609"
     id="g103">
    <path
       d="M91.993 37.874c0 1.878.189 3.287.566 4.22.379.936.95 1.665 1.718 2.187.767.522 1.722.783 2.867.783s2.097-.26 2.856-.783c.76-.522 1.328-1.245 1.706-2.168.378-.924.567-2.295.567-4.118V31.51h-1.549v6.174c0 1.653-.075 2.735-.226 3.244a3.509 3.509 0 0 1-1.217 1.807c-.588.458-1.303.686-2.146.686s-1.569-.235-2.178-.706-1.021-1.108-1.238-1.92c-.145-.567-.216-1.604-.216-3.11v-6.175h-1.508v6.365h-.002zM115.741 32.61c-.503-.429-1.117-.776-1.84-1.043a6.44 6.44 0 0 0-2.251-.4c-1.238 0-2.357.307-3.357.923-1.001.615-1.787 1.472-2.36 2.568s-.858 2.286-.858 3.565c0 1.903.612 3.52 1.835 4.848 1.224 1.327 2.764 1.991 4.622 1.991 1.209 0 2.287-.261 3.233-.785a5.922 5.922 0 0 0 2.262-2.206l-1.199-.887c-1.093 1.545-2.501 2.316-4.226 2.316-.942 0-1.792-.234-2.55-.704-.758-.47-1.355-1.129-1.79-1.98a5.882 5.882 0 0 1-.651-2.718c0-1.48.472-2.74 1.417-3.776.946-1.035 2.133-1.553 3.564-1.553 1.79 0 3.202.773 4.236 2.316l1.199-.837c-.354-.662-.782-1.209-1.286-1.638zM119.91 44.721h1.507v-5.933l5.892 5.933h2.154l-6.836-6.907 6.452-6.306h-2.214l-5.448 5.323V26.41h-1.506v18.31zM138.698 44.721c1.98 0 3.518-.323 4.615-.971 1.098-.647 1.991-1.651 2.678-3.01.687-1.36 1.032-2.934 1.032-4.722 0-2.073-.434-3.858-1.301-5.355-.867-1.498-2.073-2.549-3.612-3.156-1.073-.43-2.796-.644-5.171-.644h-3.294V44.72h5.053zm-3.531-16.103h1.123c2.283 0 3.922.17 4.916.51 1.323.452 2.358 1.289 3.1 2.51.74 1.22 1.112 2.692 1.112 4.413 0 1.642-.343 3.03-1.026 4.166-.684 1.136-1.623 1.922-2.82 2.358-.85.308-2.373.461-4.569.461h-1.836V28.618zM149.655 37.874c0 1.878.19 3.287.567 4.22.379.936.95 1.665 1.716 2.187.767.522 1.722.783 2.867.783 1.144 0 2.097-.26 2.857-.783.758-.522 1.327-1.245 1.706-2.168.378-.924.566-2.295.566-4.118V31.51h-1.549v6.174c0 1.653-.076 2.735-.226 3.244a3.503 3.503 0 0 1-1.217 1.807c-.588.458-1.303.686-2.145.686-.844 0-1.57-.235-2.18-.706-.608-.47-1.02-1.108-1.237-1.92-.144-.567-.216-1.604-.216-3.11v-6.175h-1.508v6.365zM173.403 32.61c-.504-.429-1.117-.776-1.84-1.043a6.44 6.44 0 0 0-2.251-.4c-1.237 0-2.357.307-3.358.923-1.001.615-1.787 1.472-2.36 2.568a7.605 7.605 0 0 0-.857 3.565c0 1.903.611 3.52 1.834 4.848 1.224 1.327 2.764 1.991 4.62 1.991 1.21 0 2.288-.261 3.233-.785a5.918 5.918 0 0 0 2.264-2.206l-1.2-.887c-1.092 1.545-2.5 2.316-4.226 2.316-.941 0-1.79-.234-2.55-.704-.757-.47-1.354-1.129-1.79-1.98a5.883 5.883 0 0 1-.652-2.718c0-1.48.473-2.74 1.417-3.776.946-1.035 2.133-1.553 3.564-1.553 1.79 0 3.203.773 4.237 2.316l1.199-.837c-.352-.662-.78-1.209-1.284-1.638z"
       stroke="#000"
       stroke-width=".61448709"
       id="path93" />
    <path
       d="M211.044 33.39c-1.08 1.344-1.622 2.931-1.622 4.762 0 1.845.57 3.46 1.714 4.84 1.143 1.382 2.615 2.072 4.418 2.072 1.795 0 3.265-.69 4.408-2.071 1.142-1.381 1.713-2.995 1.713-4.841 0-1.84-.54-3.431-1.622-4.775-1.19-1.474-2.69-2.21-4.5-2.21-1.816 0-3.32.74-4.509 2.222zm7.737 1.003c.905 1.045 1.358 2.309 1.358 3.792a5.9 5.9 0 0 1-.617 2.674c-.41.827-.967 1.465-1.667 1.915a4.19 4.19 0 0 1-2.307.674 4.188 4.188 0 0 1-2.306-.674c-.7-.45-1.256-1.088-1.668-1.915a5.929 5.929 0 0 1-.618-2.674c0-1.482.451-2.747 1.353-3.792.902-1.045 1.982-1.568 3.238-1.568 1.252 0 2.328.523 3.234 1.568z"
       fill="#090"
       stroke="#090"
       stroke-width=".61448709"
       id="path95" />
    <path
       d="M177.572 44.721h1.508v-5.933l5.891 5.933h2.154l-6.836-6.907 6.452-6.306h-2.214l-5.447 5.323V26.41h-1.508v18.31z"
       stroke="#000"
       stroke-width=".61448709"
       id="path97" />
    <path
       d="M202.803 27.23a8.983 8.983 0 0 0-3.798-.82c-1.662 0-3.151.412-4.468 1.233s-2.353 1.961-3.108 3.418c-.756 1.457-1.133 3.032-1.133 4.725 0 2.274.658 4.278 1.976 6.01 1.712 2.251 4.037 3.376 6.972 3.376 2.417 0 4.349-.812 5.791-2.436 1.443-1.625 2.17-3.82 2.186-6.581h-6.84v1.726h5.06c-.21 1.654-.879 2.998-2.01 4.035-1.13 1.039-2.512 1.557-4.146 1.557a6.968 6.968 0 0 1-3.714-1.04c-1.131-.691-2.016-1.644-2.656-2.854a8.083 8.083 0 0 1-.96-3.833c0-1.313.308-2.558.927-3.736a7.079 7.079 0 0 1 2.617-2.8c1.126-.688 2.312-1.033 3.557-1.033 1 0 2.027.253 3.082.76 1.054.505 2.024 1.248 2.909 2.228l1.23-1.311c-1.13-1.203-2.288-2.079-3.474-2.625z"
       fill="#090"
       stroke="#090"
       stroke-width=".61448709"
       id="path99" />
    <path
       d="M81.035 44.721c1.98 0 3.518-.323 4.617-.971 1.097-.647 1.99-1.651 2.677-3.01.687-1.36 1.03-2.934 1.03-4.722 0-2.073-.433-3.858-1.3-5.355-.867-1.498-2.071-2.549-3.611-3.156-1.073-.43-2.796-.644-5.171-.644h-3.295V44.72h5.053zm-3.531-16.103h1.124c2.282 0 3.921.17 4.915.51 1.325.452 2.358 1.289 3.1 2.51.742 1.22 1.112 2.692 1.112 4.413 0 1.642-.342 3.03-1.026 4.166-.683 1.136-1.624 1.922-2.819 2.358-.85.308-2.373.461-4.57.461h-1.836V28.618z"
       stroke="#000"
       stroke-width=".61448709"
       id="path101" />
  </g>
</svg>
