<svg clip-rule="evenodd" fill-rule="evenodd" height="696" image-rendering="optimizeQuality" shape-rendering="geometricPrecision" text-rendering="geometricPrecision" viewBox="-0.01 -0.01 7110.9800000000005 1980.03" width="2500" xmlns="http://www.w3.org/2000/svg"><path d="M1329.67 490.18H910.49l-245.66 585.08-245.66-585.08H-.01c152.27 362.65 304.48 725.36 456.81 1087.97l-168.74 401.87h419.18c209.62-499.25 414.16-993.83 622.42-1489.83zM6659.85 3.11h451.12l-407.94 985.71h-451.12zM6362.8 1083.88c140.46 0 254.34 113.87 254.34 254.34s-113.87 254.34-254.34 254.34-254.34-113.87-254.34-254.34c0-140.46 113.87-254.34 254.34-254.34zm-887-623.29c315.88 0 571.94 256.07 571.94 571.94 0 315.88-256.07 571.94-571.94 571.94-315.88 0-571.94-256.07-571.94-571.94 0-315.88 256.07-571.94 571.94-571.94zm0 348.62c123.34 0 223.33 99.99 223.33 223.33s-99.99 223.33-223.33 223.33-223.33-99.99-223.33-223.33 99.99-223.33 223.33-223.33zM4247.93 460.59c315.88 0 571.94 256.07 571.94 571.94 0 315.88-256.07 571.94-571.94 571.94-315.88 0-571.94-256.07-571.94-571.94 0-315.88 256.07-571.94 571.94-571.94zm0 348.62c123.34 0 223.33 99.99 223.33 223.33s-99.99 223.33-223.33 223.33-223.33-99.99-223.33-223.33 99.99-223.33 223.33-223.33zM2559.39 0h378.21v587.98s66.17-127.39 284.75-127.39 358.77 96.17 361.57 489.96v642.01h-378.21V950.55c0-74.04-60.02-134.06-134.06-134.06-75.75 0-135.89 62.28-134 137.86l-.06 638.21h-378.21V-.01zM2044.4 490.18h378.21v1102.39H2044.4v-103.92c-84.7 72.68-190.25 115.84-304.71 115.84-278.92 0-505.03-256.07-505.03-571.94 0-315.88 226.11-571.94 505.03-571.94 114.46 0 220.02 43.15 304.71 115.84V490.2zm-213.03 319.03c123.34 0 223.33 99.99 223.33 223.33s-99.99 223.33-223.33 223.33-223.33-99.99-223.33-223.33 99.99-223.33 223.33-223.33z" fill="#6101d1"/></svg>